<svg id="Layer_1" data-name="Layer 1" xmlns="http://www.w3.org/2000/svg" viewBox="0 0 44.08 40.03"><path d="M846.48,145.62a2,2,0,0,1-.66-.49c-1.61,2-4.92,5.45-9.05,5.83-5.89.54-12.89-1.31-12.89-1.31s-.51-.45.25-.78c0,0,16.18-5.23,21.26-5.63a2,2,0,0,1,1.63-1.45c-1.17-1.46-4.77-6.46-3.8-11.36,1.15-5.81,4.92-12,4.92-12s.57-.36.66.47c0,0,.55,19.79-.9,22.92a2,2,0,0,1,1.41,1.42c1.38-.08,8.12-.25,11.69,3.68,4.06,4.37,6.79,11.06,6.79,11.06s-.06.66-.78.28c0,0-14.94-10.4-17.66-13.91a2,2,0,0,1-1.16,1.3" transform="translate(-823.71 -118.35)" fill="#272735"/></svg>