<svg id="Layer_1" data-name="Layer 1" xmlns="http://www.w3.org/2000/svg" viewBox="0 0 67.38 61.19"><path d="M948,132.83a3.18,3.18,0,0,1-1-.74c-2.47,3.09-7.53,8.33-13.85,8.91-9,.82-19.71-2-19.71-2s-.77-.69.39-1.2c0,0,24.73-8,32.5-8.6a3.1,3.1,0,0,1,2.49-2.22c-1.78-2.23-7.29-9.88-5.81-17.37,1.76-8.89,7.53-18.33,7.53-18.33s.87-.55,1,.71c0,0,.85,30.26-1.37,35.05a3.13,3.13,0,0,1,2.16,2.17c2.1-.12,12.4-.38,17.87,5.62,6.2,6.68,10.38,16.92,10.38,16.92s-.08,1-1.19.42c0,0-22.85-15.89-27-21.27a3.1,3.1,0,0,1-1.77,2" transform="translate(-913.2 -91.16)" fill="#1f1f2d"/></svg>