<?xml version="1.0" encoding="utf-8"?>
<!-- Generator: Adobe Illustrator 24.2.0, SVG Export Plug-In . SVG Version: 6.00 Build 0)  -->
<svg version="1.1" id="Layer_1" xmlns="http://www.w3.org/2000/svg" xmlns:xlink="http://www.w3.org/1999/xlink" x="0px" y="0px"
	 viewBox="0 0 2128.6 372.5" style="enable-background:new 0 0 2128.6 372.5;" xml:space="preserve">
<style type="text/css">
	.st0{fill:#3D2E60;}
	.st1{fill:none;}
</style>
<path class="st0" d="M1130.6,130.2h-2.6c-0.7-4.6-4.7-8-9.4-8h-7.8c0.2-0.8,0.3-1.7,0.3-2.5c0-5.2-4.3-9.5-9.5-9.5h-29
	c-5.2,0-9.5,4.3-9.5,9.5c0,0.8,0.1,1.7,0.3,2.5h-21.8c-4.7,0-8.6,3.4-9.4,8h-11.6c-5.2,0-9.5,4.3-9.5,9.5s4.3,9.5,9.5,9.5h110
	c5.2,0,9.5-4.3,9.5-9.5S1135.9,130.2,1130.6,130.2L1130.6,130.2z"/>
<path class="st0" d="M1182.4,108.4h-1.4c-0.4-2.5-2.6-4.3-5.1-4.3h-4.3c0.8-2.7-0.8-5.6-3.6-6.3c-0.5-0.1-0.9-0.2-1.4-0.2H1151
	c-2.9,0-5.2,2.3-5.2,5.2c0,0.5,0.1,0.9,0.2,1.4h-11.9c-2.5,0-4.7,1.8-5.1,4.3h-6.3c-2.8,0-5.2,2.3-5.2,5.2c0,2.8,2.3,5.2,5.2,5.2
	c0,0,0,0,0,0h59.7c2.8,0,5.2-2.3,5.2-5.2C1187.6,110.7,1185.3,108.4,1182.4,108.4L1182.4,108.4z"/>
<path class="st0" d="M1390,116.2c-0.6-3.7-3.3-6.7-6.9-7.7c-0.1-5.2-4.3-9.3-9.5-9.3h-20c-5,0-9.2,4-9.5,9h-7.5
	c-4.7,0-8.6,3.4-9.4,8h-11.6c-5.2,0-9.5,4.3-9.5,9.5l0,0c0,5.2,4.3,9.5,9.5,9.5h74c5.2,0,9.5-4.3,9.5-9.5l0,0
	C1399.1,120.6,1395.1,116.4,1390,116.2z"/>
<path class="st0" d="M1507.6,129.2H1489c-0.7-4.4-4.4-7.8-8.9-8c0-0.2,0-0.3,0-0.5c0-5.2-4.3-9.5-9.5-9.5h-14
	c-5.2,0-9.5,4.3-9.5,9.5c0,0.2,0,0.4,0,0.6c-4.1,0.7-7.2,3.8-7.9,7.9h-5.6c-5.2,0-9.5,4.3-9.5,9.5l0,0c0,5.2,4.3,9.5,9.5,9.5h74
	c5.2,0,9.5-4.3,9.5-9.5l0,0C1517,133.5,1512.8,129.2,1507.6,129.2z"/>
<rect class="st1" width="2128.6" height="372.5"/>
</svg>
