<svg xmlns="http://www.w3.org/2000/svg" xmlns:xlink="http://www.w3.org/1999/xlink" viewBox="0 0 2129 372.46"><defs><radialGradient id="radial-gradient" cx="1429.5" cy="90.73" r="30.5" gradientUnits="userSpaceOnUse"><stop offset="0" stop-color="#b3b3b3"/><stop offset="1" stop-color="#372756"/></radialGradient></defs><g style="isolation:isolate"><g id="Layer_1" data-name="Layer 1"><path d="M1786.87,655.2H623.1c-29.49,0-53.4-25.86-53.4-57.75s23.91-57.75,53.4-57.75H1786.87c29.49,0,53.4,25.86,53.4,57.75S1816.36,655.2,1786.87,655.2Z" transform="translate(0 -403.77)" fill="#372756"/><path d="M2046.44,757H269.14c-45,0-81.56-24.62-81.56-55s36.52-55,81.56-55h1777.3c45,0,81.56,24.62,81.56,55S2091.49,757,2046.44,757Z" transform="translate(0 -403.77)" fill="#372756"/><path d="M1582.15,546.09H674.88c-23,0-41.63-24.47-41.63-54.66s18.64-54.65,41.63-54.65h907.27c23,0,41.64,24.47,41.64,54.65S1605.15,546.09,1582.15,546.09Z" transform="translate(0 -403.77)" fill="#372756"/><path d="M1543.84,453.13h-594c-15.06,0-27.26-11.05-27.26-24.68s12.2-24.68,27.26-24.68h594c15.05,0,27.26,11.05,27.26,24.68S1558.89,453.13,1543.84,453.13Z" transform="translate(0 -403.77)" fill="#372756"/><path d="M1691,723s-36.26-81-81-81h-44a62.06,62.06,0,0,0-62.06-62.06H1305.58a96,96,0,0,0-95.95,95.95V710" transform="translate(0 -403.77)" fill="#181422"/><path d="M697.2,736.85a3.23,3.23,0,0,0-2.63-1.57s-1.52-3.4-4.11-3.45a6.78,6.78,0,0,0-4,1s-.91-.36-1.21.1c0,0-2.64-.56-3.25.66,0,0-3.39-1.58-5,.73a1.19,1.19,0,0,0-.81,1.39s-2.28-.45-2.71.74a4.78,4.78,0,0,0-.26,2.2s-1.39,0-1.06,1.14,2.79,1,2.79,1,.66.58,3.27.46,3.57-.61,3.92-.41.46.77,1.57.42,1-.55,1.78-.47,3.81-.43,4.68.1,2.13,1.27,3.42.48c0,0,1.94.62,2.74-.36a1.94,1.94,0,0,0,.87-3.77Z" transform="translate(0 -403.77)" fill="#a567ff"/><rect x="740.19" y="199.97" width="49.02" height="40.89" fill="#2a2837"/><rect x="744.09" y="192.66" width="17.49" height="8.46" fill="#2a2837"/><rect x="767.69" y="192.66" width="17.49" height="8.46" fill="#2a2837"/><polygon points="744.09 192.66 746.47 187.57 759.69 187.57 761.58 192.66 744.09 192.66" fill="#2a2837"/><polygon points="767.69 192.66 770.07 187.57 783.29 187.57 785.18 192.66 767.69 192.66" fill="#2a2837"/><rect x="746.47" y="135.19" width="13.22" height="52.38" fill="#2a2837"/><rect x="770.07" y="135.19" width="13.22" height="52.38" fill="#2a2837"/><polygon points="746.47 135.19 744.5 133.22 761.17 133.22 759.69 135.19 746.47 135.19" fill="#2a2837"/><polygon points="770.08 135.19 768.11 133.22 784.78 133.22 783.3 135.19 770.08 135.19" fill="#2a2837"/><rect x="744.5" y="126.9" width="16.67" height="6.32" fill="#2a2837"/><rect x="768.11" y="126.9" width="16.67" height="6.32" fill="#2a2837"/><rect x="674.12" y="215.08" width="49.02" height="40.89" fill="#2a2837"/><rect x="728.55" y="215.08" width="28.94" height="40.89" fill="#2a2837"/><rect x="678.02" y="207.78" width="17.49" height="8.46" fill="#2a2837"/><rect x="701.62" y="207.78" width="17.49" height="8.46" fill="#2a2837"/><polygon points="678.02 207.78 680.4 202.69 693.62 202.69 695.51 207.78 678.02 207.78" fill="#2a2837"/><polygon points="701.62 207.78 704 202.69 717.22 202.69 719.11 207.78 701.62 207.78" fill="#2a2837"/><rect x="680.4" y="150.3" width="13.22" height="52.38" fill="#2a2837"/><rect x="704" y="150.3" width="13.22" height="52.38" fill="#2a2837"/><polygon points="680.4 150.31 678.43 148.33 695.1 148.33 693.62 150.31 680.4 150.31" fill="#2a2837"/><polygon points="704.01 150.31 702.04 148.33 718.71 148.33 717.23 150.31 704.01 150.31" fill="#2a2837"/><rect x="678.43" y="142.01" width="16.67" height="6.32" fill="#2a2837"/><rect x="702.04" y="142.01" width="16.67" height="6.32" fill="#2a2837"/><rect x="674.12" y="215.08" width="36.25" height="30.93" fill="#181723"/><polygon points="776.57 199.97 776.57 230.9 764.94 230.9 764.94 246.01 728.55 246.01 728.55 215.09 740.19 215.09 740.19 199.97 776.57 199.97" fill="#181723"/><path d="M1279.91,568.62l-2.7,7.93c-.51,1.5.33,3.2,1.58,3.2h5.4c1.25,0,2.09-1.7,1.58-3.2l-2.7-7.93C1282.46,566.83,1280.52,566.83,1279.91,568.62Z" transform="translate(0 -403.77)" fill="#181723"/><path d="M1281.49,584.74a.23.23,0,0,1-.23-.23V573.13a.23.23,0,1,1,.46,0v11.38A.23.23,0,0,1,1281.49,584.74Z" transform="translate(0 -403.77)" fill="#181723"/><path d="M1281.49,576.45a.21.21,0,0,1-.15-.05.24.24,0,0,1,0-.33l1.44-1.6a.24.24,0,0,1,.33,0,.22.22,0,0,1,0,.32l-1.44,1.6A.22.22,0,0,1,1281.49,576.45Z" transform="translate(0 -403.77)" fill="#181723"/><path d="M1281.49,578.57a.25.25,0,0,1-.19-.09l-1.1-1.54a.24.24,0,0,1,0-.32.23.23,0,0,1,.32,0l1.11,1.54a.24.24,0,0,1,0,.32A.23.23,0,0,1,1281.49,578.57Z" transform="translate(0 -403.77)" fill="#181723"/><g opacity="0.2" style="mix-blend-mode:multiply"><path d="M1281.44,567.66v12.12h-2.7s-2.15,0-1.58-3.21l2.7-7.94s.42-1.33,1.58-1.35Z" transform="translate(0 -403.77)" fill="#181723"/></g><path d="M1270.12,572.62l-2.36,6.92c-.45,1.31.28,2.8,1.38,2.8h4.71c1.09,0,1.82-1.49,1.38-2.8l-2.36-6.92A1.39,1.39,0,0,0,1270.12,572.62Z" transform="translate(0 -403.77)" fill="#181723"/><path d="M1271.49,586.69a.2.2,0,0,1-.2-.2v-9.94a.2.2,0,0,1,.4,0v9.94A.2.2,0,0,1,1271.49,586.69Z" transform="translate(0 -403.77)" fill="#181723"/><path d="M1271.49,579.46a.21.21,0,0,1-.13-.05.22.22,0,0,1,0-.29l1.26-1.39a.22.22,0,0,1,.29,0,.21.21,0,0,1,0,.29l-1.26,1.39A.21.21,0,0,1,1271.49,579.46Z" transform="translate(0 -403.77)" fill="#181723"/><path d="M1271.49,581.3a.18.18,0,0,1-.16-.08l-1-1.34a.2.2,0,0,1,0-.28.2.2,0,0,1,.28,0l1,1.34a.21.21,0,0,1-.05.28Z" transform="translate(0 -403.77)" fill="#181723"/><g opacity="0.2" style="mix-blend-mode:multiply"><path d="M1271.45,571.78v10.58h-2.36s-1.88,0-1.38-2.8l2.36-6.93s.37-1.16,1.38-1.18Z" transform="translate(0 -403.77)" fill="#181723"/></g><path d="M1289.4,573l-1.33,3.91c-.25.74.16,1.58.77,1.58h2.67c.61,0,1-.84.77-1.58L1291,573A.79.79,0,0,0,1289.4,573Z" transform="translate(0 -403.77)" fill="#181723"/><path d="M1290.18,580.94a.11.11,0,0,1-.12-.11v-5.61a.11.11,0,0,1,.12-.11.11.11,0,0,1,.11.11v5.61A.11.11,0,0,1,1290.18,580.94Z" transform="translate(0 -403.77)" fill="#181723"/><path d="M1290.18,576.86a.11.11,0,0,1-.08,0,.11.11,0,0,1,0-.16l.71-.78a.11.11,0,1,1,.17.15l-.71.78A.09.09,0,0,1,1290.18,576.86Z" transform="translate(0 -403.77)" fill="#181723"/><path d="M1290.18,577.91a.14.14,0,0,1-.1,0l-.54-.76a.11.11,0,0,1,0-.16.12.12,0,0,1,.16,0l.55.76a.11.11,0,0,1,0,.15Z" transform="translate(0 -403.77)" fill="#181723"/><g opacity="0.2" style="mix-blend-mode:multiply"><path d="M1290.15,572.53v6h-1.33s-1.06,0-.78-1.58l1.33-3.92s.21-.65.78-.66Z" transform="translate(0 -403.77)" fill="#181723"/></g><path d="M805.91,609.62l-2.7,7.93c-.51,1.5.33,3.2,1.58,3.2h5.4c1.25,0,2.09-1.7,1.58-3.2l-2.7-7.93C808.46,607.83,806.52,607.83,805.91,609.62Z" transform="translate(0 -403.77)" fill="#181723"/><path d="M807.49,625.74a.23.23,0,0,1-.23-.23V614.13a.23.23,0,1,1,.46,0v11.38A.23.23,0,0,1,807.49,625.74Z" transform="translate(0 -403.77)" fill="#181723"/><path d="M807.49,617.45a.21.21,0,0,1-.15-.05.24.24,0,0,1,0-.33l1.44-1.6a.24.24,0,0,1,.33,0,.22.22,0,0,1,0,.32l-1.44,1.6A.22.22,0,0,1,807.49,617.45Z" transform="translate(0 -403.77)" fill="#181723"/><path d="M807.49,619.57a.25.25,0,0,1-.19-.09l-1.1-1.54a.24.24,0,0,1,0-.32.23.23,0,0,1,.32,0l1.11,1.54a.24.24,0,0,1,0,.32A.23.23,0,0,1,807.49,619.57Z" transform="translate(0 -403.77)" fill="#181723"/><g opacity="0.2" style="mix-blend-mode:multiply"><path d="M807.44,608.66v12.12h-2.7s-2.15,0-1.58-3.21l2.7-7.94s.42-1.33,1.58-1.35Z" transform="translate(0 -403.77)" fill="#181723"/></g><path d="M795.12,611.62l-2.36,6.92c-.45,1.31.28,2.8,1.38,2.8h4.71c1.09,0,1.82-1.49,1.38-2.8l-2.36-6.92A1.39,1.39,0,0,0,795.12,611.62Z" transform="translate(0 -403.77)" fill="#181723"/><path d="M796.49,625.69a.2.2,0,0,1-.2-.2v-9.94a.2.2,0,0,1,.4,0v9.94A.2.2,0,0,1,796.49,625.69Z" transform="translate(0 -403.77)" fill="#181723"/><path d="M796.49,618.46a.21.21,0,0,1-.13-.05.22.22,0,0,1,0-.29l1.26-1.39a.22.22,0,0,1,.29,0,.21.21,0,0,1,0,.29l-1.26,1.39A.21.21,0,0,1,796.49,618.46Z" transform="translate(0 -403.77)" fill="#181723"/><path d="M796.49,620.3a.18.18,0,0,1-.16-.08l-1-1.34a.2.2,0,0,1,0-.28.2.2,0,0,1,.28,0l1,1.34a.21.21,0,0,1,0,.28Z" transform="translate(0 -403.77)" fill="#181723"/><g opacity="0.2" style="mix-blend-mode:multiply"><path d="M796.45,610.78v10.58h-2.36s-1.88,0-1.38-2.8l2.36-6.93s.37-1.16,1.38-1.18Z" transform="translate(0 -403.77)" fill="#181723"/></g><path d="M818.4,617l-1.33,3.91c-.25.74.16,1.58.77,1.58h2.67c.61,0,1-.84.77-1.58L820,617A.79.79,0,0,0,818.4,617Z" transform="translate(0 -403.77)" fill="#181723"/><path d="M819.18,624.94a.11.11,0,0,1-.12-.11v-5.61a.11.11,0,0,1,.12-.11.11.11,0,0,1,.11.11v5.61A.11.11,0,0,1,819.18,624.94Z" transform="translate(0 -403.77)" fill="#181723"/><path d="M819.18,620.86a.11.11,0,0,1-.08,0,.11.11,0,0,1,0-.16l.71-.78a.11.11,0,1,1,.17.15l-.71.78A.09.09,0,0,1,819.18,620.86Z" transform="translate(0 -403.77)" fill="#181723"/><path d="M819.18,621.91a.14.14,0,0,1-.1,0l-.54-.76a.11.11,0,0,1,0-.16.12.12,0,0,1,.16,0l.55.76a.11.11,0,0,1,0,.15Z" transform="translate(0 -403.77)" fill="#181723"/><g opacity="0.2" style="mix-blend-mode:multiply"><path d="M819.15,616.53v6h-1.33s-1.06,0-.78-1.58l1.33-3.92s.21-.65.78-.66Z" transform="translate(0 -403.77)" fill="#181723"/></g><path d="M1353.15,563.78l-2.7,7.92c-.51,1.51.33,3.21,1.58,3.21h5.4c1.25,0,2.09-1.7,1.58-3.21l-2.7-7.92C1355.7,562,1353.76,562,1353.15,563.78Z" transform="translate(0 -403.77)" fill="#181723"/><path d="M1354.73,579.89a.23.23,0,0,1-.23-.23V568.28a.23.23,0,0,1,.46,0v11.38A.23.23,0,0,1,1354.73,579.89Z" transform="translate(0 -403.77)" fill="#181723"/><path d="M1354.73,571.61a.22.22,0,0,1-.15-.06.23.23,0,0,1,0-.33l1.44-1.59a.23.23,0,1,1,.34.31l-1.44,1.59A.23.23,0,0,1,1354.73,571.61Z" transform="translate(0 -403.77)" fill="#181723"/><path d="M1354.73,573.73a.26.26,0,0,1-.19-.1l-1.1-1.53a.24.24,0,0,1,0-.33.23.23,0,0,1,.32.06l1.11,1.53a.23.23,0,0,1-.06.32A.21.21,0,0,1,1354.73,573.73Z" transform="translate(0 -403.77)" fill="#181723"/><g opacity="0.2" style="mix-blend-mode:multiply"><path d="M1354.68,562.81v12.12H1352s-2.15,0-1.58-3.21l2.7-7.94s.42-1.32,1.58-1.35Z" transform="translate(0 -403.77)" fill="#181723"/></g><path d="M1516.93,565.88l-2.7,7.93c-.51,1.5.33,3.2,1.58,3.2h5.4c1.25,0,2.09-1.7,1.58-3.2l-2.7-7.93C1519.48,564.09,1517.54,564.09,1516.93,565.88Z" transform="translate(0 -403.77)" fill="#181723"/><path d="M1518.51,582a.23.23,0,0,1-.23-.23V570.38a.23.23,0,1,1,.46,0v11.39A.23.23,0,0,1,1518.51,582Z" transform="translate(0 -403.77)" fill="#181723"/><path d="M1518.51,573.71a.2.2,0,0,1-.15-.06.22.22,0,0,1,0-.32l1.44-1.6a.24.24,0,0,1,.33,0,.22.22,0,0,1,0,.32l-1.44,1.6A.22.22,0,0,1,1518.51,573.71Z" transform="translate(0 -403.77)" fill="#181723"/><path d="M1518.51,575.83a.23.23,0,0,1-.19-.1l-1.1-1.53a.23.23,0,1,1,.37-.27l1.11,1.54a.23.23,0,0,1-.06.32A.2.2,0,0,1,1518.51,575.83Z" transform="translate(0 -403.77)" fill="#181723"/><g opacity="0.2" style="mix-blend-mode:multiply"><path d="M1518.46,564.92V577h-2.7s-2.15,0-1.58-3.21l2.7-8s.42-1.32,1.58-1.34Z" transform="translate(0 -403.77)" fill="#181723"/></g><path d="M1449.75,568l-2.36,6.91c-.44,1.32.29,2.8,1.38,2.8h4.71c1.1,0,1.83-1.48,1.38-2.8L1452.5,568A1.39,1.39,0,0,0,1449.75,568Z" transform="translate(0 -403.77)" fill="#181723"/><path d="M1451.13,582.08a.19.19,0,0,1-.2-.2v-9.94a.19.19,0,0,1,.2-.2.2.2,0,0,1,.2.2v9.94A.2.2,0,0,1,1451.13,582.08Z" transform="translate(0 -403.77)" fill="#181723"/><path d="M1451.13,574.85a.24.24,0,0,1-.14-.05.21.21,0,0,1,0-.29l1.26-1.39a.2.2,0,0,1,.29.27l-1.26,1.39A.16.16,0,0,1,1451.13,574.85Z" transform="translate(0 -403.77)" fill="#181723"/><path d="M1451.13,576.7a.2.2,0,0,1-.17-.09l-1-1.33a.2.2,0,0,1,.32-.24l1,1.34a.2.2,0,0,1,0,.28A.15.15,0,0,1,1451.13,576.7Z" transform="translate(0 -403.77)" fill="#181723"/><g opacity="0.2" style="mix-blend-mode:multiply"><path d="M1451.08,567.17v10.58h-2.36s-1.87,0-1.38-2.8l2.36-6.93s.37-1.16,1.38-1.18Z" transform="translate(0 -403.77)" fill="#181723"/></g><path d="M1508.11,569.72l-1.75,5.13c-.33,1,.21,2.08,1,2.08h3.5c.81,0,1.35-1.11,1-2.08l-1.75-5.13A1,1,0,0,0,1508.11,569.72Z" transform="translate(0 -403.77)" fill="#181723"/><path d="M1509.13,580.16a.15.15,0,0,1-.15-.15v-7.38a.15.15,0,0,1,.3,0V580A.15.15,0,0,1,1509.13,580.16Z" transform="translate(0 -403.77)" fill="#181723"/><path d="M1509.13,574.79a.13.13,0,0,1-.1,0,.15.15,0,0,1,0-.21l.93-1a.15.15,0,0,1,.21,0,.14.14,0,0,1,0,.21l-.93,1A.16.16,0,0,1,1509.13,574.79Z" transform="translate(0 -403.77)" fill="#181723"/><path d="M1509.13,576.16a.14.14,0,0,1-.12-.06l-.72-1a.14.14,0,0,1,0-.2.15.15,0,0,1,.21,0l.71,1a.16.16,0,0,1,0,.21Z" transform="translate(0 -403.77)" fill="#181723"/><g opacity="0.2" style="mix-blend-mode:multiply"><path d="M1509.1,569.09v7.85h-1.75s-1.4,0-1-2.08l1.75-5.14s.28-.86,1-.88Z" transform="translate(0 -403.77)" fill="#181723"/></g><path d="M1362.17,570.33l-1.33,3.91c-.26.74.16,1.58.77,1.58h2.66c.62,0,1-.84.78-1.58l-1.33-3.91A.79.79,0,0,0,1362.17,570.33Z" transform="translate(0 -403.77)" fill="#181723"/><path d="M1362.94,578.27a.11.11,0,0,1-.11-.11v-5.61a.11.11,0,0,1,.11-.11.11.11,0,0,1,.12.11v5.61A.11.11,0,0,1,1362.94,578.27Z" transform="translate(0 -403.77)" fill="#181723"/><path d="M1362.94,574.19a.11.11,0,0,1-.07,0,.11.11,0,0,1,0-.16l.71-.79a.12.12,0,0,1,.17.16l-.71.78A.11.11,0,0,1,1362.94,574.19Z" transform="translate(0 -403.77)" fill="#181723"/><path d="M1362.94,575.23a.11.11,0,0,1-.09,0l-.54-.76a.11.11,0,0,1,0-.16.11.11,0,0,1,.16,0l.55.75a.12.12,0,0,1,0,.16A.08.08,0,0,1,1362.94,575.23Z" transform="translate(0 -403.77)" fill="#181723"/><g opacity="0.2" style="mix-blend-mode:multiply"><path d="M1362.92,569.86v6h-1.33s-1.06,0-.78-1.58l1.33-3.92s.21-.65.78-.66Z" transform="translate(0 -403.77)" fill="#181723"/></g><path d="M1474.86,581.67l-1.33,3.91c-.25.74.16,1.57.78,1.57H1477c.62,0,1-.83.78-1.57l-1.33-3.91A.79.79,0,0,0,1474.86,581.67Z" transform="translate(0 -403.77)" fill="#181723"/><path d="M1475.64,589.61a.11.11,0,0,1-.11-.11v-5.61a.11.11,0,1,1,.22,0v5.61A.11.11,0,0,1,1475.64,589.61Z" transform="translate(0 -403.77)" fill="#181723"/><path d="M1475.64,585.53a.11.11,0,0,1-.08,0,.12.12,0,0,1,0-.16l.72-.79a.12.12,0,0,1,.16,0,.12.12,0,0,1,0,.17l-.71.78A.09.09,0,0,1,1475.64,585.53Z" transform="translate(0 -403.77)" fill="#181723"/><path d="M1475.64,586.57a.1.1,0,0,1-.09,0l-.55-.76a.12.12,0,0,1,0-.16.11.11,0,0,1,.16,0l.54.75a.11.11,0,0,1,0,.16A.1.1,0,0,1,1475.64,586.57Z" transform="translate(0 -403.77)" fill="#181723"/><g opacity="0.2" style="mix-blend-mode:multiply"><path d="M1475.62,581.19v6h-1.34s-1.06,0-.78-1.58l1.34-3.92s.2-.65.78-.66Z" transform="translate(0 -403.77)" fill="#181723"/></g><path d="M1342.12,572.45l-1.33,3.91c-.25.74.16,1.58.78,1.58h2.66c.62,0,1-.84.78-1.58l-1.33-3.91A.79.79,0,0,0,1342.12,572.45Z" transform="translate(0 -403.77)" fill="#181723"/><path d="M1342.9,580.4a.12.12,0,0,1-.12-.12v-5.61a.12.12,0,0,1,.12-.11.11.11,0,0,1,.11.11v5.61A.11.11,0,0,1,1342.9,580.4Z" transform="translate(0 -403.77)" fill="#181723"/><path d="M1342.9,576.31a.11.11,0,0,1-.08,0,.12.12,0,0,1,0-.16l.71-.78a.11.11,0,1,1,.17.15l-.71.79A.11.11,0,0,1,1342.9,576.31Z" transform="translate(0 -403.77)" fill="#181723"/><path d="M1342.9,577.36a.11.11,0,0,1-.09-.05l-.55-.76a.1.1,0,0,1,0-.15.11.11,0,0,1,.16,0l.54.76a.11.11,0,0,1,0,.16Z" transform="translate(0 -403.77)" fill="#181723"/><g opacity="0.2" style="mix-blend-mode:multiply"><path d="M1342.87,572v6h-1.33s-1.06,0-.78-1.58l1.34-3.91s.2-.66.77-.67Z" transform="translate(0 -403.77)" fill="#181723"/></g><rect x="1090.2" y="190.23" width="27.1" height="157.95" fill="#1f1f2d"/><rect x="1115.42" y="173.94" width="71.88" height="171.61" fill="#1e1e2d"/><rect x="1115.42" y="173.94" width="27.58" height="171.61" fill="#181723"/><rect x="1185.04" y="217.97" width="24.59" height="127.58" fill="#181723"/><rect x="973" y="196.87" width="35.24" height="171.61" fill="#1f1f2d"/><rect x="973" y="196.87" width="18" height="171.61" fill="#181723"/><polygon points="997.96 190.23 981.98 190.23 973 196.87 1008.24 196.87 997.96 190.23" fill="#1f1f2d"/><polygon points="1050 371.11 1014 371.11 1014 200.23 1050 181.23 1050 371.11" fill="#181723"/><polygon points="1024 207.23 974.41 264.07 1072.62 264.07 1024 207.23" fill="#1f1f2d"/><path d="M980.59,555.4s-.08,1-1.2.42c0,0-22.84-15.89-27-21.27a3.13,3.13,0,0,1-1.78,2l6.91,183.28H943.07L948,536.51a3.13,3.13,0,0,1-1-.74c-2.46,3.09-7.52,8.33-13.84,8.91-9,.82-19.71-2-19.71-2s-.77-.7.39-1.21c0,0,24.73-8,32.51-8.6a3.09,3.09,0,0,1,2.48-2.22c-1.78-2.23-7.29-9.88-5.8-17.37,1.75-8.89,7.52-18.33,7.52-18.33s.87-.55,1,.71c0,0,.84,30.26-1.37,35a3.16,3.16,0,0,1,2.17,2.17c2.09-.12,12.39-.38,17.87,5.62C976.41,545.16,980.59,555.4,980.59,555.4Z" transform="translate(0 -403.77)" fill="#181723"/><path d="M926.71,508.92s-.08,1-1.19.42c0,0-22.84-15.89-27-21.27a3.07,3.07,0,0,1-1.77,2l6.91,183.29h-14.5L894.13,490a3.13,3.13,0,0,1-1-.74c-2.46,3.09-7.52,8.33-13.84,8.91-9,.82-19.71-2-19.71-2s-.77-.69.39-1.2c0,0,24.73-8,32.5-8.6a3.11,3.11,0,0,1,2.49-2.22c-1.78-2.23-7.29-9.88-5.81-17.37,1.76-8.89,7.53-18.33,7.53-18.33s.87-.55,1,.71c0,0,.84,30.26-1.37,35.05a3.15,3.15,0,0,1,2.16,2.17c2.1-.12,12.4-.38,17.87,5.62C922.54,498.68,926.71,508.92,926.71,508.92Z" transform="translate(0 -403.77)" fill="#1f1f2d"/><path d="M867,561.27s0,.68-.78.27c0,0-15-10.39-17.65-13.91a2,2,0,0,1-1.16,1.33l4.52,119.94h-9.48l3.23-120a2.11,2.11,0,0,1-.63-.48c-1.61,2-4.92,5.45-9.06,5.83-5.9.53-12.9-1.34-12.9-1.34s-.5-.45.26-.79c0,0,16.18-5.25,21.27-5.62a2,2,0,0,1,1.62-1.46c-1.16-1.45-4.76-6.46-3.79-11.36,1.15-5.82,4.92-12,4.92-12s.57-.35.68.47c0,0,.55,19.8-.9,22.94a2,2,0,0,1,1.42,1.41c1.37-.07,8.11-.24,11.7,3.68C864.27,554.57,867,561.27,867,561.27Z" transform="translate(0 -403.77)" fill="#181723"/><path d="M1255,594s-29.88,17.72-74.45,77.76-146.37,50.65-212.79,0c-54.57-41.62-133.23-57.76-229-40.82s-115.94,80.52-115.94,80.52L717,762.53,1078.58,749l96-1.5L1195,707.63,1255,683Z" transform="translate(0 -403.77)" fill="#181422"/><g opacity="0.8"><path d="M1543.34,690.1c-.77-4.87-.72-7.92-2.22-12.61-.39-1.22-1.16-3-1.61-4.16-.11-.28-.56-1.47-.59-1.57-.12-.26-.4-.85-.51-1.1-1-2.22-2.08-4.36-3.14-6.55-2.23-4.64-5-9.17-7.28-13.8-.85-1.76-1.74-3.49-2.74-5.16-.4-.67-.84-1.32-1.27-2l0,0c-.3-.27-.57-.57-.87-.84a10,10,0,0,1-3.14-8H1236v96.85h292l18-36.22A8.48,8.48,0,0,1,1543.34,690.1Z" transform="translate(0 -403.77)" fill="#181723"/></g><rect x="1207.11" y="172.94" width="47.89" height="174.24" fill="#1e1e2d"/><rect x="1207.11" y="172.94" width="20.89" height="174.24" fill="#181723"/><path d="M.26,557.63c55.69-4.88,165.61-6.5,284.4,49.26C336,631,359.15,679.37,428,705c55.84,20.78,109.83,34,156.78,15.27,10.28-4.11,35.18-15.86,60.95-7.13,14,4.72,16.19,13.09,28.17,19.33,27.34,14.24,60.92-2.25,80.71-9.9,59.44-23,114.3-13.6,143.88-10.8,50.63,4.78,53.65,17.41,90.19,20.69,50.87,4.57,65.55-27.35,163.64-59.79,32.79-10.84,49.53-16.25,66-15.55,49.83,2.13,71.66,35.45,116.57,56.95,12.54,6,78.18,31.18,147.94,12.63,39.26-10.45,60.43-29.83,101.51-25,8.56,1,22.68,7,51.13,17.81,32.42,12.28,55.92,22.17,57.82,23,56.27,23.4,156.71-11.22,234.65-35.2,46.6-14.33,114.81-34.06,200.65-54.24V776.23H.26Z" transform="translate(0 -403.77)" fill="#181422"/><path d="M1926.87,688.08c-77.94,24-178.38,58.6-234.65,35.2a494.43,494.43,0,0,0-56.82-26c-28.45-10.77-43.57-13.82-52.13-14.82-41.08-4.79-62.25,14.59-101.51,25-69.76,18.56-134.4-9.61-146.94-15.62-44.91-21.5-66.74-36.82-116.57-38.95-16.45-.71-33.19,4.7-66,15.55C1054.18,701,1039.5,714.87,988.63,710.3c-36.54-3.28-39.56-15.91-90.19-20.7-29.58-2.79-84.44-12.18-143.88,10.81-19.79,7.65-53.37,30.14-80.71,15.9-12-6.24-14.22-14.61-28.17-19.34-25.77-8.72-50.67,3-60.95,7.14-47,18.76-100.94,5.51-156.78-15.28C359.15,663.23,333.36,615.11,282,591,163.21,535.24,55.68,552.12,0,557l.26.63c55.69-4.88,165.61-6.5,284.4,49.26C336,631,359.15,679.37,428,705c55.84,20.78,109.83,34,156.78,15.27,10.28-4.11,35.18-15.86,60.95-7.13,14,4.72,16.19,13.09,28.17,19.33,27.34,14.24,60.92-2.25,80.71-9.9,59.44-23,114.3-13.6,143.88-10.8,50.63,4.78,53.65,17.41,90.19,20.69,50.87,4.57,65.55-27.35,163.64-59.79,32.79-10.84,49.53-16.25,66-15.55,49.83,2.13,71.66,35.45,116.57,56.95,12.54,6,78.18,31.18,147.94,12.63,39.26-10.45,60.43-29.83,101.51-25,8.56,1,22.68,7,51.13,17.81,32.42,12.28,55.92,22.17,57.82,23,56.27,23.4,156.71-11.22,234.65-35.2,46.6-14.33,114.81-34.06,200.65-54.24l.48,0C2046,664,1973.47,673.74,1926.87,688.08Z" transform="translate(0 -403.77)" fill="#1c1828"/><rect x="991.03" y="264.14" width="66.5" height="61.18" fill="#1f1f2d"/><rect x="1057.53" y="264.23" width="77.47" height="61.09" fill="#181422"/><rect x="1080.5" y="285.46" width="6.92" height="7.58" fill="#baa3ef"/><rect x="1088.08" y="285.46" width="6.92" height="7.58" fill="#baa3ef"/><rect x="1080.5" y="277.22" width="6.92" height="7.58" fill="#baa3ef"/><rect x="1088.08" y="277.22" width="6.92" height="7.58" fill="#baa3ef"/><rect x="1104.3" y="285.46" width="6.92" height="7.57" fill="#baa3ef"/><rect x="1111.88" y="285.46" width="6.92" height="7.57" fill="#baa3ef"/><rect x="1104.3" y="277.23" width="6.92" height="7.57" fill="#baa3ef"/><rect x="1111.88" y="277.23" width="6.92" height="7.57" fill="#baa3ef"/><polygon points="801.38 282.12 798.88 280.76 798.88 257.94 801.38 257.94 801.38 282.12" fill="#51337b"/><polygon points="801.38 282.12 803.88 280.76 803.88 257.94 801.38 257.94 801.38 282.12" fill="#baa3ef"/><polygon points="763.1 240.42 762.16 241.96 788.92 272.74 829.16 272.74 829.16 271.02 800.99 240.42 763.1 240.42" fill="#a567ff"/><polygon points="763.1 240.42 800.56 240.42 829.16 271.02 789.67 271.02 763.1 240.42" fill="#1f1f2d"/><polygon points="781.92 248.49 772.62 248.49 767.29 242.35 776.5 242.35 781.92 248.49" fill="#baa3ef"/><polygon points="797.01 248.49 783.18 248.49 777.75 242.35 791.57 242.35 797.01 248.49" fill="#baa3ef"/><polygon points="805.97 248.49 798.27 248.49 792.83 242.35 800.32 242.35 805.97 248.49" fill="#baa3ef"/><polygon points="807.55 260.36 793.67 260.36 784.01 249.44 797.86 249.44 807.55 260.36" fill="#baa3ef"/><polygon points="816.9 260.36 808.81 260.36 799.12 249.44 806.84 249.44 816.9 260.36" fill="#baa3ef"/><path d="M820.31,665.17l-.09-.09-.87-1-.32-.35-9.74-10.57-.88-1L801,644.19H763.1l6.72,7.74.28.33.83,1,.73.83,8.75,10.09.82,1,8.44,9.71h39.49Zm-37.81-.09-.82-1-8.88-10.21-.61-.71-.82-1h0l-.52-.61-5.62-6.47h35.52l6.52,7.08.87,1,10.06,10.92.87,1,8,8.72h-37Z" transform="translate(0 -403.77)" fill="#2e2d3a"/><polygon points="824.93 269.08 816.56 269.08 809.65 261.31 817.77 261.31 824.93 269.08" fill="#baa3ef"/><polygon points="815.29 269.08 801.39 269.08 794.51 261.31 808.4 261.31 815.29 269.08" fill="#baa3ef"/><polygon points="792.41 260.36 782.92 260.36 773.44 249.44 782.75 249.44 792.41 260.36" fill="#baa3ef"/><polygon points="800.13 269.08 790.5 269.08 783.75 261.31 793.26 261.31 800.13 269.08" fill="#baa3ef"/><polygon points="855.36 286.12 852.86 284.76 852.86 261.94 855.36 261.94 855.36 286.12" fill="#51337b"/><polygon points="855.36 286.12 857.86 284.76 857.86 261.94 855.36 261.94 855.36 286.12" fill="#baa3ef"/><polygon points="817.07 244.42 816.14 245.96 842.9 276.74 883.14 276.74 883.14 275.02 854.97 244.42 817.07 244.42" fill="#a567ff"/><polygon points="817.07 244.42 854.53 244.42 883.14 275.02 843.64 275.02 817.07 244.42" fill="#1f1f2d"/><polygon points="835.9 252.49 826.6 252.49 821.27 246.35 830.47 246.35 835.9 252.49" fill="#baa3ef"/><polygon points="850.99 252.49 837.16 252.49 831.73 246.35 845.54 246.35 850.99 252.49" fill="#baa3ef"/><polygon points="859.95 252.49 852.25 252.49 846.8 246.35 854.29 246.35 859.95 252.49" fill="#baa3ef"/><polygon points="861.53 264.36 847.65 264.36 837.99 253.44 851.83 253.44 861.53 264.36" fill="#baa3ef"/><polygon points="870.87 264.36 862.79 264.36 853.09 253.44 860.82 253.44 870.87 264.36" fill="#baa3ef"/><path d="M874.28,669.17l-.08-.09-.87-1-.33-.35-9.74-10.57-.87-1L855,648.19h-37.9l6.73,7.74.28.33.82,1,.73.83,8.75,10.09.83,1,8.43,9.71h39.5Zm-37.81-.09-.82-1-8.87-10.21-.62-.71-.81-1h0l-.52-.61-5.63-6.47h35.52l6.52,7.08.88,1,10,10.92.87,1,8,8.72h-37Z" transform="translate(0 -403.77)" fill="#2e2d3a"/><polygon points="878.9 273.08 870.53 273.08 863.63 265.31 871.75 265.31 878.9 273.08" fill="#baa3ef"/><polygon points="869.26 273.08 855.36 273.08 848.49 265.31 862.37 265.31 869.26 273.08" fill="#baa3ef"/><polygon points="846.39 264.36 836.9 264.36 827.41 253.44 836.73 253.44 846.39 264.36" fill="#baa3ef"/><polygon points="854.11 273.08 844.48 273.08 837.72 265.31 847.23 265.31 854.11 273.08" fill="#baa3ef"/><path d="M1622.62,642.71l-13.75,40.34c-2.61,7.66,1.65,16.31,8,16.31h27.49c6.38,0,10.64-8.65,8-16.31l-13.75-40.34C1635.57,633.59,1625.73,633.59,1622.62,642.71Z" transform="translate(0 -403.77)" fill="#a567ff"/><path d="M1630.65,724.74a1.17,1.17,0,0,1-1.18-1.17v-58a1.18,1.18,0,1,1,2.35,0v58A1.17,1.17,0,0,1,1630.65,724.74Z" transform="translate(0 -403.77)" fill="#1f1f2d"/><path d="M1630.65,682.57a1.14,1.14,0,0,1-.79-.31,1.16,1.16,0,0,1-.08-1.65l7.34-8.13a1.17,1.17,0,0,1,1.65-.08,1.18,1.18,0,0,1,.09,1.66l-7.34,8.12A1.17,1.17,0,0,1,1630.65,682.57Z" transform="translate(0 -403.77)" fill="#1f1f2d"/><path d="M1630.65,693.34a1.14,1.14,0,0,1-1-.48l-5.63-7.81a1.17,1.17,0,1,1,1.9-1.37l5.63,7.81a1.17,1.17,0,0,1-.95,1.85Z" transform="translate(0 -403.77)" fill="#1f1f2d"/><path d="M650.93,631.05,632.52,685.1C629,695.36,634.73,707,643.27,707H680.1c8.55,0,14.26-11.59,10.76-21.85l-18.42-54.05C668.28,618.83,655.1,618.83,650.93,631.05Z" transform="translate(0 -403.77)" fill="#a567ff"/><g opacity="0.2" style="mix-blend-mode:multiply"><path d="M661.69,624.46V707H643.27s-14.63,0-10.75-21.85l18.41-54.05s2.87-9,10.76-9.16Z" transform="translate(0 -403.77)" fill="#51337b"/></g><path d="M661.69,741a1.57,1.57,0,0,1-1.57-1.57V661.74a1.57,1.57,0,1,1,3.14,0v77.65A1.57,1.57,0,0,1,661.69,741Z" transform="translate(0 -403.77)" fill="#1f1f2d"/><path d="M661.69,684.45a1.55,1.55,0,0,1-1.05-.4,1.57,1.57,0,0,1-.12-2.22L670.36,671a1.57,1.57,0,1,1,2.33,2.1l-9.84,10.88A1.53,1.53,0,0,1,661.69,684.45Z" transform="translate(0 -403.77)" fill="#1f1f2d"/><path d="M661.69,698.89a1.56,1.56,0,0,1-1.28-.65l-7.53-10.46a1.57,1.57,0,1,1,2.55-1.84L663,696.41a1.56,1.56,0,0,1-1.27,2.48Z" transform="translate(0 -403.77)" fill="#1f1f2d"/><path d="M681.31,676.27l-11.22,32.92c-2.12,6.25,1.35,13.31,6.56,13.31h22.43c5.2,0,8.68-7.06,6.55-13.31l-11.22-32.92C691.88,668.83,683.85,668.83,681.31,676.27Z" transform="translate(0 -403.77)" fill="#a567ff"/><path d="M687.86,743.21a1,1,0,0,1-1-1V695a1,1,0,0,1,1.92,0v47.28A1,1,0,0,1,687.86,743.21Z" transform="translate(0 -403.77)" fill="#1f1f2d"/><path d="M687.86,708.79a.95.95,0,0,1-.71-1.59l6-6.63a1,1,0,0,1,1.42,1.28l-6,6.63A1,1,0,0,1,687.86,708.79Z" transform="translate(0 -403.77)" fill="#1f1f2d"/><path d="M687.86,717.59a1,1,0,0,1-.78-.4l-4.58-6.37a1,1,0,1,1,1.55-1.12l4.59,6.37a1,1,0,0,1-.22,1.34A1,1,0,0,1,687.86,717.59Z" transform="translate(0 -403.77)" fill="#1f1f2d"/><path d="M1170.4,620.82,1162,645.38c-1.59,4.66,1,9.92,4.88,9.92h16.74c3.88,0,6.48-5.26,4.89-9.92l-8.37-24.56C1178.28,615.27,1172.29,615.27,1170.4,620.82Z" transform="translate(0 -403.77)" fill="#181422"/><path d="M1175.28,670.76a.71.71,0,0,1-.71-.72V634.76a.72.72,0,0,1,1.43,0V670A.72.72,0,0,1,1175.28,670.76Z" transform="translate(0 -403.77)" fill="#181422"/><path d="M1175.28,645.08a.74.74,0,0,1-.48-.18.72.72,0,0,1,0-1l4.47-4.95a.72.72,0,1,1,1.06,1l-4.47,5A.72.72,0,0,1,1175.28,645.08Z" transform="translate(0 -403.77)" fill="#181422"/><path d="M1175.28,651.64a.72.72,0,0,1-.58-.29l-3.42-4.76a.71.71,0,0,1,.16-1,.72.72,0,0,1,1,.16l3.42,4.75a.71.71,0,0,1-.58,1.13Z" transform="translate(0 -403.77)" fill="#181422"/><path d="M1149.17,639l-5.32,15.6c-1,3,.64,6.31,3.11,6.31h10.63c2.47,0,4.12-3.35,3.11-6.31l-5.32-15.6C1154.18,635.5,1150.37,635.5,1149.17,639Z" transform="translate(0 -403.77)" fill="#181422"/><path d="M1152.28,670.76a.47.47,0,0,1-.46-.46V647.89a.47.47,0,0,1,.46-.46.46.46,0,0,1,.45.46V670.3A.46.46,0,0,1,1152.28,670.76Z" transform="translate(0 -403.77)" fill="#181422"/><path d="M1152.28,654.44a.51.51,0,0,1-.31-.11.46.46,0,0,1,0-.64l2.84-3.15a.46.46,0,0,1,.64,0,.45.45,0,0,1,0,.64l-2.84,3.14A.44.44,0,0,1,1152.28,654.44Z" transform="translate(0 -403.77)" fill="#181422"/><path d="M1152.28,658.61a.44.44,0,0,1-.37-.19l-2.18-3a.46.46,0,0,1,.74-.53l2.17,3a.46.46,0,0,1-.1.64A.5.5,0,0,1,1152.28,658.61Z" transform="translate(0 -403.77)" fill="#181422"/><path d="M1242.46,624.75l-6.54,19.18c-1.24,3.64.79,7.76,3.82,7.76h13.07c3,0,5.06-4.12,3.82-7.76l-6.54-19.18C1248.62,620.41,1243.94,620.41,1242.46,624.75Z" transform="translate(0 -403.77)" fill="#181422"/><path d="M1246.28,663.76a.56.56,0,0,1-.56-.56V635.64a.56.56,0,0,1,1.11,0V663.2A.56.56,0,0,1,1246.28,663.76Z" transform="translate(0 -403.77)" fill="#181422"/><path d="M1246.28,643.7a.59.59,0,0,1-.38-.14.57.57,0,0,1,0-.79l3.49-3.86a.56.56,0,0,1,.83.75l-3.49,3.86A.55.55,0,0,1,1246.28,643.7Z" transform="translate(0 -403.77)" fill="#181422"/><path d="M1246.28,648.83a.56.56,0,0,1-.46-.23l-2.67-3.72a.56.56,0,0,1,.13-.78.55.55,0,0,1,.77.13l2.68,3.71a.57.57,0,0,1-.45.89Z" transform="translate(0 -403.77)" fill="#181422"/><circle cx="1209.63" cy="130.51" r="1.46" fill="#baa3ef"/><circle cx="1276.5" cy="50.02" r="1.46" fill="#baa3ef"/><circle cx="1565.93" cy="77.46" r="2.92" fill="#baa3ef"/><circle cx="848.67" cy="77.53" r="2.92" fill="#baa3ef"/><circle cx="1129.03" cy="44.55" r="2.92" fill="#baa3ef"/><circle cx="1035.95" cy="173.94" r="2.92" fill="#baa3ef"/><circle cx="947.62" cy="73.15" r="1.46" fill="#baa3ef"/><circle cx="717.37" cy="80.39" r="1.46" fill="#baa3ef"/><circle cx="632.88" cy="190.12" r="1.46" fill="#baa3ef"/><g opacity="0.2" style="mix-blend-mode:multiply"><path d="M688.39,672.26V722.5H676.7s-9.29,0-6.83-13.31l11.69-32.92s1.82-5.49,6.83-5.58Z" transform="translate(0 -403.77)" fill="#51337b"/></g><g opacity="0.2" style="mix-blend-mode:multiply"><path d="M1630.74,637.79v61.57h-13.49s-10.73,0-7.88-16.31l13.49-40.34s2.1-6.74,7.88-6.84Z" transform="translate(0 -403.77)" fill="#51337b"/></g><path d="M1644.79,678l-8.47,24.86c-1.61,4.72,1,10,4.94,10h16.94c3.93,0,6.56-5.33,5-10L1654.68,678C1652.77,672.35,1646.7,672.35,1644.79,678Z" transform="translate(0 -403.77)" fill="#a567ff"/><path d="M1649.73,728.52a.72.72,0,0,1-.72-.72V692.09a.73.73,0,1,1,1.45,0V727.8A.73.73,0,0,1,1649.73,728.52Z" transform="translate(0 -403.77)" fill="#1f1f2d"/><path d="M1649.73,702.53a.7.7,0,0,1-.48-.19.72.72,0,0,1,0-1l4.52-5a.72.72,0,0,1,1.07,1l-4.52,5A.71.71,0,0,1,1649.73,702.53Z" transform="translate(0 -403.77)" fill="#1f1f2d"/><path d="M1649.73,709.17a.7.7,0,0,1-.58-.3l-3.47-4.81a.72.72,0,0,1,1.17-.85l3.47,4.82a.73.73,0,0,1-.16,1A.75.75,0,0,1,1649.73,709.17Z" transform="translate(0 -403.77)" fill="#1f1f2d"/><g opacity="0.2" style="mix-blend-mode:multiply"><path d="M1649.58,674.94v38h-8.48s-6.75,0-5-10.07l8.49-24.91s1.32-4.16,4.95-4.23Z" transform="translate(0 -403.77)" fill="#51337b"/></g><path d="M1525.48,678.22l-5.2,15.25c-1,2.89.63,6.16,3,6.16h10.38c2.41,0,4-3.27,3-6.16l-5.2-15.25C1530.37,674.77,1526.65,674.77,1525.48,678.22Z" transform="translate(0 -403.77)" fill="#a567ff"/><path d="M1528.51,709.22a.44.44,0,0,1-.44-.44v-21.9a.43.43,0,0,1,.44-.44.44.44,0,0,1,.44.44v21.9A.44.44,0,0,1,1528.51,709.22Z" transform="translate(0 -403.77)" fill="#1f1f2d"/><path d="M1528.51,693.28a.43.43,0,0,1-.3-.11.45.45,0,0,1,0-.63l2.78-3.07a.44.44,0,1,1,.65.6l-2.77,3.07A.47.47,0,0,1,1528.51,693.28Z" transform="translate(0 -403.77)" fill="#1f1f2d"/><path d="M1528.51,697.36a.45.45,0,0,1-.36-.19l-2.12-2.95a.44.44,0,1,1,.71-.52l2.13,2.95a.45.45,0,0,1-.1.62A.43.43,0,0,1,1528.51,697.36Z" transform="translate(0 -403.77)" fill="#1f1f2d"/><g opacity="0.2" style="mix-blend-mode:multiply"><path d="M1528.42,676.36v23.32h-5.21s-4.13,0-3-6.18l5.21-15.27s.81-2.55,3-2.59Z" transform="translate(0 -403.77)" fill="#51337b"/></g><path d="M987.85,718.57a5.91,5.91,0,0,1-5.9,5.91,6.84,6.84,0,0,1-.91-.07A9.93,9.93,0,0,1,967.82,727,11.71,11.71,0,0,1,952.88,724a5.91,5.91,0,1,1-2.45-11.28,5.68,5.68,0,0,1,.72.05,11.71,11.71,0,0,1,19.65-3.81,9.56,9.56,0,0,1,2.22-.25,9.9,9.9,0,0,1,8,4.08,6.84,6.84,0,0,1,.91-.07A5.9,5.9,0,0,1,987.85,718.57Z" transform="translate(0 -403.77)" fill="#51337b"/><path d="M614.63,733.58a4.68,4.68,0,0,0,4.67,4.68,4.4,4.4,0,0,0,.73-.06,7.84,7.84,0,0,0,10.47,2.07,9.27,9.27,0,0,0,11.84-2.43,4.68,4.68,0,1,0,1.94-8.93,5.49,5.49,0,0,0-.58,0,9.27,9.27,0,0,0-15.56-3,7.37,7.37,0,0,0-1.76-.2A7.83,7.83,0,0,0,620,729a5.84,5.84,0,0,0-.73-.05A4.67,4.67,0,0,0,614.63,733.58Z" transform="translate(0 -403.77)" fill="#51337b"/><path d="M1641.39,722.78a5,5,0,0,1-5,5,4.49,4.49,0,0,1-.64,0,7.31,7.31,0,0,1-5.35,2.33,7.68,7.68,0,0,1-1.93-.25,9,9,0,0,1-12.07-.89,6.38,6.38,0,0,1-1.25.13,6.3,6.3,0,0,1-5.33-2.94h-.16a3.35,3.35,0,0,1,0-6.7h.16a6.3,6.3,0,0,1,5.33-2.94,6.39,6.39,0,0,1,1.25.12,9,9,0,0,1,12.07-.88,7.29,7.29,0,0,1,7.28,2.08,4.49,4.49,0,0,1,.64,0A5,5,0,0,1,1641.39,722.78Z" transform="translate(0 -403.77)" fill="#a567ff"/><path d="M1641.39,722.78a5,5,0,0,1-5,5,4.49,4.49,0,0,1-.64,0,7.31,7.31,0,0,1-5.35,2.33,7.68,7.68,0,0,1-1.93-.25,9,9,0,0,1-12.07-.89,6.38,6.38,0,0,1-1.25.13,6.3,6.3,0,0,1-5.33-2.94h-.16a3.35,3.35,0,0,1,0-6.7h.16a6.3,6.3,0,0,1,5.33-2.94,6.39,6.39,0,0,1,1.25.12,9,9,0,0,1,12.07-.88,7.29,7.29,0,0,1,7.28,2.08,4.49,4.49,0,0,1,.64,0A5,5,0,0,1,1641.39,722.78Z" transform="translate(0 -403.77)" fill="#51337b"/><path d="M1638.25,731.18a3.69,3.69,0,0,0,3.69,3.69l.48,0a5.34,5.34,0,0,0,3.94,1.72,5.05,5.05,0,0,0,1.41-.19,6.61,6.61,0,0,0,8.9-.65,4.73,4.73,0,0,0,.93.1,4.63,4.63,0,0,0,3.92-2.17h.12a2.47,2.47,0,0,0,0-4.94h-.12a4.63,4.63,0,0,0-3.92-2.17,4.73,4.73,0,0,0-.93.09,6.61,6.61,0,0,0-8.9-.65,5.45,5.45,0,0,0-1.41-.19,5.38,5.38,0,0,0-3.94,1.72l-.48,0A3.7,3.7,0,0,0,1638.25,731.18Z" transform="translate(0 -403.77)" fill="#a567ff"/><path d="M683.32,740.29a7.16,7.16,0,0,1-7.17,7.16,8,8,0,0,1-1.1-.08,12,12,0,0,1-16,3.17,14.2,14.2,0,0,1-18.14-3.73,7.24,7.24,0,0,1-3,.64,7.17,7.17,0,0,1,0-14.33,6.29,6.29,0,0,1,.88.06,14.22,14.22,0,0,1,23.86-4.62,12,12,0,0,1,12.43,4.65,6.71,6.71,0,0,1,1.1-.09A7.17,7.17,0,0,1,683.32,740.29Z" transform="translate(0 -403.77)" fill="#51337b"/><path d="M671.64,746.07a5.52,5.52,0,0,0,5.52,5.52,6,6,0,0,0,.85-.06A9.28,9.28,0,0,0,690.38,754a10.95,10.95,0,0,0,14-2.87,5.52,5.52,0,1,0,2.29-10.55c-.23,0-.46,0-.68,0A11,11,0,0,0,687.59,737a9.47,9.47,0,0,0-2.08-.23,9.26,9.26,0,0,0-7.5,3.82,6,6,0,0,0-.85-.07A5.52,5.52,0,0,0,671.64,746.07Z" transform="translate(0 -403.77)" fill="#a567ff"/><path d="M1166.63,709.22a3.81,3.81,0,0,1-3.81,3.81,3.92,3.92,0,0,1-.59,0,6.38,6.38,0,0,1-8.52,1.69,7.55,7.55,0,0,1-9.64-2,3.81,3.81,0,1,1-1.58-7.27,3.71,3.71,0,0,1,.47,0,7.55,7.55,0,0,1,12.67-2.46,6.15,6.15,0,0,1,1.43-.16,6.39,6.39,0,0,1,5.17,2.63,3.9,3.9,0,0,1,.59,0A3.81,3.81,0,0,1,1166.63,709.22Z" transform="translate(0 -403.77)" fill="#51337b"/><path d="M1107.16,716.83a5.74,5.74,0,0,0,5.75,5.75,5.06,5.06,0,0,0,.88-.07,9.67,9.67,0,0,0,12.88,2.55,11.41,11.41,0,0,0,14.56-3,5.56,5.56,0,0,0,2.38.52,5.75,5.75,0,0,0,0-11.5,5.36,5.36,0,0,0-.7,0,11.4,11.4,0,0,0-19.14-3.71,9.63,9.63,0,0,0-10,3.73,6.27,6.27,0,0,0-.88-.07A5.75,5.75,0,0,0,1107.16,716.83Z" transform="translate(0 -403.77)" fill="#a567ff"/><path d="M693.52,570.21h0c-3.19-.07-12.78-9.15-13.19-9.54a.24.24,0,0,1,0-.33.24.24,0,0,1,.34,0c.09.09,9.86,9.35,12.87,9.41a.24.24,0,0,1,.23.24A.23.23,0,0,1,693.52,570.21Z" transform="translate(0 -403.77)" fill="#a567ff"/><path d="M680.49,585.77a.24.24,0,0,1,0-.47c3-.07,12.77-9.32,12.87-9.41a.24.24,0,0,1,.33,0,.25.25,0,0,1,0,.34c-.41.38-10,9.47-13.19,9.54Z" transform="translate(0 -403.77)" fill="#a567ff"/><path d="M693.52,600.91h0c-3.19-.08-12.78-9.16-13.19-9.55a.24.24,0,0,1,0-.33.25.25,0,0,1,.34,0c.09.1,9.86,9.35,12.87,9.42a.23.23,0,0,1,.23.24A.24.24,0,0,1,693.52,600.91Z" transform="translate(0 -403.77)" fill="#a567ff"/><path d="M689.9,567.49a1.25,1.25,0,0,1-.2-.9,1.84,1.84,0,0,1,.33-.71,4.36,4.36,0,0,1,.54-.62,3.5,3.5,0,0,1,.79-.53,3.22,3.22,0,0,1,.24.92,3.81,3.81,0,0,1,0,.83,1.87,1.87,0,0,1-.22.74,1.27,1.27,0,0,1-.76.54A.61.61,0,0,1,689.9,567.49Z" transform="translate(0 -403.77)" fill="#a567ff"/><path d="M682.35,583.55a1.34,1.34,0,0,1-.21-.91,1.88,1.88,0,0,1,.33-.7,3.48,3.48,0,0,1,.54-.62,3,3,0,0,1,.8-.53,3.48,3.48,0,0,1,.24.92,3.7,3.7,0,0,1,0,.82,1.72,1.72,0,0,1-.22.75,1.25,1.25,0,0,1-.75.54A.63.63,0,0,1,682.35,583.55Z" transform="translate(0 -403.77)" fill="#a567ff"/><path d="M684.06,564.9a1.31,1.31,0,0,1-.42.83,1.83,1.83,0,0,1-.71.32,3.43,3.43,0,0,1-.81.14,3.31,3.31,0,0,1-1-.11,3.27,3.27,0,0,1,.41-.86,3.6,3.6,0,0,1,.53-.62,1.84,1.84,0,0,1,.65-.43,1.24,1.24,0,0,1,.93.07A.62.62,0,0,1,684.06,564.9Z" transform="translate(0 -403.77)" fill="#a567ff"/><path d="M689.9,598.21a1.27,1.27,0,0,1-.2-.91,1.73,1.73,0,0,1,.33-.7,3.48,3.48,0,0,1,.54-.62,3,3,0,0,1,.79-.53,3.14,3.14,0,0,1,.24.92,3.72,3.72,0,0,1,0,.82,1.87,1.87,0,0,1-.22.75,1.27,1.27,0,0,1-.76.54A.64.64,0,0,1,689.9,598.21Z" transform="translate(0 -403.77)" fill="#a567ff"/><path d="M684.06,595.61a1.31,1.31,0,0,1-.42.83,1.85,1.85,0,0,1-.71.33,3.43,3.43,0,0,1-.81.13,3.27,3.27,0,0,1-1-.1,3,3,0,0,1,.41-.86,3.68,3.68,0,0,1,.53-.63,2,2,0,0,1,.65-.43,1.35,1.35,0,0,1,.93.07A.63.63,0,0,1,684.06,595.61Z" transform="translate(0 -403.77)" fill="#a567ff"/><path d="M688.73,581.58a1.27,1.27,0,0,0,.43.83,1.89,1.89,0,0,0,.7.33,3.61,3.61,0,0,0,.81.13,3.24,3.24,0,0,0,1-.1,3,3,0,0,0-.41-.86,3.68,3.68,0,0,0-.53-.63,2,2,0,0,0-.65-.43,1.29,1.29,0,0,0-.93.07A.63.63,0,0,0,688.73,581.58Z" transform="translate(0 -403.77)" fill="#a567ff"/><path d="M785.23,625.42a3.31,3.31,0,0,1-3.31,3.31,2.92,2.92,0,0,1-.51,0,5.55,5.55,0,0,1-7.42,1.47,6.56,6.56,0,0,1-8.39-1.73,3.16,3.16,0,0,1-1.37.3,3.31,3.31,0,1,1,0-6.62l.4,0a6.59,6.59,0,0,1,6.17-4.29,6.52,6.52,0,0,1,4.86,2.16,5.16,5.16,0,0,1,1.25-.15,5.56,5.56,0,0,1,4.5,2.3,2.92,2.92,0,0,1,.51,0A3.31,3.31,0,0,1,785.23,625.42Z" transform="translate(0 -403.77)" fill="#181422"/><path d="M1475,680.4h-48.84a4.15,4.15,0,0,1,0-8.29H1475a4.15,4.15,0,0,1,0,8.29Z" transform="translate(0 -403.77)" fill="#1e1e28"/><path d="M727.34,635.94a2.15,2.15,0,0,1-2.15,2.15,1.84,1.84,0,0,1-.33,0,3.6,3.6,0,0,1-4.81,1,4.23,4.23,0,0,1-5.43-1.12,2,2,0,0,1-.89.2,2.15,2.15,0,0,1,0-4.29H714a4.28,4.28,0,0,1,4-2.78,4.24,4.24,0,0,1,3.15,1.4,3.57,3.57,0,0,1,.8-.09,3.61,3.61,0,0,1,2.92,1.48,1.83,1.83,0,0,1,.33,0A2.14,2.14,0,0,1,727.34,635.94Z" transform="translate(0 -403.77)" fill="#181422"/><path d="M1488.38,667.57V776h51.35V667.57Z" transform="translate(0 -403.77)" fill="#2a2837"/><path d="M1488.38,691.13s5.28,2.92,5.4,4.14V776h-5.4Z" transform="translate(0 -403.77)" fill="#13111e"/><path d="M1539.79,691.13s-5.28,2.92-5.41,4.14V776h5.41Z" transform="translate(0 -403.77)" fill="#13111e"/><path d="M1524,711.64v30.81a1.52,1.52,0,0,1-1.52,1.52h-17.82a1.52,1.52,0,0,1-1.53-1.52V711.64a1.53,1.53,0,0,1,1.53-1.53h3.63V709a1.48,1.48,0,0,1,1.47-1.48h7.59a1.48,1.48,0,0,1,1.47,1.48v1.16h3.66A1.53,1.53,0,0,1,1524,711.64Z" transform="translate(0 -403.77)" fill="#baa3ef"/><polygon points="1517.04 271.35 1514.2 280.77 1519.53 280.77 1510.12 293.42 1512.94 283.82 1507.6 283.82 1517.04 271.35" fill="#a567ff"/><path d="M1623.85,731.18a5,5,0,0,0,5,5,4.58,4.58,0,0,0,.64,0,7.24,7.24,0,0,0,5.35,2.33,7.6,7.6,0,0,0,1.92-.25,9,9,0,0,0,12.07-.89,5.86,5.86,0,0,0,1.26.13,6.28,6.28,0,0,0,5.32-2.94h.16a3.36,3.36,0,0,0,0-6.71h-.16a6.28,6.28,0,0,0-5.32-2.94,6.56,6.56,0,0,0-1.26.12,9,9,0,0,0-12.07-.88,7.18,7.18,0,0,0-1.92-.26,7.25,7.25,0,0,0-5.35,2.34,4.58,4.58,0,0,0-.64,0A5,5,0,0,0,1623.85,731.18Z" transform="translate(0 -403.77)" fill="#a567ff"/><path d="M766,522h-.17c-16,1.66-16.71-12.64-16.71-12.64,12.53-.77,15.75,6.42,16.59,10.28.22-2.88,1.85-7.51,9.8-8.7C775.55,511,777.14,520.81,766,522Z" transform="translate(0 -403.77)" fill="#a567ff"/><path d="M773,513.93l-3.69,4.1,0,0-3,3.36a.32.32,0,0,1-.24.11.33.33,0,0,1-.19-.06l-4.77-3.36-3.21-2.26-3.81.23h0a.33.33,0,0,1,0-.66l3-.18-3.85-2.71a.31.31,0,0,1-.07-.45.33.33,0,0,1,.46-.08l4.55,3.22a.21.21,0,0,1,.1.06l2.74,1.92V515a.33.33,0,0,1,.33-.33.33.33,0,0,1,.32.33v2.66l4.4,3.09,2.74-3v-2a.33.33,0,0,1,.33-.33.33.33,0,0,1,.33.33V517l3.15-3.5a.32.32,0,0,1,.46,0A.33.33,0,0,1,773,513.93Z" transform="translate(0 -403.77)" fill="#1f1f2d"/><path d="M700.4,541.56l-.15,0c-14.34,1.49-15-11.33-15-11.33,11.23-.69,14.12,5.75,14.87,9.21.2-2.58,1.66-6.73,8.79-7.8C708.93,531.66,710.36,540.49,700.4,541.56Z" transform="translate(0 -403.77)" fill="#a567ff"/><path d="M706.66,534.31,703.35,538l0,0-2.7,3a.32.32,0,0,1-.22.1.34.34,0,0,1-.17,0l-4.27-3-2.89-2-3.41.2h0a.29.29,0,0,1-.29-.27.3.3,0,0,1,.28-.32l2.68-.16-3.45-2.42a.29.29,0,0,1-.07-.41.28.28,0,0,1,.41-.07l4.09,2.88.09.06,2.45,1.72v-2a.29.29,0,0,1,.29-.29.3.3,0,0,1,.3.29v2.39l3.93,2.77,2.46-2.74V536a.3.3,0,1,1,.59,0v1.1l2.82-3.14a.3.3,0,0,1,.42,0A.29.29,0,0,1,706.66,534.31Z" transform="translate(0 -403.77)" fill="#1f1f2d"/><path d="M717.13,570.21h0c-3.19-.07-12.78-9.15-13.18-9.54a.23.23,0,0,1,.32-.34c.1.09,9.87,9.35,12.87,9.41a.23.23,0,0,1,.23.24A.23.23,0,0,1,717.13,570.21Z" transform="translate(0 -403.77)" fill="#a567ff"/><path d="M704.1,585.77a.24.24,0,0,1-.24-.23.23.23,0,0,1,.23-.24c3-.07,12.78-9.32,12.88-9.41a.24.24,0,0,1,.33,0,.24.24,0,0,1,0,.34c-.4.38-10,9.47-13.19,9.54Z" transform="translate(0 -403.77)" fill="#a567ff"/><path d="M717.13,600.91h0c-3.19-.08-12.78-9.16-13.18-9.55a.23.23,0,0,1,0-.33.24.24,0,0,1,.33,0c.1.1,9.87,9.35,12.87,9.42a.23.23,0,0,1,.23.24A.23.23,0,0,1,717.13,600.91Z" transform="translate(0 -403.77)" fill="#a567ff"/><path d="M713.51,567.49a1.31,1.31,0,0,1-.21-.9,2,2,0,0,1,.33-.71,3.89,3.89,0,0,1,.55-.62,3.29,3.29,0,0,1,.79-.53,3.59,3.59,0,0,1,.24.92,3.26,3.26,0,0,1,0,.83,1.6,1.6,0,0,1-.22.74,1.25,1.25,0,0,1-.75.54A.6.6,0,0,1,713.51,567.49Z" transform="translate(0 -403.77)" fill="#a567ff"/><path d="M706,583.55a1.27,1.27,0,0,1-.2-.91,1.73,1.73,0,0,1,.33-.7,3.48,3.48,0,0,1,.54-.62,3,3,0,0,1,.79-.53,3.14,3.14,0,0,1,.24.92,3.72,3.72,0,0,1,0,.82,1.87,1.87,0,0,1-.22.75,1.27,1.27,0,0,1-.76.54A.64.64,0,0,1,706,583.55Z" transform="translate(0 -403.77)" fill="#a567ff"/><path d="M707.66,564.9a1.26,1.26,0,0,1-.42.83,1.79,1.79,0,0,1-.7.32,3.6,3.6,0,0,1-.82.14.85.85,0,0,1,0-1.59,1.81,1.81,0,0,1,.64-.43,1.24,1.24,0,0,1,.93.07A.61.61,0,0,1,707.66,564.9Z" transform="translate(0 -403.77)" fill="#a567ff"/><path d="M713.51,598.21a1.34,1.34,0,0,1-.21-.91,1.88,1.88,0,0,1,.33-.7,3.18,3.18,0,0,1,.55-.62,2.8,2.8,0,0,1,.79-.53,3.48,3.48,0,0,1,.24.92,3.18,3.18,0,0,1,0,.82,1.6,1.6,0,0,1-.22.75,1.25,1.25,0,0,1-.75.54A.63.63,0,0,1,713.51,598.21Z" transform="translate(0 -403.77)" fill="#a567ff"/><path d="M707.66,595.61a1.26,1.26,0,0,1-.42.83,1.81,1.81,0,0,1-.7.33,3.6,3.6,0,0,1-.82.13,3.21,3.21,0,0,1-.94-.1,3,3,0,0,1,.4-.86,3.32,3.32,0,0,1,.54-.63,2,2,0,0,1,.64-.43,1.34,1.34,0,0,1,.93.07A.62.62,0,0,1,707.66,595.61Z" transform="translate(0 -403.77)" fill="#a567ff"/><path d="M712.34,581.58a1.26,1.26,0,0,0,.42.83,1.93,1.93,0,0,0,.71.33,3.43,3.43,0,0,0,.81.13,3.17,3.17,0,0,0,.94-.1,3,3,0,0,0-.4-.86,3.32,3.32,0,0,0-.54-.63,1.85,1.85,0,0,0-.64-.43,1.29,1.29,0,0,0-.93.07A.63.63,0,0,0,712.34,581.58Z" transform="translate(0 -403.77)" fill="#a567ff"/><path d="M759.59,553.74h0c-3.19-.07-12.78-9.16-13.19-9.54a.25.25,0,0,1,0-.34.24.24,0,0,1,.33,0c.1.1,9.87,9.35,12.88,9.42a.24.24,0,0,1,0,.47Z" transform="translate(0 -403.77)" fill="#a567ff"/><path d="M746.56,569.29a.23.23,0,0,1-.23-.23.23.23,0,0,1,.23-.24c3-.07,12.77-9.32,12.87-9.41a.23.23,0,0,1,.33,0,.24.24,0,0,1,0,.33c-.41.39-10,9.47-13.19,9.54Z" transform="translate(0 -403.77)" fill="#a567ff"/><path d="M759.59,584.43h0c-3.19-.07-12.78-9.16-13.19-9.54a.24.24,0,0,1,0-.33.23.23,0,0,1,.33,0c.1.09,9.87,9.34,12.88,9.41a.24.24,0,0,1,0,.47Z" transform="translate(0 -403.77)" fill="#a567ff"/><path d="M756,551a1.27,1.27,0,0,1-.2-.91,1.73,1.73,0,0,1,.33-.7,3.48,3.48,0,0,1,.54-.62,3,3,0,0,1,.79-.53,3.48,3.48,0,0,1,.24.92,3.72,3.72,0,0,1,0,.82,1.92,1.92,0,0,1-.22.75,1.27,1.27,0,0,1-.76.54A.64.64,0,0,1,756,551Z" transform="translate(0 -403.77)" fill="#a567ff"/><path d="M748.42,567.07a1.26,1.26,0,0,1-.21-.9,1.92,1.92,0,0,1,.33-.71,3.87,3.87,0,0,1,.54-.62,3.4,3.4,0,0,1,.79-.53,2.85,2.85,0,0,1,.24.92,3.28,3.28,0,0,1,0,.83,1.72,1.72,0,0,1-.22.74,1.25,1.25,0,0,1-.75.54A.6.6,0,0,1,748.42,567.07Z" transform="translate(0 -403.77)" fill="#a567ff"/><path d="M750.13,548.42a1.27,1.27,0,0,1-.43.83,1.89,1.89,0,0,1-.7.33,3.61,3.61,0,0,1-.81.13,3.24,3.24,0,0,1-1-.1,3,3,0,0,1,.41-.86,3.68,3.68,0,0,1,.53-.63,2,2,0,0,1,.65-.43,1.24,1.24,0,0,1,.93.07A.63.63,0,0,1,750.13,548.42Z" transform="translate(0 -403.77)" fill="#a567ff"/><path d="M756,581.73a1.25,1.25,0,0,1-.2-.9,1.84,1.84,0,0,1,.33-.71,4.36,4.36,0,0,1,.54-.62.58.58,0,1,1,1,.39,3.81,3.81,0,0,1,0,.83,1.87,1.87,0,0,1-.22.74,1.27,1.27,0,0,1-.76.54A.61.61,0,0,1,756,581.73Z" transform="translate(0 -403.77)" fill="#a567ff"/><path d="M750.13,579.14a1.27,1.27,0,0,1-.43.83,1.73,1.73,0,0,1-.7.32,3.61,3.61,0,0,1-.81.14.59.59,0,1,1-.54-1,3.6,3.6,0,0,1,.53-.62,1.72,1.72,0,0,1,.65-.43,1.24,1.24,0,0,1,.93.07A.62.62,0,0,1,750.13,579.14Z" transform="translate(0 -403.77)" fill="#a567ff"/><path d="M754.8,565.1a1.28,1.28,0,0,0,.42.83,1.85,1.85,0,0,0,.71.33,3.43,3.43,0,0,0,.81.13,3,3,0,0,0,1-.1,3.27,3.27,0,0,0-.41-.86,3.6,3.6,0,0,0-.53-.62,1.87,1.87,0,0,0-.65-.44,1.35,1.35,0,0,0-.93.07A.63.63,0,0,0,754.8,565.1Z" transform="translate(0 -403.77)" fill="#a567ff"/><path d="M783.2,553.74h0c-3.19-.07-12.78-9.16-13.18-9.54a.24.24,0,0,1,0-.34.24.24,0,0,1,.33,0c.1.1,9.86,9.35,12.87,9.42a.23.23,0,0,1,.23.24A.23.23,0,0,1,783.2,553.74Z" transform="translate(0 -403.77)" fill="#a567ff"/><path d="M770.17,569.29a.24.24,0,0,1-.24-.23.23.23,0,0,1,.23-.24c3-.07,12.78-9.32,12.88-9.41a.23.23,0,1,1,.32.34c-.41.39-10,9.47-13.19,9.54Z" transform="translate(0 -403.77)" fill="#a567ff"/><path d="M783.2,584.43h0c-3.19-.07-12.78-9.16-13.18-9.54a.23.23,0,0,1,.32-.34c.1.09,9.86,9.34,12.87,9.41a.23.23,0,0,1,.23.24A.23.23,0,0,1,783.2,584.43Z" transform="translate(0 -403.77)" fill="#a567ff"/><path d="M779.58,551a1.34,1.34,0,0,1-.21-.91,1.88,1.88,0,0,1,.33-.7,3.48,3.48,0,0,1,.54-.62,3,3,0,0,1,.8-.53,3.48,3.48,0,0,1,.24.92,3.7,3.7,0,0,1,0,.82,1.63,1.63,0,0,1-.22.75,1.25,1.25,0,0,1-.75.54A.63.63,0,0,1,779.58,551Z" transform="translate(0 -403.77)" fill="#a567ff"/><path d="M772,567.07a1.25,1.25,0,0,1-.2-.9,1.77,1.77,0,0,1,.33-.71,3.87,3.87,0,0,1,.54-.62,3.2,3.2,0,0,1,.79-.53,3.48,3.48,0,0,1,.24.92,3.82,3.82,0,0,1,0,.83,1.87,1.87,0,0,1-.22.74,1.27,1.27,0,0,1-.76.54A.61.61,0,0,1,772,567.07Z" transform="translate(0 -403.77)" fill="#a567ff"/><path d="M773.73,548.42a1.26,1.26,0,0,1-.42.83,2,2,0,0,1-.7.33,3.6,3.6,0,0,1-.82.13,3.17,3.17,0,0,1-.94-.1,3,3,0,0,1,.4-.86,3.32,3.32,0,0,1,.54-.63,1.85,1.85,0,0,1,.64-.43,1.24,1.24,0,0,1,.93.07A.61.61,0,0,1,773.73,548.42Z" transform="translate(0 -403.77)" fill="#a567ff"/><path d="M779.58,581.73a1.31,1.31,0,0,1-.21-.9,2,2,0,0,1,.33-.71,4.36,4.36,0,0,1,.54-.62,3.58,3.58,0,0,1,.8-.53,3.48,3.48,0,0,1,.24.92,3.79,3.79,0,0,1,0,.83,1.6,1.6,0,0,1-.22.74,1.25,1.25,0,0,1-.75.54A.6.6,0,0,1,779.58,581.73Z" transform="translate(0 -403.77)" fill="#a567ff"/><path d="M773.73,579.14a1.26,1.26,0,0,1-.42.83,1.79,1.79,0,0,1-.7.32,3.6,3.6,0,0,1-.82.14,3.2,3.2,0,0,1-.94-.11,3.16,3.16,0,0,1,.94-1.48,1.61,1.61,0,0,1,.64-.43,1.24,1.24,0,0,1,.93.07A.61.61,0,0,1,773.73,579.14Z" transform="translate(0 -403.77)" fill="#a567ff"/><path d="M778.41,565.1a1.24,1.24,0,0,0,.42.83,1.81,1.81,0,0,0,.7.33,3.6,3.6,0,0,0,.82.13,2.87,2.87,0,0,0,.94-.1,3.16,3.16,0,0,0-.94-1.48,1.75,1.75,0,0,0-.64-.44,1.34,1.34,0,0,0-.93.07A.62.62,0,0,0,778.41,565.1Z" transform="translate(0 -403.77)" fill="#a567ff"/><polygon points="686.76 142.01 686.76 215.09 678.02 215.09 678.02 207.78 680.4 202.69 680.4 150.31 678.43 148.33 678.43 142.01 686.76 142.01" fill="#181723"/><path d="M934.56,637.76l-2.7,7.93c-.51,1.5.32,3.2,1.58,3.2h5.4c1.25,0,2.09-1.7,1.57-3.2l-2.7-7.93C937.1,636,935.17,636,934.56,637.76Z" transform="translate(0 -403.77)" fill="#181723"/><path d="M936.14,653.88a.23.23,0,0,1-.23-.23V642.26a.23.23,0,0,1,.23-.23.23.23,0,0,1,.23.23v11.39A.24.24,0,0,1,936.14,653.88Z" transform="translate(0 -403.77)" fill="#181723"/><path d="M936.14,645.59a.25.25,0,0,1-.16-.06.22.22,0,0,1,0-.32l1.44-1.6a.23.23,0,0,1,.32,0,.24.24,0,0,1,0,.33l-1.44,1.6A.23.23,0,0,1,936.14,645.59Z" transform="translate(0 -403.77)" fill="#181723"/><path d="M936.14,647.71a.21.21,0,0,1-.19-.1l-1.11-1.53a.23.23,0,0,1,.38-.27l1.1,1.53a.24.24,0,0,1-.05.33A.33.33,0,0,1,936.14,647.71Z" transform="translate(0 -403.77)" fill="#181723"/><g opacity="0.2" style="mix-blend-mode:multiply"><path d="M936.09,636.8v12.12h-2.71s-2.15,0-1.58-3.21l2.71-8s.42-1.32,1.58-1.34Z" transform="translate(0 -403.77)" fill="#181723"/></g><polygon points="710.37 142.01 710.37 215.09 701.62 215.09 701.62 207.78 704 202.69 704 150.31 702.03 148.33 702.03 142.01 710.37 142.01" fill="#181723"/><polygon points="752.83 126.9 752.83 199.97 744.09 199.97 744.09 192.66 746.47 187.57 746.47 135.19 744.5 133.22 744.5 126.9 752.83 126.9" fill="#181723"/><circle cx="1474.14" cy="261.06" r="4.66" fill="#1e1e28"/><polygon points="776.44 126.9 776.44 199.97 767.7 199.97 767.7 192.66 770.08 187.57 770.08 135.19 768.11 133.22 768.11 126.9 776.44 126.9" fill="#181723"/><path d="M1455.58,643.67a5,5,0,0,0,5,5,4.49,4.49,0,0,0,.64,0,7.29,7.29,0,0,0,5.35,2.34,7.12,7.12,0,0,0,1.92-.26,9,9,0,0,0,12.08-.88,6.39,6.39,0,0,0,1.25.12,6.27,6.27,0,0,0,5.32-2.94h.17a3.36,3.36,0,0,0,0-6.71h-.17a6.27,6.27,0,0,0-5.32-2.94,5.7,5.7,0,0,0-1.25.13,9,9,0,0,0-12.08-.89,7.54,7.54,0,0,0-1.92-.25,7.28,7.28,0,0,0-5.35,2.33,4.49,4.49,0,0,0-.64,0A5,5,0,0,0,1455.58,643.67Z" transform="translate(0 -403.77)" fill="#181723"/><polygon points="991 264.23 1058 325.23 991 325.23 991 264.23" fill="#181723"/><path d="M987.48,669.07l-7.6,22.31c-1.45,4.23.91,9,4.43,9h15.2c3.53,0,5.88-4.78,4.44-9l-7.6-22.31C994.63,664,989.19,664,987.48,669.07Z" transform="translate(0 -403.77)" fill="#a567ff"/><path d="M991.91,714.43a.65.65,0,0,1-.64-.65v-32a.65.65,0,1,1,1.29,0v32A.65.65,0,0,1,991.91,714.43Z" transform="translate(0 -403.77)" fill="#1f1f2d"/><path d="M991.91,691.11a.65.65,0,0,1-.43-.17.64.64,0,0,1-.05-.91l4.06-4.49a.64.64,0,1,1,1,.86l-4.06,4.5A.63.63,0,0,1,991.91,691.11Z" transform="translate(0 -403.77)" fill="#1f1f2d"/><path d="M991.91,697.07a.63.63,0,0,1-.52-.27l-3.11-4.32a.65.65,0,0,1,1.05-.76l3.11,4.32a.65.65,0,0,1-.15.91A.64.64,0,0,1,991.91,697.07Z" transform="translate(0 -403.77)" fill="#1f1f2d"/><g opacity="0.2" style="mix-blend-mode:multiply"><path d="M992.41,666.35v34h-8s-6.37,0-4.68-9l8-22.31s1.24-3.72,4.67-3.78Z" transform="translate(0 -403.77)" fill="#51337b"/></g><path d="M971.14,681.38l-4.58,13.43c-.87,2.55.55,5.43,2.68,5.43h9.15c2.12,0,3.54-2.88,2.67-5.43l-4.58-13.43C975.45,678.34,972.17,678.34,971.14,681.38Z" transform="translate(0 -403.77)" fill="#a567ff"/><path d="M973.81,708.68a.39.39,0,0,1-.39-.39V689a.4.4,0,0,1,.39-.39.39.39,0,0,1,.39.39v19.29A.38.38,0,0,1,973.81,708.68Z" transform="translate(0 -403.77)" fill="#1f1f2d"/><path d="M973.81,694.65a.42.42,0,0,1-.26-.1.41.41,0,0,1,0-.56l2.45-2.7a.39.39,0,0,1,.55,0,.38.38,0,0,1,0,.55l-2.44,2.71A.41.41,0,0,1,973.81,694.65Z" transform="translate(0 -403.77)" fill="#1f1f2d"/><path d="M973.81,698.23a.39.39,0,0,1-.32-.16l-1.87-2.6a.39.39,0,0,1,.09-.54.39.39,0,0,1,.55.09l1.87,2.6a.4.4,0,0,1-.09.54A.39.39,0,0,1,973.81,698.23Z" transform="translate(0 -403.77)" fill="#1f1f2d"/><g opacity="0.2" style="mix-blend-mode:multiply"><path d="M974.11,679.74v20.5h-4.82s-3.83,0-2.82-5.43l4.83-13.43s.75-2.24,2.81-2.28Z" transform="translate(0 -403.77)" fill="#51337b"/></g><path d="M1019.33,725.42a7.17,7.17,0,0,1-7.16,7.16,8.05,8.05,0,0,1-1.11-.08,12,12,0,0,1-16,3.17,14.2,14.2,0,0,1-18.14-3.73,7.17,7.17,0,1,1-3-13.69,6.4,6.4,0,0,1,.88.06,14.22,14.22,0,0,1,23.85-4.63,12.07,12.07,0,0,1,12.43,4.66,6.74,6.74,0,0,1,1.11-.09A7.17,7.17,0,0,1,1019.33,725.42Z" transform="translate(0 -403.77)" fill="#a567ff"/><path d="M1071.6,725.77a3.83,3.83,0,0,1-4.38,3.75,6.36,6.36,0,0,1-8.49,1.67,7.51,7.51,0,0,1-9.6-2,3.79,3.79,0,1,1-1.58-7.24,3.59,3.59,0,0,1,.47,0,7.52,7.52,0,0,1,12.62-2.45,6.15,6.15,0,0,1,1.43-.16,6.35,6.35,0,0,1,5.15,2.62,3.83,3.83,0,0,1,4.38,3.75Z" transform="translate(0 -403.77)" fill="#51337b"/><path d="M1394.6,669.21h-52.19a4.15,4.15,0,0,1,0-8.29h52.19a4.15,4.15,0,1,1,0,8.29Z" transform="translate(0 -403.77)" fill="#1e1e28"/><path d="M1412.84,680.4h-52.19a4.15,4.15,0,0,1,0-8.29h52.19a4.15,4.15,0,0,1,0,8.29Z" transform="translate(0 -403.77)" fill="#1e1e28"/><rect x="1050" y="181.23" width="34" height="27" fill="#1f1f2d"/><path d="M1463.61,643h-23a7.64,7.64,0,0,0-1.49-2.67L1412.24,609c0,.12,0,.24,0,.35v1.62h-10v-1.74a6.78,6.78,0,0,0,1.7,5.48L1428.19,643h-5.67a7.64,7.64,0,0,0-1.49-2.67L1394.15,609c0,.11,0,.24,0,.35v1.62h-10v-1.74a6.82,6.82,0,0,0,1.7,5.48L1410.1,643h-19.48l-49.1-56.56h13.84l5.94,6,.51.6h41.12v-6.64h8.62Z" transform="translate(0 -403.77)" fill="#363649"/><polygon points="1341.52 182.62 1341.52 239.18 1390.62 239.18 1341.52 182.62" fill="#2a2837"/><polygon points="1402.92 182.6 1402.92 189.26 1446.1 239.18 1452.82 239.16 1402.92 182.6" fill="#181723"/><path d="M1363.58,593" transform="translate(0 -403.77)" fill="#2e2d3a"/><path d="M1335.55,639.57a5,5,0,0,0,5,5,4.49,4.49,0,0,0,.64,0,7.24,7.24,0,0,0,5.35,2.33,7.6,7.6,0,0,0,1.92-.25,9,9,0,0,0,12.07-.89,5.86,5.86,0,0,0,1.26.13,6.27,6.27,0,0,0,5.32-2.94h.16a3.36,3.36,0,0,0,0-6.71h-.16a6.27,6.27,0,0,0-5.32-2.94,6.56,6.56,0,0,0-1.26.12,9,9,0,0,0-12.07-.88,7.17,7.17,0,0,0-1.92-.25,7.24,7.24,0,0,0-5.35,2.33,4.49,4.49,0,0,0-.64,0A5,5,0,0,0,1335.55,639.57Z" transform="translate(0 -403.77)" fill="#51337b"/><path d="M1394.16,609.3v1.62h-10v-1.74c0-3.41,2.27-6.16,5-6.16s4.86,2.62,5,5.93C1394.16,609.06,1394.16,609.19,1394.16,609.3Z" transform="translate(0 -403.77)" fill="#181723"/><path d="M1412.25,609.3v1.62h-10v-1.74h0c.06-3.4,2.28-6.14,5-6.14s4.87,2.62,5,5.93h0C1412.24,609.07,1412.25,609.19,1412.25,609.3Z" transform="translate(0 -403.77)" fill="#181723"/><path d="M1473.25,648.17a5.18,5.18,0,0,1-5.18,5.18h-14.14a3.78,3.78,0,1,0,0,7.55h9.26a3.78,3.78,0,0,1,0,7.55h-57.28a3.78,3.78,0,0,1,0-7.55h14.23a3.78,3.78,0,1,0,0-7.55h-30.69a5.18,5.18,0,0,1,0-10.36h20.69l0,0-24.27-28.29a6.82,6.82,0,0,1-1.7-5.48v1.74h10V609.3c0-.11,0-.24,0-.35L1421,640.28a7.64,7.64,0,0,1,1.49,2.67v0h5.7l0,0-24.27-28.29a6.78,6.78,0,0,1-1.7-5.48v1.74h10V609.3c0-.11,0-.23,0-.35l26.88,31.33a7.64,7.64,0,0,1,1.49,2.67s0,0,0,0h27.45A5.18,5.18,0,0,1,1473.25,648.17Z" transform="translate(0 -403.77)" fill="#a567ff"/><path d="M1412.25,609.3v1.62h-10v-1.74h0a4.34,4.34,0,0,1,1.41-2.54c2.1-1.8,5.64-1.13,7.91,1.51l.7.82h0C1412.24,609.07,1412.25,609.19,1412.25,609.3Z" transform="translate(0 -403.77)" fill="#a567ff"/><path d="M1394.16,609.3v1.62h-10v-1.74a4.32,4.32,0,0,1,1.42-2.56c2.1-1.8,5.63-1.13,7.9,1.51l.7.82C1394.16,609.06,1394.16,609.19,1394.16,609.3Z" transform="translate(0 -403.77)" fill="#a567ff"/><circle cx="1376.9" cy="193.97" r="2.2" fill="#181723"/><circle cx="1388.25" cy="193.97" r="2.2" fill="#181723"/><circle cx="1399.39" cy="193.97" r="2.2" fill="#181723"/><g opacity="0.2" style="mix-blend-mode:multiply"><path d="M1386.45,606l31.7,36.92h-8.05l-24.27-28.29S1381.4,609.21,1386.45,606Z" transform="translate(0 -403.77)" fill="#50337b"/></g><g opacity="0.2" style="mix-blend-mode:multiply"><path d="M1404.63,606.09l31.7,36.91h-8L1404,614.71S1399.58,609.26,1404.63,606.09Z" transform="translate(0 -403.77)" fill="#50337b"/></g><path d="M1364.33,643a2.42,2.42,0,0,0,2.43,2.42,1.62,1.62,0,0,0,.31,0,3.56,3.56,0,0,0,3.52,1,4.37,4.37,0,0,0,5.86-.43,3,3,0,0,0,.6.06,3.05,3.05,0,0,0,2.58-1.42h.08a1.63,1.63,0,1,0,0-3.25h-.08a3.05,3.05,0,0,0-2.58-1.42,3,3,0,0,0-.6.06,4.37,4.37,0,0,0-5.86-.43,3.56,3.56,0,0,0-3.52,1l-.31,0A2.43,2.43,0,0,0,1364.33,643Z" transform="translate(0 -403.77)" fill="#51337b"/><g opacity="0.2" style="mix-blend-mode:multiply"><path d="M1450.15,657.12a3.78,3.78,0,0,0,3.78,3.78h9.26a3.78,3.78,0,0,1,0,7.55h-57.28a3.78,3.78,0,0,1,0-7.55h14.23a3.78,3.78,0,1,0,0-7.55h-18.39v-.14h65.74v.14h-13.56A3.77,3.77,0,0,0,1450.15,657.12Z" transform="translate(0 -403.77)" fill="#51337b"/></g><path d="M1355.34,615.64l-3.89,11.42c-.74,2.17.47,4.62,2.27,4.62h7.79c1.8,0,3-2.45,2.27-4.62l-3.89-11.42C1359,613.05,1356.22,613.05,1355.34,615.64Z" transform="translate(0 -403.77)" fill="#a567ff"/><path d="M1357.61,638.86a.33.33,0,0,1-.33-.33V622.12a.34.34,0,0,1,.67,0v16.41A.33.33,0,0,1,1357.61,638.86Z" transform="translate(0 -403.77)" fill="#1f1f2d"/><path d="M1357.61,626.92a.35.35,0,0,1-.22-.08.33.33,0,0,1,0-.47l2.08-2.3a.33.33,0,0,1,.47,0,.34.34,0,0,1,0,.47l-2.08,2.3A.36.36,0,0,1,1357.61,626.92Z" transform="translate(0 -403.77)" fill="#1f1f2d"/><path d="M1357.61,630a.34.34,0,0,1-.27-.13l-1.59-2.22a.34.34,0,0,1,.08-.46.33.33,0,0,1,.46.08l1.59,2.21a.32.32,0,0,1-.07.46A.36.36,0,0,1,1357.61,630Z" transform="translate(0 -403.77)" fill="#1f1f2d"/><g opacity="0.2" style="mix-blend-mode:multiply"><path d="M1357.54,614.24v17.47h-3.9s-3.1,0-2.27-4.62l3.9-11.45s.6-1.91,2.27-1.94Z" transform="translate(0 -403.77)" fill="#51337b"/></g><path d="M1486.17,308.57h5.21a0,0,0,0,1,0,0v7a0,0,0,0,1,0,0h-5.21a1.78,1.78,0,0,1-1.78-1.78v-3.43A1.78,1.78,0,0,1,1486.17,308.57Z" fill="#a567ff"/><path d="M1194.42,745.55s20.83-16.66,57.57-16.28c0,0,6.44-1.89,9.84-4.55s33-19.31,64-18.93,63.25,7.57,79.91,17.42c3,1.51,8.33,2.65,8.71,2.27s-.76,2.27-1.13,2.65,2.27,9.47,1.51,13.64c-.38,1.13,3.79,4.92,3.41,7.57s-1.14,11.36-8.71,14a44.26,44.26,0,0,1-13.26,2.66s2.65-9.09-.75-15.91a18.82,18.82,0,0,0-17.81-10.23c-7.19.38-14.77,4.17-17.8,14a32.44,32.44,0,0,0-1.13,8.33c0,4.54-.76,7.95-1.14,7.95s-1.89-1.89-5.68-1.51H1253.5s-1.51.38-1.51-.76-.38-13.26-3.79-19.32-9.85-10.22-19.32-9.46-17,9.84-17,20.83a46.19,46.19,0,0,0,.38,6.43c.38,1.52,1.14,2.66.38,3s-2.27-1.51-3.41-1.89-6.06-.38-8.33-1.14-6.06-1.89-5.68-2.65,3.41-.75,3.41-1.89-2.28-3.41-3.41-3.79-.76-1.51-.38-2.65S1193.28,746.31,1194.42,745.55Z" transform="translate(0 -403.77)" fill="#30303a"/><path d="M1194.42,745.55s20.83-16.66,57.57-16.28c0,0,6.44-1.89,9.84-4.55s33-19.31,64-18.93,63.25,7.57,79.91,17.42c3,1.51,8.33,2.65,8.71,2.27s-.76,2.27-1.13,2.65,2.27,9.47,1.51,13.64c-.38,1.13,3.79,4.92,3.41,7.57s-1.14,11.36-8.71,14a44.26,44.26,0,0,1-13.26,2.66s2.65-9.09-.75-15.91a18.82,18.82,0,0,0-17.81-10.23c-7.19.38-14.77,4.17-17.8,14a32.44,32.44,0,0,0-1.13,8.33c0,4.54-.76,7.95-1.14,7.95s-1.89-1.89-5.68-1.51H1253.5s-1.51.38-1.51-.76-.38-13.26-3.79-19.32-9.85-10.22-19.32-9.46-17,9.84-17,20.83a46.19,46.19,0,0,0,.38,6.43c.38,1.52,1.14,2.66.38,3s-2.27-1.51-3.41-1.89-6.06-.38-8.33-1.14-6.06-1.89-5.68-2.65,3.41-.75,3.41-1.89-2.28-3.41-3.41-3.79-.76-1.51-.38-2.65S1193.28,746.31,1194.42,745.55Z" transform="translate(0 -403.77)" fill="#2a2837"/><path d="M1194.42,747.43s21.73-14.25,58.47-13.9a74.31,74.31,0,0,0,8.94-5c3.41-2.41,33-15.47,64-15.13s63.27,4.28,79.94,13.24c3,1.37,7.11.79,7.49.45s.4.88,0,1.22,2.31,9.71,1.55,13.5c-.38,1,3.81,4.91,3.43,7.32s-1.27,12.4-9.48,14.6a67.28,67.28,0,0,1-12.51,2.33s2.65-10-.75-16.2a19.77,19.77,0,0,0-17.81-10c-7.19.35-15.9,4.83-17.8,15.14a27.05,27.05,0,0,0-1.13,7.57c0,4.13-.76,7.59-1.14,7.59s-1.89-2.08-5.68-1.74H1253.5s-1.51.35-1.51-.69-.38-13.65-3.79-19.16-9.85-10.15-19.32-9.46-17.18,10.24-17,21.39a38.44,38.44,0,0,0,.38,5.86c.38,1.37,1.14,2.41.38,2.75s-2.27-1.38-3.41-1.72-6.06-.34-8.33-1-6.06-1.72-5.68-2.41,3.41-.69,3.41-1.72-2.28-3.1-3.41-3.45-.76-1.37-.38-2.41S1193.28,748.12,1194.42,747.43Z" transform="translate(0 -403.77)" fill="#2a2837"/><circle cx="1378.48" cy="354.66" r="16.66" fill="#4a3d72"/><circle cx="1231.54" cy="354.66" r="16.66" fill="#4a3d72"/><path d="M1264.11,728.13h1.51c1.14,0,2.27,0,2.65-.75s1.14-4.17,4.17-4.55,5.68-.76,6.06.76.76,4.54,0,4.92-6.44-.38-6.82.38a2.94,2.94,0,0,0-.38,1.14l44.31-1.9,6.82-19.31S1288.72,707.68,1264.11,728.13Z" transform="translate(0 -403.77)" fill="#baa3ef"/><path d="M1324.7,727.75l4.93-19.31s24.23.38,35.22,4.54l-1.52,11.74S1346.67,727,1324.7,727.75Z" transform="translate(0 -403.77)" fill="#baa3ef"/><path d="M1366,713.36l-1.13,11s14.39-1.52,17.42-5.31c.38-.75-.38-1.13-1.52-1.51S1367.5,713.36,1366,713.36Z" transform="translate(0 -403.77)" fill="#baa3ef"/><path d="M1398.55,727.75s13.26-.75,14.4.76c0,0,1.13,6.06.75,6.82S1408.4,737.22,1398.55,727.75Z" transform="translate(0 -403.77)" fill="#51337b"/><path d="M1200.48,742.15a83.69,83.69,0,0,1,20.45-8.71s1.14,0-1.51,1.89-13.26,9.47-18.18,8.71C1199.72,743.66,1200.48,742.15,1200.48,742.15Z" transform="translate(0 -403.77)" fill="#baa3ef"/><circle cx="1231.54" cy="354.66" r="12.46" fill="#2a2837"/><circle cx="1378.48" cy="354.66" r="12.43" fill="#2a2837"/><path d="M1380.52,727.83l-.15,0c-13.66,1.42-14.27-10.8-14.27-10.8,10.7-.66,13.46,5.48,14.17,8.78.19-2.46,1.58-6.42,8.38-7.43C1388.65,718.4,1390,726.81,1380.52,727.83Z" transform="translate(0 -403.77)" fill="#a567ff"/><path d="M1386.49,720.92l-3.16,3.51,0,0-2.57,2.86a.3.3,0,0,1-.21.1.3.3,0,0,1-.16,0l-4.08-2.87-2.74-1.93-3.26.19h0a.28.28,0,0,1,0-.56l2.56-.15-3.29-2.32a.26.26,0,0,1-.07-.38.29.29,0,0,1,.4-.07l3.89,2.75a.14.14,0,0,1,.08.05l2.34,1.64v-1.87a.27.27,0,0,1,.28-.28.28.28,0,0,1,.28.28v2.27l3.75,2.64,2.35-2.61v-1.67a.28.28,0,1,1,.56,0v1l2.69-3a.27.27,0,0,1,.39,0A.29.29,0,0,1,1386.49,720.92Z" transform="translate(0 -403.77)" fill="#1f1f2d"/><rect x="1505" y="334.23" width="17" height="4" fill="#50337b"/><rect x="1505" y="329.23" width="17" height="4" fill="#50337b"/><rect x="1505" y="324.23" width="17" height="4" fill="#50337b"/><rect x="1505" y="319.23" width="17" height="4" fill="#50337b"/><circle cx="1379.5" cy="329.73" r="4.5" fill="#a567ff"/><path d="M1461.09,776H1384c-2.81,0-5-3.1-5-7.07V733h2v35.93c0,2.75,1.38,5.07,3,5.07h77.08c1.87,0,3.44-2.62,3.44-5.72l0-46.3c0-4.19,2.33-7.46,5.28-7.46H1485v2h-15.17c-1.77,0-3.27,2.5-3.28,5.46l0,46.3C1466.53,772.61,1464.14,776,1461.09,776Z" transform="translate(0 -403.77)" fill="#a567ff"/><polygon points="1024 207.23 1092 207.23 1143 264.23 1072.62 264.23 1024 207.23" fill="#2a2837"/><rect x="1122" y="167.23" width="28" height="7" fill="#181723"/><rect x="1150" y="167.23" width="30" height="7" fill="#1e1e2d"/><path d="M861.56,613.76l-2.7,7.93c-.51,1.5.32,3.2,1.58,3.2h5.4c1.25,0,2.09-1.7,1.57-3.2l-2.7-7.93C864.1,612,862.17,612,861.56,613.76Z" transform="translate(0 -403.77)" fill="#181723"/><path d="M863.14,629.88a.23.23,0,0,1-.23-.23V618.26a.23.23,0,0,1,.23-.23.23.23,0,0,1,.23.23v11.39A.24.24,0,0,1,863.14,629.88Z" transform="translate(0 -403.77)" fill="#181723"/><path d="M863.14,621.59a.25.25,0,0,1-.16-.06.22.22,0,0,1,0-.32l1.44-1.6a.23.23,0,0,1,.32,0,.24.24,0,0,1,0,.33l-1.44,1.6A.23.23,0,0,1,863.14,621.59Z" transform="translate(0 -403.77)" fill="#181723"/><path d="M863.14,623.71a.21.21,0,0,1-.19-.1l-1.11-1.53a.23.23,0,0,1,.38-.27l1.1,1.53a.24.24,0,0,1-.05.33A.33.33,0,0,1,863.14,623.71Z" transform="translate(0 -403.77)" fill="#181723"/><g opacity="0.2" style="mix-blend-mode:multiply"><path d="M863.09,612.8v12.12h-2.71s-2.15,0-1.58-3.21l2.71-8s.42-1.32,1.58-1.34Z" transform="translate(0 -403.77)" fill="#181723"/></g><path d="M1611.56,628.76l-2.7,7.93c-.51,1.5.32,3.2,1.58,3.2h5.4c1.25,0,2.09-1.7,1.57-3.2l-2.7-7.93C1614.1,627,1612.17,627,1611.56,628.76Z" transform="translate(0 -403.77)" fill="#181723"/><path d="M1613.14,644.88a.23.23,0,0,1-.23-.23V633.26a.23.23,0,0,1,.23-.23.23.23,0,0,1,.23.23v11.39A.24.24,0,0,1,1613.14,644.88Z" transform="translate(0 -403.77)" fill="#181723"/><path d="M1613.14,636.59a.25.25,0,0,1-.16-.06.22.22,0,0,1,0-.32l1.44-1.6a.23.23,0,0,1,.32,0,.24.24,0,0,1,0,.33l-1.44,1.6A.23.23,0,0,1,1613.14,636.59Z" transform="translate(0 -403.77)" fill="#181723"/><path d="M1613.14,638.71a.21.21,0,0,1-.19-.1l-1.11-1.53a.23.23,0,0,1,.38-.27l1.1,1.53a.24.24,0,0,1,0,.33A.33.33,0,0,1,1613.14,638.71Z" transform="translate(0 -403.77)" fill="#181723"/><g opacity="0.2" style="mix-blend-mode:multiply"><path d="M1613.09,627.8v12.12h-2.71s-2.15,0-1.58-3.21l2.71-8s.42-1.32,1.58-1.34Z" transform="translate(0 -403.77)" fill="#181723"/></g><path d="M873.11,619.05l-2.1,6.17c-.4,1.17.25,2.49,1.23,2.49h4.2c1,0,1.63-1.32,1.23-2.49l-2.1-6.17A1.25,1.25,0,0,0,873.11,619.05Z" transform="translate(0 -403.77)" fill="#181723"/><path d="M874.34,631.6a.18.18,0,0,1-.18-.18v-8.87a.18.18,0,1,1,.36,0v8.87A.18.18,0,0,1,874.34,631.6Z" transform="translate(0 -403.77)" fill="#181723"/><path d="M874.34,625.14a.17.17,0,0,1-.13-.29l1.12-1.25a.18.18,0,0,1,.27.24l-1.13,1.25A.19.19,0,0,1,874.34,625.14Z" transform="translate(0 -403.77)" fill="#181723"/><path d="M874.34,626.79a.18.18,0,0,1-.15-.07l-.86-1.2a.18.18,0,0,1,.29-.21l.86,1.2a.18.18,0,0,1,0,.25A.17.17,0,0,1,874.34,626.79Z" transform="translate(0 -403.77)" fill="#181723"/><g opacity="0.2" style="mix-blend-mode:multiply"><path d="M874.3,618.29v9.44h-2.11s-1.67,0-1.23-2.5l2.11-6.18s.33-1,1.23-1Z" transform="translate(0 -403.77)" fill="#181723"/></g><path d="M1216.81,577h30.38a16,16,0,0,0-30.38,0Z" transform="translate(0 -403.77)" fill="#181723"/><polygon points="982 190.23 991 196.87 973 196.87 982 190.23" fill="#181723"/><circle cx="1429.5" cy="90.73" r="30.5" opacity="0.4" fill="url(#radial-gradient)"/><circle cx="1429.5" cy="90.73" r="13.61" fill="#baa3ef"/><path d="M1345.2,620.89l-2.16,6.33c-.41,1.2.26,2.56,1.26,2.56h4.32c1,0,1.67-1.36,1.26-2.56l-2.16-6.33A1.27,1.27,0,0,0,1345.2,620.89Z" transform="translate(0 -403.77)" fill="#a567ff"/><path d="M1346.46,633.77a.19.19,0,0,1-.19-.19v-9.1a.19.19,0,0,1,.19-.18.18.18,0,0,1,.18.18v9.1A.18.18,0,0,1,1346.46,633.77Z" transform="translate(0 -403.77)" fill="#1f1f2d"/><path d="M1346.46,627.14a.2.2,0,0,1-.13,0,.19.19,0,0,1,0-.26l1.15-1.28a.19.19,0,0,1,.26,0,.18.18,0,0,1,0,.26l-1.16,1.27A.16.16,0,0,1,1346.46,627.14Z" transform="translate(0 -403.77)" fill="#1f1f2d"/><path d="M1346.46,628.84a.18.18,0,0,1-.15-.08l-.88-1.23a.18.18,0,0,1,.29-.21l.89,1.23a.18.18,0,0,1,0,.25A.17.17,0,0,1,1346.46,628.84Z" transform="translate(0 -403.77)" fill="#1f1f2d"/><g opacity="0.2" style="mix-blend-mode:multiply"><path d="M1346.42,620.11v9.69h-2.16s-1.72,0-1.27-2.56l2.17-6.35s.33-1.06,1.26-1.08Z" transform="translate(0 -403.77)" fill="#51337b"/></g><path d="M1193.71,590.79l-12.57,36.87c-2.38,7,1.51,14.9,7.34,14.9h25.12c5.83,0,9.72-7.9,7.34-14.9l-12.56-36.87C1205.54,582.46,1196.55,582.46,1193.71,590.79Z" transform="translate(0 -403.77)" fill="#a567ff"/><path d="M1201,665.76a1.07,1.07,0,0,1-1.07-1.07v-53a1.07,1.07,0,1,1,2.14,0v53A1.07,1.07,0,0,1,1201,665.76Z" transform="translate(0 -403.77)" fill="#1f1f2d"/><path d="M1201,627.22a1.07,1.07,0,0,1-.79-1.79L1207,618a1.07,1.07,0,1,1,1.59,1.43l-6.71,7.43A1.09,1.09,0,0,1,1201,627.22Z" transform="translate(0 -403.77)" fill="#1f1f2d"/><path d="M1201,637.07a1.08,1.08,0,0,1-.87-.45l-5.14-7.13a1.08,1.08,0,0,1,.25-1.5,1.07,1.07,0,0,1,1.49.24l5.14,7.14a1.07,1.07,0,0,1-.24,1.5A1.12,1.12,0,0,1,1201,637.07Z" transform="translate(0 -403.77)" fill="#1f1f2d"/><path d="M1211.55,669.16a5,5,0,0,1-5,5c-.22,0-.43,0-.64,0a7.3,7.3,0,0,1-5.35,2.33,7.18,7.18,0,0,1-1.92-.26,9,9,0,0,1-12.07-.88,6.57,6.57,0,0,1-1.26.13,6.29,6.29,0,0,1-5.32-2.94h-.16a3.35,3.35,0,1,1,0-6.7h.16a6.28,6.28,0,0,1,5.32-2.93,6.56,6.56,0,0,1,1.26.12,9,9,0,0,1,12.07-.88,7.18,7.18,0,0,1,1.92-.26,7.3,7.3,0,0,1,5.35,2.33c.21,0,.42,0,.64,0A5,5,0,0,1,1211.55,669.16Z" transform="translate(0 -403.77)" fill="#51337b"/><path d="M1224.9,663.74a6.8,6.8,0,0,1-6.81,6.81,8.3,8.3,0,0,1-.87,0,9.94,9.94,0,0,1-9.89,2.82,12.2,12.2,0,0,1-16.42-1.2,8.7,8.7,0,0,1-1.71.17,8.53,8.53,0,0,1-7.23-4h-.23a4.56,4.56,0,0,1,0-9.11h.23a8.53,8.53,0,0,1,7.23-4,8.7,8.7,0,0,1,1.71.17,12.2,12.2,0,0,1,16.42-1.2,9.94,9.94,0,0,1,9.89,2.82,6.26,6.26,0,0,1,.87,0A6.8,6.8,0,0,1,1224.9,663.74Z" transform="translate(0 -403.77)" fill="#51337b"/><path d="M1184.78,673.6a3.22,3.22,0,0,1-3.22,3.22l-.41,0a4.69,4.69,0,0,1-3.44,1.49,4.56,4.56,0,0,1-1.23-.16,5.76,5.76,0,0,1-7.76-.57,3.59,3.59,0,0,1-.81.08,4,4,0,0,1-3.42-1.88h-.1a2.16,2.16,0,1,1,0-4.31h.1a4.06,4.06,0,0,1,3.42-1.89,4.28,4.28,0,0,1,.81.08,5.77,5.77,0,0,1,7.76-.56,4.57,4.57,0,0,1,1.23-.17,4.69,4.69,0,0,1,3.44,1.5,2.82,2.82,0,0,1,.41,0A3.22,3.22,0,0,1,1184.78,673.6Z" transform="translate(0 -403.77)" fill="#51337b"/><g opacity="0.2" style="mix-blend-mode:multiply"><path d="M1201,586.3v56.26h-12.72s-10.11,0-7.43-14.9l12.72-36.87s2-6.15,7.43-6.25Z" transform="translate(0 -403.77)" fill="#51337b"/></g><rect x="1146" y="179.23" width="2" height="6" fill="#1f1f2d"/><rect x="1151" y="179.23" width="2" height="6" fill="#1f1f2d"/><rect x="1156" y="179.23" width="2" height="6" fill="#1f1f2d"/><polygon points="1095 215.23 1035 215.23 1035 217.23 1049 233.23 1110 233.23 1110 231.23 1095 215.23" fill="#1f1f2d"/><polygon points="1035 215.23 1095 215.23 1110 231.23 1049 231.23 1035 215.23" fill="#2a2837"/><polygon points="1083.22 222.73 1091.89 222.73 1085.22 215.23 1076.56 215.23 1083.22 222.73" fill="#baa3ef"/><polygon points="1062.78 223.73 1054.11 223.73 1060.78 231.23 1069.44 231.23 1062.78 223.73" fill="#baa3ef"/><polygon points="1053.22 222.73 1061.89 222.73 1055.22 215.23 1046.56 215.23 1053.22 222.73" fill="#baa3ef"/><polygon points="1063.22 222.73 1071.89 222.73 1065.22 215.23 1056.56 215.23 1063.22 222.73" fill="#baa3ef"/><polygon points="1073.22 222.73 1081.89 222.73 1075.22 215.23 1066.56 215.23 1073.22 222.73" fill="#baa3ef"/><polygon points="1072.78 223.73 1064.11 223.73 1070.78 231.23 1079.44 231.23 1072.78 223.73" fill="#baa3ef"/><polygon points="1093.22 222.73 1102.03 222.73 1095 215.23 1086.56 215.23 1093.22 222.73" fill="#baa3ef"/><polygon points="1051.89 222.73 1045.22 215.23 1035 215.23 1041.56 222.73 1051.89 222.73" fill="#baa3ef"/><polygon points="1052.78 223.73 1042.44 223.73 1049 231.23 1059.44 231.23 1052.78 223.73" fill="#baa3ef"/><polygon points="1082.78 223.73 1074.11 223.73 1080.78 231.23 1089.44 231.23 1082.78 223.73" fill="#baa3ef"/><polygon points="1092.78 223.73 1084.11 223.73 1090.78 231.23 1099.44 231.23 1092.78 223.73" fill="#baa3ef"/><polygon points="1102.97 223.73 1094.11 223.73 1100.78 231.23 1110 231.23 1102.97 223.73" fill="#baa3ef"/><polygon points="1111.5 233.73 1051.5 233.73 1051.5 235.73 1065.5 251.73 1126.5 251.73 1126.5 249.73 1111.5 233.73" fill="#1f1f2d"/><polygon points="1099.72 241.23 1108.39 241.23 1101.72 233.73 1093.06 233.73 1099.72 241.23" fill="#baa3ef"/><polygon points="1079.28 242.23 1070.61 242.23 1077.28 249.73 1085.94 249.73 1079.28 242.23" fill="#baa3ef"/><polygon points="1069.72 241.23 1078.39 241.23 1071.72 233.73 1063.06 233.73 1069.72 241.23" fill="#baa3ef"/><polygon points="1079.72 241.23 1088.39 241.23 1081.72 233.73 1073.06 233.73 1079.72 241.23" fill="#baa3ef"/><polygon points="1089.72 241.23 1098.39 241.23 1091.72 233.73 1083.06 233.73 1089.72 241.23" fill="#baa3ef"/><polygon points="1089.28 242.23 1080.61 242.23 1087.28 249.73 1095.94 249.73 1089.28 242.23" fill="#baa3ef"/><polygon points="1109.72 241.23 1118.53 241.23 1111.5 233.73 1103.06 233.73 1109.72 241.23" fill="#baa3ef"/><polygon points="1068.39 241.23 1061.72 233.73 1051.5 233.73 1058.06 241.23 1068.39 241.23" fill="#baa3ef"/><polygon points="1069.28 242.23 1058.94 242.23 1065.5 249.73 1075.94 249.73 1069.28 242.23" fill="#baa3ef"/><polygon points="1099.28 242.23 1090.61 242.23 1097.28 249.73 1105.94 249.73 1099.28 242.23" fill="#baa3ef"/><polygon points="1109.28 242.23 1100.61 242.23 1107.28 249.73 1115.94 249.73 1109.28 242.23" fill="#baa3ef"/><polygon points="1119.47 242.23 1110.61 242.23 1117.28 249.73 1126.5 249.73 1119.47 242.23" fill="#baa3ef"/></g></g></svg>