<?xml version="1.0" encoding="utf-8"?>
<!-- Generator: Adobe Illustrator 24.2.0, SVG Export Plug-In . SVG Version: 6.00 Build 0)  -->
<svg version="1.1" id="Layer_1" xmlns="http://www.w3.org/2000/svg" xmlns:xlink="http://www.w3.org/1999/xlink" x="0px" y="0px"
	 viewBox="0 0 2129 372.5" style="enable-background:new 0 0 2129 372.5;" xml:space="preserve">
<style type="text/css">
	.st0{fill:#372756;}
	.st1{fill:#181422;}
	.st2{fill:#A567FF;}
	.st3{fill:#1F1F2D;}
	.st4{fill:#181723;}
	.st5{opacity:0.2;}
	.st6{fill:#1E1E2D;}
	.st7{fill:#272735;}
	.st8{opacity:0.8;}
	.st9{fill:#1C1828;}
	.st10{fill:#BAA3EF;}
	.st11{fill:#51337B;}
	.st12{fill:#2E2D3A;}
	.st13{fill:#1E1E28;}
	.st14{fill:#13111E;}
	.st15{fill:#363649;}
	.st16{fill:#50337B;}
	.st17{fill:#30303A;}
	.st18{fill:#4A3D72;}
	.st19{opacity:0.4;fill:url(#SVGID_1_);enable-background:new    ;}
	.st20{fill:none;}
</style>
<path class="st0" d="M1786.9,251.4H623.1c-29.5,0-53.4-25.9-53.4-57.8s23.9-57.8,53.4-57.8h1163.8c29.5,0,53.4,25.9,53.4,57.8
	S1816.4,251.4,1786.9,251.4z"/>
<path class="st0" d="M2046.4,353.2H269.1c-45,0-81.6-24.6-81.6-55s36.5-55,81.6-55h1777.3c45,0,81.6,24.6,81.6,55
	S2091.5,353.2,2046.4,353.2z"/>
<path class="st0" d="M1582.2,142.3H674.9c-23,0-41.6-24.5-41.6-54.7S651.9,33,674.9,33h907.3c23,0,41.6,24.5,41.6,54.6
	C1623.8,117.8,1605.2,142.3,1582.2,142.3z"/>
<path class="st0" d="M1543.8,49.4h-594c-15.1,0-27.3-11-27.3-24.7S934.8,0,949.8,0h594c15.1,0,27.3,11,27.3,24.7
	S1558.9,49.4,1543.8,49.4z"/>
<path class="st1" d="M1691,319.2c0,0-36.3-81-81-81h-44c0-34.3-27.8-62.1-62.1-62.1l0,0h-198.4c-53,0-95.9,43-95.9,96v34.1"/>
<path class="st2" d="M697.2,333.1c-0.6-0.9-1.5-1.5-2.6-1.6c0,0-1.5-3.4-4.1-3.5c-1.4-0.1-2.8,0.3-4,1c0,0-0.9-0.4-1.2,0.1
	c0,0-2.6-0.6-3.2,0.7c0,0-3.4-1.6-5,0.7c-0.6,0.2-0.9,0.8-0.8,1.4c0,0-2.3-0.5-2.7,0.7c-0.3,0.7-0.3,1.5-0.3,2.2c0,0-1.4,0-1.1,1.1
	s2.8,1,2.8,1s0.7,0.6,3.3,0.5s3.6-0.6,3.9-0.4s0.5,0.8,1.6,0.4s1-0.5,1.8-0.5s3.8-0.4,4.7,0.1s2.1,1.3,3.4,0.5c0,0,1.9,0.6,2.7-0.4
	c1.1,0.2,2-0.6,2.2-1.6c0.1-0.9-0.4-1.9-1.3-2.1L697.2,333.1z"/>
<rect x="740.2" y="200" class="st3" width="49" height="40.9"/>
<rect x="744.1" y="192.7" class="st3" width="17.5" height="8.5"/>
<rect x="767.7" y="192.7" class="st3" width="17.5" height="8.5"/>
<polygon class="st3" points="744.1,192.7 746.5,187.6 759.7,187.6 761.6,192.7 "/>
<polygon class="st3" points="767.7,192.7 770.1,187.6 783.3,187.6 785.2,192.7 "/>
<rect x="746.5" y="135.2" class="st3" width="13.2" height="52.4"/>
<rect x="770.1" y="135.2" class="st3" width="13.2" height="52.4"/>
<polygon class="st3" points="746.5,135.2 744.5,133.2 761.2,133.2 759.7,135.2 "/>
<polygon class="st3" points="770.1,135.2 768.1,133.2 784.8,133.2 783.3,135.2 "/>
<rect x="744.5" y="126.9" class="st3" width="16.7" height="6.3"/>
<rect x="768.1" y="126.9" class="st3" width="16.7" height="6.3"/>
<rect x="674.1" y="215.1" class="st3" width="49" height="40.9"/>
<rect x="728.5" y="215.1" class="st3" width="28.9" height="40.9"/>
<rect x="678" y="207.8" class="st3" width="17.5" height="8.5"/>
<rect x="701.6" y="207.8" class="st3" width="17.5" height="8.5"/>
<polygon class="st3" points="678,207.8 680.4,202.7 693.6,202.7 695.5,207.8 "/>
<polygon class="st3" points="701.6,207.8 704,202.7 717.2,202.7 719.1,207.8 "/>
<rect x="680.4" y="150.3" class="st3" width="13.2" height="52.4"/>
<rect x="704" y="150.3" class="st3" width="13.2" height="52.4"/>
<polygon class="st3" points="680.4,150.3 678.4,148.3 695.1,148.3 693.6,150.3 "/>
<polygon class="st3" points="704,150.3 702,148.3 718.7,148.3 717.2,150.3 "/>
<rect x="678.4" y="142" class="st3" width="16.7" height="6.3"/>
<rect x="702" y="142" class="st3" width="16.7" height="6.3"/>
<rect x="674.1" y="215.1" class="st4" width="36.2" height="30.9"/>
<polygon class="st4" points="776.6,200 776.6,230.9 764.9,230.9 764.9,246 728.5,246 728.5,215.1 740.2,215.1 740.2,200 "/>
<path class="st4" d="M1279.9,164.9l-2.7,7.9c-0.5,1.5,0.3,3.2,1.6,3.2h5.4c1.2,0,2.1-1.7,1.6-3.2l-2.7-7.9
	C1282.5,163.1,1280.5,163.1,1279.9,164.9z"/>
<path class="st4" d="M1281.5,181c-0.1,0-0.2-0.1-0.2-0.2v-11.4c0-0.1,0.1-0.2,0.2-0.2s0.2,0.1,0.2,0.2l0,0v11.4
	C1281.7,180.9,1281.6,181,1281.5,181z"/>
<path class="st4" d="M1281.5,172.7c-0.1,0-0.1,0-0.2,0c-0.1-0.1-0.1-0.2,0-0.3l1.4-1.6c0.1-0.1,0.2-0.1,0.3,0c0.1,0.1,0.1,0.2,0,0.3
	l0,0l-1.4,1.6C1281.6,172.7,1281.6,172.7,1281.5,172.7z"/>
<path class="st4" d="M1281.5,174.8c-0.1,0-0.1,0-0.2-0.1l-1.1-1.5c-0.1-0.1-0.1-0.2,0-0.3s0.2-0.1,0.3,0l1.1,1.5
	c0.1,0.1,0.1,0.2,0,0.3C1281.6,174.8,1281.5,174.8,1281.5,174.8z"/>
<g class="st5">
	<path class="st4" d="M1281.4,163.9V176h-2.7c0,0-2.2,0-1.6-3.2l2.7-7.9c0,0,0.4-1.3,1.6-1.3V163.9z"/>
</g>
<path class="st4" d="M1270.1,168.9l-2.4,6.9c-0.4,1.3,0.3,2.8,1.4,2.8h4.7c1.1,0,1.8-1.5,1.4-2.8l-2.4-6.9c-0.1-0.8-0.8-1.3-1.6-1.2
	C1270.7,167.8,1270.2,168.2,1270.1,168.9z"/>
<path class="st4" d="M1271.5,182.9c-0.1,0-0.2-0.1-0.2-0.2v-9.9c0-0.1,0.1-0.2,0.2-0.2s0.2,0.1,0.2,0.2v9.9
	C1271.7,182.8,1271.6,182.9,1271.5,182.9L1271.5,182.9z"/>
<path class="st4" d="M1271.5,175.7L1271.5,175.7c-0.2-0.1-0.2-0.2-0.1-0.3l1.3-1.4c0.1-0.1,0.2-0.1,0.3,0c0.1,0.1,0.1,0.2,0,0.3
	l-1.3,1.4C1271.6,175.7,1271.5,175.7,1271.5,175.7z"/>
<path class="st4" d="M1271.5,177.5c-0.1,0-0.1,0-0.2-0.1l-1-1.3c-0.1-0.1-0.1-0.2,0-0.3s0.2-0.1,0.3,0l1,1.3
	C1271.7,177.3,1271.6,177.4,1271.5,177.5L1271.5,177.5z"/>
<g class="st5">
	<path class="st4" d="M1271.4,168v10.6h-2.4c0,0-1.9,0-1.4-2.8l2.4-6.9c0,0,0.4-1.2,1.4-1.2V168z"/>
</g>
<path class="st4" d="M1289.4,169.2l-1.3,3.9c-0.2,0.7,0.2,1.6,0.8,1.6h2.7c0.6,0,1-0.8,0.8-1.6l-1.3-3.9c0-0.4-0.4-0.8-0.8-0.8
	C1289.8,168.4,1289.4,168.8,1289.4,169.2z"/>
<path class="st4" d="M1290.2,177.2c-0.1,0-0.1,0-0.1-0.1l0,0v-5.6c0-0.1,0-0.1,0.1-0.1l0,0c0.1,0,0.1,0,0.1,0.1v5.6
	C1290.3,177.1,1290.2,177.2,1290.2,177.2z"/>
<path class="st4" d="M1290.2,173.1C1290.2,173.1,1290.1,173.1,1290.2,173.1c-0.1,0-0.1-0.1-0.1-0.2l0,0l0.7-0.8c0,0,0.1-0.1,0.2,0
	s0.1,0.1,0,0.2l0,0L1290.2,173.1L1290.2,173.1z"/>
<path class="st4" d="M1290.2,174.1C1290.1,174.2,1290.1,174.2,1290.2,174.1l-0.6-0.8c0,0,0-0.1,0-0.2l0,0c0,0,0.1,0,0.2,0l0.6,0.8
	C1290.3,174,1290.3,174.1,1290.2,174.1L1290.2,174.1z"/>
<g class="st5">
	<path class="st4" d="M1290.2,168.8v6h-1.3c0,0-1.1,0-0.8-1.6l1.3-3.9c0,0,0.2-0.7,0.8-0.7V168.8z"/>
</g>
<path class="st4" d="M805.9,205.9l-2.7,7.9c-0.5,1.5,0.3,3.2,1.6,3.2h5.4c1.2,0,2.1-1.7,1.6-3.2l-2.7-7.9
	C808.5,204.1,806.5,204.1,805.9,205.9z"/>
<path class="st4" d="M807.5,222c-0.1,0-0.2-0.1-0.2-0.2v-11.4c0-0.1,0.1-0.2,0.2-0.2c0.1,0,0.2,0.1,0.2,0.2v11.4
	C807.7,221.9,807.6,222,807.5,222L807.5,222z"/>
<path class="st4" d="M807.5,213.7c-0.1,0-0.1,0-0.2,0c-0.1-0.1-0.1-0.2,0-0.3l1.4-1.6c0.1-0.1,0.2-0.1,0.3,0s0.1,0.2,0,0.3l0,0
	L807.5,213.7C807.6,213.7,807.6,213.7,807.5,213.7z"/>
<path class="st4" d="M807.5,215.8c-0.1,0-0.1,0-0.2-0.1l-1.1-1.5c-0.1-0.1-0.1-0.2,0-0.3s0.2-0.1,0.3,0l1.1,1.5
	c0.1,0.1,0.1,0.2,0,0.3C807.6,215.8,807.5,215.8,807.5,215.8z"/>
<g class="st5">
	<path class="st4" d="M807.4,204.9V217h-2.7c0,0-2.2,0-1.6-3.2l2.7-7.9c0,0,0.4-1.3,1.6-1.3V204.9z"/>
</g>
<path class="st4" d="M795.1,207.9l-2.4,6.9c-0.5,1.3,0.3,2.8,1.4,2.8h4.7c1.1,0,1.8-1.5,1.4-2.8l-2.4-6.9c-0.1-0.8-0.8-1.3-1.6-1.2
	C795.7,206.8,795.2,207.2,795.1,207.9z"/>
<path class="st4" d="M796.5,221.9c-0.1,0-0.2-0.1-0.2-0.2l0,0v-9.9c0-0.1,0.1-0.2,0.2-0.2s0.2,0.1,0.2,0.2l0,0v9.9
	C796.7,221.8,796.6,221.9,796.5,221.9L796.5,221.9z"/>
<path class="st4" d="M796.5,214.7L796.5,214.7c-0.2-0.1-0.2-0.2-0.1-0.3l1.3-1.4c0.1-0.1,0.2-0.1,0.3,0s0.1,0.2,0,0.3l-1.3,1.4
	C796.6,214.7,796.5,214.7,796.5,214.7z"/>
<path class="st4" d="M796.5,216.5c-0.1,0-0.1,0-0.2-0.1l-1-1.3c-0.1-0.1-0.1-0.2,0-0.3s0.2-0.1,0.3,0l1,1.3c0.1,0.1,0.1,0.2,0,0.3
	L796.5,216.5z"/>
<g class="st5">
	<path class="st4" d="M796.5,207v10.6h-2.4c0,0-1.9,0-1.4-2.8l2.4-6.9c0,0,0.4-1.2,1.4-1.2V207z"/>
</g>
<path class="st4" d="M818.4,213.2l-1.3,3.9c-0.2,0.7,0.2,1.6,0.8,1.6h2.7c0.6,0,1-0.8,0.8-1.6l-1.3-3.9c0-0.4-0.4-0.8-0.8-0.8
	S818.4,212.8,818.4,213.2z"/>
<path class="st4" d="M819.2,221.2c-0.1,0-0.1,0-0.1-0.1l0,0v-5.6c0-0.1,0-0.1,0.1-0.1l0,0c0.1,0,0.1,0,0.1,0.1v5.6
	C819.3,221.1,819.2,221.2,819.2,221.2z"/>
<path class="st4" d="M819.2,217.1C819.2,217.1,819.1,217.1,819.2,217.1c-0.1,0-0.1-0.1-0.1-0.2l0,0l0.7-0.8c0,0,0.1-0.1,0.2,0
	c0,0,0.1,0.1,0,0.2l0,0L819.2,217.1L819.2,217.1z"/>
<path class="st4" d="M819.2,218.1C819.1,218.2,819.1,218.2,819.2,218.1l-0.6-0.8c0,0,0-0.1,0-0.2l0,0c0,0,0.1,0,0.2,0l0.5,0.8
	C819.3,218,819.3,218.1,819.2,218.1L819.2,218.1z"/>
<g class="st5">
	<path class="st4" d="M819.2,212.8v6h-1.3c0,0-1.1,0-0.8-1.6l1.3-3.9c0,0,0.2-0.7,0.8-0.7V212.8z"/>
</g>
<path class="st4" d="M1353.2,160l-2.7,7.9c-0.5,1.5,0.3,3.2,1.6,3.2h5.4c1.2,0,2.1-1.7,1.6-3.2l-2.7-7.9
	C1355.7,158.2,1353.8,158.2,1353.2,160z"/>
<path class="st4" d="M1354.7,176.1c-0.1,0-0.2-0.1-0.2-0.2v-11.4c0-0.1,0.1-0.2,0.2-0.2s0.2,0.1,0.2,0.2v11.4
	C1355,176,1354.9,176.1,1354.7,176.1z"/>
<path class="st4" d="M1354.7,167.8c-0.1,0-0.1,0-0.2-0.1s-0.1-0.2,0-0.3l0,0l1.4-1.6c0.1-0.1,0.2-0.1,0.3,0c0.1,0.1,0.1,0.2,0,0.3
	l-1.4,1.6C1354.9,167.8,1354.8,167.8,1354.7,167.8z"/>
<path class="st4" d="M1354.7,170c-0.1,0-0.1,0-0.2-0.1l-1.1-1.5c-0.1-0.1-0.1-0.2,0-0.3s0.2,0,0.3,0.1l0,0l1.1,1.5
	C1354.9,169.7,1354.9,169.8,1354.7,170C1354.8,169.9,1354.8,169.9,1354.7,170C1354.8,169.9,1354.8,169.9,1354.7,170z"/>
<g class="st5">
	<path class="st4" d="M1354.7,159v12.1h-2.7c0,0-2.2,0-1.6-3.2l2.7-7.9c0,0,0.4-1.3,1.6-1.3V159z"/>
</g>
<path class="st4" d="M1516.9,162.1l-2.7,7.9c-0.5,1.5,0.3,3.2,1.6,3.2h5.4c1.2,0,2.1-1.7,1.6-3.2l-2.7-7.9
	C1519.5,160.3,1517.5,160.3,1516.9,162.1z"/>
<path class="st4" d="M1518.5,178.2c-0.1,0-0.2-0.1-0.2-0.2v-11.4c0-0.1,0.1-0.2,0.2-0.2s0.2,0.1,0.2,0.2l0,0V178
	C1518.7,178.1,1518.6,178.2,1518.5,178.2z"/>
<path class="st4" d="M1518.5,169.9c-0.1,0-0.1,0-0.2-0.1s-0.1-0.2,0-0.3l0,0l1.4-1.6c0.1-0.1,0.2-0.1,0.3,0c0.1,0.1,0.1,0.2,0,0.3
	l0,0l-1.4,1.6C1518.6,169.9,1518.6,169.9,1518.5,169.9z"/>
<path class="st4" d="M1518.5,172.1c-0.1,0-0.1,0-0.2-0.1l-1.1-1.5c-0.1-0.1-0.1-0.2,0-0.3s0.2-0.1,0.3,0l0,0l1.1,1.5
	c0.1,0.1,0,0.2-0.1,0.3l0,0C1518.6,172,1518.6,172.1,1518.5,172.1z"/>
<g class="st5">
	<path class="st4" d="M1518.5,161.1v12.1h-2.7c0,0-2.2,0-1.6-3.2l2.7-8c0,0,0.4-1.3,1.6-1.3V161.1z"/>
</g>
<path class="st4" d="M1449.8,164.2l-2.4,6.9c-0.4,1.3,0.3,2.8,1.4,2.8h4.7c1.1,0,1.8-1.5,1.4-2.8l-2.4-6.9c-0.1-0.8-0.8-1.3-1.6-1.2
	C1450.3,163.1,1449.8,163.6,1449.8,164.2z"/>
<path class="st4" d="M1451.1,178.3c-0.1,0-0.2-0.1-0.2-0.2l0,0v-9.9c0-0.1,0.1-0.2,0.2-0.2l0,0c0.1,0,0.2,0.1,0.2,0.2v9.9
	C1451.3,178.2,1451.2,178.3,1451.1,178.3z"/>
<path class="st4" d="M1451.1,171.1C1451,171.1,1451,171.1,1451.1,171.1c-0.2-0.1-0.2-0.2-0.1-0.3l1.3-1.4c0.1-0.1,0.2-0.1,0.3,0
	c0.1,0.1,0.1,0.2,0,0.2l-1.3,1.4C1451.2,171.1,1451.2,171.1,1451.1,171.1z"/>
<path class="st4" d="M1451.1,172.9c-0.1,0-0.1,0-0.2-0.1l-1-1.3c-0.1-0.1,0-0.2,0-0.3c0.1-0.1,0.2,0,0.3,0l1,1.3
	c0.1,0.1,0.1,0.2,0,0.3C1451.2,172.9,1451.2,172.9,1451.1,172.9z"/>
<g class="st5">
	<path class="st4" d="M1451.1,163.4V174h-2.4c0,0-1.9,0-1.4-2.8l2.4-6.9c0,0,0.4-1.2,1.4-1.2V163.4z"/>
</g>
<path class="st4" d="M1508.1,165.9l-1.8,5.1c-0.3,1,0.2,2.1,1,2.1h3.5c0.8,0,1.3-1.1,1-2.1l-1.8-5.1c0-0.6-0.4-1-1-1
	S1508.1,165.4,1508.1,165.9z"/>
<path class="st4" d="M1509.1,176.4c-0.1,0-0.2-0.1-0.2-0.1l0,0v-7.4c0-0.1,0.1-0.2,0.2-0.2s0.2,0.1,0.2,0.2v7.4
	C1509.3,176.3,1509.2,176.4,1509.1,176.4L1509.1,176.4z"/>
<path class="st4" d="M1509.1,171L1509.1,171c-0.2-0.1-0.2-0.2-0.1-0.2l0.9-1c0.1-0.1,0.2-0.1,0.2,0c0.1,0.1,0.1,0.1,0,0.2l0,0
	L1509.1,171C1509.2,171,1509.2,171,1509.1,171z"/>
<path class="st4" d="M1509.1,172.4c0,0-0.1,0-0.1-0.1l-0.7-1c-0.1-0.1-0.1-0.1,0-0.2l0,0c0.1-0.1,0.2-0.1,0.2,0l0.7,1
	C1509.3,172.2,1509.3,172.3,1509.1,172.4L1509.1,172.4z"/>
<g class="st5">
	<path class="st4" d="M1509.1,165.3v7.8h-1.8c0,0-1.4,0-1-2.1l1.8-5.1c0,0,0.3-0.9,1-0.9V165.3z"/>
</g>
<path class="st4" d="M1362.2,166.6l-1.3,3.9c-0.3,0.7,0.2,1.6,0.8,1.6h2.7c0.6,0,1-0.8,0.8-1.6l-1.3-3.9c-0.1-0.4-0.5-0.7-0.9-0.6
	C1362.5,166,1362.2,166.2,1362.2,166.6z"/>
<path class="st4" d="M1362.9,174.5c-0.1,0-0.1,0-0.1-0.1v-5.6c0-0.1,0-0.1,0.1-0.1s0.1,0,0.1,0.1l0,0v5.6
	C1363.1,174.5,1363,174.5,1362.9,174.5L1362.9,174.5z"/>
<path class="st4" d="M1362.9,170.4L1362.9,170.4c-0.1,0-0.1-0.1-0.1-0.2l0,0l0.7-0.8c0.1,0,0.1,0,0.2,0v0.1L1362.9,170.4
	C1363,170.4,1363,170.4,1362.9,170.4z"/>
<path class="st4" d="M1362.9,171.5L1362.9,171.5l-0.6-0.8c0,0,0-0.1,0-0.2l0,0c0,0,0.1,0,0.2,0l0,0l0.6,0.8
	C1363.1,171.3,1363.1,171.4,1362.9,171.5C1363,171.5,1363,171.5,1362.9,171.5z"/>
<g class="st5">
	<path class="st4" d="M1362.9,166.1v6h-1.3c0,0-1.1,0-0.8-1.6l1.3-3.9c0,0,0.2-0.7,0.8-0.7V166.1z"/>
</g>
<path class="st4" d="M1474.9,177.9l-1.3,3.9c-0.2,0.7,0.2,1.6,0.8,1.6h2.7c0.6,0,1-0.8,0.8-1.6l-1.3-3.9c0-0.4-0.4-0.8-0.8-0.8
	S1474.9,177.5,1474.9,177.9z"/>
<path class="st4" d="M1475.6,185.8c-0.1,0-0.1,0-0.1-0.1v-5.6c0-0.1,0-0.1,0.1-0.1s0.1,0,0.1,0.1l0,0v5.6
	C1475.8,185.8,1475.7,185.8,1475.6,185.8z"/>
<path class="st4" d="M1475.6,181.8L1475.6,181.8c-0.1,0-0.1-0.1-0.1-0.2l0.7-0.8c0,0,0.1,0,0.2,0c0,0,0,0.1,0,0.2l0,0L1475.6,181.8
	C1475.7,181.8,1475.7,181.8,1475.6,181.8z"/>
<path class="st4" d="M1475.6,182.8L1475.6,182.8l-0.6-0.8c0,0,0-0.1,0-0.2c0,0,0.1,0,0.2,0l0,0l0.5,0.8
	C1475.7,182.7,1475.7,182.7,1475.6,182.8C1475.7,182.8,1475.7,182.8,1475.6,182.8C1475.7,182.8,1475.7,182.8,1475.6,182.8z"/>
<g class="st5">
	<path class="st4" d="M1475.6,177.4v6h-1.3c0,0-1.1,0-0.8-1.6l1.3-3.9c0,0,0.2-0.7,0.8-0.7V177.4z"/>
</g>
<path class="st4" d="M1342.1,168.7l-1.3,3.9c-0.2,0.7,0.2,1.6,0.8,1.6h2.7c0.6,0,1-0.8,0.8-1.6l-1.3-3.9c-0.1-0.4-0.5-0.7-0.9-0.7
	C1342.4,168.1,1342.2,168.3,1342.1,168.7z"/>
<path class="st4" d="M1342.9,176.6c-0.1,0-0.1-0.1-0.1-0.1v-5.6c0-0.1,0.1-0.1,0.1-0.1c0.1,0,0.1,0,0.1,0.1v5.6
	C1343,176.6,1343,176.6,1342.9,176.6L1342.9,176.6z"/>
<path class="st4" d="M1342.9,172.5C1342.9,172.6,1342.8,172.6,1342.9,172.5c-0.1,0-0.1-0.1-0.1-0.2l0.7-0.8c0,0,0.1-0.1,0.2,0
	s0.1,0.1,0,0.2l0,0L1342.9,172.5C1343,172.6,1342.9,172.6,1342.9,172.5z"/>
<path class="st4" d="M1342.9,173.6C1342.9,173.6,1342.8,173.6,1342.9,173.6l-0.6-0.8v-0.1l0,0c0,0,0.1,0,0.2,0l0,0l0.5,0.8
	C1343,173.4,1343,173.5,1342.9,173.6C1343,173.5,1343,173.5,1342.9,173.6L1342.9,173.6z"/>
<g class="st5">
	<path class="st4" d="M1342.9,168.2v6h-1.3c0,0-1.1,0-0.8-1.6l1.3-3.9c0,0,0.2-0.7,0.8-0.7V168.2z"/>
</g>
<rect x="1090.2" y="190.2" class="st3" width="27.1" height="157.9"/>
<rect x="1115.4" y="173.9" class="st6" width="71.9" height="171.6"/>
<rect x="1115.4" y="173.9" class="st4" width="27.6" height="171.6"/>
<rect x="1185" y="218" class="st4" width="24.6" height="127.6"/>
<rect x="973" y="196.9" class="st3" width="35.2" height="171.6"/>
<rect x="973" y="196.9" class="st4" width="18" height="171.6"/>
<polygon class="st3" points="998,190.2 982,190.2 973,196.9 1008.2,196.9 "/>
<polygon class="st4" points="1050,371.1 1014,371.1 1014,200.2 1050,181.2 "/>
<polygon class="st3" points="1024,207.2 974.4,264.1 1072.6,264.1 "/>
<path class="st3" d="M898.5,84.3c-0.3,0.9-0.9,1.6-1.8,2l6.9,183.3h-14.5l5-183.4c-0.4-0.2-0.7-0.4-1-0.7"/>
<path class="st7" d="M849.4,143.9c-0.2,0.6-0.6,1.1-1.2,1.3l4.5,119.9h-9.5l3.3-119.9c-0.2-0.1-0.5-0.3-0.7-0.5"/>
<path class="st3" d="M952.4,130.7c-0.3,0.9-0.9,1.6-1.8,2l6.9,183.3H943l5-183.4c-0.4-0.2-0.7-0.4-1-0.7"/>
<path class="st1" d="M1255,190.2c0,0-29.9,17.7-74.4,77.8s-146.4,50.7-212.8,0c-54.6-41.6-133.2-57.8-229-40.8
	s-115.9,80.5-115.9,80.5l94.2,51.1l361.6-13.5l96-1.5l20.4-39.9l60-24.6L1255,190.2L1255,190.2z"/>
<g class="st8">
	<path class="st4" d="M1543.3,286.3c-0.8-4.9-0.7-7.9-2.2-12.6c-0.4-1.2-1.2-3-1.6-4.2c-0.1-0.3-0.6-1.5-0.6-1.6
		c-0.1-0.3-0.4-0.8-0.5-1.1c-1-2.2-2.1-4.4-3.1-6.5c-2.2-4.6-5-9.2-7.3-13.8c-0.8-1.8-1.7-3.5-2.7-5.2c-0.4-0.7-0.8-1.3-1.3-2l0,0
		c-0.3-0.3-0.6-0.6-0.9-0.8c-2.2-2.1-3.4-5-3.1-8h-284v96.8h292l18-36.2C1544.6,289.9,1543.7,288.2,1543.3,286.3z"/>
</g>
<rect x="1207.1" y="172.9" class="st6" width="47.9" height="174.2"/>
<rect x="1207.1" y="172.9" class="st4" width="20.9" height="174.2"/>
<path class="st1" d="M0.3,153.9c55.7-4.9,165.6-6.5,284.4,49.3c51.3,24.1,74.5,72.5,143.3,98.1c55.8,20.8,109.8,34,156.8,15.3
	c10.3-4.1,35.2-15.9,61-7.1c14,4.7,16.2,13.1,28.2,19.3c27.3,14.2,60.9-2.2,80.7-9.9c59.4-23,114.3-13.6,143.9-10.8
	c50.6,4.8,53.7,17.4,90.2,20.7c50.9,4.6,65.6-27.3,163.6-59.8c32.8-10.8,49.5-16.2,66-15.5c49.8,2.1,71.7,35.5,116.6,57
	c12.5,6,78.2,31.2,147.9,12.6c39.3-10.5,60.4-29.8,101.5-25c8.6,1,22.7,7,51.1,17.8c32.4,12.3,55.9,22.2,57.8,23
	c56.3,23.4,156.7-11.2,234.7-35.2c46.6-14.3,114.8-34.1,200.7-54.2v123.2H0.3V153.9z"/>
<path class="st9" d="M1926.9,284.3c-77.9,24-178.4,58.6-234.7,35.2c-18.4-9.9-37.4-18.5-56.8-26c-28.4-10.8-43.6-13.8-52.1-14.8
	c-41.1-4.8-62.2,14.6-101.5,25c-69.8,18.6-134.4-9.6-146.9-15.6c-44.9-21.5-66.7-36.8-116.6-39c-16.4-0.7-33.2,4.7-66,15.5
	c-98.1,32.6-112.8,46.4-163.6,41.9c-36.5-3.3-39.6-15.9-90.2-20.7c-29.6-2.8-84.4-12.2-143.9,10.8c-19.8,7.7-53.4,30.1-80.7,15.9
	c-12-6.2-14.2-14.6-28.2-19.3c-25.8-8.7-50.7,3-61,7.1c-47,18.8-100.9,5.5-156.8-15.3c-68.8-25.6-94.6-73.7-145.9-97.8
	c-118.8-55.8-226.3-38.9-282-34l0.3,0.6c55.7-4.9,165.6-6.5,284.4,49.3c51.3,24.1,74.5,72.5,143.3,98.1
	c55.8,20.8,109.8,34,156.8,15.3c10.3-4.1,35.2-15.9,61-7.1c14,4.7,16.2,13.1,28.2,19.3c27.3,14.2,60.9-2.2,80.7-9.9
	c59.4-23,114.3-13.6,143.9-10.8c50.6,4.8,53.7,17.4,90.2,20.7c50.9,4.6,65.6-27.3,163.6-59.8c32.8-10.8,49.5-16.2,66-15.5
	c49.8,2.1,71.7,35.5,116.6,57c12.5,6,78.2,31.2,147.9,12.6c39.3-10.5,60.4-29.8,101.5-25c8.6,1,22.7,7,51.1,17.8
	c32.4,12.3,55.9,22.2,57.8,23c56.3,23.4,156.7-11.2,234.7-35.2c46.6-14.3,114.8-34.1,200.7-54.2h0.5
	C2046,260.2,1973.5,270,1926.9,284.3z"/>
<rect x="991" y="264.1" class="st3" width="66.5" height="61.2"/>
<rect x="1057.5" y="264.2" class="st1" width="77.5" height="61.1"/>
<rect x="1080.5" y="285.5" class="st10" width="6.9" height="7.6"/>
<rect x="1088.1" y="285.5" class="st10" width="6.9" height="7.6"/>
<rect x="1080.5" y="277.2" class="st10" width="6.9" height="7.6"/>
<rect x="1088.1" y="277.2" class="st10" width="6.9" height="7.6"/>
<rect x="1104.3" y="285.5" class="st10" width="6.9" height="7.6"/>
<rect x="1111.9" y="285.5" class="st10" width="6.9" height="7.6"/>
<rect x="1104.3" y="277.2" class="st10" width="6.9" height="7.6"/>
<rect x="1111.9" y="277.2" class="st10" width="6.9" height="7.6"/>
<polygon class="st11" points="801.4,282.1 798.9,280.8 798.9,257.9 801.4,257.9 "/>
<polygon class="st10" points="801.4,282.1 803.9,280.8 803.9,257.9 801.4,257.9 "/>
<polygon class="st2" points="763.1,240.4 762.2,242 788.9,272.7 829.2,272.7 829.2,271 801,240.4 "/>
<polygon class="st3" points="763.1,240.4 800.6,240.4 829.2,271 789.7,271 "/>
<polygon class="st10" points="781.9,248.5 772.6,248.5 767.3,242.4 776.5,242.4 "/>
<polygon class="st10" points="797,248.5 783.2,248.5 777.8,242.4 791.6,242.4 "/>
<polygon class="st10" points="806,248.5 798.3,248.5 792.8,242.4 800.3,242.4 "/>
<polygon class="st10" points="807.5,260.4 793.7,260.4 784,249.4 797.9,249.4 "/>
<polygon class="st10" points="816.9,260.4 808.8,260.4 799.1,249.4 806.8,249.4 "/>
<path class="st12" d="M820.3,261.4L820.3,261.4l-1-1.1L819,260l-9.7-10.6l-0.9-1l-7.4-8h-37.9l6.7,7.7l0.3,0.3l0.8,1l0.7,0.8
	l8.8,10.1l0.8,1l8.4,9.7h39.5L820.3,261.4z M782.5,261.3l-0.8-1l-8.9-10.2l-0.6-0.7l-0.8-1l0,0l-0.5-0.6l-5.6-6.5h35.5l6.5,7.1
	l0.9,1l10.1,10.9l0.9,1l8,8.7h-37L782.5,261.3z"/>
<polygon class="st10" points="824.9,269.1 816.6,269.1 809.7,261.3 817.8,261.3 "/>
<polygon class="st10" points="815.3,269.1 801.4,269.1 794.5,261.3 808.4,261.3 "/>
<polygon class="st10" points="792.4,260.4 782.9,260.4 773.4,249.4 782.8,249.4 "/>
<polygon class="st10" points="800.1,269.1 790.5,269.1 783.8,261.3 793.3,261.3 "/>
<polygon class="st11" points="855.4,286.1 852.9,284.8 852.9,261.9 855.4,261.9 "/>
<polygon class="st10" points="855.4,286.1 857.9,284.8 857.9,261.9 855.4,261.9 "/>
<polygon class="st2" points="817.1,244.4 816.1,246 842.9,276.7 883.1,276.7 883.1,275 855,244.4 "/>
<polygon class="st3" points="817.1,244.4 854.5,244.4 883.1,275 843.6,275 "/>
<polygon class="st10" points="835.9,252.5 826.6,252.5 821.3,246.4 830.5,246.4 "/>
<polygon class="st10" points="851,252.5 837.2,252.5 831.7,246.4 845.5,246.4 "/>
<polygon class="st10" points="860,252.5 852.2,252.5 846.8,246.4 854.3,246.4 "/>
<polygon class="st10" points="861.5,264.4 847.7,264.4 838,253.4 851.8,253.4 "/>
<polygon class="st10" points="870.9,264.4 862.8,264.4 853.1,253.4 860.8,253.4 "/>
<path class="st12" d="M874.3,265.4L874.3,265.4l-1-1.1L873,264l-9.7-10.6l-0.9-1l-7.4-8h-37.9l6.7,7.7l0.3,0.3l0.8,1l0.7,0.8
	l8.8,10.1l0.8,1l8.4,9.7h39.5L874.3,265.4z M836.5,265.3l-0.8-1l-8.9-10.2l-0.6-0.7l-0.8-1l0,0l-0.5-0.6l-5.6-6.5h35.5l6.5,7.1
	l0.9,1l10,10.9l0.9,1l8,8.7h-37L836.5,265.3z"/>
<polygon class="st10" points="878.9,273.1 870.5,273.1 863.6,265.3 871.8,265.3 "/>
<polygon class="st10" points="869.3,273.1 855.4,273.1 848.5,265.3 862.4,265.3 "/>
<polygon class="st10" points="846.4,264.4 836.9,264.4 827.4,253.4 836.7,253.4 "/>
<polygon class="st10" points="854.1,273.1 844.5,273.1 837.7,265.3 847.2,265.3 "/>
<path class="st2" d="M1622.6,238.9l-13.8,40.3c-2.6,7.7,1.7,16.3,8,16.3h27.5c6.4,0,10.6-8.7,8-16.3l-13.8-40.3
	C1635.6,229.8,1625.7,229.8,1622.6,238.9z"/>
<path class="st3" d="M1630.7,321c-0.6,0-1.2-0.5-1.2-1.2l0,0v-58c-0.1-0.6,0.4-1.2,1.1-1.3c0.6-0.1,1.2,0.4,1.3,1.1
	c0,0.1,0,0.1,0,0.2v58C1631.8,320.4,1631.3,321,1630.7,321z"/>
<path class="st3" d="M1630.7,278.8c-0.3,0-0.6-0.1-0.8-0.3c-0.5-0.4-0.5-1.2-0.1-1.6l0,0l7.3-8.1c0.4-0.5,1.2-0.5,1.7-0.1
	s0.5,1.2,0.1,1.7l-7.3,8.1C1631.3,278.7,1631,278.8,1630.7,278.8z"/>
<path class="st3" d="M1630.7,289.6c-0.4,0-0.8-0.2-1-0.5l-5.6-7.8c-0.4-0.5-0.3-1.3,0.3-1.6s1.3-0.3,1.6,0.3l5.6,7.8
	c0.4,0.5,0.3,1.3-0.3,1.6C1631.1,289.5,1630.8,289.6,1630.7,289.6L1630.7,289.6z"/>
<path class="st2" d="M650.9,227.3l-18.4,54c-3.5,10.3,2.2,21.9,10.8,21.9h36.8c8.5,0,14.3-11.6,10.8-21.8l-18.4-54
	C668.3,215.1,655.1,215.1,650.9,227.3z"/>
<g class="st5">
	<path class="st11" d="M661.7,220.7v82.5h-18.4c0,0-14.6,0-10.8-21.8l18.4-54c0,0,2.9-9,10.8-9.2V220.7z"/>
</g>
<path class="st3" d="M661.7,337.2c-0.9,0-1.6-0.7-1.6-1.6l0,0V258c0-0.9,0.7-1.6,1.6-1.6s1.6,0.7,1.6,1.6v77.7
	C663.3,336.5,662.6,337.2,661.7,337.2L661.7,337.2z"/>
<path class="st3" d="M661.7,280.7c-0.4,0-0.8-0.1-1-0.4c-0.6-0.6-0.7-1.6-0.1-2.2l0,0l9.8-10.8c0.6-0.7,1.5-0.8,2.2-0.2
	s0.8,1.5,0.2,2.2l-0.1,0.1l-9.8,10.9C662.5,280.5,662.1,280.7,661.7,280.7z"/>
<path class="st3" d="M661.7,295.1c-0.5,0-1-0.2-1.3-0.7l-7.5-10.5c-0.5-0.7-0.3-1.7,0.4-2.2s1.7-0.3,2.2,0.4l7.6,10.5
	c0.5,0.7,0.4,1.7-0.3,2.2C662.4,295,662.1,295.1,661.7,295.1L661.7,295.1z"/>
<path class="st2" d="M681.3,272.5l-11.2,32.9c-2.1,6.2,1.3,13.3,6.6,13.3h22.4c5.2,0,8.7-7.1,6.5-13.3l-11.2-32.9
	C691.9,265.1,683.8,265.1,681.3,272.5z"/>
<path class="st3" d="M687.9,339.4c-0.6,0-1-0.4-1-1v-47.2c0.2-0.5,0.7-0.8,1.2-0.7c0.3,0.1,0.6,0.4,0.7,0.7v47.3
	C688.7,339,688.4,339.4,687.9,339.4z"/>
<path class="st3" d="M687.9,305c-0.5,0-1-0.4-1-0.9c0-0.2,0.1-0.5,0.2-0.6l6-6.6c0.5-0.3,1.1-0.1,1.4,0.3c0.2,0.3,0.2,0.6,0,0.9
	l-6,6.6C688.4,304.9,688.1,305,687.9,305z"/>
<path class="st3" d="M687.9,313.8c-0.3,0-0.6-0.2-0.8-0.4l-4.6-6.4c-0.4-0.3-0.5-1-0.2-1.4s1-0.5,1.4-0.2c0.2,0.1,0.3,0.3,0.3,0.5
	l4.6,6.4c0.3,0.4,0.2,1-0.2,1.3C688.3,313.8,688.1,313.8,687.9,313.8z"/>
<path class="st1" d="M1170.4,217.1l-8.4,24.6c-1.6,4.7,1,9.9,4.9,9.9h16.7c3.9,0,6.5-5.3,4.9-9.9l-8.4-24.6
	C1178.3,211.5,1172.3,211.5,1170.4,217.1z"/>
<path class="st1" d="M1175.3,267c-0.4,0-0.7-0.3-0.7-0.7l0,0V231c0-0.4,0.4-0.7,0.8-0.6c0.3,0,0.6,0.3,0.6,0.6v35.2
	C1176,266.6,1175.7,267,1175.3,267L1175.3,267z"/>
<path class="st1" d="M1175.3,241.3c-0.2,0-0.3-0.1-0.5-0.2c-0.3-0.3-0.3-0.7,0-1l4.5-5c0.3-0.3,0.7-0.3,1,0s0.3,0.7,0,1l-4.5,5
	C1175.7,241.3,1175.5,241.4,1175.3,241.3z"/>
<path class="st1" d="M1175.3,247.9c-0.2,0-0.4-0.1-0.6-0.3l-3.4-4.8c-0.2-0.3-0.2-0.8,0.2-1l0,0c0.3-0.2,0.8-0.2,1,0.2l3.4,4.8
	c0.2,0.3,0.2,0.8-0.2,1C1175.6,247.8,1175.4,247.9,1175.3,247.9L1175.3,247.9z"/>
<path class="st1" d="M1149.2,235.2l-5.3,15.6c-1,3,0.6,6.3,3.1,6.3h10.6c2.5,0,4.1-3.3,3.1-6.3l-5.3-15.6
	C1154.2,231.7,1150.4,231.7,1149.2,235.2z"/>
<path class="st1" d="M1152.3,267c-0.3,0-0.5-0.2-0.5-0.5v-22.4c0-0.3,0.2-0.5,0.5-0.5s0.5,0.2,0.4,0.5v22.4
	C1152.7,266.8,1152.5,267,1152.3,267z"/>
<path class="st1" d="M1152.3,250.7c-0.1,0-0.2,0-0.3-0.1c-0.2-0.2-0.2-0.5,0-0.6l2.8-3.2c0.2-0.2,0.5-0.2,0.6,0
	c0.2,0.2,0.2,0.5,0,0.6l0,0l-2.8,3.1C1152.5,250.6,1152.4,250.7,1152.3,250.7z"/>
<path class="st1" d="M1152.3,254.8c-0.1,0-0.3-0.1-0.4-0.2l-2.2-3c-0.1-0.2,0-0.5,0.2-0.6s0.4-0.1,0.5,0.1l2.2,3
	c0.1,0.2,0.1,0.5-0.1,0.6C1152.5,254.8,1152.4,254.8,1152.3,254.8z"/>
<path class="st1" d="M1242.5,221l-6.5,19.2c-1.2,3.6,0.8,7.8,3.8,7.8h13.1c3,0,5.1-4.1,3.8-7.8l-6.5-19.2
	C1248.6,216.6,1243.9,216.6,1242.5,221z"/>
<path class="st1" d="M1246.3,260c-0.3,0-0.6-0.3-0.6-0.6l0,0v-27.6c0-0.3,0.3-0.5,0.6-0.5c0.2,0,0.4,0.2,0.5,0.5v27.6
	C1246.8,259.7,1246.6,260,1246.3,260z"/>
<path class="st1" d="M1246.3,239.9c-0.1,0-0.3,0-0.4-0.1c-0.2-0.2-0.2-0.6,0-0.8l3.5-3.9c0.2-0.2,0.6-0.2,0.8,0
	c0.2,0.2,0.2,0.5,0,0.8l-3.5,3.9C1246.6,239.9,1246.4,239.9,1246.3,239.9z"/>
<path class="st1" d="M1246.3,245.1c-0.2,0-0.4-0.1-0.5-0.2l-2.7-3.7c-0.2-0.3-0.1-0.6,0.1-0.8s0.6-0.1,0.8,0.1l0,0l2.7,3.7
	c0.2,0.3,0.1,0.6-0.2,0.8C1246.5,245,1246.4,245.1,1246.3,245.1L1246.3,245.1z"/>
<circle class="st10" cx="1209.6" cy="130.5" r="1.5"/>
<circle class="st10" cx="1276.5" cy="50" r="1.5"/>
<circle class="st10" cx="1565.9" cy="77.5" r="2.9"/>
<circle class="st10" cx="848.7" cy="77.5" r="2.9"/>
<circle class="st10" cx="1129" cy="44.5" r="2.9"/>
<circle class="st10" cx="1035.9" cy="173.9" r="2.9"/>
<circle class="st10" cx="947.6" cy="73.2" r="1.5"/>
<circle class="st10" cx="717.4" cy="80.4" r="1.5"/>
<circle class="st10" cx="632.9" cy="190.1" r="1.5"/>
<g class="st5">
	<path class="st11" d="M688.4,268.5v50.2h-11.7c0,0-9.3,0-6.8-13.3l11.7-32.9c0,0,1.8-5.5,6.8-5.6V268.5z"/>
</g>
<g class="st5">
	<path class="st11" d="M1630.7,234v61.6h-13.5c0,0-10.7,0-7.9-16.3l13.5-40.3c0,0,2.1-6.7,7.9-6.8V234z"/>
</g>
<path class="st2" d="M1644.8,274.2l-8.5,24.9c-1.6,4.7,1,10,4.9,10h16.9c3.9,0,6.6-5.3,5-10l-8.5-24.9
	C1652.8,268.6,1646.7,268.6,1644.8,274.2z"/>
<path class="st3" d="M1649.7,324.8c-0.4,0-0.7-0.3-0.7-0.7v-35.7c0-0.4,0.2-0.8,0.6-0.8s0.8,0.2,0.8,0.6c0,0.1,0,0.1,0,0.2V324
	C1650.5,324.4,1650.1,324.8,1649.7,324.8z"/>
<path class="st3" d="M1649.7,298.8c-0.2,0-0.3-0.1-0.5-0.2c-0.3-0.3-0.3-0.7,0-1l4.5-5c0.3-0.3,0.7-0.3,1,0s0.3,0.7,0,1l-4.5,5
	C1650.2,298.7,1649.9,298.8,1649.7,298.8z"/>
<path class="st3" d="M1649.7,305.4c-0.2,0-0.4-0.1-0.6-0.3l-3.5-4.8c-0.2-0.3-0.2-0.8,0.2-1s0.8-0.2,1,0.2l3.5,4.8
	c0.2,0.3,0.2,0.8-0.2,1C1650,305.3,1649.9,305.4,1649.7,305.4z"/>
<g class="st5">
	<path class="st11" d="M1649.6,271.2v38h-8.5c0,0-6.8,0-5-10.1l8.5-24.9c0,0,1.3-4.2,4.9-4.2L1649.6,271.2z"/>
</g>
<path class="st2" d="M1525.5,274.4l-5.2,15.2c-1,2.9,0.6,6.2,3,6.2h10.4c2.4,0,4-3.3,3-6.2l-5.2-15.2
	C1530.4,271,1526.7,271,1525.5,274.4z"/>
<path class="st3" d="M1528.5,305.4c-0.2,0-0.4-0.2-0.4-0.4v-21.9c0-0.2,0.2-0.4,0.4-0.4l0,0c0.2,0,0.4,0.2,0.4,0.4V305
	C1528.9,305.3,1528.8,305.4,1528.5,305.4z"/>
<path class="st3" d="M1528.5,289.5c-0.1,0-0.2,0-0.3-0.1c-0.2-0.2-0.2-0.5,0-0.6l2.8-3.1c0.2-0.2,0.4-0.2,0.6,0s0.2,0.4,0,0.6
	l-2.8,3.1C1528.8,289.5,1528.6,289.5,1528.5,289.5z"/>
<path class="st3" d="M1528.5,293.6c-0.1,0-0.3-0.1-0.4-0.2l-2.1-3c-0.1-0.2-0.1-0.5,0.1-0.6s0.5-0.1,0.6,0.1l0,0l2.1,3
	c0.1,0.2,0.1,0.5-0.1,0.6C1528.7,293.6,1528.6,293.6,1528.5,293.6z"/>
<g class="st5">
	<path class="st11" d="M1528.4,272.6v23.3h-5.2c0,0-4.1,0-3-6.2l5.2-15.3c0,0,0.8-2.5,3-2.6V272.6z"/>
</g>
<path class="st11" d="M987.8,314.8c0,3.3-2.6,5.9-5.9,5.9c-0.3,0-0.6,0-0.9-0.1c-3.1,4.2-8.8,5.3-13.2,2.6c-5,2.8-11.4,1.5-14.9-3
	c-3,1.4-6.5,0.1-7.8-2.9c-1.4-3-0.1-6.5,2.9-7.8c0.8-0.4,1.6-0.5,2.5-0.5c0.2,0,0.5,0,0.7,0c2.2-6.1,9-9.2,15-6.9
	c1.8,0.7,3.3,1.7,4.6,3.1c0.7-0.2,1.5-0.3,2.2-0.2c3.2,0,6.1,1.5,8,4.1c0.3,0,0.6-0.1,0.9-0.1C985.2,308.9,987.8,311.6,987.8,314.8z
	"/>
<path class="st11" d="M614.6,329.8c0,2.6,2.1,4.7,4.7,4.7c0.2,0,0.5,0,0.7-0.1c2.4,3.3,7,4.2,10.5,2.1c4,2.2,9,1.2,11.8-2.4
	c2.3,1.1,5.1,0.1,6.2-2.3s0.1-5.1-2.3-6.2c-0.6-0.3-1.3-0.4-2-0.4c-0.2,0-0.4,0-0.6,0c-1.8-4.8-7.1-7.2-11.9-5.5
	c-1.4,0.5-2.6,1.4-3.6,2.5c-0.6-0.1-1.2-0.2-1.8-0.2c-2.5,0-4.9,1.2-6.4,3.3c-0.2,0-0.5,0-0.7,0
	C616.7,325.2,614.7,327.3,614.6,329.8z"/>
<path class="st2" d="M1641.4,319c0,2.8-2.2,5-5,5c-0.2,0-0.4,0-0.6,0c-1.4,1.5-3.3,2.3-5.3,2.3c-0.7,0-1.3-0.1-1.9-0.2
	c-3.7,2.9-8.9,2.5-12.1-0.9c-0.4,0.1-0.8,0.1-1.2,0.1c-2.2,0-4.2-1.1-5.3-2.9h-0.2c-1.9,0-3.3-1.5-3.3-3.3c0-1.9,1.5-3.4,3.3-3.4
	h0.2c1.2-1.8,3.2-2.9,5.3-2.9c0.4,0,0.8,0,1.2,0.1c3.2-3.4,8.4-3.7,12.1-0.9c2.6-0.7,5.4,0.1,7.3,2.1c0.2,0,0.4,0,0.6,0
	C1639.1,314.1,1641.4,316.3,1641.4,319z"/>
<path class="st11" d="M1641.4,319c0,2.8-2.2,5-5,5c-0.2,0-0.4,0-0.6,0c-1.4,1.5-3.3,2.3-5.3,2.3c-0.7,0-1.3-0.1-1.9-0.2
	c-3.7,2.9-8.9,2.5-12.1-0.9c-0.4,0.1-0.8,0.1-1.2,0.1c-2.2,0-4.2-1.1-5.3-2.9h-0.2c-1.9,0-3.3-1.5-3.3-3.3c0-1.9,1.5-3.4,3.3-3.4
	h0.2c1.2-1.8,3.2-2.9,5.3-2.9c0.4,0,0.8,0,1.2,0.1c3.2-3.4,8.4-3.7,12.1-0.9c2.6-0.7,5.4,0.1,7.3,2.1c0.2,0,0.4,0,0.6,0
	C1639.1,314.1,1641.4,316.3,1641.4,319z"/>
<path class="st2" d="M1638.2,327.4c0,2,1.7,3.7,3.7,3.7h0.5c1,1.1,2.4,1.7,3.9,1.7c0.5,0,1-0.1,1.4-0.2c2.7,2.1,6.5,1.8,8.9-0.7
	c0.3,0.1,0.6,0.1,0.9,0.1c1.6,0,3.1-0.8,3.9-2.2h0.1c1.4,0,2.5-1.1,2.5-2.5s-1.1-2.5-2.5-2.5h-0.1c-0.8-1.3-2.3-2.2-3.9-2.2
	c-0.3,0-0.6,0-0.9,0.1c-2.4-2.5-6.2-2.8-8.9-0.7c-0.5-0.1-0.9-0.2-1.4-0.2c-1.5,0-2.9,0.6-3.9,1.7h-0.5
	C1639.9,323.8,1638.3,325.4,1638.2,327.4z"/>
<path class="st11" d="M683.3,336.5c0,4-3.2,7.2-7.2,7.2l0,0c-0.4,0-0.7,0-1.1-0.1c-3.7,5.1-10.7,6.5-16,3.2
	c-6.1,3.4-13.8,1.8-18.1-3.7c-0.9,0.4-2,0.6-3,0.6c-4-0.1-7-3.5-6.9-7.4c0.1-3.7,3.1-6.8,6.9-6.9c0.3,0,0.6,0,0.9,0.1
	c2.7-7.4,10.9-11.1,18.3-8.4c2.1,0.8,4.1,2.1,5.6,3.8c4.7-1.1,9.6,0.7,12.4,4.7c0.4-0.1,0.7-0.1,1.1-0.1
	C680.1,329.4,683.3,332.6,683.3,336.5z"/>
<path class="st2" d="M671.6,342.3c0,3,2.5,5.5,5.5,5.5l0,0c0.3,0,0.6,0,0.8-0.1c2.8,3.9,8.2,5,12.4,2.5c4.7,2.6,10.7,1.4,14-2.9
	c2.8,1.3,6,0,7.3-2.8s0-6-2.8-7.3c-0.7-0.3-1.5-0.5-2.3-0.5c-0.2,0-0.5,0-0.7,0c-2.1-5.7-8.5-8.6-14.2-6.4c-1.6,0.6-3.1,1.6-4.2,2.9
	c-0.7-0.2-1.4-0.2-2.1-0.2c-3,0-5.8,1.4-7.5,3.8c-0.3,0-0.6-0.1-0.8-0.1C674.1,336.7,671.6,339.2,671.6,342.3L671.6,342.3z"/>
<path class="st11" d="M1166.6,305.4c0,2.1-1.7,3.8-3.8,3.8l0,0c-0.2,0-0.4,0-0.6,0c-2,2.7-5.7,3.4-8.5,1.7c-3.3,1.8-7.4,1-9.6-2
	c-1.9,0.9-4.2,0-5.1-1.9s0-4.2,1.9-5.1c0.5-0.2,1.1-0.4,1.6-0.3c0.2,0,0.3,0,0.5,0c1.4-3.9,5.8-5.9,9.7-4.5c1.1,0.4,2.2,1.1,3,2
	c0.5-0.1,0.9-0.2,1.4-0.2c2,0,4,1,5.2,2.6c0.2,0,0.4,0,0.6,0C1164.9,301.7,1166.6,303.4,1166.6,305.4z"/>
<path class="st2" d="M1107.2,313.1c0,3.2,2.6,5.7,5.7,5.8l0,0c0.3,0,0.6,0,0.9-0.1c3,4.1,8.6,5.2,12.9,2.5c4.9,2.7,11.1,1.5,14.6-3
	c0.7,0.3,1.6,0.5,2.4,0.5c3.2,0,5.8-2.6,5.8-5.8s-2.6-5.8-5.8-5.8c-0.2,0-0.5,0-0.7,0c-2.2-5.9-8.7-8.9-14.6-6.7
	c-1.7,0.6-3.3,1.7-4.5,3c-3.8-0.9-7.7,0.6-10,3.7c-0.3,0-0.6-0.1-0.9-0.1C1109.7,307.3,1107.1,309.9,1107.2,313.1
	C1107.2,313,1107.2,313,1107.2,313.1z"/>
<path class="st2" d="M693.5,166.4L693.5,166.4c-3.2-0.1-12.8-9.2-13.2-9.5c-0.1-0.1-0.1-0.2,0-0.3s0.2-0.1,0.3,0l0,0
	c0.1,0.1,9.9,9.3,12.9,9.4c0.1,0,0.2,0.1,0.2,0.2C693.8,166.3,693.7,166.4,693.5,166.4L693.5,166.4z"/>
<path class="st2" d="M680.5,182c-0.1,0-0.2-0.2-0.2-0.3s0.1-0.2,0.2-0.2c3-0.1,12.8-9.3,12.9-9.4c0.1-0.1,0.2-0.1,0.3,0
	s0.1,0.2,0,0.3C693.3,172.8,683.7,181.9,680.5,182L680.5,182z"/>
<path class="st2" d="M693.5,197.1L693.5,197.1c-3.2-0.1-12.8-9.2-13.2-9.5c-0.1-0.1-0.1-0.2,0-0.3s0.2-0.1,0.3,0s9.9,9.3,12.9,9.4
	c0.1,0,0.2,0.1,0.2,0.2l0,0C693.8,197,693.6,197.1,693.5,197.1z"/>
<path class="st2" d="M689.9,163.7c-0.2-0.3-0.3-0.6-0.2-0.9c0.1-0.3,0.2-0.5,0.3-0.7c0.2-0.2,0.3-0.4,0.5-0.6
	c0.2-0.2,0.5-0.4,0.8-0.5c0.1,0.3,0.2,0.6,0.2,0.9c0,0.3,0,0.6,0,0.8c0,0.3-0.1,0.5-0.2,0.7c-0.2,0.3-0.4,0.5-0.8,0.5
	C690.3,164.1,690,164,689.9,163.7z"/>
<path class="st2" d="M682.3,179.8c-0.2-0.3-0.3-0.6-0.2-0.9c0.1-0.3,0.2-0.5,0.3-0.7c0.2-0.2,0.3-0.4,0.5-0.6
	c0.2-0.2,0.5-0.4,0.8-0.5c0.1,0.3,0.2,0.6,0.2,0.9c0,0.3,0,0.5,0,0.8s-0.1,0.5-0.2,0.8c-0.2,0.3-0.4,0.5-0.8,0.5
	C682.8,180.1,682.5,180,682.3,179.8z"/>
<path class="st2" d="M684.1,161.1c0,0.3-0.2,0.6-0.4,0.8s-0.5,0.3-0.7,0.3c-0.3,0.1-0.5,0.1-0.8,0.1s-0.7,0-1-0.1
	c0.1-0.3,0.2-0.6,0.4-0.9c0.2-0.2,0.3-0.4,0.5-0.6c0.2-0.2,0.4-0.3,0.7-0.4c0.3-0.1,0.6-0.1,0.9,0.1
	C683.9,160.6,684.1,160.8,684.1,161.1z"/>
<path class="st2" d="M689.9,194.4c-0.2-0.3-0.3-0.6-0.2-0.9c0.1-0.3,0.2-0.5,0.3-0.7c0.2-0.2,0.3-0.4,0.5-0.6
	c0.2-0.2,0.5-0.4,0.8-0.5c0.1,0.3,0.2,0.6,0.2,0.9c0,0.3,0,0.5,0,0.8s-0.1,0.5-0.2,0.8c-0.2,0.3-0.4,0.5-0.8,0.5
	C690.3,194.8,690.1,194.7,689.9,194.4z"/>
<path class="st2" d="M684.1,191.8c0,0.3-0.2,0.6-0.4,0.8s-0.5,0.3-0.7,0.3c-0.3,0.1-0.5,0.1-0.8,0.1s-0.7,0-1-0.1
	c0.1-0.3,0.2-0.6,0.4-0.9c0.2-0.2,0.3-0.4,0.5-0.6c0.2-0.2,0.4-0.3,0.7-0.4c0.3-0.1,0.6-0.1,0.9,0.1
	C683.9,191.3,684.1,191.5,684.1,191.8z"/>
<path class="st2" d="M688.7,177.8c0,0.3,0.2,0.6,0.4,0.8s0.4,0.3,0.7,0.3c0.3,0.1,0.5,0.1,0.8,0.1s0.7,0,1-0.1
	c-0.1-0.3-0.2-0.6-0.4-0.9c-0.2-0.2-0.3-0.4-0.5-0.6c-0.2-0.2-0.4-0.3-0.7-0.4c-0.3-0.1-0.6-0.1-0.9,0.1
	C688.9,177.2,688.7,177.5,688.7,177.8z"/>
<path class="st1" d="M785.2,221.6c0,1.8-1.5,3.3-3.3,3.3c-0.2,0-0.3,0-0.5,0c-1.7,2.4-4.9,3-7.4,1.5c-2.8,1.6-6.4,0.8-8.4-1.7
	c-0.4,0.2-0.9,0.3-1.4,0.3c-1.8,0-3.3-1.5-3.3-3.3s1.5-3.3,3.3-3.3l0,0h0.4c1-2.6,3.4-4.3,6.2-4.3c1.9,0,3.6,0.8,4.9,2.2
	c0.4-0.1,0.8-0.2,1.2-0.2c1.8,0,3.5,0.9,4.5,2.3c0.2,0,0.3,0,0.5,0C783.7,218.4,785.2,219.8,785.2,221.6z"/>
<path class="st13" d="M1475,276.6h-48.8c-2.3-0.1-4.1-2.1-3.9-4.3c0.1-2.1,1.8-3.8,3.9-3.9h48.8c2.3,0.1,4.1,2.1,3.9,4.3
	C1478.8,274.8,1477.1,276.5,1475,276.6z"/>
<path class="st1" d="M727.3,232.2c0,1.2-1,2.2-2.1,2.2l0,0c-0.1,0-0.2,0-0.3,0c-1.1,1.5-3.2,2-4.8,1c-1.8,1-4.2,0.6-5.4-1.1
	c-0.3,0.1-0.6,0.2-0.9,0.2c-1.2-0.1-2.1-1.1-2-2.3c0.1-1.1,0.9-1.9,2-2h0.3c0.6-1.7,2.2-2.8,4-2.8c1.2,0,2.3,0.5,3.2,1.4
	c0.3-0.1,0.5-0.1,0.8-0.1c1.2,0,2.2,0.5,2.9,1.5c0.1,0,0.2,0,0.3,0C726.3,230.1,727.3,231,727.3,232.2z"/>
<path class="st3" d="M1488.4,263.8v108.4h51.3V263.8H1488.4z"/>
<path class="st14" d="M1488.4,287.4c0,0,5.3,2.9,5.4,4.1v80.7h-5.4V287.4z"/>
<path class="st14" d="M1539.8,287.4c0,0-5.3,2.9-5.4,4.1v80.7h5.4V287.4z"/>
<path class="st10" d="M1524,307.9v30.8c0,0.8-0.7,1.5-1.5,1.5l0,0h-17.8c-0.8,0-1.5-0.7-1.5-1.5l0,0v-30.8c0-0.8,0.7-1.5,1.5-1.5
	l0,0h3.6v-1.1c0-0.8,0.7-1.5,1.5-1.5h7.6c0.8,0,1.5,0.7,1.5,1.5v1.2h3.7C1523.3,306.4,1524,307,1524,307.9z"/>
<polygon class="st2" points="1517,271.4 1514.2,280.8 1519.5,280.8 1510.1,293.4 1512.9,283.8 1507.6,283.8 "/>
<path class="st2" d="M1623.8,327.4c0,2.8,2.2,5,5,5c0.2,0,0.4,0,0.6,0c1.4,1.5,3.3,2.3,5.3,2.3c0.6,0,1.3-0.1,1.9-0.2
	c3.7,2.9,8.9,2.5,12.1-0.9c0.4,0.1,0.8,0.1,1.3,0.1c2.2,0,4.2-1.1,5.3-2.9h0.2c1.9-0.1,3.3-1.7,3.2-3.5c-0.1-1.7-1.5-3.1-3.2-3.2
	h-0.2c-1.1-1.8-3.2-2.9-5.3-2.9c-0.4,0-0.8,0-1.3,0.1c-3.2-3.4-8.4-3.7-12.1-0.9c-0.6-0.2-1.3-0.3-1.9-0.3c-2,0-4,0.8-5.3,2.3
	c-0.2,0-0.4,0-0.6,0C1626.1,322.5,1623.9,324.7,1623.8,327.4z"/>
<path class="st2" d="M766,118.2h-0.2c-16,1.7-16.7-12.6-16.7-12.6c12.5-0.8,15.8,6.4,16.6,10.3c0.2-2.9,1.8-7.5,9.8-8.7
	C775.5,107.2,777.1,117,766,118.2z"/>
<path class="st3" d="M773,110.2l-3.7,4.1l0,0l-3,3.4c-0.1,0.1-0.1,0.1-0.2,0.1c-0.1,0-0.1,0-0.2-0.1l-4.8-3.4l-3.2-2.3l-3.8,0.2l0,0
	c-0.2,0-0.3-0.2-0.3-0.3c0-0.2,0.1-0.3,0.3-0.3l3-0.2l-3.8-2.7c-0.1-0.1-0.2-0.3-0.1-0.4l0,0c0.1-0.1,0.3-0.2,0.5-0.1l0,0l4.5,3.2
	c0,0,0.1,0,0.1,0.1l2.7,1.9v-2.2c0-0.2,0.1-0.3,0.3-0.3l0,0c0.2,0,0.3,0.2,0.3,0.3v2.7l4.4,3.1l2.7-3v-2c0-0.2,0.1-0.3,0.3-0.3l0,0
	c0.2,0,0.3,0.1,0.3,0.3l0,0v1.2l3.2-3.5c0.1-0.1,0.3-0.1,0.5,0l0,0C773.2,109.9,773.1,110.1,773,110.2z"/>
<path class="st2" d="M700.4,137.8h-0.2c-14.3,1.5-15-11.3-15-11.3c11.2-0.7,14.1,5.8,14.9,9.2c0.2-2.6,1.7-6.7,8.8-7.8
	C708.9,127.9,710.4,136.7,700.4,137.8z"/>
<path class="st3" d="M706.7,130.5l-3.3,3.7l0,0l-2.7,3c-0.1,0.1-0.1,0.1-0.2,0.1c-0.1,0-0.1,0-0.2,0l-4.3-3l-2.9-2l-3.4,0.2l0,0
	c-0.2,0-0.3-0.1-0.3-0.3s0.1-0.3,0.3-0.3l0,0l2.7-0.2l-3.5-2.4c-0.1-0.1-0.2-0.3-0.1-0.4l0,0c0.1-0.1,0.3-0.2,0.4-0.1l0,0l4.1,2.9
	l0.1,0.1l2.5,1.7v-2c0-0.2,0.1-0.3,0.3-0.3s0.3,0.1,0.3,0.3v2.4l3.9,2.8l2.5-2.7v-1.7c0-0.2,0.1-0.3,0.2-0.3c0.2,0,0.3,0.1,0.3,0.2
	v0.1v1.1l2.8-3.1c0.1-0.1,0.3-0.1,0.4,0C706.8,130.3,706.7,130.4,706.7,130.5z"/>
<path class="st2" d="M717.1,166.4L717.1,166.4c-3.2-0.1-12.8-9.2-13.2-9.5c-0.1-0.1-0.1-0.2,0-0.3s0.2-0.1,0.3,0s9.9,9.3,12.9,9.4
	c0.1,0,0.2,0.1,0.2,0.2l0,0C717.4,166.3,717.3,166.4,717.1,166.4L717.1,166.4z"/>
<path class="st2" d="M704.1,182c-0.1,0-0.2-0.1-0.2-0.2c0-0.1,0.1-0.2,0.2-0.2l0,0c3-0.1,12.8-9.3,12.9-9.4c0.1-0.1,0.2-0.1,0.3,0
	s0.1,0.2,0,0.3l0,0C716.9,172.8,707.3,181.9,704.1,182L704.1,182z"/>
<path class="st2" d="M717.1,197.1L717.1,197.1c-3.2-0.1-12.8-9.2-13.2-9.5c-0.1-0.1-0.1-0.2,0-0.3l0,0c0.1-0.1,0.2-0.1,0.3,0
	s9.9,9.3,12.9,9.4c0.1,0,0.2,0.1,0.2,0.2l0,0C717.4,197,717.3,197.1,717.1,197.1L717.1,197.1z"/>
<path class="st2" d="M713.5,163.7c-0.2-0.3-0.3-0.6-0.2-0.9c0.1-0.3,0.2-0.5,0.3-0.7c0.2-0.2,0.3-0.4,0.5-0.6
	c0.2-0.2,0.5-0.4,0.8-0.5c0.1,0.3,0.2,0.6,0.2,0.9c0,0.3,0,0.6,0,0.8c0,0.3-0.1,0.5-0.2,0.7c-0.2,0.3-0.4,0.5-0.8,0.5
	C714,164.1,713.7,164,713.5,163.7z"/>
<path class="st2" d="M706,179.8c-0.2-0.3-0.3-0.6-0.2-0.9c0.1-0.3,0.2-0.5,0.3-0.7c0.2-0.2,0.3-0.4,0.5-0.6c0.2-0.2,0.5-0.4,0.8-0.5
	c0.1,0.3,0.2,0.6,0.2,0.9c0,0.3,0,0.5,0,0.8s-0.1,0.5-0.2,0.8c-0.2,0.3-0.4,0.5-0.8,0.5C706.4,180.1,706.2,180,706,179.8z"/>
<path class="st2" d="M707.7,161.1c0,0.3-0.2,0.6-0.4,0.8s-0.4,0.3-0.7,0.3c-0.3,0.1-0.5,0.1-0.8,0.1c-0.4-0.2-0.7-0.7-0.5-1.1
	c0.1-0.2,0.3-0.4,0.5-0.5c0.2-0.2,0.4-0.3,0.6-0.4c0.3-0.1,0.6-0.1,0.9,0.1C707.6,160.6,707.7,160.9,707.7,161.1z"/>
<path class="st2" d="M713.5,194.4c-0.2-0.3-0.3-0.6-0.2-0.9c0.1-0.3,0.2-0.5,0.3-0.7c0.2-0.2,0.3-0.4,0.5-0.6
	c0.2-0.2,0.5-0.4,0.8-0.5c0.1,0.3,0.2,0.6,0.2,0.9c0,0.3,0,0.5,0,0.8s-0.1,0.5-0.2,0.8c-0.2,0.3-0.4,0.5-0.8,0.5
	C714,194.8,713.7,194.7,713.5,194.4z"/>
<path class="st2" d="M707.7,191.8c0,0.3-0.2,0.6-0.4,0.8s-0.4,0.3-0.7,0.3c-0.3,0.1-0.5,0.1-0.8,0.1s-0.6,0-0.9-0.1
	c0.1-0.3,0.2-0.6,0.4-0.9c0.2-0.2,0.3-0.4,0.5-0.6c0.2-0.2,0.4-0.3,0.6-0.4c0.3-0.1,0.6-0.1,0.9,0.1
	C707.5,191.3,707.7,191.6,707.7,191.8z"/>
<path class="st2" d="M712.3,177.8c0,0.3,0.2,0.6,0.4,0.8s0.5,0.3,0.7,0.3c0.3,0.1,0.5,0.1,0.8,0.1s0.6,0,0.9-0.1
	c-0.1-0.3-0.2-0.6-0.4-0.9c-0.2-0.2-0.3-0.4-0.5-0.6c-0.2-0.2-0.4-0.3-0.6-0.4c-0.3-0.1-0.6-0.1-0.9,0.1
	C712.5,177.3,712.3,177.5,712.3,177.8z"/>
<path class="st2" d="M759.6,150L759.6,150c-3.2-0.1-12.8-9.2-13.2-9.5c-0.1-0.1-0.1-0.2,0-0.3s0.2-0.1,0.3,0s9.9,9.3,12.9,9.4
	c0.1,0,0.2,0.2,0.2,0.3C759.8,149.9,759.7,150,759.6,150L759.6,150z"/>
<path class="st2" d="M746.6,165.5c-0.1,0-0.2-0.1-0.2-0.2c0-0.1,0.1-0.2,0.2-0.2l0,0c3-0.1,12.8-9.3,12.9-9.4c0.1-0.1,0.2-0.1,0.3,0
	l0,0c0.1,0.1,0.1,0.2,0,0.3C759.4,156.4,749.8,165.4,746.6,165.5L746.6,165.5z"/>
<path class="st2" d="M759.6,180.7L759.6,180.7c-3.2-0.1-12.8-9.2-13.2-9.5c-0.1-0.1-0.1-0.2,0-0.3s0.2-0.1,0.3,0l0,0
	c0.1,0.1,9.9,9.3,12.9,9.4c0.1,0,0.2,0.2,0.2,0.3C759.8,180.6,759.7,180.7,759.6,180.7L759.6,180.7z"/>
<path class="st2" d="M756,147.2c-0.2-0.3-0.3-0.6-0.2-0.9c0.1-0.3,0.2-0.5,0.3-0.7c0.2-0.2,0.3-0.4,0.5-0.6c0.2-0.2,0.5-0.4,0.8-0.5
	c0.1,0.3,0.2,0.6,0.2,0.9c0,0.3,0,0.5,0,0.8s-0.1,0.5-0.2,0.8c-0.2,0.3-0.4,0.5-0.8,0.5C756.4,147.6,756.2,147.5,756,147.2z"/>
<path class="st2" d="M748.4,163.3c-0.2-0.3-0.3-0.6-0.2-0.9c0.1-0.3,0.2-0.5,0.3-0.7c0.2-0.2,0.3-0.4,0.5-0.6
	c0.2-0.2,0.5-0.4,0.8-0.5c0.1,0.3,0.2,0.6,0.2,0.9c0,0.3,0,0.6,0,0.8c0,0.3-0.1,0.5-0.2,0.7c-0.2,0.3-0.4,0.5-0.8,0.5
	C748.9,163.7,748.6,163.6,748.4,163.3z"/>
<path class="st2" d="M750.1,144.6c0,0.3-0.2,0.6-0.4,0.8s-0.4,0.3-0.7,0.3c-0.3,0.1-0.5,0.1-0.8,0.1s-0.7,0-1-0.1
	c0.1-0.3,0.2-0.6,0.4-0.9c0.2-0.2,0.3-0.4,0.5-0.6c0.2-0.2,0.4-0.3,0.7-0.4c0.3-0.1,0.6-0.1,0.9,0.1
	C750,144.1,750.2,144.4,750.1,144.6z"/>
<path class="st2" d="M756,178c-0.2-0.3-0.3-0.6-0.2-0.9c0.1-0.3,0.2-0.5,0.3-0.7c0.2-0.2,0.3-0.4,0.5-0.6c0-0.3,0.2-0.6,0.6-0.6
	c0.3,0,0.6,0.2,0.6,0.6c0,0.2-0.1,0.3-0.2,0.4c0,0.3,0,0.6,0,0.8c0,0.3-0.1,0.5-0.2,0.7c-0.2,0.3-0.4,0.5-0.8,0.5
	C756.4,178.3,756.1,178.2,756,178z"/>
<path class="st2" d="M750.1,175.4c0,0.3-0.2,0.6-0.4,0.8s-0.4,0.3-0.7,0.3c-0.3,0.1-0.5,0.1-0.8,0.1c-0.2,0.2-0.6,0.2-0.8,0
	s-0.2-0.6,0-0.8c0.1-0.1,0.2-0.1,0.3-0.2c0.2-0.2,0.3-0.4,0.5-0.6c0.2-0.2,0.4-0.3,0.7-0.4c0.3-0.1,0.6-0.1,0.9,0.1
	C750,174.8,750.2,175.1,750.1,175.4z"/>
<path class="st2" d="M754.8,161.3c0,0.3,0.2,0.6,0.4,0.8s0.5,0.3,0.7,0.3c0.3,0.1,0.5,0.1,0.8,0.1s0.7,0,1-0.1
	c-0.1-0.3-0.2-0.6-0.4-0.9c-0.2-0.2-0.3-0.4-0.5-0.6c-0.2-0.2-0.4-0.3-0.7-0.4c-0.3-0.1-0.6-0.1-0.9,0.1
	C754.9,160.8,754.8,161,754.8,161.3z"/>
<path class="st2" d="M783.2,150L783.2,150c-3.2-0.1-12.8-9.2-13.2-9.5c-0.1-0.1-0.1-0.2,0-0.3l0,0c0.1-0.1,0.2-0.1,0.3,0
	s9.9,9.3,12.9,9.4c0.1,0,0.2,0.1,0.2,0.2l0,0C783.4,149.9,783.3,150,783.2,150L783.2,150z"/>
<path class="st2" d="M770.2,165.5c-0.1,0-0.2-0.1-0.2-0.2c0-0.1,0.1-0.2,0.2-0.2l0,0c3-0.1,12.8-9.3,12.9-9.4c0.1-0.1,0.2-0.1,0.3,0
	s0.1,0.2,0,0.3C783,156.4,773.4,165.5,770.2,165.5L770.2,165.5z"/>
<path class="st2" d="M783.2,180.7L783.2,180.7c-3.2-0.1-12.8-9.2-13.2-9.5c-0.1-0.1-0.1-0.2,0-0.3s0.2-0.1,0.3,0l0,0
	c0.1,0.1,9.9,9.3,12.9,9.4c0.1,0,0.2,0.1,0.2,0.2l0,0C783.4,180.6,783.3,180.7,783.2,180.7L783.2,180.7z"/>
<path class="st2" d="M779.6,147.2c-0.2-0.3-0.3-0.6-0.2-0.9c0.1-0.3,0.2-0.5,0.3-0.7c0.2-0.2,0.3-0.4,0.5-0.6
	c0.2-0.2,0.5-0.4,0.8-0.5c0.1,0.3,0.2,0.6,0.2,0.9c0,0.3,0,0.5,0,0.8s-0.1,0.5-0.2,0.8c-0.2,0.3-0.4,0.5-0.8,0.5
	C780,147.6,779.7,147.5,779.6,147.2z"/>
<path class="st2" d="M772,163.3c-0.2-0.3-0.3-0.6-0.2-0.9c0.1-0.3,0.2-0.5,0.3-0.7c0.2-0.2,0.3-0.4,0.5-0.6c0.2-0.2,0.5-0.4,0.8-0.5
	c0.1,0.3,0.2,0.6,0.2,0.9c0,0.3,0,0.6,0,0.8c0,0.3-0.1,0.5-0.2,0.7c-0.2,0.3-0.4,0.5-0.8,0.5C772.4,163.7,772.1,163.5,772,163.3z"/>
<path class="st2" d="M773.7,144.6c0,0.3-0.2,0.6-0.4,0.8s-0.4,0.3-0.7,0.3c-0.3,0.1-0.5,0.1-0.8,0.1s-0.6,0-0.9-0.1
	c0.1-0.3,0.2-0.6,0.4-0.9c0.2-0.2,0.3-0.4,0.5-0.6c0.2-0.2,0.4-0.3,0.6-0.4c0.3-0.1,0.6-0.1,0.9,0.1
	C773.6,144.1,773.8,144.4,773.7,144.6z"/>
<path class="st2" d="M779.6,178c-0.2-0.3-0.3-0.6-0.2-0.9c0.1-0.3,0.2-0.5,0.3-0.7c0.2-0.2,0.3-0.4,0.5-0.6c0.2-0.2,0.5-0.4,0.8-0.5
	c0.1,0.3,0.2,0.6,0.2,0.9c0,0.3,0,0.6,0,0.8c0,0.3-0.1,0.5-0.2,0.7c-0.2,0.3-0.4,0.5-0.8,0.5C780,178.3,779.7,178.2,779.6,178z"/>
<path class="st2" d="M773.7,175.4c0,0.3-0.2,0.6-0.4,0.8s-0.4,0.3-0.7,0.3c-0.3,0.1-0.5,0.1-0.8,0.1s-0.6,0-0.9-0.1
	c0.2-0.6,0.5-1.1,0.9-1.5c0.2-0.2,0.4-0.3,0.6-0.4c0.3-0.1,0.6-0.1,0.9,0.1C773.6,174.8,773.8,175.1,773.7,175.4z"/>
<path class="st2" d="M778.4,161.3c0,0.3,0.2,0.6,0.4,0.8s0.4,0.3,0.7,0.3c0.3,0.1,0.5,0.1,0.8,0.1s0.6,0,0.9-0.1
	c-0.2-0.6-0.5-1.1-0.9-1.5c-0.2-0.2-0.4-0.3-0.6-0.4c-0.3-0.1-0.6-0.1-0.9,0.1C778.5,160.8,778.4,161.1,778.4,161.3z"/>
<polygon class="st4" points="686.8,142 686.8,215.1 678,215.1 678,207.8 680.4,202.7 680.4,150.3 678.4,148.3 678.4,142 "/>
<path class="st4" d="M934.6,234l-2.7,7.9c-0.5,1.5,0.3,3.2,1.6,3.2h5.4c1.2,0,2.1-1.7,1.6-3.2l-2.7-7.9
	C937.1,232.2,935.2,232.2,934.6,234z"/>
<path class="st4" d="M936.1,250.1c-0.1,0-0.2-0.1-0.2-0.2v-11.4c0-0.1,0.1-0.2,0.2-0.2s0.2,0.1,0.2,0.2v11.4
	C936.4,250,936.3,250.1,936.1,250.1z"/>
<path class="st4" d="M936.1,241.8c-0.1,0-0.1,0-0.2-0.1c-0.1-0.1-0.1-0.2,0-0.3l0,0l1.4-1.6c0.1-0.1,0.2-0.1,0.3,0s0.1,0.2,0,0.3
	l-1.4,1.6C936.3,241.8,936.2,241.8,936.1,241.8z"/>
<path class="st4" d="M936.1,243.9c-0.1,0-0.1,0-0.2-0.1l-1.1-1.5c-0.1-0.1,0-0.3,0.1-0.3s0.3,0,0.3,0.1l1.1,1.5
	c0.1,0.1,0.1,0.3,0,0.3C936.2,243.9,936.2,243.9,936.1,243.9z"/>
<g class="st5">
	<path class="st4" d="M936.1,233v12.1h-2.7c0,0-2.2,0-1.6-3.2l2.7-8c0,0,0.4-1.3,1.6-1.3V233z"/>
</g>
<polygon class="st4" points="710.4,142 710.4,215.1 701.6,215.1 701.6,207.8 704,202.7 704,150.3 702,148.3 702,142 "/>
<polygon class="st4" points="752.8,126.9 752.8,200 744.1,200 744.1,192.7 746.5,187.6 746.5,135.2 744.5,133.2 744.5,126.9 "/>
<circle class="st13" cx="1474.1" cy="261.1" r="4.7"/>
<polygon class="st4" points="776.4,126.9 776.4,200 767.7,200 767.7,192.7 770.1,187.6 770.1,135.2 768.1,133.2 768.1,126.9 "/>
<path class="st4" d="M1455.6,239.9c0,2.8,2.2,5,5,5c0.2,0,0.4,0,0.6,0c1.4,1.5,3.3,2.3,5.3,2.3c0.6,0,1.3-0.1,1.9-0.3
	c3.7,2.9,8.9,2.5,12.1-0.9c0.4,0.1,0.8,0.1,1.2,0.1c2.2,0,4.2-1.1,5.3-2.9h0.2c1.9-0.1,3.3-1.7,3.2-3.5c-0.1-1.7-1.5-3.1-3.2-3.2
	h-0.2c-1.1-1.8-3.2-2.9-5.3-2.9c-0.4,0-0.8,0-1.2,0.1c-3.2-3.4-8.4-3.8-12.1-0.9c-0.6-0.2-1.3-0.2-1.9-0.2c-2,0-4,0.8-5.3,2.3
	c-0.2,0-0.4,0-0.6,0C1457.8,234.9,1455.6,237.2,1455.6,239.9z"/>
<polygon class="st4" points="991,264.2 1058,325.2 991,325.2 "/>
<path class="st2" d="M987.5,265.3l-7.6,22.3c-1.5,4.2,0.9,9,4.4,9h15.2c3.5,0,5.9-4.8,4.4-9l-7.6-22.3
	C994.6,260.2,989.2,260.2,987.5,265.3z"/>
<path class="st3" d="M991.9,310.7c-0.4,0-0.6-0.3-0.6-0.7v-32c0-0.4,0.2-0.7,0.6-0.7c0.4,0,0.7,0.2,0.7,0.6c0,0.1,0,0.1,0,0.2v32
	C992.6,310.4,992.3,310.7,991.9,310.7z"/>
<path class="st3" d="M991.9,287.3c-0.2,0-0.3-0.1-0.4-0.2c-0.3-0.2-0.3-0.6-0.1-0.9l0,0l4.1-4.5c0.2-0.3,0.7-0.3,0.9-0.1
	s0.3,0.7,0.1,0.9l0,0l-4.1,4.5C992.3,287.3,992.1,287.4,991.9,287.3z"/>
<path class="st3" d="M991.9,293.3c-0.2,0-0.4-0.1-0.5-0.3l-3.1-4.3c-0.2-0.3-0.1-0.7,0.2-0.9c0.3-0.2,0.6-0.1,0.8,0.1l3.1,4.3
	c0.2,0.3,0.1,0.7-0.1,0.9l0,0C992.2,293.3,992,293.3,991.9,293.3z"/>
<g class="st5">
	<path class="st11" d="M992.4,262.6v34h-8c0,0-6.4,0-4.7-9l8-22.3c0,0,1.2-3.7,4.7-3.8V262.6z"/>
</g>
<path class="st2" d="M971.1,277.6l-4.6,13.4c-0.9,2.5,0.5,5.4,2.7,5.4h9.2c2.1,0,3.5-2.9,2.7-5.4l-4.6-13.4
	C975.5,274.6,972.2,274.6,971.1,277.6z"/>
<path class="st3" d="M973.8,304.9c-0.2,0-0.4-0.2-0.4-0.4l0,0v-19.3c0-0.2,0.2-0.4,0.4-0.4s0.4,0.2,0.4,0.4l0,0v19.3
	C974.2,304.7,974,304.9,973.8,304.9L973.8,304.9z"/>
<path class="st3" d="M973.8,290.9c-0.1,0-0.2,0-0.3-0.1c-0.1-0.2-0.1-0.4,0-0.6l2.5-2.7c0.2-0.2,0.4-0.2,0.5,0
	c0.2,0.1,0.2,0.4,0,0.5l0,0l-2.4,2.7C974,290.9,973.9,290.9,973.8,290.9z"/>
<path class="st3" d="M973.8,294.5c-0.1,0-0.2-0.1-0.3-0.2l-1.9-2.6c-0.1-0.2-0.1-0.4,0.1-0.5c0.2-0.1,0.4-0.1,0.5,0.1l0,0l1.9,2.6
	c0.1,0.2,0.1,0.4-0.1,0.5C974,294.4,973.9,294.5,973.8,294.5z"/>
<g class="st5">
	<path class="st11" d="M974.1,276v20.5h-4.8c0,0-3.8,0-2.8-5.4l4.8-13.4c0,0,0.8-2.2,2.8-2.3V276z"/>
</g>
<path class="st2" d="M1019.3,321.6c0,4-3.2,7.2-7.2,7.2c-0.4,0-0.7,0-1.1-0.1c-3.7,5.1-10.7,6.5-16,3.2c-6.1,3.4-13.8,1.8-18.1-3.7
	c-3.6,1.6-7.9,0.1-9.5-3.5s-0.1-7.9,3.5-9.5c0.9-0.4,1.9-0.6,3-0.6c0.3,0,0.6,0,0.9,0.1c2.7-7.4,10.9-11.1,18.3-8.4
	c2.1,0.8,4,2.1,5.6,3.8c4.7-1.1,9.6,0.8,12.4,4.7c0.4-0.1,0.7-0.1,1.1-0.1C1016.1,314.5,1019.3,317.7,1019.3,321.6z"/>
<path class="st11" d="M1071.6,322c0,2.1-1.8,3.8-3.9,3.8c-0.2,0-0.3,0-0.5,0c-2,2.7-5.7,3.4-8.5,1.7c-3.3,1.8-7.3,1-9.6-2
	c-1.9,0.9-4.2,0-5-1.9c-0.9-1.9,0-4.2,1.9-5c0.5-0.2,1-0.3,1.6-0.3c0.2,0,0.3,0,0.5,0c1.4-3.9,5.8-5.9,9.7-4.4c1.1,0.4,2.1,1.1,3,2
	c0.5-0.1,0.9-0.2,1.4-0.2c2,0,4,1,5.2,2.6c2.1-0.3,4,1.1,4.3,3.2C1071.6,321.6,1071.6,321.8,1071.6,322L1071.6,322z"/>
<path class="st13" d="M1394.6,265.4h-52.2c-2.3-0.1-4.1-2.1-3.9-4.3c0.1-2.1,1.8-3.8,3.9-3.9h52.2c2.3-0.1,4.2,1.7,4.3,3.9
	c0.1,2.3-1.7,4.2-3.9,4.3C1394.9,265.4,1394.7,265.4,1394.6,265.4z"/>
<path class="st13" d="M1412.8,276.6h-52.2c-2.3-0.1-4.1-2.1-3.9-4.3c0.1-2.1,1.8-3.8,3.9-3.9h52.2c2.3,0.1,4.1,2.1,3.9,4.3
	C1416.7,274.8,1415,276.5,1412.8,276.6z"/>
<rect x="1050" y="181.2" class="st3" width="34" height="27"/>
<path class="st15" d="M1463.6,239.2h-23c-0.3-1-0.8-1.9-1.5-2.7l-26.9-31.3c0,0.1,0,0.2,0,0.3v1.6h-10v-1.7c-0.3,2,0.4,4,1.7,5.5
	l24.2,28.3h-5.7c-0.3-1-0.8-1.9-1.5-2.7l-26.9-31.3c0,0.1,0,0.2,0,0.3v1.6h-10v-1.7c-0.3,2,0.4,4,1.7,5.5l24.2,28.3h-19.5
	l-49.1-56.6h13.8l5.9,6l0.5,0.6h41.1v-6.6h8.6L1463.6,239.2z"/>
<polygon class="st3" points="1341.5,182.6 1341.5,239.2 1390.6,239.2 "/>
<polygon class="st4" points="1402.9,182.6 1402.9,189.3 1446.1,239.2 1452.8,239.2 "/>
<path class="st12" d="M1363.6,189.2"/>
<path class="st11" d="M1335.6,235.8c0,2.8,2.2,5,5,5c0.2,0,0.4,0,0.6,0c1.4,1.5,3.3,2.3,5.3,2.3c0.6,0,1.3-0.1,1.9-0.2
	c3.7,2.9,8.9,2.5,12.1-0.9c0.4,0.1,0.8,0.1,1.3,0.1c2.2,0,4.2-1.1,5.3-2.9h0.2c1.9-0.1,3.3-1.7,3.2-3.5c-0.1-1.7-1.5-3.1-3.2-3.2
	h-0.2c-1.1-1.8-3.2-2.9-5.3-2.9c-0.4,0-0.8,0-1.3,0.1c-3.2-3.4-8.4-3.7-12.1-0.9c-0.6-0.2-1.3-0.3-1.9-0.2c-2,0-4,0.8-5.3,2.3
	c-0.2,0-0.4,0-0.6,0C1337.8,230.8,1335.6,233.1,1335.6,235.8z"/>
<path class="st4" d="M1394.2,205.5v1.6h-10v-1.7c0-3.4,2.3-6.2,5-6.2s4.9,2.6,5,5.9C1394.2,205.3,1394.2,205.4,1394.2,205.5z"/>
<path class="st4" d="M1412.2,205.5v1.6h-10v-1.7l0,0c0.1-3.4,2.3-6.1,5-6.1s4.9,2.6,5,5.9l0,0
	C1412.2,205.3,1412.2,205.4,1412.2,205.5z"/>
<path class="st2" d="M1473.2,244.4c0,2.9-2.3,5.2-5.2,5.2l0,0h-14.1c-2.1-0.1-3.9,1.5-4,3.6s1.5,3.9,3.6,4c0.1,0,0.3,0,0.4,0h9.3
	c2.1,0.1,3.7,1.9,3.6,4c-0.1,1.9-1.6,3.5-3.6,3.6h-57.3c-2.1-0.1-3.7-1.9-3.6-4c0.1-1.9,1.6-3.5,3.6-3.6h14.2c2.1,0.1,3.9-1.5,4-3.6
	s-1.5-3.9-3.6-4c-0.1,0-0.3,0-0.4,0h-30.7c-2.9,0-5.2-2.3-5.2-5.2s2.3-5.2,5.2-5.2h20.7l0,0l-24.3-28.3c-1.3-1.5-2-3.5-1.7-5.5v1.7
	h10v-1.7c0-0.1,0-0.2,0-0.3l26.8,31.3c0.7,0.8,1.2,1.7,1.5,2.7l0,0h5.7l0,0l-24.3-28.3c-1.3-1.5-2-3.5-1.7-5.5v1.7h10v-1.6
	c0-0.1,0-0.2,0-0.3l26.9,31.3c0.7,0.8,1.2,1.7,1.5,2.7l0,0h27.4C1470.9,239.2,1473.2,241.5,1473.2,244.4
	C1473.3,244.4,1473.3,244.4,1473.2,244.4z"/>
<path class="st2" d="M1412.2,205.5v1.6h-10v-1.7l0,0c0.2-1,0.7-1.9,1.4-2.5c2.1-1.8,5.6-1.1,7.9,1.5l0.7,0.8l0,0
	C1412.2,205.3,1412.2,205.4,1412.2,205.5z"/>
<path class="st2" d="M1394.2,205.5v1.6h-10v-1.7c0.2-1,0.7-1.9,1.4-2.6c2.1-1.8,5.6-1.1,7.9,1.5l0.7,0.8
	C1394.2,205.3,1394.2,205.4,1394.2,205.5z"/>
<circle class="st4" cx="1376.9" cy="194" r="2.2"/>
<circle class="st4" cx="1388.2" cy="194" r="2.2"/>
<circle class="st4" cx="1399.4" cy="194" r="2.2"/>
<g class="st5">
	<path class="st16" d="M1386.4,202.2l31.7,36.9h-8.1l-24.3-28.3C1385.8,210.9,1381.4,205.4,1386.4,202.2z"/>
</g>
<g class="st5">
	<path class="st16" d="M1404.6,202.3l31.7,36.9h-8l-24.3-28.3C1404,210.9,1399.6,205.5,1404.6,202.3z"/>
</g>
<path class="st11" d="M1364.3,239.2c0,1.3,1.1,2.4,2.4,2.4l0,0c0.1,0,0.2,0,0.3,0c0.9,1,2.3,1.3,3.5,1c1.8,1.4,4.3,1.2,5.9-0.4
	c0.2,0,0.4,0.1,0.6,0.1c1,0,2-0.5,2.6-1.4h0.1c0.9,0.1,1.7-0.6,1.8-1.5s-0.6-1.7-1.5-1.8c-0.1,0-0.2,0-0.3,0h-0.1
	c-0.6-0.9-1.5-1.4-2.6-1.4c-0.2,0-0.4,0-0.6,0.1c-1.6-1.6-4.1-1.8-5.9-0.4c-1.3-0.3-2.6,0-3.5,1h-0.3
	C1365.4,236.8,1364.3,237.9,1364.3,239.2z"/>
<g class="st5">
	<path class="st11" d="M1450.2,253.4c0,2.1,1.7,3.8,3.8,3.8l0,0h9.3c2.1,0.1,3.7,1.9,3.6,4c-0.1,1.9-1.6,3.5-3.6,3.6H1406
		c-2.1-0.1-3.7-1.9-3.6-4c0.1-1.9,1.6-3.5,3.6-3.6h14.2c2.1,0.1,3.9-1.5,4-3.6s-1.5-3.9-3.6-4c-0.1,0-0.3,0-0.4,0h-18.4v-0.1h65.7
		v0.1h-13.6C1451.8,249.6,1450.2,251.3,1450.2,253.4C1450.2,253.3,1450.2,253.3,1450.2,253.4z"/>
</g>
<path class="st2" d="M1355.3,211.9l-3.9,11.4c-0.7,2.2,0.5,4.6,2.3,4.6h7.8c1.8,0,3-2.5,2.3-4.6l-3.9-11.4
	C1359,209.3,1356.2,209.3,1355.3,211.9z"/>
<path class="st3" d="M1357.6,235.1c-0.2,0-0.3-0.1-0.3-0.3v-16.4c0-0.2,0.2-0.3,0.4-0.3c0.1,0,0.3,0.1,0.3,0.3v16.4
	C1358,234.9,1357.8,235.1,1357.6,235.1L1357.6,235.1z"/>
<path class="st3" d="M1357.6,223.1c-0.1,0-0.2,0-0.2-0.1c-0.1-0.1-0.1-0.3,0-0.5l0,0l2.1-2.3c0.1-0.1,0.3-0.1,0.5,0l0,0
	c0.1,0.1,0.1,0.3,0,0.5l-2.1,2.3C1357.8,223.1,1357.7,223.2,1357.6,223.1z"/>
<path class="st3" d="M1357.6,226.2c-0.1,0-0.2,0-0.3-0.1l-1.6-2.2c-0.1-0.2-0.1-0.4,0.1-0.5c0.1-0.1,0.4-0.1,0.5,0.1l0,0l1.6,2.2
	c0.1,0.1,0.1,0.3-0.1,0.4l0,0C1357.8,226.2,1357.7,226.2,1357.6,226.2z"/>
<g class="st5">
	<path class="st11" d="M1357.5,210.5V228h-3.9c0,0-3.1,0-2.3-4.6l3.9-11.5c0,0,0.6-1.9,2.3-1.9V210.5z"/>
</g>
<path class="st2" d="M1486.2,308.6h5.2l0,0v7l0,0h-5.2c-1,0-1.8-0.8-1.8-1.8l0,0v-3.4C1484.4,309.4,1485.2,308.6,1486.2,308.6
	L1486.2,308.6z"/>
<path class="st17" d="M1194.4,341.8c0,0,20.8-16.7,57.6-16.3c0,0,6.4-1.9,9.8-4.5s33-19.3,64-18.9s63.2,7.6,79.9,17.4
	c3,1.5,8.3,2.7,8.7,2.3s-0.8,2.3-1.1,2.7s2.3,9.5,1.5,13.6c-0.4,1.1,3.8,4.9,3.4,7.6s-1.1,11.4-8.7,14c-4.3,1.6-8.7,2.5-13.3,2.7
	c0,0,2.7-9.1-0.8-15.9c-3.4-6.6-10.4-10.6-17.8-10.2c-7.2,0.4-14.8,4.2-17.8,14c-0.7,2.7-1.1,5.5-1.1,8.3c0,4.5-0.8,8-1.1,8
	s-1.9-1.9-5.7-1.5h-98.5c0,0-1.5,0.4-1.5-0.8s-0.4-13.3-3.8-19.3s-9.8-10.2-19.3-9.5s-17,9.8-17,20.8c0,2.1,0.1,4.3,0.4,6.4
	c0.4,1.5,1.1,2.7,0.4,3s-2.3-1.5-3.4-1.9s-6.1-0.4-8.3-1.1s-6.1-1.9-5.7-2.7s3.4-0.8,3.4-1.9s-2.3-3.4-3.4-3.8s-0.8-1.5-0.4-2.7
	S1193.3,342.5,1194.4,341.8z"/>
<path class="st3" d="M1194.4,341.8c0,0,20.8-16.7,57.6-16.3c0,0,6.4-1.9,9.8-4.5s33-19.3,64-18.9s63.2,7.6,79.9,17.4
	c3,1.5,8.3,2.7,8.7,2.3s-0.8,2.3-1.1,2.7s2.3,9.5,1.5,13.6c-0.4,1.1,3.8,4.9,3.4,7.6s-1.1,11.4-8.7,14c-4.3,1.6-8.7,2.5-13.3,2.7
	c0,0,2.7-9.1-0.8-15.9c-3.4-6.6-10.4-10.6-17.8-10.2c-7.2,0.4-14.8,4.2-17.8,14c-0.7,2.7-1.1,5.5-1.1,8.3c0,4.5-0.8,8-1.1,8
	s-1.9-1.9-5.7-1.5h-98.5c0,0-1.5,0.4-1.5-0.8s-0.4-13.3-3.8-19.3s-9.8-10.2-19.3-9.5s-17,9.8-17,20.8c0,2.1,0.1,4.3,0.4,6.4
	c0.4,1.5,1.1,2.7,0.4,3s-2.3-1.5-3.4-1.9s-6.1-0.4-8.3-1.1s-6.1-1.9-5.7-2.7s3.4-0.8,3.4-1.9s-2.3-3.4-3.4-3.8s-0.8-1.5-0.4-2.7
	S1193.3,342.5,1194.4,341.8z"/>
<path class="st3" d="M1194.4,343.7c0,0,21.7-14.2,58.5-13.9c3.1-1.5,6.1-3.1,8.9-5c3.4-2.4,33-15.5,64-15.1s63.3,4.3,79.9,13.2
	c3,1.4,7.1,0.8,7.5,0.5s0.4,0.9,0,1.2s2.3,9.7,1.6,13.5c-0.4,1,3.8,4.9,3.4,7.3s-1.3,12.4-9.5,14.6c-4.1,1.2-8.3,2-12.5,2.3
	c0,0,2.7-10-0.8-16.2c-3.6-6.4-10.5-10.2-17.8-10c-7.2,0.3-15.9,4.8-17.8,15.1c-0.7,2.5-1.1,5-1.1,7.6c0,4.1-0.8,7.6-1.1,7.6
	s-1.9-2.1-5.7-1.7h-98.4c0,0-1.5,0.3-1.5-0.7s-0.4-13.7-3.8-19.2s-9.8-10.2-19.3-9.5s-17.2,10.2-17,21.4c0,2,0.1,3.9,0.4,5.9
	c0.4,1.4,1.1,2.4,0.4,2.8s-2.3-1.4-3.4-1.7s-6.1-0.3-8.3-1s-6.1-1.7-5.7-2.4s3.4-0.7,3.4-1.7s-2.3-3.1-3.4-3.5s-0.8-1.4-0.4-2.4
	S1193.3,344.4,1194.4,343.7z"/>
<circle class="st18" cx="1378.5" cy="354.7" r="16.7"/>
<circle class="st18" cx="1231.5" cy="354.7" r="16.7"/>
<path class="st10" d="M1264.1,324.4h1.5c1.1,0,2.3,0,2.7-0.8s1.1-4.2,4.2-4.5s5.7-0.8,6.1,0.8s0.8,4.5,0,4.9s-6.4-0.4-6.8,0.4
	c-0.2,0.3-0.3,0.7-0.4,1.1l44.3-1.9l6.8-19.3C1322.4,305.1,1288.7,303.9,1264.1,324.4z"/>
<path class="st10" d="M1324.7,324l4.9-19.3c0,0,24.2,0.4,35.2,4.5l-1.5,11.7C1363.3,320.9,1346.7,323.2,1324.7,324z"/>
<path class="st10" d="M1366,309.6l-1.1,11c0,0,14.4-1.5,17.4-5.3c0.4-0.8-0.4-1.1-1.5-1.5S1367.5,309.6,1366,309.6z"/>
<path class="st11" d="M1398.6,324c0,0,13.3-0.8,14.4,0.8c0,0,1.1,6.1,0.8,6.8S1408.4,333.4,1398.6,324z"/>
<path class="st10" d="M1200.5,338.4c6.4-3.8,13.3-6.7,20.4-8.7c0,0,1.1,0-1.5,1.9s-13.3,9.5-18.2,8.7
	C1199.7,339.9,1200.5,338.4,1200.5,338.4z"/>
<circle class="st3" cx="1231.5" cy="354.7" r="12.5"/>
<circle class="st3" cx="1378.5" cy="354.7" r="12.4"/>
<path class="st2" d="M1380.5,324.1h-0.2c-13.7,1.4-14.3-10.8-14.3-10.8c10.7-0.7,13.5,5.5,14.2,8.8c0.2-2.5,1.6-6.4,8.4-7.4
	C1388.7,314.6,1390,323,1380.5,324.1z"/>
<path class="st3" d="M1386.5,317.1l-3.2,3.5l0,0l-2.6,2.9c-0.1,0.1-0.1,0.1-0.2,0.1s-0.1,0-0.2,0l-4.1-2.9l-2.7-1.9l-3.3,0.2l0,0
	c-0.2,0-0.3-0.1-0.3-0.3c0-0.2,0.1-0.3,0.3-0.3l2.6-0.2l-3.3-2.3c-0.1-0.1-0.2-0.2-0.1-0.4l0,0c0.1-0.1,0.3-0.2,0.4-0.1l3.9,2.8h0.1
	l2.3,1.6v-1.9c0-0.1,0.1-0.3,0.3-0.3l0,0c0.2,0,0.3,0.1,0.3,0.3l0,0v2.3l3.8,2.6l2.3-2.6v-1.7c0-0.2,0.1-0.3,0.3-0.3
	s0.3,0.1,0.3,0.3v1l2.7-3c0.1-0.1,0.3-0.1,0.4,0l0,0C1386.6,316.8,1386.6,317,1386.5,317.1L1386.5,317.1z"/>
<rect x="1505" y="334.2" class="st16" width="17" height="4"/>
<rect x="1505" y="329.2" class="st16" width="17" height="4"/>
<rect x="1505" y="324.2" class="st16" width="17" height="4"/>
<rect x="1505" y="319.2" class="st16" width="17" height="4"/>
<circle class="st2" cx="1379.5" cy="329.7" r="4.5"/>
<path class="st2" d="M1461.1,372.2H1384c-2.8,0-5-3.1-5-7.1v-35.9h2v35.9c0,2.8,1.4,5.1,3,5.1h77.1c1.9,0,3.4-2.6,3.4-5.7v-46.3
	c0-4.2,2.3-7.5,5.3-7.5h15.2v2h-15.2c-1.8,0-3.3,2.5-3.3,5.5v46.3C1466.5,368.8,1464.1,372.2,1461.1,372.2z"/>
<polygon class="st3" points="1024,207.2 1092,207.2 1143,264.2 1072.6,264.2 "/>
<rect x="1122" y="167.2" class="st4" width="28" height="7"/>
<rect x="1150" y="167.2" class="st6" width="30" height="7"/>
<path class="st4" d="M861.6,210l-2.7,7.9c-0.5,1.5,0.3,3.2,1.6,3.2h5.4c1.2,0,2.1-1.7,1.6-3.2l-2.7-7.9
	C864.1,208.2,862.2,208.2,861.6,210z"/>
<path class="st4" d="M863.1,226.1c-0.1,0-0.2-0.1-0.2-0.2v-11.4c0-0.1,0.1-0.2,0.2-0.2s0.2,0.1,0.2,0.2v11.4
	C863.4,226,863.3,226.1,863.1,226.1z"/>
<path class="st4" d="M863.1,217.8c-0.1,0-0.1,0-0.2-0.1c-0.1-0.1-0.1-0.2,0-0.3l0,0l1.4-1.6c0.1-0.1,0.2-0.1,0.3,0s0.1,0.2,0,0.3
	l-1.4,1.6C863.3,217.8,863.2,217.8,863.1,217.8z"/>
<path class="st4" d="M863.1,219.9c-0.1,0-0.1,0-0.2-0.1l-1.1-1.5c-0.1-0.1,0-0.3,0.1-0.3s0.3,0,0.3,0.1l0,0l1.1,1.5
	c0.1,0.1,0.1,0.3,0,0.3C863.2,219.9,863.2,219.9,863.1,219.9z"/>
<g class="st5">
	<path class="st4" d="M863.1,209v12.1h-2.7c0,0-2.2,0-1.6-3.2l2.7-8c0,0,0.4-1.3,1.6-1.3V209z"/>
</g>
<path class="st4" d="M1611.6,225l-2.7,7.9c-0.5,1.5,0.3,3.2,1.6,3.2h5.4c1.2,0,2.1-1.7,1.6-3.2l-2.7-7.9
	C1614.1,223.2,1612.2,223.2,1611.6,225z"/>
<path class="st4" d="M1613.1,241.1c-0.1,0-0.2-0.1-0.2-0.2v-11.4c0-0.1,0.1-0.2,0.2-0.2s0.2,0.1,0.2,0.2v11.4
	C1613.4,241,1613.3,241.1,1613.1,241.1z"/>
<path class="st4" d="M1613.1,232.8c-0.1,0-0.1,0-0.2-0.1s-0.1-0.2,0-0.3l0,0l1.4-1.6c0.1-0.1,0.2-0.1,0.3,0c0.1,0.1,0.1,0.2,0,0.3
	l-1.4,1.6C1613.3,232.8,1613.2,232.8,1613.1,232.8z"/>
<path class="st4" d="M1613.1,234.9c-0.1,0-0.1,0-0.2-0.1l-1.1-1.5c-0.1-0.1,0-0.3,0.1-0.3c0.1-0.1,0.3,0,0.3,0.1l1.1,1.5
	c0.1,0.1,0.1,0.2,0,0.3C1613.3,234.9,1613.2,234.9,1613.1,234.9z"/>
<g class="st5">
	<path class="st4" d="M1613.1,224v12.1h-2.7c0,0-2.2,0-1.6-3.2l2.7-8c0,0,0.4-1.3,1.6-1.3V224z"/>
</g>
<path class="st4" d="M873.1,215.3l-2.1,6.2c-0.4,1.2,0.2,2.5,1.2,2.5h4.2c1,0,1.6-1.3,1.2-2.5l-2.1-6.2c-0.1-0.7-0.8-1.1-1.5-1
	C873.6,214.4,873.2,214.8,873.1,215.3z"/>
<path class="st4" d="M874.3,227.8c-0.1,0-0.2-0.1-0.2-0.2v-8.9c0-0.1,0.1-0.2,0.2-0.2c0.1,0,0.2,0.1,0.2,0.2l0,0v8.9
	C874.5,227.7,874.4,227.8,874.3,227.8z"/>
<path class="st4" d="M874.3,221.4c-0.1,0-0.2-0.1-0.2-0.2v-0.1l1.1-1.2c0.1-0.1,0.2-0.1,0.3,0s0.1,0.2,0,0.3L874.3,221.4
	C874.4,221.4,874.4,221.4,874.3,221.4z"/>
<path class="st4" d="M874.3,223c-0.1,0-0.1,0-0.2-0.1l-0.9-1.2c0-0.1,0-0.2,0.1-0.2s0.2,0,0.2,0l0.9,1.2c0.1,0.1,0.1,0.2,0,0.2
	C874.4,223,874.4,223,874.3,223z"/>
<g class="st5">
	<path class="st4" d="M874.3,214.5v9.4h-2.1c0,0-1.7,0-1.2-2.5l2.1-6.2c0,0,0.3-1,1.2-1V214.5z"/>
</g>
<path class="st4" d="M1216.8,173.2h30.4c-2.8-8.4-11.8-12.9-20.2-10.2C1222.2,164.7,1218.4,168.4,1216.8,173.2z"/>
<polygon class="st4" points="982,190.2 991,196.9 973,196.9 "/>
<radialGradient id="SVGID_1_" cx="1429.5" cy="-81.3" r="30.5" gradientTransform="matrix(1 0 0 1 0 172)" gradientUnits="userSpaceOnUse">
	<stop  offset="0" style="stop-color:#B3B3B3"/>
	<stop  offset="1" style="stop-color:#372756"/>
</radialGradient>
<circle class="st19" cx="1429.5" cy="90.7" r="30.5"/>
<circle class="st10" cx="1429.5" cy="90.7" r="13.6"/>
<path class="st2" d="M1345.2,217.1l-2.2,6.3c-0.4,1.2,0.3,2.6,1.3,2.6h4.3c1,0,1.7-1.4,1.3-2.6l-2.2-6.3c-0.1-0.7-0.7-1.2-1.4-1.1
	C1345.7,216.1,1345.3,216.5,1345.2,217.1z"/>
<path class="st3" d="M1346.5,230c-0.1,0-0.2-0.1-0.2-0.2v-9.1c0-0.1,0.1-0.2,0.2-0.2s0.2,0.1,0.2,0.2l0,0v9.1
	C1346.6,229.9,1346.6,230,1346.5,230L1346.5,230z"/>
<path class="st3" d="M1346.5,223.4L1346.5,223.4c-0.2-0.1-0.2-0.2-0.1-0.3l1.2-1.3c0.1-0.1,0.2-0.1,0.3,0c0.1,0.1,0.1,0.2,0,0.3l0,0
	l-1.2,1.3C1346.5,223.4,1346.5,223.4,1346.5,223.4z"/>
<path class="st3" d="M1346.5,225.1c-0.1,0-0.1,0-0.2-0.1l-0.9-1.2c0-0.1,0-0.2,0.1-0.2s0.2,0,0.2,0l0.9,1.2c0.1,0.1,0.1,0.2,0,0.2
	C1346.6,225.1,1346.5,225.1,1346.5,225.1z"/>
<g class="st5">
	<path class="st11" d="M1346.4,216.3v9.7h-2.2c0,0-1.7,0-1.3-2.6l2.2-6.3c0,0,0.3-1.1,1.3-1.1V216.3z"/>
</g>
<path class="st2" d="M1193.7,187l-12.6,36.9c-2.4,7,1.5,14.9,7.3,14.9h25.1c5.8,0,9.7-7.9,7.3-14.9l-12.6-36.9
	C1205.5,178.7,1196.6,178.7,1193.7,187z"/>
<path class="st3" d="M1201,262c-0.6,0-1.1-0.5-1.1-1.1v-53c0-0.6,0.5-1.1,1.1-1.1s1.1,0.5,1.1,1.1v53
	C1202.1,261.5,1201.6,262,1201,262L1201,262z"/>
<path class="st3" d="M1201,223.4c-0.6,0-1.1-0.5-1.1-1.1c0-0.3,0.1-0.5,0.3-0.7l6.8-7.4c0.4-0.5,1.1-0.5,1.5-0.1
	c0.5,0.4,0.5,1.1,0.1,1.5c0,0,0,0-0.1,0.1l-6.7,7.4C1201.7,223.3,1201.3,223.5,1201,223.4z"/>
<path class="st3" d="M1201,233.3c-0.3,0-0.7-0.2-0.9-0.5l-5.1-7.1c-0.3-0.5-0.2-1.2,0.2-1.5c0.5-0.3,1.1-0.2,1.5,0.2l5.1,7.1
	c0.3,0.5,0.2,1.1-0.2,1.5l0,0C1201.4,233.2,1201.2,233.3,1201,233.3z"/>
<path class="st11" d="M1211.6,265.4c0,2.8-2.2,5-5,5c-0.2,0-0.4,0-0.6,0c-1.4,1.5-3.3,2.3-5.3,2.3c-0.6,0-1.3-0.1-1.9-0.3
	c-3.6,2.9-8.9,2.5-12.1-0.9c-0.4,0.1-0.8,0.1-1.3,0.1c-2.2,0-4.2-1.1-5.3-2.9h-0.2c-1.9,0-3.3-1.5-3.3-3.4s1.5-3.3,3.3-3.3h0.2
	c1.2-1.8,3.2-2.9,5.3-2.9c0.4,0,0.8,0,1.3,0.1c3.2-3.4,8.4-3.7,12.1-0.9c0.6-0.2,1.3-0.3,1.9-0.3c2,0,4,0.8,5.3,2.3
	c0.2,0,0.4,0,0.6,0C1209.3,260.4,1211.5,262.7,1211.6,265.4z"/>
<path class="st11" d="M1224.9,260c0,3.8-3,6.8-6.8,6.8l0,0c-0.3,0-0.6,0-0.9,0c-2.5,2.7-6.3,3.8-9.9,2.8c-5,3.9-12.1,3.4-16.4-1.2
	c-0.6,0.1-1.1,0.2-1.7,0.2c-2.9,0-5.7-1.5-7.2-4h-0.2c-2.5-0.1-4.5-2.3-4.3-4.8c0.1-2.4,2-4.2,4.3-4.3h0.2c1.6-2.5,4.3-4,7.2-4
	c0.6,0,1.1,0.1,1.7,0.2c4.3-4.6,11.5-5.1,16.4-1.2c3.6-1,7.4,0.1,9.9,2.8c0.3,0,0.6,0,0.9,0C1221.8,253.2,1224.9,256.2,1224.9,260z"
	/>
<path class="st11" d="M1184.8,269.8c0,1.8-1.4,3.2-3.2,3.2h-0.4c-0.9,1-2.1,1.5-3.4,1.5c-0.4,0-0.8-0.1-1.2-0.2
	c-2.3,1.8-5.7,1.6-7.8-0.6c-0.3,0.1-0.5,0.1-0.8,0.1c-1.4,0-2.7-0.7-3.4-1.9h-0.1c-1.2,0.1-2.2-0.8-2.3-2c-0.1-1.2,0.8-2.2,2-2.3
	c0.1,0,0.2,0,0.3,0h0.1c0.7-1.2,2-1.9,3.4-1.9c0.3,0,0.5,0,0.8,0.1c2.1-2.2,5.4-2.4,7.8-0.6c0.4-0.1,0.8-0.2,1.2-0.2
	c1.3,0,2.6,0.5,3.4,1.5c0.1,0,0.3,0,0.4,0C1183.3,266.7,1184.8,268.1,1184.8,269.8z"/>
<g class="st5">
	<path class="st11" d="M1201,182.5v56.3h-12.7c0,0-10.1,0-7.4-14.9l12.7-36.9c0,0,2-6.2,7.4-6.2V182.5z"/>
</g>
<rect x="1146" y="179.2" class="st3" width="2" height="6"/>
<rect x="1151" y="179.2" class="st3" width="2" height="6"/>
<rect x="1156" y="179.2" class="st3" width="2" height="6"/>
<polygon class="st3" points="1095,215.2 1035,215.2 1035,217.2 1049,233.2 1110,233.2 1110,231.2 "/>
<polygon class="st3" points="1035,215.2 1095,215.2 1110,231.2 1049,231.2 "/>
<polygon class="st10" points="1083.2,222.7 1091.9,222.7 1085.2,215.2 1076.6,215.2 "/>
<polygon class="st10" points="1062.8,223.7 1054.1,223.7 1060.8,231.2 1069.4,231.2 "/>
<polygon class="st10" points="1053.2,222.7 1061.9,222.7 1055.2,215.2 1046.6,215.2 "/>
<polygon class="st10" points="1063.2,222.7 1071.9,222.7 1065.2,215.2 1056.6,215.2 "/>
<polygon class="st10" points="1073.2,222.7 1081.9,222.7 1075.2,215.2 1066.6,215.2 "/>
<polygon class="st10" points="1072.8,223.7 1064.1,223.7 1070.8,231.2 1079.4,231.2 "/>
<polygon class="st10" points="1093.2,222.7 1102,222.7 1095,215.2 1086.6,215.2 "/>
<polygon class="st10" points="1051.9,222.7 1045.2,215.2 1035,215.2 1041.6,222.7 "/>
<polygon class="st10" points="1052.8,223.7 1042.4,223.7 1049,231.2 1059.4,231.2 "/>
<polygon class="st10" points="1082.8,223.7 1074.1,223.7 1080.8,231.2 1089.4,231.2 "/>
<polygon class="st10" points="1092.8,223.7 1084.1,223.7 1090.8,231.2 1099.4,231.2 "/>
<polygon class="st10" points="1103,223.7 1094.1,223.7 1100.8,231.2 1110,231.2 "/>
<polygon class="st3" points="1111.5,233.7 1051.5,233.7 1051.5,235.7 1065.5,251.7 1126.5,251.7 1126.5,249.7 "/>
<polygon class="st10" points="1099.7,241.2 1108.4,241.2 1101.7,233.7 1093.1,233.7 "/>
<polygon class="st10" points="1079.3,242.2 1070.6,242.2 1077.3,249.7 1085.9,249.7 "/>
<polygon class="st10" points="1069.7,241.2 1078.4,241.2 1071.7,233.7 1063.1,233.7 "/>
<polygon class="st10" points="1079.7,241.2 1088.4,241.2 1081.7,233.7 1073.1,233.7 "/>
<polygon class="st10" points="1089.7,241.2 1098.4,241.2 1091.7,233.7 1083.1,233.7 "/>
<polygon class="st10" points="1089.3,242.2 1080.6,242.2 1087.3,249.7 1095.9,249.7 "/>
<polygon class="st10" points="1109.7,241.2 1118.5,241.2 1111.5,233.7 1103.1,233.7 "/>
<polygon class="st10" points="1068.4,241.2 1061.7,233.7 1051.5,233.7 1058.1,241.2 "/>
<polygon class="st10" points="1069.3,242.2 1058.9,242.2 1065.5,249.7 1075.9,249.7 "/>
<polygon class="st10" points="1099.3,242.2 1090.6,242.2 1097.3,249.7 1105.9,249.7 "/>
<polygon class="st10" points="1109.3,242.2 1100.6,242.2 1107.3,249.7 1115.9,249.7 "/>
<polygon class="st10" points="1119.5,242.2 1110.6,242.2 1117.3,249.7 1126.5,249.7 "/>
<rect class="st20" width="2128.6" height="372.5"/>
<path class="st3" d="M894.1,86.4c-0.3-0.2-0.6-0.4-0.9-0.7c-2.2,2.7-6.7,7.4-12.3,7.9c-8,0.7-17.5-1.8-17.5-1.8s-0.7-0.6,0.3-1.1
	c0,0,22-7.1,28.9-7.6c0.3-1,1.2-1.8,2.2-2c-1.6-2-6.5-8.8-5.2-15.4c1.6-7.9,6.7-16.3,6.7-16.3s0.8-0.5,0.9,0.6
	c0,0,0.7,26.9-1.2,31.1c0.9,0.3,1.7,1,1.9,1.9c1.9-0.1,11-0.3,15.9,5c5.5,5.9,9.2,15,9.2,15s-0.1,0.9-1.1,0.4c0,0-20.3-14.1-24-18.9
	c-0.2,0.8-0.8,1.4-1.6,1.8"/>
<path class="st3" d="M948.1,133c-0.3-0.2-0.6-0.4-0.9-0.7c-2.2,2.7-6.7,7.4-12.3,7.9c-8,0.7-17.5-1.8-17.5-1.8s-0.7-0.6,0.3-1.1
	c0,0,22-7.1,28.9-7.6c0.3-1,1.2-1.8,2.2-2c-1.6-2-6.5-8.8-5.2-15.4c1.6-7.9,6.7-16.3,6.7-16.3s0.8-0.5,0.9,0.6
	c0,0,0.7,26.9-1.2,31.1c0.9,0.3,1.7,1,1.9,1.9c1.9-0.1,11-0.3,15.9,5c5.5,5.9,9.2,15,9.2,15s-0.1,0.9-1.1,0.4c0,0-20.3-14.1-24-18.9
	c-0.2,0.8-0.8,1.4-1.6,1.8"/>
<path class="st7" d="M846.1,145.1c-0.3-0.2-0.6-0.4-0.9-0.7c-2.1,2.7-6.6,7.3-12.1,7.8c-7.9,0.7-17.2-1.7-17.2-1.7s-0.7-0.6,0.3-1
	c0,0,21.6-7,28.3-7.5c0.3-1,1.1-1.8,2.2-1.9c-1.6-1.9-6.4-8.6-5.1-15.1c1.5-7.7,6.6-16,6.6-16s0.8-0.5,0.9,0.6
	c0,0,0.7,26.4-1.2,30.6c0.9,0.2,1.6,1,1.9,1.9c1.8-0.1,10.8-0.3,15.6,4.9c5.4,5.8,9.1,14.7,9.1,14.7s-0.1,0.9-1,0.4
	c0,0-19.9-13.9-23.5-18.5c-0.2,0.8-0.8,1.4-1.5,1.7"/>
</svg>
