<svg width="42" height="42" fill="none" xmlns="http://www.w3.org/2000/svg"><circle cx="21.012" cy="21.443" r="20.5" fill="#15A0DC"/><g clip-path="url(#clip0)"><path d="M14.848 20.59l.891.125-.89-.126zm-.018.125l-.89-.126.89.126zm12.345-.126l.89-.126-.89.126zm.018.126l-.891.126.89-.126zm-2.581 10.728v.9a.9.9 0 00.9-.9h-.9zm-7.2 0h-.9a.9.9 0 00.9.9v-.9zM16.07 25.42l.712-.551-.712.55zm9.882 0l-.713-.551.713.55zm-7.641 10.524h5.4v-1.8h-5.4v1.8zm-4.356-15.48l-.018.126 1.782.252.018-.126-1.782-.252zm7.056-6.12a7.126 7.126 0 00-7.056 6.12l1.782.252a5.326 5.326 0 015.274-4.572v-1.8zm7.056 6.12a7.126 7.126 0 00-7.056-6.12v1.8a5.328 5.328 0 015.274 4.572l1.782-.252zm.018.126l-.018-.126-1.782.252.018.126 1.782-.252zm-1.422 5.38a7.122 7.122 0 001.422-5.381l-1.782.255a5.311 5.311 0 01-1.062 4.025l1.422 1.102zm-2.952 2.594v2.88h1.8v-2.878h-1.8v-.002zm.9 1.98h-7.2v1.8h7.2v-1.8zm-6.3.9v-2.878h-1.8v2.878h1.8zM13.938 20.59a7.113 7.113 0 001.422 5.38l1.422-1.101a5.312 5.312 0 01-1.062-4.025l-1.782-.255v.001zm4.374 7.974c0-1.481-.789-2.741-1.53-3.697l-1.422 1.102c.69.89 1.152 1.742 1.152 2.595h1.8zm6.93-3.697c-.744.958-1.53 2.216-1.53 3.697h1.8c0-.853.462-1.704 1.152-2.595l-1.422-1.102zm-5.13-15.923v3.6h1.8v-3.6h-1.8zm-12.6 14.4h3.6v-1.8h-3.6v1.8zm23.4 0h3.6v-1.8h-3.6v1.8zm-17.363-7.837l-2.7-2.7-1.274 1.275 2.7 2.7 1.274-1.275zm16.2 1.275l2.7-2.7-1.274-1.275-2.7 2.7 1.274 1.275z" fill="#fff"/></g><defs><clipPath id="clip0"><path fill="#fff" transform="translate(7.512 8.943)" d="M0 0h27v27H0z"/></clipPath></defs></svg>