<svg width="48" height="49" fill="none" xmlns="http://www.w3.org/2000/svg"><path d="M22 1.598a4 4 0 014 0l16.785 9.69a4 4 0 012 3.464v19.381a4 4 0 01-2 3.465L26 47.288a4 4 0 01-4 0l-16.785-9.69a4 4 0 01-2-3.465v-19.38a4 4 0 012-3.465L22 1.598z" fill="#EEB649"/><path d="M13.67 21.776a10.729 10.729 0 000 5.333h3.797a26.45 26.45 0 010-5.333h-3.798zm1.09-2.667h3.128c.355-1.622.867-3.076 1.495-4.285a10.714 10.714 0 00-4.623 4.285zm19.57 2.667h-3.797c.18 1.773.18 3.56 0 5.333h3.798a10.73 10.73 0 000-5.333zm-1.09-2.667a10.714 10.714 0 00-4.623-4.285c.63 1.21 1.14 2.663 1.495 4.285h3.128zm-13.09 2.667c-.1.885-.15 1.776-.15 2.667 0 .913.05 1.806.15 2.666h7.7c.202-1.772.202-3.56 0-5.333h-7.7zm.477-2.667h6.746a14.342 14.342 0 00-1.044-2.902c-.837-1.674-1.733-2.431-2.329-2.431-.597 0-1.492.757-2.33 2.43-.42.843-.773 1.823-1.043 2.903zM14.76 29.776a10.714 10.714 0 004.623 4.285c-.63-1.209-1.14-2.662-1.495-4.285H14.76zm18.48 0h-3.128c-.355 1.623-.867 3.076-1.495 4.285a10.714 10.714 0 004.623-4.285zm-12.613 0c.27 1.08.624 2.06 1.044 2.903.837 1.673 1.733 2.43 2.33 2.43.596 0 1.491-.757 2.328-2.43.42-.843.774-1.823 1.044-2.903h-6.746zm3.373 8c-7.364 0-13.333-5.97-13.333-13.333 0-7.364 5.97-13.334 13.333-13.334 7.364 0 13.333 5.97 13.333 13.334S31.364 37.776 24 37.776z" fill="#fff"/></svg>