<?xml version="1.0" encoding="iso-8859-1"?>
<!-- Generator: Adobe Illustrator 19.0.0, SVG Export Plug-In . SVG Version: 6.00 Build 0)  -->
<svg version='1.1' id='Layer_1' xmlns='http://www.w3.org/2000/svg' x='0px' y='0px'
     viewBox='0 0 508 508' style='enable-background:new 0 0 508 508;' xml:space='preserve'>
<circle style="fill:#FD8469;" cx="254" cy="254" r="254"/>
<path style="fill:#FFFFFF;" d="M258.4,443.6c-52,0-92.8-85.2-92.8-194.4c0-108.8,40.8-194.4,92.8-194.4s92.8,85.2,92.8,194.4
	C351.6,358,310.4,443.6,258.4,443.6z M258.4,65.6c-44.8,0-82.4,84-82.4,183.6s37.6,183.6,82.4,183.6s82.4-84,82.4-183.6
	S303.2,65.6,258.4,65.6z"/>
<path style="fill:#84DBFF;" d="M157.2,384.8c-26.8,0-46.8-8.4-57.6-24c-14.8-20.8-11.2-52.4,9.6-88.4c20-34.8,54.4-70,96.4-99.6
	C258,136,316,114,360,114c26.8,0,46.8,8.4,57.6,24c30,42.8-16.4,125.2-105.6,187.6C258.8,362.4,201.2,384.8,157.2,384.8z M360,124.4
	c-42,0-97.6,21.6-148.8,57.6c-40.8,28.4-73.6,62.4-93.2,96c-18.8,32-22,59.6-10,76.8c11.2,16,32.8,19.2,48.8,19.2
	c42,0,97.6-21.6,148.8-57.2c81.6-57.2,128.8-136.4,103.2-172.8C397.6,128,376,124.4,360,124.4z"/>
<path style="fill:#FFD05B;" d="M360,384.8L360,384.8c-44,0-102-22-154.8-59.2c-42-29.6-76-64.8-96.4-99.6c-20.8-36-24-67.2-9.6-88.4
	c10.8-15.6,30.8-24,57.6-24c44,0,102,22,154.8,59.2c89.2,62.4,135.6,144.8,105.6,187.6C406.8,376.4,386.8,384.8,360,384.8z
	 M157.2,124.4c-16,0-37.6,3.2-48.8,19.2c-12,17.2-8.8,44.8,10,76.8c19.2,33.2,52.4,67.6,93.2,96C262.4,352.8,318,374,360,374l0,0
	c16,0,37.6-3.2,48.8-19.2c25.6-36.4-21.6-115.6-103.2-172.8C254.4,146,198.8,124.4,157.2,124.4z"/>
<path style="fill:#FFFFFF;" d="M191.6,144c6-18,13.2-34,21.2-46.8H200c-8,13.2-14.4,28.8-20,46.8H191.6z"/>
<path style="fill:#84DBFF;" d="M237.2,152.8v12.4c12.8-7.6,25.6-14.4,38.4-20V134C262.8,139.2,250,145.6,237.2,152.8z"/>
<circle style="fill:#FFD05B;" cx="258.4" cy="249.2" r="44.8"/>
<ellipse transform="matrix(-0.7071 -0.7071 0.7071 -0.7071 250.8519 568.5529)" style="fill:#FFFFFF;" cx="243.177" cy="232.323" rx="10.4" ry="15.2"/>
<circle style="fill:#84DBFF;" cx="367.6" cy="120.8" r="21.2"/>
<ellipse transform="matrix(-0.7071 -0.7071 0.7071 -0.7071 535.5379 446.7855)" style="fill:#FFFFFF;" cx="360.301" cy="112.479" rx="5.2" ry="7.2"/>
<circle style="fill:#324A5E;" cx="102.8" cy="202.8" r="21.2"/>
<ellipse transform="matrix(-0.7071 -0.7071 0.7071 -0.7071 25.4999 399.2213)" style="fill:#FFFFFF;" cx="95.431" cy="194.329" rx="5.2" ry="7.2"/>
<circle style="fill:#4CDBC4;" cx="234.8" cy="431.6" r="21.2"/>
<g>

		<ellipse transform="matrix(-0.7071 -0.7071 0.7071 -0.7071 88.3836 883.8786)" style="fill:#FFFFFF;" cx="227.249" cy="423.634" rx="5.2" ry="7.2"/>
	<path style="fill:#FFFFFF;" d="M344.8,322c2.8-14.8,4.8-30.8,5.6-47.6h-10.8c-1.2,16.8-3.2,32.8-6,47.6H344.8z"/>
</g>
<path style="fill:#84DBFF;" d="M235.6,367.2c12.4-4.8,25.2-10.8,37.6-18v-12c-12.4,7.2-25.2,13.2-37.6,18.4V367.2z"/>
<g>
</g>
<g>
</g>
<g>
</g>
<g>
</g>
<g>
</g>
<g>
</g>
<g>
</g>
<g>
</g>
<g>
</g>
<g>
</g>
<g>
</g>
<g>
</g>
<g>
</g>
<g>
</g>
<g>
</g>
</svg>
