<?xml version="1.0" encoding="iso-8859-1"?>
<!-- Generator: Adobe Illustrator 19.0.0, SVG Export Plug-In . SVG Version: 6.00 Build 0)  -->
<svg version="1.1" id="Layer_1" xmlns="http://www.w3.org/2000/svg" xmlns:xlink="http://www.w3.org/1999/xlink" x="0px" y="0px"
	 viewBox="0 0 508 508" style="enable-background:new 0 0 508 508;" xml:space="preserve">
<circle style="fill:#FD8469;" cx="254" cy="254" r="254"/>
<rect x="136" y="212.8" style="fill:#2B3B4E;" width="236" height="173.2"/>
<g>
	<path style="fill:#324A5E;" d="M371.6,212.8H136.4c-8.8,0-16-7.2-16-16l0,0c0-8.8,7.2-16,16-16H372c8.8,0,16,7.2,16,16l0,0
		C388,205.6,380.8,212.8,371.6,212.8z"/>
	<path style="fill:#324A5E;" d="M371.6,418H136.4c-8.8,0-16-7.2-16-16l0,0c0-8.8,7.2-16,16-16H372c8.8,0,16,7.2,16,16l0,0
		C388,410.8,380.8,418,371.6,418z"/>
</g>
<g>
	<rect x="324" y="126.4" style="fill:#2B3B4E;" width="21.2" height="10"/>
	<rect x="324" y="148.4" style="fill:#2B3B4E;" width="21.2" height="10"/>
	<rect x="324" y="170.8" style="fill:#2B3B4E;" width="21.2" height="10"/>
	<rect x="324" y="104" style="fill:#2B3B4E;" width="21.2" height="10"/>
	<path style="fill:#2B3B4E;" d="M345.2,91.6H324v-1.2c0-6,10.4-18,10.4-18s10.4,12,10.4,18v1.2H345.2z"/>
</g>
<g>
	<path style="fill:#324A5E;" d="M312.8,142.4c0-3.2,2.8-6,6-6H350c3.2,0,6,2.8,6,6s-2.8,6-6,6h-30.8
		C315.6,148.4,312.8,145.6,312.8,142.4z"/>
	<path style="fill:#324A5E;" d="M312.8,164.4c0-3.2,2.8-6,6-6H350c3.2,0,6,2.8,6,6s-2.8,6-6,6h-30.8
		C315.6,170.8,312.8,168,312.8,164.4z"/>
	<path style="fill:#324A5E;" d="M312.8,120c0-3.2,2.8-6,6-6H350c3.2,0,6,2.8,6,6s-2.8,6-6,6h-30.8
		C315.6,126.4,312.8,123.6,312.8,120z"/>
	<path style="fill:#324A5E;" d="M312.8,98c0-3.2,2.8-6,6-6H350c3.2,0,6,2.8,6,6s-2.8,6-6,6h-30.8C315.6,104,312.8,101.2,312.8,98z"
		/>
</g>
<g>
	<rect x="243.6" y="126.4" style="fill:#2B3B4E;" width="21.2" height="10"/>
	<rect x="243.6" y="148.4" style="fill:#2B3B4E;" width="21.2" height="10"/>
	<rect x="243.6" y="170.8" style="fill:#2B3B4E;" width="21.2" height="10"/>
	<rect x="243.6" y="104" style="fill:#2B3B4E;" width="21.2" height="10"/>
	<path style="fill:#2B3B4E;" d="M264.4,91.6h-21.2v-1.2c0-6,10.4-18,10.4-18s10.4,12,10.4,18v1.2H264.4z"/>
</g>
<g>
	<path style="fill:#324A5E;" d="M232.4,142.4c0-3.2,2.8-6,6-6h30.8c3.2,0,6,2.8,6,6s-2.8,6-6,6h-30.8
		C235.2,148.4,232.4,145.6,232.4,142.4z"/>
	<path style="fill:#324A5E;" d="M232.4,164.4c0-3.2,2.8-6,6-6h30.8c3.2,0,6,2.8,6,6s-2.8,6-6,6h-30.8
		C235.2,170.8,232.4,168,232.4,164.4z"/>
	<path style="fill:#324A5E;" d="M232.4,120c0-3.2,2.8-6,6-6h30.8c3.2,0,6,2.8,6,6s-2.8,6-6,6h-30.8
		C235.2,126.4,232.4,123.6,232.4,120z"/>
	<path style="fill:#324A5E;" d="M232.4,98c0-3.2,2.8-6,6-6h30.8c3.2,0,6,2.8,6,6s-2.8,6-6,6h-30.8C235.2,104,232.4,101.2,232.4,98z"
		/>
</g>
<g>
	<rect x="162.8" y="126.4" style="fill:#2B3B4E;" width="21.2" height="10"/>
	<rect x="162.8" y="148.4" style="fill:#2B3B4E;" width="21.2" height="10"/>
	<rect x="162.8" y="170.8" style="fill:#2B3B4E;" width="21.2" height="10"/>
	<rect x="162.8" y="104" style="fill:#2B3B4E;" width="21.2" height="10"/>
	<path style="fill:#2B3B4E;" d="M184,91.6h-21.2v-1.2c0-6,10.4-18,10.4-18s10.4,12,10.4,18v1.2H184z"/>
</g>
<g>
	<path style="fill:#324A5E;" d="M152,142.4c0-3.2,2.8-6,6-6h30.8c3.2,0,6,2.8,6,6s-2.8,6-6,6H158C154.8,148.4,152,145.6,152,142.4z"
		/>
	<path style="fill:#324A5E;" d="M152,164.4c0-3.2,2.8-6,6-6h30.8c3.2,0,6,2.8,6,6s-2.8,6-6,6H158C154.8,170.8,152,168,152,164.4z"/>
	<path style="fill:#324A5E;" d="M152,120c0-3.2,2.8-6,6-6h30.8c3.2,0,6,2.8,6,6s-2.8,6-6,6H158C154.8,126.4,152,123.6,152,120z"/>
	<path style="fill:#324A5E;" d="M152,98c0-3.2,2.8-6,6-6h30.8c3.2,0,6,2.8,6,6s-2.8,6-6,6H158C154.8,104,152,101.2,152,98z"/>
</g>
<polygon style="fill:#FFFFFF;" points="291.6,293.6 258.8,293.6 268.8,231.6 209.6,304.8 242.4,304.8 232.4,366.8 "/>
<g>
</g>
<g>
</g>
<g>
</g>
<g>
</g>
<g>
</g>
<g>
</g>
<g>
</g>
<g>
</g>
<g>
</g>
<g>
</g>
<g>
</g>
<g>
</g>
<g>
</g>
<g>
</g>
<g>
</g>
</svg>
