<?xml version="1.0" encoding="iso-8859-1"?>
<!-- Generator: Adobe Illustrator 19.0.0, SVG Export Plug-In . SVG Version: 6.00 Build 0)  -->
<svg version='1.1' id='Layer_1' xmlns='http://www.w3.org/2000/svg' x='0px' y='0px'
     viewBox='0 0 508 508' style='enable-background:new 0 0 508 508;' xml:space='preserve'>
<circle style="fill:#84DBFF;" cx="254" cy="254" r="254"/>
<path style="fill:#FFFFFF;" d="M270,89.6h-32c-2.4,0-4.4-2-4.4-4.4V72.8c0-2.4,2-4.4,4.4-4.4h32c2.4,0,4.4,2,4.4,4.4v12.4
	C274,87.6,272,89.6,270,89.6z"/>
<path style="fill:#2B3B4E;" d="M318.4,107.2H189.6c-6.8,0-12.4-5.6-12.4-12.4l0,0c0-6.8,5.6-12.4,12.4-12.4h128.8
	c6.8,0,12.4,5.6,12.4,12.4l0,0C330.8,101.6,325.2,107.2,318.4,107.2z"/>
<path style="fill:#324A5E;" d="M343.2,438.4H164.8c-9.6,0-17.6-8-17.6-17.6V112.4c0-9.6,8-17.6,17.6-17.6h178.4
	c9.6,0,17.6,8,17.6,17.6v308.4C360.8,430.4,352.8,438.4,343.2,438.4z"/>
<rect x="163.6" y="125.6" style="fill:#FFFFFF;" width="180.4" height="285.2"/>
<polygon style="fill:#FF7058;" points="297.2,262 262.4,262 273.2,197.2 210.8,274 245.6,274 234.8,339.2 "/>
<g>
</g>
<g>
</g>
<g>
</g>
<g>
</g>
<g>
</g>
<g>
</g>
<g>
</g>
<g>
</g>
<g>
</g>
<g>
</g>
<g>
</g>
<g>
</g>
<g>
</g>
<g>
</g>
<g>
</g>
</svg>
