<svg id="Layer_1" data-name="Layer 1" xmlns="http://www.w3.org/2000/svg" viewBox="0 0 2282.39 1244.76"><path d="M1676.23,507.15,1431.85,618.29l244.38,144.37,244.25-144.37Z" transform="translate(-16.21 -5.61)"/><polygon points="1660.01 820.5 1415.64 676.12 1660.01 1020.4 1660.01 1020.4 1904.48 676.12 1660.01 820.5"/><polygon points="1660.01 224.35 1660.01 224.35 1415.54 568.63 1660.01 424.26 1904.39 568.63 1660.01 224.35"/><path d="M1676.23,5.61c-216.39,0-407.26,111.07-518.82,279.12C1045.85,116.68,855,5.61,638.6,5.61,295.41,5.61,16.21,284.81,16.21,628s279.2,622.38,622.39,622.38c216.39,0,407.25-111.06,518.81-279.11,111.56,168,302.43,279.11,518.82,279.11,343.18,0,622.38-279.2,622.38-622.38S2019.41,5.61,1676.23,5.61ZM638.6,1209.08C318.19,1209.08,57.51,948.41,57.51,628S318.19,46.91,638.6,46.91c209,0,392.5,110.94,494.9,277a620.32,620.32,0,0,0,0,608.22C1031.1,1098.14,847.59,1209.08,638.6,1209.08Zm518.81-842.31a579.06,579.06,0,0,1,0,522.45,579.06,579.06,0,0,1,0-522.45Zm518.82,842.31c-209,0-392.5-110.94-494.91-277a620.32,620.32,0,0,0,0-608.22c102.41-166,285.92-277,494.91-277,320.41,0,581.08,260.67,581.08,581.08S1996.64,1209.08,1676.23,1209.08Z" transform="translate(-16.21 -5.61)"/><path d="M936,771.07C936,645,835.85,604.29,720.29,598.19,818.22,585,879.94,517.84,879.94,430.38c0-110.27-92.79-143.62-207.1-147.89V209.72H616.09v72.44c-13.92.2-28,.37-42,.64V209.72H517.37v74c-9.77.12-19.56.24-29.37.24-39.58,0-84.74-1-114.45-3.07,0,16.31,1.12,32.56,5.49,43.74C437.37,327.67,455,345,455,413.1v418c0,79.3-18.65,96.58-77,99.68-4.44,11.14-5.55,25.38-5.55,43.69,28.29-1.08,85.24-1.83,144.93-2.33v69.42H574.1V971.74c14.45-.1,28.58-.14,42-.19v70h56.75V971.38C859.22,971.07,936,881.72,936,771.07ZM767.61,460.91c0,65.09-33,128.12-175,128.12H558.47V329.71c16.54-4.09,29.69-5.08,45.14-5.08C676.23,324.63,767.61,354.1,767.61,460.91ZM660.86,927.67c-82.57,0-102.39-13.22-102.39-96.58V634.81h25.28c107.92,0,234.47,24.39,234.47,150.5C818.22,873.78,768.75,927.67,660.86,927.67Z" transform="translate(-16.21 -5.61)"/></svg>