<svg id="Layer_1" data-name="Layer 1" xmlns="http://www.w3.org/2000/svg" viewBox="0 0 1238.98 1238.98"><path d="M769,459.39C769,350.06,675.43,319.9,601.1,319.9c-15.81,0-29.27,1-46.2,5.19V590.52h35C735.17,590.52,769,526,769,459.39Z" transform="translate(-3.13 -8.5)"/><path d="M580.77,637.39H554.9v200.9c0,85.32,20.29,98.85,104.81,98.85,110.42,0,161.06-55.15,161.06-145.72C820.77,662.35,691.24,637.39,580.77,637.39Z" transform="translate(-3.13 -8.5)"/><path d="M622.63,8.5C280.49,8.5,3.13,285.86,3.13,628s277.36,619.49,619.5,619.49S1242.12,970.13,1242.12,628,964.76,8.5,622.63,8.5ZM672,981.88v71.82H613.88V982.06c-13.73,0-28.19.08-43,.18v71.46H512.83V982.65c-61.09.51-119.38,1.28-148.34,2.39,0-18.75,1.14-33.32,5.68-44.73,59.68-3.17,78.77-20.86,78.77-102V410.46c0-69.76-18-87.45-77.69-90.56-4.48-11.44-5.62-28.08-5.62-44.77,30.41,2.08,76.63,3.14,117.14,3.14,10,0,20.06-.12,30.06-.25V202.28H570.9v74.8c14.37-.27,28.73-.45,43-.65V202.28H672v74.49c117,4.36,212,38.5,212,151.37,0,89.52-63.17,158.21-163.41,171.76,118.29,6.24,220.83,47.88,220.83,177C941.36,890.11,862.73,981.56,672,981.88Z" transform="translate(-3.13 -8.5)"/></svg>