<?xml version="1.0" encoding="iso-8859-1"?>
<!-- Generator: Adobe Illustrator 19.0.0, SVG Export Plug-In . SVG Version: 6.00 Build 0)  -->
<svg version="1.1" id="Layer_1" xmlns="http://www.w3.org/2000/svg" xmlns:xlink="http://www.w3.org/1999/xlink" x="0px" y="0px"
	 viewBox="0 0 508 508" style="enable-background:new 0 0 508 508;" xml:space="preserve">
<circle style="fill:#84DBFF;" cx="254" cy="254" r="254"/>
<path style="fill:#FFFFFF;" d="M408.4,217.6c2.4-4.8,3.6-10.4,3.6-16c0-21.2-17.2-38-38-38c-0.4,0-0.8,0-1.2,0
	c-10-37.6-44-65.2-84.8-65.2c-28.4,0-53.6,13.6-70,34.4c-9.6-5.2-20.4-8-32-8c-38,0-69.2,30.8-69.2,69.2c0,6,0.8,11.6,2,16.8
	c-34.8,6-61.6,36.8-61.6,73.6c0,41.2,33.6,74.8,74.8,74.8h243.6c41.2,0,74.8-33.6,74.8-74.8C450.4,255.6,433.2,230,408.4,217.6z"/>
<g>
	<path style="fill:#324A5E;" d="M188.4,215.2c8.8,0,16,3.6,21.6,10.8l11.6-12.8c-9.2-10.4-20.4-15.6-34-15.6c-12,0-22.4,4-30.8,12.4
		c-8.4,8-12.4,18.4-12.4,30.4c0,12.4,4,22.4,12.4,30.4s18.8,12,31.2,12s23.6-5.2,33.2-15.6l-11.6-12c-5.6,7.2-13.2,10.8-22,10.8
		c-6.4,0-12.4-2.4-16.8-6.8c-4.8-4.8-6.8-10.8-6.8-18.4c0-7.6,2.4-13.6,7.2-18.4C175.6,217.2,181.6,215.2,188.4,215.2z"/>
	<path style="fill:#324A5E;" d="M272.4,197.6c-12,0-22.4,4-30.8,12c-8.4,8-12.4,18.4-12.4,30.4s4,22.4,12.4,30.4s18.4,12,30.8,12
		s22.4-4,30.8-12s12.4-18.4,12.4-30.4s-4-22.4-12.4-30.4S284.8,197.6,272.4,197.6z M290,258.8c-4.8,5.2-10.4,7.6-17.2,7.6
		c-6.8,0-12.8-2.4-17.2-7.6c-4.8-5.2-7.2-11.2-7.2-18.8c0-7.2,2.4-13.6,7.2-18.8c4.8-5.2,10.4-7.6,17.2-7.6c6.8,0,12.8,2.4,17.2,7.6
		c4.8,5.2,7.2,11.6,7.2,18.8C297.2,247.6,294.8,253.6,290,258.8z"/>
	<path style="fill:#324A5E;" d="M342,286.8l9.6-10c4-4,6.4-7.2,8-10c1.6-2.4,2-5.2,2-8c0-5.2-1.6-9.2-5.2-12s-7.6-4.4-12.4-4.4
		s-8.4,1.2-11.6,3.2s-6,5.2-8.4,8.8l9.6,5.6c3.2-4.8,6.4-7.2,9.6-7.2c2,0,3.2,0.8,4.4,2c1.2,1.2,1.6,2.8,1.6,4.4c0,2-0.8,3.6-2,5.6
		s-3.6,4.4-6.8,8l-16,16.4v9.2h38.4v-10.8H342V286.8z"/>
</g>
<g>
</g>
<g>
</g>
<g>
</g>
<g>
</g>
<g>
</g>
<g>
</g>
<g>
</g>
<g>
</g>
<g>
</g>
<g>
</g>
<g>
</g>
<g>
</g>
<g>
</g>
<g>
</g>
<g>
</g>
</svg>
