<?xml version="1.0" encoding="iso-8859-1"?>
<!-- Generator: Adobe Illustrator 19.0.0, SVG Export Plug-In . SVG Version: 6.00 Build 0)  -->
<svg version='1.1' id='Layer_1' xmlns='http://www.w3.org/2000/svg' x='0px' y='0px'
     viewBox='0 0 508 508' style='enable-background:new 0 0 508 508;' xml:space='preserve'>
<circle style="fill:#324A5E;" cx="254" cy="254" r="254"/>
<polygon style="fill:#2C9984;" points="284.4,371.2 221.2,371.2 234.8,442.4 271.2,442.4 "/>
<g>
	<path style="fill:#E6E9EE;" d="M254,65.6L254,65.6L254,65.6c-26,30.8-26,80.8,0,112l0,0C280,146.4,280,96.4,254,65.6z"/>
	<path style="fill:#E6E9EE;" d="M225.2,154.4c0,0,29.2-54,89.2-62.4c0,0-47.2,69.6-30.4,88.4L225.2,154.4z"/>
	<path style="fill:#E6E9EE;" d="M262.8,168.4c0,0,34.8-47.6,92-54.8c0,0-53.2,61.2-40,78L262.8,168.4z"/>
	<path style="fill:#E6E9EE;" d="M282.8,154.4c0,0-29.2-54-89.2-62.4c0,0,47.2,69.6,30.4,88.4L282.8,154.4z"/>
	<path style="fill:#E6E9EE;" d="M245.2,168.4c0,0-34.8-47.6-92-54.8c0,0,53.2,61.2,40,78L245.2,168.4z"/>
</g>
<ellipse style="fill:#FFD05B;" cx="252.8" cy="235.2" rx="65.2" ry="146"/>
<path style="fill:#2C9984;" d="M314.4,193.2l6.4-22c8.8,24.4,14.4,53.6,14.4,85.2c0,83.6-36.8,151.2-81.6,151.2
	c-22.4,0-42.8-16.8-57.6-44l0,0c8.8-30.4,27.2-58.4,53.6-80.8l12-10C287.2,250.4,305.2,223.2,314.4,193.2z"/>
<path style="fill:#4CDBC4;" d="M191.2,193.2l-6.4-22c-8.8,24.4-14.4,53.6-14.4,85.2c0,83.6,36.8,151.2,81.6,151.2
	c22.4,0,42.8-16.8,57.6-44l0,0c-8.8-30.4-27.2-58.4-53.6-80.8l-12-10C218.8,250.4,200.4,223.2,191.2,193.2z"/>
<g>
</g>
<g>
</g>
<g>
</g>
<g>
</g>
<g>
</g>
<g>
</g>
<g>
</g>
<g>
</g>
<g>
</g>
<g>
</g>
<g>
</g>
<g>
</g>
<g>
</g>
<g>
</g>
<g>
</g>
</svg>
