<?xml version="1.0" encoding="iso-8859-1"?>
<!-- Generator: Adobe Illustrator 19.0.0, SVG Export Plug-In . SVG Version: 6.00 Build 0)  -->
<svg version="1.1" id="Layer_1" xmlns="http://www.w3.org/2000/svg" xmlns:xlink="http://www.w3.org/1999/xlink" x="0px" y="0px"
	 viewBox="0 0 508 508" style="enable-background:new 0 0 508 508;" xml:space="preserve">
<circle style="fill:#FD8469;" cx="254" cy="254" r="254"/>
<path style="fill:#FFFFFF;" d="M431.2,170.8c2.4,2.4,4,6,4,9.6V212v50.4l0,0c0,0.8,0,2-0.4,2.8c-0.4,2.8-2,5.2-3.6,6.8l-85.6,86.4
	V404H274v-58.8c0-16,6.4-31.6,18-43.2l66.4-66.4c5.6-5.2,14-5.2,19.6,0c2.8,2.8,4,6.4,4,9.6c0,3.6-1.2,7.2-4,9.6L360.8,272l-32,32
	c-2.8,2.8-2.8,7.2,0,9.6c1.2,1.2,3.2,2,4.8,2c1.6,0,3.6-0.8,4.8-2l69.2-69.2v-4.8v-59.2c0-7.6,6.4-14,14-14
	C425.2,166.8,428.8,168.4,431.2,170.8z"/>
<rect x="265.6" y="403.6" style="fill:#324A5E;" width="89.2" height="27.2"/>
<path style="fill:#FFFFFF;" d="M76.8,170.8c-2.4,2.4-4,6-4,9.6V212v50.4l0,0c0,0.8,0,2,0.4,2.8c0.4,2.8,2,5.2,3.6,6.8l85.6,85.6
	v45.6H234v-58.8c0-16-6.4-31.6-18-43.2l-66.4-66c-5.6-5.2-14-5.2-19.6,0c-2.8,2.8-4,6.4-4,9.6c0,3.6,1.2,7.2,4,9.6l17.2,17.2l32,32
	c2.8,2.8,2.8,7.2,0,9.6c-1.2,1.2-3.2,2-4.8,2s-3.6-0.8-4.8-2l-69.2-68.4V240v-59.2c0-7.6-6.4-14-14-14
	C82.8,166.8,79.2,168.4,76.8,170.8z"/>
<rect x="153.2" y="403.6" style="fill:#324A5E;" width="89.2" height="27.2"/>
<g>
	<path style="fill:#FFFFFF;" d="M254,70.8L254,70.8L254,70.8c-41.2,30.8-41.2,80.8,0,111.6l0,0l0,0
		C295.2,151.6,295.2,101.6,254,70.8z"/>
	<path style="fill:#FFFFFF;" d="M319.6,169.2L319.6,169.2L319.6,169.2c-42-6-70.8,22.8-64.8,64.8l0,0l0,0
		C296.8,240,325.6,210.8,319.6,169.2z"/>
	<path style="fill:#FFFFFF;" d="M188.4,169.2L188.4,169.2L188.4,169.2c42-6,70.8,22.8,64.8,64.8l0,0l0,0
		C211.2,240,182.4,210.8,188.4,169.2z"/>
</g>
<g>
	<polygon style="fill:#E6E9EE;" points="258,262.8 254,70.8 250,262.8 	"/>
	<polygon style="fill:#E6E9EE;" points="252,232.8 252,238.4 319.2,168.4 	"/>
	<polygon style="fill:#E6E9EE;" points="255.6,233.6 255.6,239.2 188.4,169.2 	"/>
</g>
<g>
</g>
<g>
</g>
<g>
</g>
<g>
</g>
<g>
</g>
<g>
</g>
<g>
</g>
<g>
</g>
<g>
</g>
<g>
</g>
<g>
</g>
<g>
</g>
<g>
</g>
<g>
</g>
<g>
</g>
</svg>
