<?xml version="1.0" encoding="iso-8859-1"?>
<!-- Generator: Adobe Illustrator 19.0.0, SVG Export Plug-In . SVG Version: 6.00 Build 0)  -->
<svg version="1.1" id="Layer_1" xmlns="http://www.w3.org/2000/svg" xmlns:xlink="http://www.w3.org/1999/xlink" x="0px" y="0px"
	 viewBox="0 0 508 508" style="enable-background:new 0 0 508 508;" xml:space="preserve">
<circle style="fill:#FD8469;" cx="254" cy="254" r="254"/>
<polygon style="fill:#FFFFFF;" points="395.2,194.4 395.2,397.2 112.8,397.2 112.8,194.4 254,64.8 "/>
<rect x="112.8" y="370.8" style="fill:#E6E9EE;" width="282.8" height="26.4"/>
<polygon style="fill:#324A5E;" points="432,227.6 411.2,246.4 254,102.4 96.8,246.4 76,227.6 254,64.8 "/>
<path style="fill:#4CDBC4;" d="M342,226l-1.2,2.4c-5.6,11.2-8.8,24-9.6,37.2c-4,57.2-72.8,60.4-72.8,60.4
	C241.6,229.2,342,226,342,226z"/>
<path style="fill:#2C9984;" d="M333.2,232c-5.6,4-13.2,9.6-22,16.8c-4.4,3.6-9.2,8-13.6,12.4c-4.8,4.8-9.6,9.6-14,15.2
	c-2.4,2.8-4.4,5.6-6.8,8.8c-2,3.2-4.4,6-6.4,9.2c-4,6.4-8,13.2-10.8,20.4c-2.8,7.2-5.2,14.8-6.4,22.4c-1.2,7.6-1.6,15.2-1.2,22.8
	c0,2,0.4,3.6,0.8,5.6c0.4,1.6,0.4,3.2,0.8,4.8h6.4c0-0.4,0-0.4-0.4-0.8c-0.4-1.6-0.8-3.2-1.2-4.8c-0.4-1.6-0.8-3.2-0.8-5.2
	c-0.8-6.8-0.8-14,0.4-21.6c0.8-7.2,2.8-14.4,5.6-21.6c2.4-7.2,6-14,9.6-20.4c2-3.2,4-6.4,6-9.2c2-2.8,4-6,6.4-8.8
	c4.4-5.6,8.8-10.8,13.6-15.6c4.4-4.8,8.8-9.2,13.2-12.8C320.4,242,328,236,333.2,232c5.6-4,8.8-6,8.8-6S338.8,228,333.2,232z"/>
<path style="fill:#4CDBC4;" d="M166,226l1.2,2.4c5.6,11.2,8.8,24,9.6,37.2c4,57.2,72.8,60.4,72.8,60.4C266.4,229.2,166,226,166,226z
	"/>
<path style="fill:#2C9984;" d="M234.8,296.4c3.6,6.4,7.2,13.2,9.6,20.4c2.4,7.2,4.4,14.4,5.6,21.6c0.8,7.2,1.2,14.4,0.4,21.6
	c0,1.6-0.4,3.6-0.8,5.2c-0.4,1.6-0.4,3.2-1.2,4.8c0,0.4,0,0.4-0.4,0.8h6.4c0.4-1.6,0.4-3.2,0.8-4.8c0.4-2,0.4-3.6,0.8-5.6
	c0.8-7.6,0-15.2-1.2-22.8c-1.2-7.6-3.6-15.2-6.4-22.4c-2.8-7.2-6.8-14-10.8-20.4c-2-3.2-4.4-6.4-6.4-9.2c-2.4-2.8-4.4-6-6.8-8.8
	c-4.8-5.6-9.2-10.8-14-15.2c-4.8-4.8-9.2-8.8-13.6-12.4c-8.8-7.6-16.4-13.2-22-16.8c-5.6-4.4-8.8-6.4-8.8-6.4s3.2,2,8.8,6
	c5.2,4,12.8,10,21.2,17.6c4.4,4,8.8,8.4,13.2,12.8c4.4,4.8,9.2,10,13.6,15.6c2.4,2.8,4.4,5.6,6.4,8.8
	C231.2,290.4,233.2,293.2,234.8,296.4z"/>
<g>
</g>
<g>
</g>
<g>
</g>
<g>
</g>
<g>
</g>
<g>
</g>
<g>
</g>
<g>
</g>
<g>
</g>
<g>
</g>
<g>
</g>
<g>
</g>
<g>
</g>
<g>
</g>
<g>
</g>
</svg>
