<?xml version="1.0" encoding="iso-8859-1"?>
<!-- Generator: Adobe Illustrator 19.0.0, SVG Export Plug-In . SVG Version: 6.00 Build 0)  -->
<svg version="1.1" id="Layer_1" xmlns="http://www.w3.org/2000/svg" xmlns:xlink="http://www.w3.org/1999/xlink" x="0px" y="0px"
	 viewBox="0 0 508 508" style="enable-background:new 0 0 508 508;" xml:space="preserve">
<circle style="fill:#324A5E;" cx="254" cy="254" r="254"/>
<path style="fill:#2B3B4E;" d="M71.6,430.8C118,478.4,182.4,508,254,508s136-29.6,182.4-77.2H71.6z"/>
<path style="fill:#E6E9EE;" d="M405.6,112.8c-4.4-4.4-12.4-5.6-18-2.4c-1.6,0.8-3.2,2.4-4.8,3.6c-5.6,4-13.6,4.8-20,2
	c-1.6-0.8-3.2-1.6-4-2.8c-1.2-1.6-0.8-4-1.2-6c-1.6-10-15.6-14.8-26-11.6C321.2,98.8,314,107.2,308,116c-1.2,1.6-2,3.2-3.6,4
	c-1.6,1.2-4,1.2-6,1.2s-4.4,0-6.4,0c-0.8-2.8-2-5.6-4.4-8c-4.4-4.4-12.4-5.6-18-2.4c-1.6,0.8-3.2,2.4-4.8,3.6c-5.6,4-13.6,4.8-20,2
	c-1.6-0.8-3.2-1.6-4-2.8c-1.2-1.6-0.8-4-1.2-6c-1.6-10-15.6-14.8-26-11.6c-10.4,3.2-17.6,11.6-23.6,20.4c-1.2,1.6-2,3.2-3.6,4
	c-1.6,1.2-4,1.2-6,1.2c-6.4,0.4-12.8-0.8-19.2-0.8c-6.4,0.4-13.2,2-17.2,6.8c-4.8,6-2.8,14.8,0.4,21.6c3.2,6.4,7.2,12.8,12,18.4
	c1.6,1.6,3.2,3.6,3.6,5.6c0.4,2-0.4,3.6-0.4,5.6c-1.2,10,12.4,18.4,22,14c5.6-2.4,10.4-8,16.4-6.4c3.6,0.8,5.6,3.6,8.4,5.6
	c8,5.6,21.6,0.8,24-8c1.2-5.6-0.4-13.2,5.6-15.6c4.8-2,10,1.6,14.8,3.2c7.6,2.8,16.8-0.8,21.2-6.8c0.8,0.8,1.6,2,2.4,2.8
	c1.6,1.6,3.2,3.6,3.6,5.6s-0.4,3.6-0.4,5.6c-1.2,10,12.4,18.4,22,14c5.6-2.4,10.4-8,16.4-6.4c3.6,0.8,5.6,3.6,8.4,5.6
	c8,5.6,21.6,0.8,24-8c1.2-5.6-0.4-13.2,5.6-15.6c4.8-2,10,1.6,14.8,3.2c10,3.6,22.4-3.2,24-12.8c0.8-4.8-0.8-9.2-1.2-14
	c-0.4-4.8,1.2-10,6-12c4-1.6,8.8-0.4,12-2.8C411.2,123.6,410,116.8,405.6,112.8z"/>
<g>
	<polygon style="fill:#FFD05B;" points="394.8,430.8 267.2,430.8 302.4,211.2 360,211.2 	"/>
	<polygon style="fill:#FFD05B;" points="241.6,430.8 114,430.8 148.8,211.2 206.8,211.2 	"/>
</g>
<g>
	<polygon style="fill:#F9B54C;" points="372,286 367.6,259.2 294.8,259.2 290.4,286 	"/>
	<polygon style="fill:#F9B54C;" points="218.4,286 214.4,259.2 141.2,259.2 137.2,286 	"/>
</g>
<g>
</g>
<g>
</g>
<g>
</g>
<g>
</g>
<g>
</g>
<g>
</g>
<g>
</g>
<g>
</g>
<g>
</g>
<g>
</g>
<g>
</g>
<g>
</g>
<g>
</g>
<g>
</g>
<g>
</g>
</svg>
