<?xml version="1.0" encoding="iso-8859-1"?>
<!-- Generator: Adobe Illustrator 19.0.0, SVG Export Plug-In . SVG Version: 6.00 Build 0)  -->
<svg version="1.1" id="Layer_1" xmlns="http://www.w3.org/2000/svg" xmlns:xlink="http://www.w3.org/1999/xlink" x="0px" y="0px"
	 viewBox="0 0 508 508" style="enable-background:new 0 0 508 508;" xml:space="preserve">
<g>
	<circle style="fill:#54C0EB;" cx="254" cy="254" r="254"/>
	<path style="fill:#54C0EB;" d="M508,254c0,108.8-68.4,201.6-164.4,237.6c-18.4,7.2-38,12-58.4,14.4c-10.4,1.2-20.8,2-31.2,2
		c-8,0-16-0.4-23.6-1.2c-24.8-2.4-48.4-8-70.4-16.8C66,452.4,0,360.8,0,254C0,113.6,113.6,0,254,0S508,113.6,508,254z"/>
</g>
<g>
	<path style="fill:#E6E9EE;" d="M280,183.6c-6-12.4-1.6-28.8,10-36.8c6.4-4.4,14.8-6,22.4-7.2c7.2-0.8,14.4-1.2,21.6-1.2
		c6.8,0,13.6,0.4,20-0.8c10.8-2,20.4-9.2,25.2-19.2c1.2-2.4,2.4-4.8,4.4-6c0,18.8-12.4,36.8-29.6,44c4.4-1.2,8.4-3.6,12.4-5.6
		c10-4.4,21.2-4,32-2s21.2,5.2,32,6.4c-7.2,6.8-18.4,7.2-28.4,9.2c-10.4,2.4-20,6.8-28.8,12.8c-3.6,2.8-7.2,6-11.6,6.8
		c-3.6,0.8-7.6-0.4-11.6-0.8c-4-0.4-8.4,0.4-10.4,4c-1.6,2.8-1.2,6-2,9.2c-1.2,4.4-5.6,8-10.4,9.2c-4.4,1.6-9.6,1.2-14.4,1.2
		c-3.6,0-7.6-0.4-11.2-0.4c-1.6,0-3.6,0-5.2-0.8c-2-0.8-3.2-2.4-4.4-4c-2.8-3.6-5.2-7.2-8-10.8C283.2,189.2,281.6,186.8,280,183.6z"
		/>
	<path style="fill:#E6E9EE;" d="M162.8,112.8c-7.2-14.8-1.6-34.4,11.6-43.6c7.6-5.2,17.2-7.2,26.8-8.4c8.4-1.2,17.2-1.6,25.6-1.2
		c8,0,16,0.8,23.6-0.8c12.8-2.4,24-11.2,30-22.4c1.6-2.8,2.8-6,5.6-7.2c0,22-14.4,43.6-34.8,52.4c5.2-1.2,9.6-4.4,14.8-6.4
		c11.6-5.2,25.2-4.4,38-2.4c12.8,2.4,24.8,6.4,37.6,7.6c-8.8,8-21.6,8.4-33.6,11.2c-12.4,2.8-24,8-34,15.2c-4.4,3.2-8.8,7.2-14,8
		c-4.4,0.8-9.2-0.4-13.6-0.8c-4.4-0.4-9.6,0.8-12.4,4.4c-2,3.2-1.6,7.2-2.4,10.8c-1.6,5.6-6.8,9.2-12,10.8
		c-5.6,1.6-11.2,1.6-16.8,1.2c-4.4,0-8.8-0.4-13.6-0.4c-2,0-4,0-6-0.8s-3.6-2.8-5.2-4.8c-3.2-4-6.4-8.4-9.2-12.8
		C166.8,119.2,164.4,116,162.8,112.8z"/>
</g>
<g>
	<path style="fill:#FFFFFF;" d="M230.4,125.2v381.6c-24.8-2.4-48.4-8-70.4-16.8V125.2H230.4z"/>
	<path style="fill:#FFFFFF;" d="M343.6,201.6v290c-18.4,7.2-38,12-58.4,14.4V201.6H343.6z"/>
</g>
<g>
	<path style="fill:#E6E9EE;" d="M343.2,252.4h-57.6c-3.6,0-6.4-2.8-6.4-6.4l0,0c0-3.6,2.8-6.4,6.4-6.4h57.6c3.6,0,6.4,2.8,6.4,6.4
		l0,0C349.6,249.6,346.8,252.4,343.2,252.4z"/>
	<path style="fill:#E6E9EE;" d="M230.4,178.4h-70.8c-4,0-7.2-3.2-7.2-7.2l0,0c0-4,3.2-7.2,7.2-7.2h71.2c4,0,7.2,3.2,7.2,7.2l0,0
		C238,175.2,234.4,178.4,230.4,178.4z"/>
	<path style="fill:#E6E9EE;" d="M230.4,237.2h-70.8c-4,0-7.2-3.2-7.2-7.2l0,0c0-4,3.2-7.2,7.2-7.2h71.2c4,0,7.2,3.2,7.2,7.2l0,0
		C238,234,234.4,237.2,230.4,237.2z"/>
	<path style="fill:#E6E9EE;" d="M230.4,295.6h-70.8c-4,0-7.2-3.2-7.2-7.2l0,0c0-4,3.2-7.2,7.2-7.2h71.2c4,0,7.2,3.2,7.2,7.2l0,0
		C238,292.4,234.4,295.6,230.4,295.6z"/>
	<path style="fill:#E6E9EE;" d="M230.4,354.4h-70.8c-4,0-7.2-3.2-7.2-7.2l0,0c0-4,3.2-7.2,7.2-7.2h71.2c4,0,7.2,3.2,7.2,7.2l0,0
		C238,351.2,234.4,354.4,230.4,354.4z"/>
	<path style="fill:#E6E9EE;" d="M230.4,413.2h-70.8c-4,0-7.2-3.2-7.2-7.2l0,0c0-4,3.2-7.2,7.2-7.2h71.2c4,0,7.2,3.2,7.2,7.2l0,0
		C238,410,234.4,413.2,230.4,413.2z"/>
	<path style="fill:#E6E9EE;" d="M230.4,472h-70.8c-4,0-7.2-3.2-7.2-7.2l0,0c0-4,3.2-7.2,7.2-7.2h71.2c4,0,7.2,3.2,7.2,7.2l0,0
		C238,468.8,234.4,472,230.4,472z"/>
	<path style="fill:#E6E9EE;" d="M343.2,301.6h-57.6c-3.6,0-6.4-2.8-6.4-6.4l0,0c0-3.6,2.8-6.4,6.4-6.4h57.6c3.6,0,6.4,2.8,6.4,6.4
		l0,0C349.6,298.8,346.8,301.6,343.2,301.6z"/>
	<path style="fill:#E6E9EE;" d="M343.2,350.8h-57.6c-3.6,0-6.4-2.8-6.4-6.4l0,0c0-3.6,2.8-6.4,6.4-6.4h57.6c3.6,0,6.4,2.8,6.4,6.4
		l0,0C349.6,348,346.8,350.8,343.2,350.8z"/>
	<path style="fill:#E6E9EE;" d="M343.2,399.6h-57.6c-3.6,0-6.4-2.8-6.4-6.4l0,0c0-3.6,2.8-6.4,6.4-6.4h57.6c3.6,0,6.4,2.8,6.4,6.4
		l0,0C349.6,396.8,346.8,399.6,343.2,399.6z"/>
	<path style="fill:#E6E9EE;" d="M343.2,448.8h-57.6c-3.6,0-6.4-2.8-6.4-6.4l0,0c0-3.6,2.8-6.4,6.4-6.4h57.6c3.6,0,6.4,2.8,6.4,6.4
		l0,0C349.6,446,346.8,448.8,343.2,448.8z"/>
</g>
<g>
</g>
<g>
</g>
<g>
</g>
<g>
</g>
<g>
</g>
<g>
</g>
<g>
</g>
<g>
</g>
<g>
</g>
<g>
</g>
<g>
</g>
<g>
</g>
<g>
</g>
<g>
</g>
<g>
</g>
</svg>
