<?xml version="1.0" encoding="iso-8859-1"?>
<!-- Generator: Adobe Illustrator 19.0.0, SVG Export Plug-In . SVG Version: 6.00 Build 0)  -->
<svg version="1.1" id="Layer_1" xmlns="http://www.w3.org/2000/svg" xmlns:xlink="http://www.w3.org/1999/xlink" x="0px" y="0px"
	 viewBox="0 0 508 508" style="enable-background:new 0 0 508 508;" xml:space="preserve">
<circle style="fill:#FFD05B;" cx="254" cy="254" r="254"/>
<path style="fill:#2B3B4E;" d="M296.8,366h-85.6v72c0,5.6,4.4,10,10,10h65.6c5.6,0,10-4.4,10-10V366z"/>
<path style="fill:#FFFFFF;" d="M376,182c0-70-58.8-126-129.6-121.6c-61.2,4-110.8,54-114,115.6c-2,41.2,16.4,78,46,101.6
	c12.4,10,19.6,24.8,19.6,40.8V356c0,6.8,5.6,12,12,12h87.6c6.8,0,12-5.6,12-12v-37.6c0-16,7.2-30.8,19.6-40.8
	C357.6,255.6,376,221.2,376,182z"/>
<g>
	<path style="fill:#324A5E;" d="M296.4,392h-84.8c-3.6,0-6.4-2.8-6.4-6.4v-0.4c0-3.6,2.8-6.4,6.4-6.4h85.2c3.6,0,6.4,2.8,6.4,6.4
		v0.4C302.8,389.2,300,392,296.4,392z"/>
	<path style="fill:#324A5E;" d="M296.4,414h-84.8c-3.6,0-6.4-2.8-6.4-6.4v-0.4c0-3.6,2.8-6.4,6.4-6.4h85.2c3.6,0,6.4,2.8,6.4,6.4
		v0.4C302.8,411.2,300,414,296.4,414z"/>
	<path style="fill:#324A5E;" d="M296.4,435.6h-84.8c-3.6,0-6.4-2.8-6.4-6.4v-0.4c0-3.6,2.8-6.4,6.4-6.4h85.2c3.6,0,6.4,2.8,6.4,6.4
		v0.4C302.8,432.8,300,435.6,296.4,435.6z"/>
</g>
<path style="fill:#4CDBC4;" d="M265.6,89.6v3.6c-0.4,16.4-5.2,32.8-12.4,48c-31.6,66.8,44,114,44,114
	C377.2,156.8,265.6,89.6,265.6,89.6z"/>
<path style="fill:#2C9984;" d="M246.4,368.4c0-3.6,0.4-7.2,0.8-11.6c0.8-5.6,2.4-12,5.2-18.4c1.6-3.2,3.2-6.4,5.2-9.6
	s4.4-6.4,6.8-9.2c1.6-1.6,2.8-3.2,4.4-4.8c1.6-1.6,3.2-3.2,4.8-5.2c1.6-1.6,2.8-3.6,4.4-5.6c1.2-2,2.8-3.6,4.4-5.6
	c5.2-8,9.6-16.8,13.2-26.4s5.6-19.6,6.8-29.6c1.2-10,1.6-20,0.8-30c0-4.8-0.8-10-1.2-14.8c-0.8-4.8-1.2-9.6-2.4-14
	c-1.6-8.8-3.6-17.6-6-25.6c-2.4-8.4-4.8-16-7.6-22.8c-5.2-14-10.4-25.2-14-33.2c-4-7.6-6.4-12-6.4-12s2.4,4.4,6,12.4
	s8.4,19.2,12.8,33.6c2.4,7.2,4.8,14.8,6.8,22.8c2,8.4,4,17.2,5.2,26c0.8,4.4,1.2,9.2,1.6,14s0.8,9.6,0.8,14.4c0,9.6-0.4,19.6-2,29.2
	c-1.6,9.6-4,19.2-7.6,28s-8,17.2-13.2,24.4c-1.2,2-2.8,3.6-4,5.2c-1.6,1.6-2.8,3.6-4.4,4.8c-1.6,1.6-2.8,3.2-4.4,4.4
	c-1.6,1.6-3.2,3.2-4.8,4.8c-6.4,6.8-10.8,14-14.4,20.8c-3.6,7.2-5.6,14-6.8,20.4c-0.8,4.8-1.2,9.2-1.6,13.2L246.4,368.4L246.4,368.4
	z"/>
<path style="fill:#4CDBC4;" d="M201.6,167.6l0.8,1.6c3.6,8,8.8,15.2,15.6,21.6c28.4,27.2,0,65.2,0,65.2
	C158.8,222.4,201.6,167.6,201.6,167.6z"/>
<path style="fill:#2C9984;" d="M201.6,167.6c0,0-0.4,2.8-0.8,7.2c-0.4,4.8-0.8,11.2-0.8,19.2c0,4,0.4,8.4,0.8,12.8
	c0.4,4.4,1.2,9.2,2,14.4c0.4,2.4,1.2,4.8,1.6,7.6c0.8,2.4,1.2,5.2,2.4,7.6c1.6,4.8,3.6,10,6.4,14.8c2.4,4.8,5.6,9.2,9.2,13.2
	c3.6,4,7.6,7.6,11.6,10.4c1.2,0.8,2,1.2,3.2,2s2,1.2,3.2,2c1.2,0.4,2.4,1.2,3.2,1.6c1.2,0.4,2,1.2,3.2,1.6c2,1.2,3.6,2,5.2,3.2
	c1.6,1.2,3.2,2.4,4.4,4c2.8,2.8,4.8,5.6,6.4,8c1.6,2.8,2.4,5.2,3.2,7.2c0.4,1.2,0.8,2,0.8,2.8c0.4,0.8,0.4,1.6,0.4,2
	c0.4,1.2,0.4,1.6,0.4,1.6l5.6-1.2c0,0,0-0.8-0.4-2c0-0.8-0.4-1.6-0.8-2.4s-0.8-2-1.2-3.2c-0.8-2.4-2-5.2-4-8s-4.4-6-7.2-8.8
	c-3.2-2.8-6.8-5.6-11.2-7.6c-1.2-0.4-2-0.8-3.2-1.6c-1.2-0.4-2-0.8-3.2-1.6c-1.2-0.4-2-1.2-3.2-1.6c-1.2-0.8-2-1.2-3.2-2
	c-4-2.4-8-6-11.2-9.6c-3.6-3.6-6.4-8-9.2-12.4s-4.8-9.2-6.4-14c-0.8-2.4-1.6-4.8-2.4-7.2c-0.8-2.4-1.2-4.8-2-7.2
	c-1.2-4.8-2-9.6-2.4-14c-0.4-4.4-0.8-8.4-0.8-12.4c-0.4-8-0.4-14.4,0-19.2C201.2,170,201.6,167.6,201.6,167.6z"/>
<g>
</g>
<g>
</g>
<g>
</g>
<g>
</g>
<g>
</g>
<g>
</g>
<g>
</g>
<g>
</g>
<g>
</g>
<g>
</g>
<g>
</g>
<g>
</g>
<g>
</g>
<g>
</g>
<g>
</g>
</svg>
