<?xml version="1.0" encoding="iso-8859-1"?>
<!-- Generator: Adobe Illustrator 19.0.0, SVG Export Plug-In . SVG Version: 6.00 Build 0)  -->
<svg version='1.1' id='Layer_1' xmlns='http://www.w3.org/2000/svg' x='0px' y='0px'
     viewBox='0 0 508 508' style='enable-background:new 0 0 508 508;' xml:space='preserve'>
<g>
	<circle style="fill:#84DBFF;" cx="254" cy="254" r="254"/>
	<path style="fill:#84DBFF;" d="M508,254c0,74-31.6,140.4-82,186.8c-34.8,32-78.4,54.4-126.8,63.2c-14.8,2.8-30,4-45.2,4
		c-15.6,0-30.8-1.2-45.2-4c-48.4-8.8-92-31.2-126.8-63.2C31.6,394.4,0,328,0,254C0,113.6,113.6,0,254,0S508,113.6,508,254z"/>
</g>
<path style="fill:#E6E9EE;" d="M426,249.6v191.2c-34.8,32-78.4,54.4-126.8,63.2c-14.8,2.8-30,4-45.2,4c-15.6,0-30.8-1.2-45.2-4
	V249.6H426z"/>
<rect x="208.8" y="278" style="fill:#F1543F;" width="217.6" height="14"/>
<g>
	<rect x="208.8" y="226.4" style="fill:#2B3B4E;" width="7.6" height="23.2"/>
	<rect x="418.4" y="226.4" style="fill:#2B3B4E;" width="7.6" height="23.2"/>
	<rect x="392" y="226.4" style="fill:#2B3B4E;" width="7.6" height="23.2"/>
	<rect x="366" y="226.4" style="fill:#2B3B4E;" width="7.6" height="23.2"/>
	<rect x="339.6" y="226.4" style="fill:#2B3B4E;" width="7.6" height="23.2"/>
	<rect x="313.6" y="226.4" style="fill:#2B3B4E;" width="7.6" height="23.2"/>
	<rect x="287.2" y="226.4" style="fill:#2B3B4E;" width="7.6" height="23.2"/>
	<rect x="261.2" y="226.4" style="fill:#2B3B4E;" width="7.6" height="23.2"/>
	<rect x="234.8" y="226.4" style="fill:#2B3B4E;" width="7.6" height="23.2"/>
	<path style="fill:#2B3B4E;" d="M426.4,226.4h-218c-2.4,0-4-2-4-4V222c0-2.4,2-4,4-4h218.4c2.4,0,4,2,4,4v0.4
		C430.4,224.4,428.8,226.4,426.4,226.4z"/>
</g>
<path style="fill:#FFFFFF;" d="M299.2,166.8V504c-14.8,2.8-30,4-45.2,4c-15.6,0-30.8-1.2-45.2-4c-48.4-8.8-92-31.2-126.8-63.2v-274
	H299.2z"/>
<rect x="82" y="195.2" style="fill:#FF7058;" width="217.6" height="14"/>
<g>
	<rect x="82" y="143.6" style="fill:#324A5E;" width="7.6" height="23.2"/>
	<rect x="291.6" y="143.6" style="fill:#324A5E;" width="7.6" height="23.2"/>
	<rect x="265.2" y="143.6" style="fill:#324A5E;" width="7.6" height="23.2"/>
	<rect x="239.2" y="143.6" style="fill:#324A5E;" width="7.6" height="23.2"/>
	<rect x="212.8" y="143.6" style="fill:#324A5E;" width="7.6" height="23.2"/>
	<rect x="186.8" y="143.6" style="fill:#324A5E;" width="7.6" height="23.2"/>
	<rect x="160.4" y="143.6" style="fill:#324A5E;" width="7.6" height="23.2"/>
	<rect x="134.4" y="143.6" style="fill:#324A5E;" width="7.6" height="23.2"/>
	<rect x="108" y="143.6" style="fill:#324A5E;" width="7.6" height="23.2"/>
	<path style="fill:#324A5E;" d="M299.6,143.6h-218c-2.4,0-4-2-4-4v-0.4c0-2.4,2-4,4-4H300c2.4,0,4,2,4,4v0.4
		C303.6,141.6,302,143.6,299.6,143.6z"/>
</g>
<circle style="fill:#E6E9EE;" cx="190.4" cy="337.2" r="53.2"/>
<g>
	<circle style="fill:#ACB3BA;" cx="190.4" cy="337.2" r="8.8"/>
	<path style="fill:#ACB3BA;" d="M235.2,337.2H206c0-5.2-2.8-10-6.8-12.4l16.4-24.4C227.2,308.4,235.2,322,235.2,337.2z"/>
	<path style="fill:#ACB3BA;" d="M215.6,374c-7.2,4.8-15.6,7.6-24.8,7.6s-17.6-2.8-24.8-7.6l16-24c2.4,1.6,5.2,2.8,8.4,2.8
		s6-0.8,8.4-2.8L215.6,374z"/>
	<path style="fill:#ACB3BA;" d="M182,324.8c-4,2.8-6.8,7.2-6.8,12.4H146c0-15.2,7.6-28.8,19.6-36.8L182,324.8z"/>
</g>
<g>
</g>
<g>
</g>
<g>
</g>
<g>
</g>
<g>
</g>
<g>
</g>
<g>
</g>
<g>
</g>
<g>
</g>
<g>
</g>
<g>
</g>
<g>
</g>
<g>
</g>
<g>
</g>
<g>
</g>
</svg>
