<?xml version="1.0" encoding="iso-8859-1"?>
<!-- Generator: Adobe Illustrator 19.0.0, SVG Export Plug-In . SVG Version: 6.00 Build 0)  -->
<svg version="1.1" id="Layer_1" xmlns="http://www.w3.org/2000/svg" xmlns:xlink="http://www.w3.org/1999/xlink" x="0px" y="0px"
	 viewBox="0 0 508 508" style="enable-background:new 0 0 508 508;" xml:space="preserve">
<circle style="fill:#F1543F;" cx="254" cy="254" r="254"/>
<rect x="238" y="110" style="fill:#E6E9EE;" width="31.6" height="309.2"/>
<g>
	<path style="fill:#FFFFFF;" d="M313.6,421.4H194.4c-0.282,0-0.551-0.119-0.74-0.327c-0.189-0.209-0.282-0.487-0.255-0.769l27.6-288
		c0.049-0.513,0.48-0.905,0.996-0.905h64c0.516,0,0.946,0.392,0.995,0.905l27.6,288c0.027,0.281-0.065,0.56-0.255,0.769
		C314.15,421.281,313.882,421.4,313.6,421.4z M195.5,419.4h116.999l-27.408-286h-62.182L195.5,419.4z"/>
	<path style="fill:#FFFFFF;" d="M299.6,277.4h-91.2c-0.419,0-0.793-0.261-0.938-0.654s-0.029-0.835,0.29-1.106l83.583-71.304
		l-70.047-71.235c-0.387-0.394-0.382-1.027,0.012-1.414c0.394-0.388,1.026-0.382,1.414,0.012l70.8,72
		c0.194,0.198,0.298,0.468,0.286,0.745s-0.139,0.537-0.35,0.717l-82.336,70.24H299.6c0.553,0,1,0.447,1,1S300.152,277.4,299.6,277.4
		z"/>
	<path style="fill:#FFFFFF;" d="M306.8,349.4H201.2c-0.431,0-0.814-0.276-0.949-0.686c-0.136-0.409,0.006-0.859,0.353-1.117
		l51.279-38.142l-44.073-32.249c-0.446-0.326-0.543-0.951-0.217-1.397c0.325-0.444,0.953-0.544,1.397-0.216l44.572,32.613
		l42.871-31.888l-77.51-71.183c-0.407-0.374-0.434-1.006-0.06-1.413c0.373-0.406,1.006-0.434,1.413-0.06l78.4,72
		c0.219,0.201,0.337,0.49,0.322,0.788c-0.016,0.298-0.163,0.573-0.402,0.751l-43.345,32.24l52.139,38.15
		c0.349,0.255,0.494,0.706,0.359,1.117C307.616,349.122,307.232,349.4,306.8,349.4z M204.22,347.4h99.519l-50.167-36.708
		L204.22,347.4z"/>
	<path style="fill:#FFFFFF;" d="M288.4,205.4h-68.8c-0.397,0-0.756-0.235-0.916-0.599c-0.159-0.364-0.088-0.788,0.181-1.079l66.4-72
		c0.375-0.406,1.008-0.432,1.413-0.058c0.406,0.375,0.432,1.007,0.058,1.413L221.883,203.4H288.4c0.553,0,1,0.448,1,1
		S288.953,205.4,288.4,205.4z"/>
	<path style="fill:#FFFFFF;" d="M194.401,425.8c-0.32,0-0.635-0.153-0.828-0.438c-0.311-0.457-0.192-1.079,0.265-1.39
		l112.399-76.399c0.459-0.311,1.08-0.19,1.39,0.265c0.311,0.457,0.191,1.079-0.265,1.39l-112.4,76.399
		C194.79,425.744,194.594,425.8,194.401,425.8z"/>
	<path style="fill:#FFFFFF;" d="M313.599,421.4c-0.185,0-0.371-0.051-0.538-0.158l-112.4-72c-0.465-0.298-0.601-0.916-0.303-1.381
		c0.298-0.467,0.917-0.603,1.382-0.303l112.399,72c0.466,0.298,0.601,0.916,0.303,1.381
		C314.251,421.238,313.928,421.4,313.599,421.4z"/>
</g>
<path style="fill:#FF7058;" d="M83.6,442.4C128.8,483.2,188.4,508,254,508s125.6-24.8,170.4-65.6H83.6z"/>
<line style="fill:none;stroke:#FFFFFF;stroke-width:4.35;stroke-miterlimit:10;" x1="206" y1="420.4" x2="302" y2="420.4"/>
<g>
	<path style="fill:#324A5E;" d="M358,442.4H150c-7.6,0-14-6.4-14-14v-7.2c0-7.6,6.4-14,14-14h208c7.6,0,14,6.4,14,14v7.2
		C372,436,366,442.4,358,442.4z"/>
	<path style="fill:#324A5E;" d="M219.2,77.6c10,0.8,20.8,7.2,25.2,20c0.8-13.6-7.2-27.6-21.6-34.4c-4.8-2.4-10.4,1.2-10.4,6.8l0,0
		C212,74,215.2,77.2,219.2,77.6z"/>
	<path style="fill:#324A5E;" d="M229.2,60.8c10.4,4.4,19.6,15.2,20,30.4c5.6-14,2-32.4-10.8-44.8c-4.4-4-11.6-2.4-13.6,3.6l0,0
		C222.8,54.4,225.2,59.2,229.2,60.8z"/>
	<path style="fill:#324A5E;" d="M288.8,77.6c-10,0.8-20.8,7.2-25.2,20c-0.8-13.6,7.2-27.6,21.6-34.4c4.8-2.4,10.4,1.2,10.4,6.8l0,0
		C296,74,292.8,77.2,288.8,77.6z"/>
	<path style="fill:#324A5E;" d="M278.8,60.8c-10.4,4.4-19.6,15.2-20,30.4c-5.6-14-2-32.4,10.8-44.8c4.4-4,11.6-2.4,13.6,3.6l0,0
		C285.2,54.4,282.8,59.2,278.8,60.8z"/>
</g>
<g>
</g>
<g>
</g>
<g>
</g>
<g>
</g>
<g>
</g>
<g>
</g>
<g>
</g>
<g>
</g>
<g>
</g>
<g>
</g>
<g>
</g>
<g>
</g>
<g>
</g>
<g>
</g>
<g>
</g>
</svg>
