<?xml version="1.0" encoding="iso-8859-1"?>
<!-- Generator: Adobe Illustrator 19.0.0, SVG Export Plug-In . SVG Version: 6.00 Build 0)  -->
<svg version="1.1" id="Layer_1" xmlns="http://www.w3.org/2000/svg" xmlns:xlink="http://www.w3.org/1999/xlink" x="0px" y="0px"
	 viewBox="0 0 508 508" style="enable-background:new 0 0 508 508;" xml:space="preserve">
<circle style="fill:#90DFAA;" cx="254" cy="254" r="254"/>
<g>
	<path style="fill:#FFFFFF;" d="M117.6,142.4c2.4-2.8,4.8-5.2,7.2-8c2.4-2.4,4.8-5.2,7.6-7.2c5.2-4.8,10.4-9.2,16-13.2
		c5.2-4,10.8-7.6,16-10.8c5.2-3.2,10.4-6,15.2-8.4c2.4-1.2,4.8-2.4,7.2-3.2c2.4-0.8,4.4-2,6.4-2.8c4-1.6,7.6-2.8,10.8-4
		c6-2,9.6-3.2,9.6-3.2s-0.8,0-2.4,0.4c-1.6,0.4-4,0.4-7.2,1.2c-3.2,0.8-6.8,1.2-11.2,2.8c-2,0.8-4.4,1.2-6.8,2
		c-2.4,0.8-4.8,1.6-7.6,2.8c-5.2,2-10.8,4.4-16.4,7.2c-5.6,2.8-11.6,6.4-17.2,10c-5.6,4-11.6,8.4-16.8,13.2c-2.8,2.4-5.2,5.2-8,7.6
		c-2.4,2.8-5.2,5.2-7.6,8c-4.8,5.6-9.2,11.6-13.2,17.6c-2,3.2-4,6.4-5.6,9.2c-0.8,1.6-1.6,3.2-2.4,4.4l-1.6,2
		c-0.4,0.4-0.4,0.8-0.8,1.2l-1.2,2.4c-6,12.4-10,24.8-12.4,35.6c-2.4,10.8-3.2,20-3.6,26.4c0,3.2,0,5.6,0,7.6c0,1.6,0,2.8,0,2.8
		s0.4-3.6,1.6-10s3.2-15.2,6.4-25.2c3.2-10.4,8-22,14-33.6c3.2-5.6,6.8-12,10.8-17.6C108.8,153.6,113.2,148,117.6,142.4z"/>
	<path style="fill:#FFFFFF;" d="M283.6,426.8c-4.4,0.8-9.6,1.2-14.8,1.6c-10.8,0.8-23.6,0.8-37.2-0.8c-6.8-0.8-13.6-2-20.8-3.6
		c-3.6-0.8-6.8-1.6-10.4-2.8c-3.6-1.2-6.8-2-10.4-3.6c-3.2-1.2-6.8-2.4-10-4c-3.2-1.2-6.4-2.8-9.6-4.4c-1.6-0.8-3.2-1.6-4.8-2.4
		s-3.2-1.6-4.8-2.4c-3.2-1.6-6-3.6-8.8-5.2c-11.6-7.2-21.2-15.6-29.2-23.2s-14-14.4-18-19.6c-2-2.4-3.6-4.4-4.8-6
		c-1.2-1.2-1.6-2-1.6-2s0.4,0.8,1.2,2.4c0.8,1.6,2,4,3.6,6.4c1.6,2.8,4,6,6.4,10c2.8,3.6,5.6,8,9.6,12c7.2,8.4,17.2,17.6,28.8,25.6
		c2.8,2,6,4,9.2,6s6.4,3.6,9.6,5.2c3.2,1.6,6.8,3.2,10,4.8c3.6,1.6,6.8,2.8,10.4,4.4c3.6,1.2,7.2,2.4,10.8,3.6
		c3.6,0.8,7.2,2,10.8,2.8c7.2,1.6,14.4,2.8,21.6,3.2c7.2,0.8,14,0.4,20.4,0.4c6.4-0.4,12.4-0.8,18-2c5.6-0.8,10.8-2,14.8-3.2
		c4.4-1.2,8-2.4,11.2-3.6s5.6-2,7.2-2.8s2.4-0.8,2.4-0.8s-3.6,0.8-10,2C292,425.6,288,426.4,283.6,426.8z"/>
	<path style="fill:#FFFFFF;" d="M428.8,242.8c-0.4-2-0.4-4-0.8-6c-0.4-8-2.4-16-4-24c-2.4-8-4.4-16-7.6-23.2
		c-2.8-7.6-6.8-14.4-10.4-21.2c-2-3.2-4-6.4-6-9.6c-1.2-1.6-2-3.2-3.2-4.4c-1.2-1.6-2.4-2.8-3.2-4c-2-2.8-4.4-5.6-6.4-8
		s-4.4-4.8-6.8-6.8c-2-2-4-4.4-6.4-6c-2-1.6-4-3.6-6-5.2c-2-1.6-3.6-3.2-5.2-4.4c-1.6-1.2-3.2-2.4-4.8-3.2c-6-4-9.2-6-9.2-6
		s3.2,2.8,8.4,7.2c1.2,1.2,2.8,2.4,4.4,4s3.2,3.2,4.8,4.8c1.6,1.6,3.6,3.6,5.2,5.6c2,2,3.6,4.4,5.6,6.4c2,2.4,4,4.8,6,7.2
		c2,2.8,3.6,5.2,5.6,8c0.8,1.2,2,2.8,2.8,4.4c0.8,1.6,1.6,3.2,2.8,4.4c1.6,3.2,3.6,6,5.6,9.6c3.2,6.8,6.8,13.6,9.2,20.8
		c3.2,7.2,4.8,14.8,7.2,22.4c0.8,4,1.6,7.6,2.4,11.6s1.2,7.6,1.6,11.6c1.2,7.6,1.2,15.2,1.2,22.8c0,3.6-0.4,7.2-0.4,10.8
		c0,1.6,0,3.6-0.4,5.2s-0.4,3.6-0.8,5.2c-0.4,3.2-0.8,6.8-1.2,10c-0.8,3.2-1.2,6-2,9.2c-1.2,6-2.8,11.2-4.4,15.6
		c-0.8,2.4-1.2,4.4-2,6.4s-1.6,3.6-2,5.2c-2.4,6.4-4,10.4-4,10.4s2-3.6,5.6-9.6c0.8-1.6,2-3.2,2.8-5.2s1.6-4,2.8-6.4
		c0.8-2.4,2-4.8,3.2-7.2c1.2-2.4,1.6-5.6,2.8-8.4c0.8-2.8,2-6,2.8-9.2s1.2-6.4,2-10c1.6-6.8,2-14.4,2.8-22c0-4,0-7.6,0-11.6
		C428.8,246.8,428.8,244.8,428.8,242.8z"/>
	<path style="fill:#FFFFFF;" d="M194.8,118.4c-4,1.2-8.4,3.2-12.8,5.2c-4.4,2-9.2,4.4-13.6,7.2c-4.4,2.8-9.2,6-13.6,9.6
		C150.4,144,146,148,142,152c-4,4.4-7.6,8.8-11.2,13.2c-3.6,4.4-6.4,9.6-9.2,14c-1.2,2.4-2.4,4.4-3.6,6.8c-1.2,2.4-2,4.8-3.2,6.8
		c-2,4.4-3.6,9.2-4.8,13.2c-2.4,8.4-3.6,15.2-4,20.4c-0.4,4.8-0.4,8-0.4,8s0.8-2.8,2-7.6s3.6-11.6,6.8-19.2c1.6-4,3.6-8,5.6-12
		c2-4.4,4.8-8.4,7.6-12.8c2.8-4.4,6-8.4,9.2-12.8c3.2-4.4,6.8-8.4,10.8-12.4c3.6-4,8-7.6,12-11.2c2-1.6,4.4-3.2,6.4-5.2
		c2-1.6,4.4-3.2,6.4-4.8c4.4-2.8,8.4-5.6,12.8-8c2-1.2,4-2,6-3.2s4-2,6-2.8c3.6-2,7.2-3.2,10.4-4.4c3.2-1.2,6-2,8.4-3.2
		c4.8-1.6,7.6-2.4,7.6-2.4s-2.8,0.4-7.6,0.8c-2.4,0.4-5.6,0.8-8.8,1.6C202.8,116,198.8,116.8,194.8,118.4z"/>
	<path style="fill:#FFFFFF;" d="M264,397.6c-2,0-4,0.4-6.4,0c-2,0-4.4,0-6.8,0c-2.4,0-4.8,0-7.2-0.4c-4.8-0.4-10-1.2-15.6-2
		c-5.2-0.8-10.8-2.4-16.4-3.6c-5.6-1.6-10.8-3.6-16.4-5.6c-5.2-2-10.4-4.4-15.6-7.2c-5.2-2.8-9.6-5.6-14.4-8.8
		c-4.4-3.2-8.8-6.4-12.4-9.2c-3.6-3.2-7.2-6.4-10.4-9.6c-6.4-6-10.8-11.6-14-15.6s-4.8-6.4-4.8-6.4s0.4,0.8,0.8,2
		c0.8,1.2,1.6,3.2,2.8,5.2c2.4,4.4,6.4,10.8,12,18s13.2,14.4,22.4,21.6c4.4,3.2,9.6,6.8,14.8,9.6c5.2,2.8,10.8,5.6,16.4,8
		c5.6,2,11.6,4,17.2,5.6c5.6,1.6,11.6,2.4,17.2,3.2c5.6,0.8,11.2,0.8,16.4,0.8s10-0.4,14.4-0.8s8.4-1.2,12-2s6.8-1.6,9.2-2.4
		c2.4-0.8,4.4-1.6,5.6-2s2-0.8,2-0.8s-2.8,0.4-8,1.2c-2.4,0.4-5.6,0.8-9.2,0.8C268,397.2,266,397.2,264,397.6z"/>
	<path style="fill:#FFFFFF;" d="M396.8,242c-0.4-6.4-1.6-12.8-2.8-19.6c-1.6-6.4-3.2-12.8-6-18.8c-2-6-5.2-11.6-8-17.2
		c-1.6-2.8-3.2-5.2-4.8-7.6c-0.8-1.2-1.6-2.4-2.4-3.6c-0.8-1.2-1.6-2.4-2.4-3.6c-1.6-2.4-3.2-4.4-5.2-6.4c-1.6-2-3.6-4-5.2-5.6
		s-3.2-3.6-4.8-5.2c-1.6-1.6-3.2-2.8-4.8-4c-1.6-1.2-2.8-2.4-4.4-3.6c-1.2-1.2-2.8-2-4-2.8c-4.8-3.2-7.2-4.8-7.2-4.8s2.4,2.4,6.4,6
		c1.2,0.8,2,2,3.2,3.2s2.4,2.8,3.6,4c1.2,1.6,2.8,2.8,4,4.4c1.6,1.6,2.8,3.6,4.4,5.2c1.6,2,3.2,4,4.4,6c1.2,2,2.8,4.4,4.4,6.8
		c0.8,1.2,1.6,2.4,2.4,3.6c0.8,1.2,1.2,2.4,2,3.6c1.2,2.4,2.8,4.8,4,7.6c2.4,5.2,5.2,10.8,6.8,16.8c2.4,5.6,3.6,12,5.2,18
		c1.2,6,2.4,12.4,2.8,18.4c0.8,6,0.8,12.4,0.8,18c-0.4,6-0.4,11.6-1.2,16.8c-0.4,2.8-0.8,5.2-1.2,8c-0.4,2.4-1.2,4.8-1.6,7.2
		c-0.8,4.8-2,8.8-3.2,12.4c-0.4,2-1.2,3.6-1.6,5.2c-0.8,1.6-1.2,3.2-1.6,4.4c-2,5.2-3.2,8.4-3.2,8.4s1.6-2.8,4.4-7.6
		c0.8-1.2,1.6-2.8,2.4-4c0.8-1.6,1.6-3.2,2.4-5.2c1.6-3.6,3.6-7.6,4.8-12.4c0.8-2.4,1.6-4.8,2.4-7.2c0.4-2.4,1.2-5.2,1.6-8
		c1.2-5.6,1.6-11.6,2.4-17.6c0-3.2,0-6.4,0-9.6c0-1.6,0-3.2,0-4.8C397.2,245.2,396.8,243.6,396.8,242z"/>
	<path style="fill:#FFFFFF;" d="M206.4,147.2c-1.6,0.4-3.2,1.2-5.2,2c-3.6,1.2-7.2,2.8-10.8,4.8c-2,0.8-3.6,2-5.6,3.2
		s-3.6,2.4-5.2,3.6c-3.6,2.4-6.8,5.2-10,8s-6.4,6-9.2,9.6c-2.8,3.2-5.2,6.8-7.6,10c-1.2,1.6-2,3.6-3.2,5.2c-0.8,1.6-1.6,3.2-2.4,5.2
		c-1.6,3.2-3.2,6.8-4,9.6c-2.4,6-3.2,11.6-4,15.2c-0.8,3.6-0.8,6-0.8,6s0.8-2,2.4-5.6c1.6-3.6,3.6-8.4,6.4-13.6
		c1.6-2.8,3.2-5.6,5.2-8.8c0.8-1.6,2-3.2,3.2-4.8s2-3.2,3.2-4.4c2.4-3.2,4.8-6,7.6-9.2c2.8-2.8,5.6-6,8.8-8.8c2.8-2.8,6-5.6,9.2-8
		c1.6-1.2,3.2-2.4,4.8-3.6c1.6-1.2,3.2-2.4,4.8-3.2c3.2-2,6.4-4,9.6-5.6c3.2-1.6,6.4-3.2,9.2-4.4s5.6-2.4,8-3.2s4.4-1.6,6.4-2
		c3.6-1.2,5.6-1.6,5.6-1.6s-2,0-6,0.4c-3.6,0.4-9.2,0.8-15.2,2.8C209.6,146.4,208,146.8,206.4,147.2z"/>
	<path style="fill:#FFFFFF;" d="M215.6,359.6c-4-1.2-8-2.8-12-4.8c-4-1.6-8-3.6-11.6-6c-3.6-2-7.2-4.4-10.4-6.8
		c-6.8-4.8-12.4-10-17.2-14.4c-4.8-4.8-8.4-8.8-10.8-12c-2.4-3.2-4-4.8-4-4.8s0.4,0.4,0.8,1.6c0.4,0.8,0.8,2.4,2,4.4
		c1.6,3.6,4.4,8.8,8.8,14c2,2.8,4.4,5.6,7.2,8.4s5.6,6,9.2,8.4c3.2,2.8,6.8,5.6,10.8,8s8,4.4,12,6.4c8.4,3.6,17.6,6.4,26,8
		c4.4,0.8,8.4,1.2,12.4,1.2s7.6,0,11.2-0.4c3.6-0.4,6.4-0.8,9.2-1.2c2.8-0.4,5.2-1.2,7.2-1.6s3.2-1.2,4.4-1.2
		c1.2-0.4,1.6-0.4,1.6-0.4s-2.4-0.4-6.4,0s-9.6,0.4-16,0c-3.2,0-6.8-0.4-10.4-1.2c-3.6-0.4-7.6-1.2-11.6-2S219.6,360.8,215.6,359.6z
		"/>
	<path style="fill:#FFFFFF;" d="M363.6,232c-1.2-4.8-2.4-10-4-14.4c-1.6-4.8-3.6-9.2-5.6-13.2c-1.2-2-2.4-4-3.6-6s-2.4-4-3.6-5.6
		s-2.4-3.6-3.6-5.2c-1.2-1.6-2.8-2.8-4-4.4c-1.2-1.2-2.4-2.8-3.6-4s-2.4-2.4-3.6-3.2c-1.2-1.2-2-2-3.2-2.8s-2-1.6-2.8-2
		c-3.6-2.4-5.6-4-5.6-4s1.6,2,4.4,5.2c0.8,0.8,1.6,1.6,2.4,2.8s1.6,2,2.4,3.2s2,2.4,2.8,3.6c0.8,1.2,2,2.8,2.8,4.4
		c0.8,1.6,2,2.8,3.2,4.8c0.8,1.6,2,3.2,3.2,5.2c1.2,1.6,2,3.6,2.8,5.6s2,4,2.8,6c1.6,4,3.6,8.4,4.8,12.8c1.6,4.4,2.4,8.8,3.6,13.6
		c0.8,4.8,1.6,9.2,2,14s0.4,9.2,0.4,13.6c0,3.6,0,8-0.8,12c-0.4,2-0.4,4-0.8,6s-0.8,3.6-1.2,5.6c-0.8,3.6-1.6,6.8-2.4,9.6
		c-0.4,1.6-0.8,2.8-1.2,4c-0.4,1.2-0.8,2.4-1.2,3.2c-1.6,4-2,6.4-2,6.4s1.2-2,3.6-5.6c0.4-0.8,1.2-2,2-3.2c0.4-1.2,1.2-2.4,2-4
		c1.2-2.8,2.8-6,4-9.2c0.8-1.6,1.2-3.6,2-5.6c0.4-2,0.8-4,1.6-6c1.2-4,1.6-8.8,2-13.2c0-2.4,0-4.8,0.4-7.2c0-1.2,0-2.4,0-3.6
		l-0.4-3.6C365.2,242,364.4,237.2,363.6,232z"/>
</g>
<g>
	<path style="fill:#2B3B4E;" d="M245.6,103.6c28.4,37.2,37.6,94.8,8,149.2c48-39.6,71.6-110.4,50.8-180.4
		C297.6,50,269.6,42,251.6,56.8c-0.4,0-0.4,0.4-0.8,0.4C236.4,68.8,234.4,89.2,245.6,103.6z"/>
	<path style="fill:#2B3B4E;" d="M118.8,316.8c23.2-40.8,73.2-71.2,134.4-64c-54.8-29.2-129.6-24-186,22.4c-18.4,14.8-14.8,44,6,54.8
		c0.4,0,0.4,0.4,0.8,0.4C90,338.8,109.6,332.4,118.8,316.8z"/>
	<path style="fill:#2B3B4E;" d="M373.2,341.2c-47.2-1.6-97.6-30.8-120.4-88.4c0.4,62,40,125.6,107.6,153.6
		c22,9.2,45.6-7.6,45.6-31.2c0-0.4,0-0.4,0-0.8C406,356.4,391.2,341.6,373.2,341.2z"/>
</g>
<circle style="fill:#FFFFFF;" cx="253.2" cy="252.8" r="44"/>
<circle style="fill:#E6E9EE;" cx="253.2" cy="252.8" r="29.2"/>
<g>
</g>
<g>
</g>
<g>
</g>
<g>
</g>
<g>
</g>
<g>
</g>
<g>
</g>
<g>
</g>
<g>
</g>
<g>
</g>
<g>
</g>
<g>
</g>
<g>
</g>
<g>
</g>
<g>
</g>
</svg>
