<?xml version="1.0" encoding="iso-8859-1"?>
<!-- Generator: Adobe Illustrator 19.0.0, SVG Export Plug-In . SVG Version: 6.00 Build 0)  -->
<svg version='1.1' id='Layer_1' xmlns='http://www.w3.org/2000/svg' x='0px' y='0px'
     viewBox='0 0 508 508' style='enable-background:new 0 0 508 508;' xml:space='preserve'>
<circle style="fill:#90DFAA;" cx="254" cy="254" r="254"/>
<rect x="381.7" y="125.2" style="fill:#FFFFFF;" width="3" height="222"/>
<path style="fill:#2B3B4E;" d="M319.2,367.2l-59.6-30.4l39.6-20.8c2-1.2,2.8-3.6,1.6-5.2c-0.8-1.2-2-2-3.2-2l-40-30.4l28.8-21.6
	c1.2-0.8,1.6-2.4,1.2-3.6c-0.4-1.2-1.6-2.4-3.2-2.4H220c-1.6,0-2.8,0.8-3.2,2.4c-0.4,1.2,0,2.8,1.2,3.6l28.8,21.6L206,309.6
	l-0.8-0.4c-2-1.2-4.4-0.4-5.2,1.6s-0.4,4.4,1.6,5.2l41.2,21.2l-57.6,30.4c-1.6,0.8-2.4,2.8-2,4.4s2,3.2,4,3.2H318c2,0,3.6-1.2,4-3.2
	C321.6,370,320.8,368.4,319.2,367.2z M229.6,257.2h44.8L252,274L229.6,257.2z M252,282.4l35.6,26.8h-70.8L252,282.4z M218.4,315.6
	h64.4l-31.6,16.8L218.4,315.6z M202.8,366.8l48.4-25.6l50,25.6H202.8z"/>
<path style="fill:#324A5E;" d="M166.8,446.4c-0.8,0-1.6,0-2.4-0.4c-4-1.2-6.4-5.6-5.2-10l85.2-276.4c1.2-3.2,4-5.6,7.6-5.6
	s6.4,2.4,7.6,5.6L344.8,436c1.2,4-1.2,8.8-5.2,10s-8.8-1.2-10-5.2l-77.6-252l-77.6,252C173.2,444.4,170.4,446.4,166.8,446.4z"/>
<path style="fill:#2C9984;" d="M64,422.8c46.4,52.4,114.4,85.2,190,85.2s143.2-33.2,190-85.2H64z"/>
<rect x="98.787" y="138.021" transform="matrix(0.9799 -0.1994 0.1994 0.9799 -26.0506 53.3789)" style="fill:#E6E9EE;" width="306.385" height="35.998"/>
<path style="fill:#FFFFFF;" d="M167.2,301.2c-30.8-35.2-42.8-84.8-28-132.4c1.2-4.4,2.8-8.4,4.8-12.8c3.6-8.4-0.8-18-9.2-20.4
	l-30.4-9.6c-7.2-2.4-15.2,1.2-18.4,8c-3.6,7.6-6.4,15.2-8.4,23.6c-16.4,64,16,131.6,76.4,159.2c0.4,0,0.8,0.4,1.2,0.4
	C165.2,322,174.4,309.6,167.2,301.2z"/>
<rect x="361.6" y="348" style="fill:#2B3B4E;" width="42.8" height="74.8"/>
<path style="fill:#324A5E;" d="M409.6,354.8h-52.8c-7.2,0-12.8-5.6-12.8-12.8v-7.2c0-7.2,5.6-12.8,12.8-12.8h52.8
	c7.2,0,12.8,5.6,12.8,12.8v7.2C422,348.8,416.4,354.8,409.6,354.8z"/>
<g>
</g>
<g>
</g>
<g>
</g>
<g>
</g>
<g>
</g>
<g>
</g>
<g>
</g>
<g>
</g>
<g>
</g>
<g>
</g>
<g>
</g>
<g>
</g>
<g>
</g>
<g>
</g>
<g>
</g>
</svg>
