<?xml version="1.0" encoding="iso-8859-1"?>
<!-- Generator: Adobe Illustrator 19.0.0, SVG Export Plug-In . SVG Version: 6.00 Build 0)  -->
<svg version="1.1" id="Layer_1" xmlns="http://www.w3.org/2000/svg" xmlns:xlink="http://www.w3.org/1999/xlink" x="0px" y="0px"
	 viewBox="0 0 508 508" style="enable-background:new 0 0 508 508;" xml:space="preserve">
<circle style="fill:#54C0EB;" cx="254" cy="254" r="254"/>
<path style="fill:#E6E9EE;" d="M369.2,404.4H172.4c-7.6,0-13.6-6-13.6-13.6v-240c0-7.6,6-13.6,13.6-13.6h196.8
	c7.6,0,13.6,6,13.6,13.6v240C382.8,398.4,376.8,404.4,369.2,404.4z"/>
<path style="fill:#FFFFFF;" d="M335.6,370.8H138.8c-7.6,0-13.6-6-13.6-13.6v-240c0-7.6,6-13.6,13.6-13.6h196.8
	c7.6,0,13.6,6,13.6,13.6v240C349.2,364.8,343.2,370.8,335.6,370.8z"/>
<polygon style="fill:#FF7058;" points="278.8,207.2 253.2,159.6 253.2,159.6 253.2,159.6 253.2,159.6 253.2,159.6 221.6,159.6 
	221.6,159.6 221.6,159.6 221.6,159.6 221.6,159.6 202.8,194.4 228,206 237.2,188.8 254,219.6 254.8,221.2 238.8,230.4 281.6,242 
	292.8,199.2 "/>
<polygon style="fill:#FFD05B;" points="296.4,240.4 272.4,254.4 281.2,270 252.8,270 252.8,252.8 221.6,284 252.8,315.2 
	252.8,297.6 296,297.6 312.4,270 "/>
<polygon style="fill:#4CDBC4;" points="208.8,242 226.4,250 211.2,208.8 169.6,224 183.2,230.4 162,270 178.4,297.6 214.8,297.6 
	214.8,270 193.6,270 "/>
<g>
</g>
<g>
</g>
<g>
</g>
<g>
</g>
<g>
</g>
<g>
</g>
<g>
</g>
<g>
</g>
<g>
</g>
<g>
</g>
<g>
</g>
<g>
</g>
<g>
</g>
<g>
</g>
<g>
</g>
</svg>
