<?xml version="1.0" encoding="iso-8859-1"?>
<!-- Generator: Adobe Illustrator 19.0.0, SVG Export Plug-In . SVG Version: 6.00 Build 0)  -->
<svg version='1.1' id='Layer_1' xmlns='http://www.w3.org/2000/svg' x='0px' y='0px'
     viewBox='0 0 508 508' style='enable-background:new 0 0 508 508;' xml:space='preserve'>
<circle style="fill:#324A5E;" cx="254" cy="254" r="254"/>
<g>
	<circle style="fill:#FFD05B;" cx="254" cy="254" r="120"/>
	<path style="fill:#FFD05B;" d="M279.6,387.2L254,446l-25.6-58.8c8.4,1.6,16.8,2.4,25.6,2.4C262.8,389.6,271.6,388.8,279.6,387.2z"
		/>
	<path style="fill:#FFD05B;" d="M279.6,120.8c-8.4-1.6-16.8-2.4-25.6-2.4c-8.8,0-17.6,0.8-25.6,2.4L254,62L279.6,120.8z"/>
	<path style="fill:#FFD05B;" d="M118.4,254c0,8.8,0.8,17.6,2.4,26L62,254l58.8-25.6C119.2,236.4,118.4,245.2,118.4,254z"/>
	<path style="fill:#FFD05B;" d="M387.2,280c1.6-8.4,2.4-16.8,2.4-26c0-8.8-0.8-17.6-2.4-25.6L446,254L387.2,280z"/>
	<path style="fill:#FFD05B;" d="M178,366.4L118,390l23.2-60C151.2,344.4,163.6,356.8,178,366.4z"/>
	<path style="fill:#FFD05B;" d="M390,118l-23.2,60c-9.6-14.4-22-26.8-36.4-36.4L390,118z"/>
	<path style="fill:#FFD05B;" d="M178,141.6c-14.4,9.6-26.8,22-36.4,36.4L118,118L178,141.6z"/>
	<path style="fill:#FFD05B;" d="M390,390l-60-23.2c14.4-9.6,26.8-22,36.4-36.4L390,390z"/>
</g>
<polygon style="fill:#FFFFFF;" points="297.2,248 262.4,248 273.2,182.8 210.8,260 245.6,260 234.8,325.2 "/>
<g>
</g>
<g>
</g>
<g>
</g>
<g>
</g>
<g>
</g>
<g>
</g>
<g>
</g>
<g>
</g>
<g>
</g>
<g>
</g>
<g>
</g>
<g>
</g>
<g>
</g>
<g>
</g>
<g>
</g>
</svg>
