<?xml version="1.0" encoding="iso-8859-1"?>
<!-- Generator: Adobe Illustrator 19.0.0, SVG Export Plug-In . SVG Version: 6.00 Build 0)  -->
<svg version="1.1" id="Layer_1" xmlns="http://www.w3.org/2000/svg" xmlns:xlink="http://www.w3.org/1999/xlink" x="0px" y="0px"
	 viewBox="0 0 508 508" style="enable-background:new 0 0 508 508;" xml:space="preserve">
<g>
	<circle style="fill:#54C0EB;" cx="254" cy="254" r="254"/>
	<circle style="fill:#54C0EB;" cx="254" cy="254" r="254"/>
</g>
<path style="fill:#2B3B4E;" d="M269.6,324.8v182.8c-5.2,0.4-10.4,0.4-15.6,0.4c-5.2,0-10.4,0-15.6-0.4V324.8H269.6z"/>
<path style="fill:#324A5E;" d="M393.2,267.6H114.8c-5.2,0-9.6,1.6-10.4,3.2L68,392.8c-0.8,2.8,3.6,5.2,10.4,5.2h351.2
	c6.4,0,11.2-2.4,10.4-5.2l-36.4-122C403.2,268.8,398.4,267.6,393.2,267.6z"/>
<polygon style="fill:#E6E9EE;" points="171.6,293.2 117.6,293.2 122.4,274.4 174.4,274.4 "/>
<polygon style="fill:#CED5E0;" points="174.4,274.4 171.6,293.2 117.6,293.2 "/>
<polygon style="fill:#E6E9EE;" points="244.4,293.2 190.4,293.2 192.8,274.4 244.8,274.4 "/>
<polygon style="fill:#CED5E0;" points="244.8,274.4 244.4,293.2 190.4,293.2 "/>
<polygon style="fill:#E6E9EE;" points="317.6,293.2 263.6,293.2 263.2,274.4 315.2,274.4 "/>
<polygon style="fill:#CED5E0;" points="315.2,274.4 317.6,293.2 263.6,293.2 "/>
<polygon style="fill:#E6E9EE;" points="390.4,293.2 336.4,293.2 333.6,274.4 385.6,274.4 "/>
<polygon style="fill:#CED5E0;" points="385.6,274.4 390.4,293.2 336.4,293.2 "/>
<polygon style="fill:#E6E9EE;" points="167.2,321.2 110.4,321.2 115.6,300.4 170.4,300.4 "/>
<polygon style="fill:#CED5E0;" points="170.4,300.4 167.2,321.2 110.4,321.2 "/>
<polygon style="fill:#E6E9EE;" points="244,321.2 187.2,321.2 189.6,300.4 244.4,300.4 "/>
<polygon style="fill:#CED5E0;" points="244.4,300.4 244,321.2 187.2,321.2 "/>
<polygon style="fill:#E6E9EE;" points="320.8,321.2 264,321.2 263.6,300.4 318.4,300.4 "/>
<polygon style="fill:#CED5E0;" points="318.4,300.4 320.8,321.2 264,321.2 "/>
<polygon style="fill:#E6E9EE;" points="397.6,321.2 340.8,321.2 337.6,300.4 392.4,300.4 "/>
<polygon style="fill:#CED5E0;" points="392.4,300.4 397.6,321.2 340.8,321.2 "/>
<polygon style="fill:#E6E9EE;" points="162.4,352.4 102.4,352.4 108.4,329.2 166,329.2 "/>
<polygon style="fill:#CED5E0;" points="166,329.2 162.4,352.4 102.4,352.4 "/>
<polygon style="fill:#E6E9EE;" points="243.6,352.4 183.6,352.4 186.4,329.2 244,329.2 "/>
<polygon style="fill:#CED5E0;" points="244,329.2 243.6,352.4 183.6,352.4 "/>
<polygon style="fill:#E6E9EE;" points="324.4,352.4 264.4,352.4 264,329.2 321.6,329.2 "/>
<polygon style="fill:#CED5E0;" points="321.6,329.2 324.4,352.4 264.4,352.4 "/>
<polygon style="fill:#E6E9EE;" points="405.6,352.4 345.6,352.4 342,329.2 399.6,329.2 "/>
<polygon style="fill:#CED5E0;" points="399.6,329.2 405.6,352.4 345.6,352.4 "/>
<polygon style="fill:#E6E9EE;" points="156.8,386.8 93.2,386.8 100,361.2 161.2,361.2 "/>
<polygon style="fill:#CED5E0;" points="161.2,361.2 156.8,386.8 93.2,386.8 "/>
<polygon style="fill:#E6E9EE;" points="242.8,386.8 179.2,386.8 182.4,361.2 243.2,361.2 "/>
<polygon style="fill:#CED5E0;" points="243.2,361.2 242.8,386.8 179.2,386.8 "/>
<polygon style="fill:#E6E9EE;" points="328.8,386.8 265.2,386.8 264.8,361.2 325.6,361.2 "/>
<polygon style="fill:#CED5E0;" points="325.6,361.2 328.8,386.8 265.2,386.8 "/>
<polygon style="fill:#E6E9EE;" points="414.8,386.8 351.2,386.8 346.8,361.2 408,361.2 "/>
<polygon style="fill:#CED5E0;" points="408,361.2 414.8,386.8 351.2,386.8 "/>
<g>
	<polygon style="fill:#F9B54C;" points="262.8,90.4 254,70.8 245.2,90.4 	"/>
	<polygon style="fill:#F9B54C;" points="245.2,192 254,211.6 262.8,192 	"/>
	<polygon style="fill:#F9B54C;" points="304.8,150 324.4,141.2 304.8,132.4 	"/>
	<polygon style="fill:#F9B54C;" points="203.2,132.4 183.6,141.2 203.2,150 	"/>
	<polygon style="fill:#F9B54C;" points="242.4,90.8 219.6,58 226.4,97.6 	"/>
	<polygon style="fill:#F9B54C;" points="265.6,191.6 288.4,224.4 281.6,184.8 	"/>
	<polygon style="fill:#F9B54C;" points="304.4,129.6 337.2,106.8 297.6,113.6 	"/>
	<polygon style="fill:#F9B54C;" points="203.6,152.8 170.8,175.6 210.4,168.8 	"/>
	<polygon style="fill:#F9B54C;" points="210.4,113.6 170.8,106.8 203.6,129.6 	"/>
	<polygon style="fill:#F9B54C;" points="297.6,168.8 337.2,175.6 304.4,152.8 	"/>
	<polygon style="fill:#F9B54C;" points="281.6,97.6 288.4,58 265.6,90.8 	"/>
	<polygon style="fill:#F9B54C;" points="226.4,184.8 219.6,224.4 242.4,191.6 	"/>
	<polygon style="fill:#F9B54C;" points="296,111.2 303.6,91.6 284,99.2 	"/>
	<polygon style="fill:#F9B54C;" points="212,170.8 204.4,190.8 224,183.2 	"/>
	<polygon style="fill:#F9B54C;" points="284,183.2 303.6,190.8 296,170.8 	"/>
	<polygon style="fill:#F9B54C;" points="224,99.2 204.4,91.6 212,111.2 	"/>
</g>
<circle style="fill:#FFD05B;" cx="254" cy="141.2" r="54.4"/>
<g>
	<path style="fill:#FFFFFF;" d="M386.8,201.6c0.8-2,0.8-4.4,0.8-6.8c0-12-9.6-22-21.2-22.8c0-1.2,0.4-2.4,0.4-3.6
		c0-11.2-9.2-20.4-20.4-20.4c-3.6,0-6.8,0.8-9.6,2.4C331.6,144,324,140,315.2,140c-15.6,0-28,12.4-28,28c0,1.2,0,2.8,0.4,4
		c-10,2.4-17.6,11.6-17.6,22c0,2.4,0.4,4.4,0.8,6.8h116V201.6z"/>
	<path style="fill:#FFFFFF;" d="M250,238.8c0.8-2.4,1.2-5.2,1.2-8c0-14.8-11.6-26.8-26-27.6c0.4-1.2,0.4-2.8,0.4-4
		c0-13.6-11.2-24.8-24.8-24.8c-4.4,0-8.4,1.2-12,3.2c-6.4-7.6-16-12.4-26.4-12.4c-18.8,0-34.4,15.2-34.4,34.4c0,1.6,0,3.2,0.4,4.8
		c-12,2.8-21.2,14-21.2,27.2c0,2.8,0.4,5.6,1.2,8H250V238.8z"/>
	
		<ellipse transform="matrix(0.707 -0.7072 0.7072 0.707 -13.0734 196.6059)" style="fill:#FFFFFF;" cx="230.74" cy="114.081" rx="12.4" ry="6.4"/>
</g>
<g>
</g>
<g>
</g>
<g>
</g>
<g>
</g>
<g>
</g>
<g>
</g>
<g>
</g>
<g>
</g>
<g>
</g>
<g>
</g>
<g>
</g>
<g>
</g>
<g>
</g>
<g>
</g>
<g>
</g>
</svg>
