<?xml version="1.0" encoding="iso-8859-1"?>
<!-- Generator: Adobe Illustrator 19.0.0, SVG Export Plug-In . SVG Version: 6.00 Build 0)  -->
<svg version="1.1" id="Layer_1" xmlns="http://www.w3.org/2000/svg" xmlns:xlink="http://www.w3.org/1999/xlink" x="0px" y="0px"
	 viewBox="0 0 508 508" style="enable-background:new 0 0 508 508;" xml:space="preserve">
<path style="fill:#FD8469;" d="M508,254c0,63.6-23.2,121.6-62,166.4C399.6,474,330.8,508,254,508s-145.6-34-192-87.6
	C23.2,375.6,0,317.6,0,254C0,113.6,113.6,0,254,0S508,113.6,508,254z"/>
<path style="fill:#FFFFFF;" d="M395.6,198c2-4.4,3.2-9.6,3.2-14.8c0-19.2-15.6-34.8-34.8-34.8c-0.4,0-0.8,0-1.2,0
	c-9.2-34.4-40.4-60-77.6-60c-26,0-49.2,12.4-64,31.6c-8.8-4.8-18.8-7.2-29.6-7.2c-35.2,0-63.6,28.4-63.6,63.6c0,5.2,0.8,10.8,2,15.6
	c-32,6-56.4,34-56.4,67.6c0,38,30.8,68.4,68.4,68.4h224c38,0,68.4-30.8,68.4-68.4C434.4,232.4,418.8,208.8,395.6,198z"/>
<polygon style="fill:#FFD05B;" points="318.4,275.2 266.8,275.2 282.4,178 189.6,293.2 241.2,293.2 225.6,390.4 "/>
<g>
</g>
<g>
</g>
<g>
</g>
<g>
</g>
<g>
</g>
<g>
</g>
<g>
</g>
<g>
</g>
<g>
</g>
<g>
</g>
<g>
</g>
<g>
</g>
<g>
</g>
<g>
</g>
<g>
</g>
</svg>
