<?xml version="1.0" encoding="iso-8859-1"?>
<!-- Generator: Adobe Illustrator 19.0.0, SVG Export Plug-In . SVG Version: 6.00 Build 0)  -->
<svg version="1.1" id="Layer_1" xmlns="http://www.w3.org/2000/svg" xmlns:xlink="http://www.w3.org/1999/xlink" x="0px" y="0px"
	 viewBox="0 0 508 508" style="enable-background:new 0 0 508 508;" xml:space="preserve">
<circle style="fill:#324A5E;" cx="254" cy="254" r="254"/>
<path style="fill:#2B3B4E;" d="M80.8,439.6C126,482,187.2,508,254,508s128-26,173.2-68.4H80.8z"/>
<path style="fill:#90DFAA;" d="M238.4,94.4c27.2-22,129.2-31.6,142.4,64c14-16,69.6,106-9.6,121.2c2.4,4.8,0,10.8-4,14.4
	c-4.4,3.6-10,5.6-15.6,7.6c-29.6,9.6-60.4,19.6-91.6,16.4c-3.6-0.4-7.6-1.2-11.6-0.4c-4.4,0.4-8.4,2.4-12.4,3.6
	c-10.4,2.4-21.2-1.2-30.8-4.8c-12.4-4.4-24.8-9.2-35.2-16.4c-10.4-7.2-19.2-17.6-20.4-29.2c-0.4-4.8-0.4-10.4-4-13.6
	c-2.4-2.4-24.4-26.8-30.4-39.2C58.8,95.2,228,76.8,238.4,94.4z"/>
<path style="fill:#FFFFFF;" d="M364,166l-1.6,2.8c-1.2,1.6-2,3.6-3.2,5.2c-0.4,0.8-1.2,1.6-1.6,2.4c-0.4,0.8-1.2,1.6-2,2.4
	c-1.2,1.6-2.4,2.8-3.6,4c-5.2,5.2-10.8,9.6-16.4,13.6s-11.2,7.2-17.2,10.4c-2.8,1.6-5.6,2.8-8.8,4.4c-1.6,0.8-3.2,1.6-5.2,2.4
	c0-1.2,0.4-2.4,0.8-3.6c0.8-4.8,1.6-11.6,2-18.4c0-3.6,0.4-6.8,0-10c0-1.6,0-3.2,0-4.8s0-2.8-0.4-4.4c0-1.2-0.4-2.4-0.4-3.6
	c0-1.2-0.4-2-0.4-2.8c0-1.6-0.4-2.4-0.4-2.4s0,0.8,0,2.4c0,0.8,0,1.6,0,2.8s0,2.4,0,3.6c0,1.2,0,2.8,0,4.4c0,1.6,0,3.2-0.4,4.8
	c-0.4,3.2-0.4,6.4-0.8,10c-0.8,6.8-2,13.2-3.2,17.6c-0.4,2.4-1.2,4.4-1.6,5.6c0,0.8-0.4,1.2-0.4,1.6c0,0.4,0,0.4,0,0.4l0,0l-40,50.4
	c-3.2-37.2-4-75.6-1.2-110.4c0,0-7.2,29.6-15.6,73.2c-0.8-0.8-1.6-1.6-2.4-2.4c-5.6-5.6-12.8-13.6-19.2-22.8
	c-1.6-2.4-3.2-4.8-4.8-7.2s-3.2-4.8-4.4-7.2s-2.4-4.8-3.6-7.2c-1.2-2.4-2-4.8-2.8-7.2c-0.4-1.2-0.8-2.4-1.2-3.2
	c-0.4-1.2-0.8-2-0.8-3.2c-0.4-2-0.8-3.6-1.2-5.2c0-2,0-3.2,0-4s0-1.2,0-1.2s0,0.4,0,1.2s0,2,0.4,3.6c0,1.6,0.4,3.2,0.8,5.2
	c0,1.2,0.4,2,0.8,3.2c0.4,1.2,0.4,2.4,0.8,3.6c0.8,2.4,1.6,4.8,2.4,7.6c0.8,2.8,2,5.2,3.2,8s2.4,5.2,4,8c1.2,2.8,2.8,5.2,4.4,8
	c6,10,12.8,19.2,18,25.6c2,2.4,3.6,4,4.8,5.6c-1.6,9.6-3.6,19.6-5.2,30c-0.8-0.4-2-1.2-3.2-2c-8.8-5.2-20.8-12.8-32.4-21.6
	c-2.8-2-6-4.4-8.8-6.8c-2.8-2.4-5.6-4.8-8.4-7.2c-1.2-1.2-2.8-2.4-4-3.6c-1.2-1.2-2.4-2.4-3.6-3.6c-2.4-2.4-4.4-4.8-6.4-7.2
	c-0.8-1.2-2-2.4-2.8-3.2c-0.8-1.2-1.6-2.4-2.4-3.2c-1.6-2-2.8-4-3.6-5.6c-1.2-1.6-1.6-2.8-2-4c-0.4-0.8-0.8-1.6-0.8-1.6
	s0.4,0.4,0.8,1.6c0.4,0.8,1.2,2.4,2,4s2,3.6,3.6,6c0.8,1.2,1.6,2.4,2.4,3.6c0.8,1.2,1.6,2.4,2.8,3.6c2,2.4,4,5.2,6.4,7.6
	c1.2,1.2,2.4,2.4,3.6,4c1.2,1.2,2.4,2.8,3.6,4c2.4,2.8,5.2,5.2,8,7.6c2.8,2.4,5.6,5.2,8.4,7.6c11.2,9.6,22.8,18,31.6,24.4
	c1.6,1.2,3.2,2,4.4,3.2c-6.8,40.8-12.8,85.2-14.8,126.4c-0.8,13.6-4.8,26.8-11.2,38.4h87.6c-8-10.8-13.6-23.2-16.4-36.4
	c-6.4-32.4-14-76-18.8-122.8l32-48h0.4c1.6,0.4,3.6,0.8,6.4,1.6c1.2,0,2.8,0.4,4,0.8c1.6,0,3.2,0.4,4.8,0.4c1.6,0,3.2,0,5.2,0
	c1.6,0,3.6,0,5.2,0s3.6-0.4,5.2-0.8c1.6-0.4,3.6-0.8,5.2-1.2s3.2-0.8,4.8-1.6c1.6-0.8,2.8-1.2,4-2s2.4-1.6,3.2-2
	c0.8-0.4,1.6-1.2,2.4-2c1.2-1.2,2-1.6,2-1.6s-0.8,0.4-2,1.6c-0.8,0.4-1.6,1.2-2.4,1.6c-1.2,0.4-2,1.2-3.2,1.6
	c-1.2,0.4-2.8,0.8-4,1.6c-1.6,0.4-3.2,0.8-4.4,1.2c-1.6,0.4-3.2,0.4-4.8,0.8c-1.6,0-3.2,0-5.2,0c-1.6,0-3.2,0-5.2-0.4
	c-1.6,0-3.2-0.4-4.8-0.8c-1.6-0.4-3.2-0.4-4.4-0.8c-1.6-0.4-2.8-0.8-4-1.2c-1.6-0.4-3.2-1.2-4.4-1.6l6.8-10.4c2.8-1.2,5.6-2.8,8-4
	c2.8-1.6,5.6-3.2,8.4-4.8c5.6-3.6,11.2-7.2,16.8-11.6c5.6-4.4,11.2-9.2,16-14.8c1.2-1.6,2.4-2.8,3.6-4.4c0.8-0.8,1.2-1.6,1.6-2.4
	c0.4-0.8,1.2-1.6,1.6-2.4c1.2-1.6,2-3.6,3.2-5.2L364,166l1.2-2.8L364,166z"/>
<g>
	<circle style="fill:#2C9984;" cx="150" cy="184.8" r="7.2"/>
	<circle style="fill:#2C9984;" cx="377.6" cy="200.8" r="7.2"/>
	<circle style="fill:#2C9984;" cx="327.6" cy="255.6" r="7.2"/>
	<circle style="fill:#2C9984;" cx="276.8" cy="184.8" r="7.2"/>
	<circle style="fill:#2C9984;" cx="320" cy="156" r="7.2"/>
	<circle style="fill:#2C9984;" cx="200.8" cy="121.6" r="7.2"/>
	<circle style="fill:#2C9984;" cx="265.6" cy="128.8" r="7.2"/>
	<circle style="fill:#2C9984;" cx="284.4" cy="136.4" r="7.2"/>
</g>
<g>
</g>
<g>
</g>
<g>
</g>
<g>
</g>
<g>
</g>
<g>
</g>
<g>
</g>
<g>
</g>
<g>
</g>
<g>
</g>
<g>
</g>
<g>
</g>
<g>
</g>
<g>
</g>
<g>
</g>
</svg>
