<svg id="Layer_1" data-name="Layer 1" xmlns="http://www.w3.org/2000/svg" viewBox="0 0 24 24"><path d="M0,0H24V24H0Z" style="fill:none"/><path d="M7,17.61v-.54a.77.77,0,0,1,.34-.67A9.1,9.1,0,0,1,12,15.12H12a6.06,6.06,0,0,1,.49-1.65l-.55,0A10.72,10.72,0,0,0,6.47,15a2.42,2.42,0,0,0-1.16,2.1v2.21H13a5.88,5.88,0,0,1-.81-1.67Z"/><path d="M12,12.62A3.34,3.34,0,1,0,8.64,9.28,3.33,3.33,0,0,0,12,12.62Zm0-5a1.67,1.67,0,1,1-1.67,1.66A1.67,1.67,0,0,1,12,7.62Z"/><path d="M20.93,16.91a3.17,3.17,0,0,0-.05-.53l.95-.84L21,14.1l-1.21.41a3.11,3.11,0,0,0-.9-.52l-.25-1.25H17L16.72,14a3.11,3.11,0,0,0-.9.52l-1.2-.41-.84,1.44,1,.84a4.75,4.75,0,0,0-.05.53,4.36,4.36,0,0,0,.05.52l-1,.85.84,1.44,1.2-.41a3.11,3.11,0,0,0,.9.52L17,21.07h1.67l.25-1.24a3.11,3.11,0,0,0,.9-.52l1.21.41.83-1.44-.95-.85A3,3,0,0,0,20.93,16.91Zm-3.12,1.67a1.67,1.67,0,1,1,1.66-1.67A1.67,1.67,0,0,1,17.81,18.58Z"/><polygon points="5.64 8.12 5.64 5.8 7.95 5.8 7.95 4.26 5.64 4.26 5.64 1.95 4.1 1.95 4.1 4.26 1.79 4.26 1.79 5.8 4.1 5.8 4.1 8.12 5.64 8.12"/></svg>