<svg id="Layer_1" data-name="Layer 1" xmlns="http://www.w3.org/2000/svg" viewBox="0 0 24 24"><defs><style>.cls-1{fill:none;}</style></defs><path class="cls-1" d="M0,0H24V24H0Z"/><path d="M19.51,6.5v3h-2v-3h-3s0-2,0-2h3v-3h2v3h3v2Z"/><path d="M10.49,7.5a3,3,0,1,0,3,3A3,3,0,0,0,10.49,7.5Zm0,4a1,1,0,1,1,1-1A1,1,0,0,1,10.49,11.5Z"/><path d="M17.49,10.78V20.5h-14V6.5h9.82v-2h0a3,3,0,0,0-5.64,0H3.49a2,2,0,0,0-2,2v14a2,2,0,0,0,2,2h14a2,2,0,0,0,2-2V10.78ZM9.94,4.5a.74.74,0,1,1-.2.5A.75.75,0,0,1,9.94,4.5Z"/><path d="M4.49,18V19.5h12V18c0-2.5-4-3.58-6-3.58S4.49,15.46,4.49,18ZM6.8,17.5a7,7,0,0,1,3.69-1.12,7,7,0,0,1,3.69,1.12Z"/></svg>