<svg id="Layer_1" data-name="Layer 1" xmlns="http://www.w3.org/2000/svg" viewBox="0 0 24 24"><path d="M0,0H24V24H0Z" transform="translate(0)" style="fill:none"/><path d="M4,17.69a2,2,0,1,0-2-2A2,2,0,0,0,4,17.69Zm1.13,1.1A7.08,7.08,0,0,0,4,18.69a7,7,0,0,0-2.78.58A2,2,0,0,0,0,21.12v1.57H4.5V21.08A4.48,4.48,0,0,1,5.13,18.79ZM20,17.69a2,2,0,1,0-2-2A2,2,0,0,0,20,17.69Zm4,3.43a2,2,0,0,0-1.22-1.85,6.82,6.82,0,0,0-3.91-.48,4.48,4.48,0,0,1,.63,2.29v1.61H24Zm-7.76-2.78a10.48,10.48,0,0,0-4.24-.9,10.68,10.68,0,0,0-4.24.9A3,3,0,0,0,6,21.08v1.61H18V21.08A3,3,0,0,0,16.24,18.34ZM8.07,20.69c.09-.23.13-.39.91-.69a8.39,8.39,0,0,1,6,0c.77.3.81.46.91.69Zm3.93-8a1,1,0,1,1-1,1,1,1,0,0,1,1-1m0-2a3,3,0,1,0,3,3A3,3,0,0,0,12,10.69Z" transform="translate(0)"/><path d="M19.51,6.5v3h-2v-3h-3v-2h3v-3h2v3h3v2Z" transform="translate(0)"/></svg>