<svg id="Layer_1" data-name="Layer 1" xmlns="http://www.w3.org/2000/svg" viewBox="0 0 24 24"><path d="M0,0H24V24H0Z" style="fill:none"/><path d="M7,17.61v-.54a.77.77,0,0,1,.34-.67A9.1,9.1,0,0,1,12,15.12H12a6.06,6.06,0,0,1,.49-1.65l-.55,0A10.72,10.72,0,0,0,6.47,15a2.42,2.42,0,0,0-1.16,2.1v2.21H13a5.88,5.88,0,0,1-.81-1.67Z"/><path d="M12,12.62A3.34,3.34,0,1,0,8.64,9.28,3.33,3.33,0,0,0,12,12.62Zm0-5a1.67,1.67,0,1,1-1.67,1.66A1.67,1.67,0,0,1,12,7.62Z"/><path d="M20.93,16a3.07,3.07,0,0,0-.05-.53l.95-.84L21,13.14l-1.21.41a3.14,3.14,0,0,0-.9-.53l-.25-1.24H17L16.72,13a3.14,3.14,0,0,0-.9.53l-1.2-.41-.84,1.44,1,.84a4.53,4.53,0,0,0-.05.53,4.36,4.36,0,0,0,.05.52l-1,.84.84,1.45,1.2-.41a3.11,3.11,0,0,0,.9.52L17,20.11h1.67l.25-1.24a3.11,3.11,0,0,0,.9-.52l1.21.41.83-1.45-.95-.84A3,3,0,0,0,20.93,16Zm-3.12,1.66A1.67,1.67,0,1,1,19.47,16,1.67,1.67,0,0,1,17.81,17.61Z"/><polygon points="5.45 13.81 5.45 11.91 7.35 11.91 7.35 10.64 5.45 10.64 5.45 8.74 4.18 8.74 4.18 10.64 2.29 10.64 2.29 11.91 4.18 11.91 4.18 13.81 5.45 13.81"/></svg>