<svg id="Layer_1" data-name="Layer 1" xmlns="http://www.w3.org/2000/svg" viewBox="0 0 25.28 27.45"><defs><style>.cls-1{fill:none;}</style></defs><title>admin-icon</title><path class="cls-1" d="M0,0H24V24H0Z"/><path class="cls-1" d="M12.39,14.56H25.28V27.45H12.39Z"/><path d="M21.06,17.58a4.73,4.73,0,0,0,0-.54,4.91,4.91,0,0,0,0-.55l1.17-.91a.27.27,0,0,0,.06-.35l-1.1-1.92a.29.29,0,0,0-.25-.14l-.09,0-1.38.55a4.17,4.17,0,0,0-.94-.54l-.21-1.47a.26.26,0,0,0-.27-.23H15.84a.28.28,0,0,0-.28.23l-.21,1.47a4.8,4.8,0,0,0-.93.54L13,13.19l-.1,0a.27.27,0,0,0-.24.14l-1.11,1.92a.26.26,0,0,0,.07.35l1.17.91a4.91,4.91,0,0,0,0,.55,4.9,4.9,0,0,0,0,.54l-1.17.91a.29.29,0,0,0-.07.36l1.11,1.92a.28.28,0,0,0,.24.13H13l1.38-.56a4,4,0,0,0,.93.55l.21,1.46a.28.28,0,0,0,.28.24h2.21a.26.26,0,0,0,.27-.24l.21-1.46a4.21,4.21,0,0,0,.94-.55l1.38.56H21a.29.29,0,0,0,.24-.13l1.1-1.92a.29.29,0,0,0-.06-.36ZM20,16.63A3.43,3.43,0,0,1,20,17a3.28,3.28,0,0,1,0,.4l-.07.63.49.39.6.46-.39.67-.7-.28-.58-.23-.5.37a3.38,3.38,0,0,1-.69.41l-.59.24-.09.62-.11.75h-.77l-.11-.75-.09-.62-.58-.24a3.24,3.24,0,0,1-.69-.4l-.5-.38-.59.23-.7.29-.39-.67.6-.47.49-.39-.07-.62a2.82,2.82,0,0,1,0-.82L14,16l-.49-.39-.6-.47.39-.67.7.29.58.23.5-.38a3.31,3.31,0,0,1,.69-.4l.59-.24.09-.63.11-.74h.77l.1.74.09.63.59.24a3.32,3.32,0,0,1,.68.39l.5.39.59-.24.7-.28.39.67-.59.47-.49.39Zm-3-1.81A2.22,2.22,0,1,0,19.16,17,2.21,2.21,0,0,0,16.94,14.82Zm0,3.33A1.11,1.11,0,1,1,18.05,17,1.11,1.11,0,0,1,16.94,18.15Z"/><path d="M9.9,12a4,4,0,1,0-4-4A4,4,0,0,0,9.9,12Zm0-6.1A2.1,2.1,0,1,1,7.8,8,2.1,2.1,0,0,1,9.9,5.9Z"/><path d="M10,18.1H3.8V17c0-.64,3.13-2.1,6.1-2.1h.33a7.06,7.06,0,0,1,.89-1.83A11.14,11.14,0,0,0,9.9,13c-2.67,0-8,1.34-8,4v3h8.66A6.75,6.75,0,0,1,10,18.1Z"/></svg>