<?xml version="1.0" encoding="utf-8"?>
<!-- Generator: Adobe Illustrator 24.0.0, SVG Export Plug-In . SVG Version: 6.00 Build 0)  -->
<svg version='1.1' id='Layer_1' xmlns='http://www.w3.org/2000/svg' x='0px' y='0px'
     viewBox='0 0 24 24' style='enable-background:new 0 0 24 24;' xml:space='preserve'>
<style type="text/css">
	.st0{fill:none;}
</style>
<path class="st0" d="M0,0h24v24H0V0z"/>
<g>
	<path d="M4.5,7.3c-0.1,0-0.2,0.1-0.3,0.3v11c0,0.1,0.1,0.3,0.3,0.3h15c0.1,0,0.2-0.1,0.3-0.2c0,0,0,0,0-0.1v-11
		c0-0.1-0.1-0.3-0.3-0.3H4.5z M19.6,20.6H4.5c-1.1,0-2-0.8-2-1.9c0,0,0,0,0-0.1V7.6c0-1.1,0.8-2,1.9-2c0,0,0,0,0.1,0h15
		c1.1,0,2,0.8,2,1.9c0,0,0,0.1,0,0.1v11.1c0.1,1-0.8,1.9-1.8,2C19.7,20.6,19.6,20.6,19.6,20.6z"/>
	<polygon points="11.1,18 11.1,13.8 9.6,13.8 12.5,8.2 12.5,12.4 14,12.4 	"/>
	<rect x="5.1" y="3.4" width="3.1" height="1.3"/>
	<rect x="15.8" y="3.4" width="3.1" height="1.3"/>
</g>
</svg>
