<svg id="Layer_1" data-name="Layer 1" xmlns="http://www.w3.org/2000/svg" viewBox="0 0 24 24"><defs><style>.cls-1{fill:none;}.cls-2{fill:#af1900;}</style></defs><title>battery-empty-icon</title><path class="cls-1" d="M0,0H24V24H0Z"/><polygon points="11.1 18 11.1 13.8 9.6 13.8 12.5 8.2 12.5 12.4 14 12.4 11.1 18"/><rect x="5.1" y="3.4" width="3.1" height="1.3"/><rect x="15.8" y="3.4" width="3.1" height="1.3"/><rect class="cls-2" x="14.71" y="18.12" width="8.37" height="1.55" transform="translate(18.9 -7.83) rotate(45)"/><rect class="cls-2" x="14.71" y="18.12" width="8.37" height="1.55" transform="translate(45.63 18.9) rotate(135)"/><path d="M14.24,18.9H4.5a.32.32,0,0,1-.3-.3V7.6q.15-.3.3-.3h15a.32.32,0,0,1,.3.3v6h1.7V7.5a1.92,1.92,0,0,0-2-1.9H4.4a1.92,1.92,0,0,0-1.9,2V18.7a1.92,1.92,0,0,0,2,1.9h9.74Z"/></svg>