<?xml version="1.0" encoding="utf-8"?>
<!-- Generator: Adobe Illustrator 24.0.0, SVG Export Plug-In . SVG Version: 6.00 Build 0)  -->
<svg version='1.1' id='Layer_1' xmlns='http://www.w3.org/2000/svg' x='0px' y='0px'
     viewBox='0 0 25.3 27.5' style='enable-background:new 0 0 25.3 27.5;' xml:space='preserve'>
<style type="text/css">
	.st0{fill:none;}
	.st1{fill:#FFFFFF;}
	.st2{fill:#46425F;}
</style>
<title>clear-data-icon</title>
<path class="st0" d="M0,0h24v24H0V0z"/>
<path class="st0" d="M12.4,14.6h12.9v12.9H12.4V14.6z"/>
<path class="st1" d="M14.8,11.7l-2-1c-0.3-0.2-0.6-0.3-1-0.3c-0.7,0-1.3,0.4-1.5,1.1l-0.3,0.6l0,0l0,0c-0.1,0.1-1.1,2-5,2H3.7
	l0.7,1.1c0.4,0.6,0.9,1.1,1.4,1.5l0.3,0.2l0.3-0.1l0.7,0.4l0.7,0.4l-0.3,0.2l1,0.5L9,18.4l0.5,0.2l0,0c0.3,0.1,0.5,0.2,0.8,0.3
	l0.4,0.1l0.2-0.2l0.7,0.2c0.3,0.1,0.6,0.1,0.9,0.1h0.4l0.2-0.3c0.2-0.3,2.2-3,2.4-4.3v-0.2l0.1-0.3c0.2-0.4,0.2-0.9,0.1-1.3
	C15.6,12.3,15.2,11.9,14.8,11.7z M11.8,11.1c0.2,0,0.5,0.1,0.7,0.2l2,1c0.6,0.2,0.8,0.8,0.6,1.4c0,0,0,0.1,0,0.1l-0.8-0.4l-3.4-1.6
	C11,11.4,11.4,11.1,11.8,11.1L11.8,11.1z M12.5,18.5c-0.3,0-0.5-0.1-0.8-0.1l1.9-3.3l-3.2,3.2c-0.8-0.2-0.8-0.3-0.8-0.3
	c0.1-0.3,0.1-0.7,0.2-1.1l0,0c-0.1,0.2-0.6,0.9-0.6,0.9l-0.4-0.2c0.2-0.4,0.4-0.8,0.6-1.2l-1.1,0.6l-0.8-0.5
	c0.2-0.2,1.1-1.4,1.6-1.8c-0.9,0.5-1.9,1-2.9,1.4c-0.5-0.4-0.9-0.8-1.2-1.3c4.4,0,5.6-2.4,5.6-2.4l3.4,1.6l0.8,0.4h0.1
	C14.6,15.7,12.5,18.5,12.5,18.5L12.5,18.5z"/>
<path class="st1" d="M16.8,5.8c-0.2-0.1-0.5-0.2-0.8-0.2c-0.4,0-0.8,0.3-1,0.7l-1.7,3.2L13,10.2l0.6,0.3l1.1,0.5l0.6,0.3l0.3-0.6
	l1.5-3.4C17.5,6.8,17.3,6.1,16.8,5.8C16.8,5.9,16.8,5.9,16.8,5.8z M16.5,7L15,10.4l-1.1-0.5l1.7-3.2c0.1-0.2,0.2-0.3,0.4-0.3
	c0.2,0,0.3,0.1,0.5,0.2C16.8,6.6,16.5,7,16.5,7z"/>
<path class="st2" d="M21.3,16.6c-1.9,4.1-6.4,6.5-10.9,5.9c-0.2,0-0.3-0.2-0.3-0.4c0-0.2,0.2-0.3,0.4-0.3c5.3,0.8,10.2-2.9,11-8.2
	c0.8-5.3-2.9-10.2-8.2-11s-10.2,2.9-11,8.2c0,0,0,0,0,0c-0.1,1-0.1,1.9,0,2.9C2.3,13.8,2.2,14,2,14c-0.2,0-0.3-0.1-0.4-0.3l0,0
	c-0.2-1-0.2-2,0-3.1C2.5,5.1,7.8,1.2,13.4,2c5.7,0.8,9.6,6.1,8.7,11.7c0,0,0,0,0,0C22,14.7,21.7,15.7,21.3,16.6z"/>
</svg>
