<?xml version="1.0" encoding="utf-8"?>
<!-- Generator: Adobe Illustrator 24.0.0, SVG Export Plug-In . SVG Version: 6.00 Build 0)  -->
<svg version='1.1' id='Layer_1' xmlns='http://www.w3.org/2000/svg' x='0px' y='0px'
     viewBox='0 0 24 24' style='enable-background:new 0 0 24 24;' xml:space='preserve'>
<style type="text/css">
	.st0{fill:none;}
</style>
<title>constraints-icon</title>
<path class="st0" d="M0,0h24v24H0V0z"/>
<path d="M17.7,6.3c1.2,1.2,1.2,3.2,0,4.4l-2.8,2.8l1.3,1.4l2.8-2.8c1.9-2,1.9-5.2-0.1-7.1c-1.9-1.9-5-1.9-6.9,0L9.2,7.8l1.4,1.3
	l2.8-2.8C14.6,5.1,16.5,5.1,17.7,6.3z"/>
<rect x="8" y="11" transform="matrix(0.7071 -0.7071 0.7071 0.7071 -4.9704 12.0004)" width="8" height="2"/>
<rect x="2.7" y="17.5" transform="matrix(0.7071 -0.7071 0.7071 0.7071 -11.4533 9.3175)" width="5.7" height="2"/>
<rect x="15.7" y="4.3" transform="matrix(0.7071 -0.7071 0.7071 0.7071 1.7016 14.7624)" width="6" height="2"/>
<path d="M12,19.1l2.8-2.8l-1.4-1.3l-2.8,2.8c-1.2,1.2-3.2,1.2-4.4,0s-1.2-3.2,0-4.4l2.8-2.8L7.8,9.2L4.9,12c-1.9,2-1.9,5.2,0.1,7.1
	C7,20.9,10.1,20.9,12,19.1z"/>
</svg>
