<svg id="Layer_1" data-name="Layer 1" xmlns="http://www.w3.org/2000/svg" viewBox="0 0 24 24"><defs><style>.cls-1{fill:none;}</style></defs><path class="cls-1" d="M0,0H24V24H0Z"/><path d="M14,10.52l-1.39,1.39.69.7,1.4-1.39a1.47,1.47,0,0,1,2.08,2.08l-1.39,1.4.7.69L17.48,14A2.46,2.46,0,0,0,14,10.52Zm.7,4.87-1.4,1.39a1.47,1.47,0,0,1-2.08-2.08h0l1.39-1.4-.7-.69L10.52,14A2.46,2.46,0,0,0,14,17.48h0l1.39-1.39ZM12.26,15,15,12.26l.7.7L13,15.74Z"/><path d="M16.5,1H4.5a2,2,0,0,0-2,2V17h2V3h12Zm3,4H8.5a2,2,0,0,0-2,2V21a2,2,0,0,0,2,2h11a2,2,0,0,0,2-2V7A2,2,0,0,0,19.5,5Zm0,16H8.5V7h11Z"/></svg>