<svg id="Layer_1" data-name="Layer 1" xmlns="http://www.w3.org/2000/svg" viewBox="0 0 1400 3600"><defs><style>.cls-1{fill:none;}</style></defs><g id="Header"><rect class="cls-1" width="1400" height="3600"/></g><path d="M14,10.52l-1.39,1.39.69.7,1.4-1.39a1.47,1.47,0,0,1,2.08,2.08l-1.39,1.4.7.69L17.48,14A2.46,2.46,0,0,0,14,10.52Zm.7,4.87-1.4,1.39a1.47,1.47,0,0,1-2.08-2.08l1.39-1.4-.7-.69L10.52,14A2.46,2.46,0,0,0,14,17.48l1.39-1.39ZM12.26,15,15,12.26l.7.7L13,15.74Z" transform="translate(618 2616)"/><path d="M16.5,1H4.5a2,2,0,0,0-2,2V17h2V3h12Zm3,4H8.5a2,2,0,0,0-2,2V21a2,2,0,0,0,2,2h11a2,2,0,0,0,2-2V7A2,2,0,0,0,19.5,5Zm0,16H8.5V7h11Z" transform="translate(618 2616)"/></svg>