<?xml version="1.0" encoding="utf-8"?>
<!-- Generator: Adobe Illustrator 24.0.0, SVG Export Plug-In . SVG Version: 6.00 Build 0)  -->
<svg version="1.1" id="Layer_1" xmlns="http://www.w3.org/2000/svg" x="0px" y="0px"
		 viewBox="0 0 24 24" style="enable-background:new 0 0 24 24;" xml:space="preserve">
<style type="text/css">
	.st0 {
		fill: none;
	}

	.st1 {
		fill-rule: evenodd;
		clip-rule: evenodd;
		fill: currentColor;
	}

	.st2 {
		fill: currentColor;
	}
</style>
	<title>generate-qr-icon</title>
	<path class="st0" d="M0,0h24v24H0V0z"/>
	<path class="st1" d="M10.1,10.2H7.8V7.9h2.3V10.2z M6.8,6.9v4.3h4.3V6.9H6.8z"/>
	<path class="st1" d="M10.1,15.9H7.8v-2.3h2.3V15.9z M6.8,12.6v4.3h4.3v-4.3H6.8z"/>
	<path class="st1" d="M16.1,10.2h-2.3V7.9h2.3V10.2z M12.8,6.9v4.3h4.3V6.9H12.8z"/>
<rect x="13.9" y="12.8" class="st2" width="1.9" height="0.8"/>
<rect x="14.4" y="13.9" class="st2" width="0.8" height="0.3"/>
<rect x="12.8" y="13.9" class="st2" width="0.8" height="1.9"/>
<polygon class="st1" points="16.1,15 16.1,15.9 15.2,15.9 15.2,16.9 16.1,16.9 17.1,16.9 17.1,15 "/>
<path class="st2" d="M13.1,21.9H13l-2.7-1.6c-0.1,0-0.1-0.1-0.1-0.2c0-0.1,0-0.1,0.1-0.2l2.7-1.6c0.1,0,0.1,0,0.2,0
	c0.1,0,0.1,0.1,0.1,0.2v1V20l0.4-0.1c4.4-0.9,7.1-5.2,6.2-9.6c-0.3-1.5-1.1-2.9-2.2-4c-0.1-0.1-0.1-0.4,0-0.5
	c0.1-0.1,0.2-0.1,0.3-0.1c0.1,0,0.2,0,0.3,0.1c3.4,3.4,3.5,9,0,12.5c-1.3,1.3-2.9,2.1-4.7,2.5h-0.2v1c0,0.1,0,0.1-0.1,0.2L13.1,21.9
	z"/>
<path class="st2" d="M6,18.3c-0.1,0-0.2,0-0.3-0.1c-3.4-3.4-3.4-9,0-12.5C7,4.5,8.7,3.6,10.4,3.3h0.2v-1c0-0.1,0-0.1,0.1-0.2
	c0,0,0.1,0,0.1,0H11l2.7,1.5c0.1,0,0.1,0.1,0.1,0.2c0,0.1,0,0.1-0.1,0.2L11,5.6c0,0-0.1,0-0.1,0c0,0-0.1,0-0.1,0
	c-0.1,0-0.1-0.1-0.1-0.2v-1V4l-0.4,0.1C6,5,3.2,9.3,4.1,13.6c0.3,1.5,1.1,2.9,2.2,4c0.1,0.1,0.1,0.4,0,0.5C6.2,18.3,6.1,18.4,6,18.3
	z"/>
</svg>
