<svg id="Layer_1" data-name="Layer 1" xmlns="http://www.w3.org/2000/svg" viewBox="0 0 93.59 128"><defs><style>.cls-1{fill:#9b6ef7;}</style></defs><path class="cls-1" d="M97.35,48.34V33a33,33,0,0,0-33-33h0a33,33,0,0,0-33,33v5.93l10.2-6.54A22.77,22.77,0,0,1,87.16,33v7.56a46.76,46.76,0,0,0-23-6.11H64A46.72,46.72,0,1,0,97.35,48.34ZM61.9,104.27a15.14,15.14,0,0,1-8.72,2.85c-5.4,0-10.36-2.93-14.12-8.34a33.24,33.24,0,0,1-5.4-17.35.56.56,0,0,1,.37-.52l3.68-1.66a.58.58,0,0,1,.75.23v.07c0,.08.08.15.08.23A29,29,0,0,0,43.12,96c2.78,4.06,6.38,6.24,10.14,6.24A10.18,10.18,0,0,0,59,100.51a.58.58,0,0,1,.75.15c.75,1,1.5,1.88,2.33,2.78A.85.85,0,0,1,61.9,104.27ZM89,98.78c-3.68,5.33-8.71,8.34-14.12,8.34s-10.36-3-14.12-8.34a33.68,33.68,0,0,1-5.48-19c0-6.61,3.83-11.79,8.63-11.79s8.64,5.18,8.64,11.79a34.06,34.06,0,0,1-4,16.52.46.46,0,0,1-.67.23h-.08c-.07,0-.07-.08-.15-.15-.45-.53-.9-1-1.28-1.58s-.82-1.35-1.2-2a.67.67,0,0,1,0-.52A31.45,31.45,0,0,0,67.76,79.7c0-3.23-1.66-6.91-3.84-6.91s-3.83,3.68-3.83,6.91a29,29,0,0,0,4.59,16.23c2.77,4,6.38,6.23,10.14,6.23S82.18,99.91,85,95.93A29.11,29.11,0,0,0,89.54,79.7,29.1,29.1,0,0,0,85,63.48a16.2,16.2,0,0,0-3-3.38.69.69,0,0,1-.07-.83c.07-.07.15-.15.22-.15l3.68-1.65a.48.48,0,0,1,.6.15,25.35,25.35,0,0,1,2.56,3.08,33.68,33.68,0,0,1,5.48,19C94.42,86.84,92.54,93.67,89,98.78Z" transform="translate(-17.21)"/></svg>