<?xml version="1.0" encoding="utf-8"?>
<!-- Generator: Adobe Illustrator 24.2.0, SVG Export Plug-In . SVG Version: 6.00 Build 0)  -->
<svg version="1.1" id="Layer_1" xmlns="http://www.w3.org/2000/svg" xmlns:xlink="http://www.w3.org/1999/xlink" x="0px" y="0px"
	 viewBox="0 0 64 64" style="enable-background:new 0 0 64 64;" xml:space="preserve">
<style type="text/css">
	.st0{fill:#A566FF;}
</style>
<g>
	<path class="st0" d="M50.6,6.2L28.8,19.2c-1,0.6-1.6,1.6-1.6,2.7v17.4c0,0.9,0.5,1.7,1.2,2.2l22.9,14c1.8,1.1,4.1-0.2,4.1-2.3
		L55.4,42c0-2.5-1.3-4.7-3.4-6L31.2,23.6c-0.7-0.4-0.7-1.4,0-1.8l20.2-12c0.6-0.4,1.5,0.1,1.5,0.8v1.7c0,0.8-0.4,1.5-1.1,1.8
		l-15.4,8.8l10.5,6.4l7.2-4.3c0.7-0.4,1.1-1.2,1.1-2l0-14.2C55.3,6.4,52.7,4.9,50.6,6.2z"/>
	<path class="st0" d="M22.7,43.4V0h-7.1v0h-5.5v6.4h5.5v3.9h-5.5v6.4h5.5v26.7c-4.1,1.5-7.1,5.4-7.1,10c0,5.9,4.8,10.6,10.6,10.6
		s10.6-4.8,10.6-10.6C29.8,48.8,26.8,44.8,22.7,43.4z M19.2,57.6c-2.3,0-4.2-1.9-4.2-4.2c0-2.3,1.9-4.2,4.2-4.2s4.2,1.9,4.2,4.2
		C23.4,55.7,21.5,57.6,19.2,57.6z"/>
</g>
</svg>
