<svg id="Layer_1" data-name="Layer 1" xmlns="http://www.w3.org/2000/svg" viewBox="0 0 24 24"><defs><style>.cls-1{fill:none;}</style></defs><title>logout-icon</title><path class="cls-1" d="M0,0H24V24H0Z" transform="translate(0 0)"/><path d="M8.41,17a.71.71,0,0,1-.47-.18L3,12.24a.7.7,0,0,1-.22-.51A.73.73,0,0,1,3,11.21l5-4.58a.7.7,0,0,1,.94,1L4.45,11.73,8.88,15.8a.69.69,0,0,1,0,1A.67.67,0,0,1,8.41,17Z" transform="translate(0 0)"/><path d="M20.58,20.25H16.27a.7.7,0,0,1-.7-.7V4.45a.7.7,0,0,1,.7-.7h4.31a.69.69,0,0,1,.69.7v15.1A.69.69,0,0,1,20.58,20.25ZM17,18.86h2.92V5.14H17Z" transform="translate(0 0)"/><path d="M12.5,12.42H3.87a.7.7,0,0,1,0-1.39H12.5a.7.7,0,0,1,0,1.39Z" transform="translate(0 0)"/></svg>