<svg id="Layer_1" data-name="Layer 1" xmlns="http://www.w3.org/2000/svg" viewBox="0 0 33.87 31.35"><path d="M33.39,1,20.25,10.67l2.44-5.73Z" transform="translate(-1.3 -0.83)" fill="#e17726" stroke="#e17726" stroke-linecap="round" stroke-linejoin="round" stroke-width="0.25"/><path d="M3.09,1l13,9.81L13.78,4.94Z" transform="translate(-1.3 -0.83)" fill="#e27625" stroke="#e27625" stroke-linecap="round" stroke-linejoin="round" stroke-width="0.25"/><path d="M28.66,23.48l-3.5,5.34,7.49,2.06,2.14-7.28Z" transform="translate(-1.3 -0.83)" fill="#e27625" stroke="#e27625" stroke-linecap="round" stroke-linejoin="round" stroke-width="0.25"/><path d="M1.7,23.6l2.13,7.28,7.47-2.06L7.82,23.48Z" transform="translate(-1.3 -0.83)" fill="#e27625" stroke="#e27625" stroke-linecap="round" stroke-linejoin="round" stroke-width="0.25"/><path d="M10.9,14.47,8.82,17.6l7.4.34L16,10Z" transform="translate(-1.3 -0.83)" fill="#e27625" stroke="#e27625" stroke-linecap="round" stroke-linejoin="round" stroke-width="0.25"/><path d="M25.58,14.47,20.42,9.88l-.17,8.06,7.41-.34Z" transform="translate(-1.3 -0.83)" fill="#e27625" stroke="#e27625" stroke-linecap="round" stroke-linejoin="round" stroke-width="0.25"/><path d="M11.3,28.82l4.48-2.16-3.85-3Z" transform="translate(-1.3 -0.83)" fill="#e27625" stroke="#e27625" stroke-linecap="round" stroke-linejoin="round" stroke-width="0.25"/><path d="M20.69,26.66l4.47,2.16-.61-5.17Z" transform="translate(-1.3 -0.83)" fill="#e27625" stroke="#e27625" stroke-linecap="round" stroke-linejoin="round" stroke-width="0.25"/><path d="M25.16,28.82l-4.47-2.16.37,2.9,0,1.23Z" transform="translate(-1.3 -0.83)" fill="#d5bfb2" stroke="#d5bfb2" stroke-linecap="round" stroke-linejoin="round" stroke-width="0.25"/><path d="M11.3,28.82l4.16,2,0-1.23.35-2.9Z" transform="translate(-1.3 -0.83)" fill="#d5bfb2" stroke="#d5bfb2" stroke-linecap="round" stroke-linejoin="round" stroke-width="0.25"/><path d="M15.54,21.73l-3.72-1.08,2.63-1.21Z" transform="translate(-1.3 -0.83)" fill="#233447" stroke="#233447" stroke-linecap="round" stroke-linejoin="round" stroke-width="0.25"/><path d="M20.94,21.73,22,19.44l2.64,1.21Z" transform="translate(-1.3 -0.83)" fill="#233447" stroke="#233447" stroke-linecap="round" stroke-linejoin="round" stroke-width="0.25"/><path d="M11.3,28.82,12,23.48l-4.13.12Z" transform="translate(-1.3 -0.83)" fill="#cc6228" stroke="#cc6228" stroke-linecap="round" stroke-linejoin="round" stroke-width="0.25"/><path d="M24.53,23.48l.63,5.34,3.5-5.22Z" transform="translate(-1.3 -0.83)" fill="#cc6228" stroke="#cc6228" stroke-linecap="round" stroke-linejoin="round" stroke-width="0.25"/><path d="M27.66,17.6l-7.41.34.69,3.79L22,19.44l2.64,1.21Z" transform="translate(-1.3 -0.83)" fill="#cc6228" stroke="#cc6228" stroke-linecap="round" stroke-linejoin="round" stroke-width="0.25"/><path d="M11.82,20.65l2.63-1.21,1.09,2.29.68-3.79-7.4-.34Z" transform="translate(-1.3 -0.83)" fill="#cc6228" stroke="#cc6228" stroke-linecap="round" stroke-linejoin="round" stroke-width="0.25"/><path d="M8.82,17.6l3.11,6-.11-3Z" transform="translate(-1.3 -0.83)" fill="#e27525" stroke="#e27525" stroke-linecap="round" stroke-linejoin="round" stroke-width="0.25"/><path d="M24.67,20.65l-.12,3,3.11-6Z" transform="translate(-1.3 -0.83)" fill="#e27525" stroke="#e27525" stroke-linecap="round" stroke-linejoin="round" stroke-width="0.25"/><path d="M16.23,17.94l-.69,3.79.87,4.49.19-5.91Z" transform="translate(-1.3 -0.83)" fill="#e27525" stroke="#e27525" stroke-linecap="round" stroke-linejoin="round" stroke-width="0.25"/><path d="M20.25,17.94l-.36,2.36.18,5.92.87-4.49Z" transform="translate(-1.3 -0.83)" fill="#e27525" stroke="#e27525" stroke-linecap="round" stroke-linejoin="round" stroke-width="0.25"/><path d="M20.94,21.74l-.87,4.48.62.44,3.86-3,.12-3Z" transform="translate(-1.3 -0.83)" fill="#f5841f" stroke="#f5841f" stroke-linecap="round" stroke-linejoin="round" stroke-width="0.25"/><path d="M11.82,20.65l.1,3,3.86,3,.63-.44-.87-4.48Z" transform="translate(-1.3 -0.83)" fill="#f5841f" stroke="#f5841f" stroke-linecap="round" stroke-linejoin="round" stroke-width="0.25"/><path d="M21,30.79l0-1.23-.34-.28h-5l-.33.28,0,1.23-4.16-2L12.76,30l3,2h5.05l3-2,1.44-1.19Z" transform="translate(-1.3 -0.83)" fill="#c0ac9d" stroke="#c0ac9d" stroke-linecap="round" stroke-linejoin="round" stroke-width="0.25"/><path d="M20.69,26.66l-.62-.44H16.41l-.63.44-.35,2.9.33-.28h5l.34.28Z" transform="translate(-1.3 -0.83)" fill="#161616" stroke="#161616" stroke-linecap="round" stroke-linejoin="round" stroke-width="0.25"/><path d="M33.94,11.3l1.11-5.36L33.39,1l-12.7,9.4,4.89,4.12,6.9,2L34,14.7l-.67-.48,1.06-1-.81-.62,1.05-.8Z" transform="translate(-1.3 -0.83)" fill="#763e1a" stroke="#763e1a" stroke-linecap="round" stroke-linejoin="round" stroke-width="0.25"/><path d="M1.43,5.94,2.55,11.3l-.72.54,1.07.8-.81.62,1.05,1-.66.48L4,16.47l6.9-2,4.88-4.12L3.09,1Z" transform="translate(-1.3 -0.83)" fill="#763e1a" stroke="#763e1a" stroke-linecap="round" stroke-linejoin="round" stroke-width="0.25"/><path d="M32.48,16.47l-6.9-2,2.08,3.13-3.11,6,4.11,0h6.13Z" transform="translate(-1.3 -0.83)" fill="#f5841f" stroke="#f5841f" stroke-linecap="round" stroke-linejoin="round" stroke-width="0.25"/><path d="M10.9,14.47l-6.9,2L1.7,23.6H7.82l4.1,0-3.1-6Z" transform="translate(-1.3 -0.83)" fill="#f5841f" stroke="#f5841f" stroke-linecap="round" stroke-linejoin="round" stroke-width="0.25"/><path d="M20.25,17.94l.44-7.59,2-5.41H13.78l2,5.41.44,7.59.17,2.38,0,5.9h3.66v-5.9Z" transform="translate(-1.3 -0.83)" fill="#f5841f" stroke="#f5841f" stroke-linecap="round" stroke-linejoin="round" stroke-width="0.25"/></svg>