<svg id="Layer_1" data-name="Layer 1" xmlns="http://www.w3.org/2000/svg" viewBox="0 0 24 24"><defs><style>.cls-1,.cls-2{fill:none;}.cls-2{stroke:#000;stroke-linecap:round;stroke-miterlimit:10;stroke-width:1.5px;}</style></defs><title>offer-bundles-icon</title><path class="cls-1" d="M0,0H24V24H0Z"/><path d="M10.89,11,9.44,14.38l-5.72.08L5,12.1,10.89,11M12,10.13,4.6,11.49l-2,3.66L9.89,15,12,10.13Z"/><path d="M19.4,11.49,12,10.13h0L4.6,11.49l-2,3.66,1.7,0v4L12,20.51l7.73-1.41v-4l1.7,0Zm-15.68,3L5,12.1,10.89,11,9.44,14.38Zm1.22.66,5-.08,1.77-4.13v8.86L4.94,18.54Zm14.12,0v3.42l-6.72,1.23V10.91L14.11,15l4.95.08Zm-4.5-.74L13.11,11,19,12.1l1.32,2.36Z"/><path class="cls-2" d="M19.4,15.12"/><polygon points="7.74 9.96 7.74 6.96 6.67 6.96 8.74 2.96 8.74 5.96 9.81 5.96 7.74 9.96"/><rect x="12.99" y="5.8" width="3.42" height="0.62" transform="translate(-0.02 12.18) rotate(-45)"/><circle cx="13.92" cy="5.34" r="0.47"/><circle cx="15.48" cy="6.89" r="0.47"/><path d="M18.58,6.06l-.86-1,.12-1.3-1.28-.29L15.9,2.37l-1.2.52-1.2-.52-.67,1.12-1.27.29.12,1.29-.86,1,.86,1-.12,1.3,1.27.29.67,1.12,1.2-.52,1.2.52.66-1.13,1.28-.28L17.72,7ZM17,6.8l.09,1-1,.21-.5.85-.91-.39-.91.39L13.29,8l-1-.21.09-1-.65-.74.65-.75-.09-1,1-.21.5-.85.91.38.91-.39.5.85,1,.22-.09,1,.65.75Z"/></svg>