<svg id="Layer_1" data-name="Layer 1" xmlns="http://www.w3.org/2000/svg" viewBox="0 0 24 24"><defs><style>.cls-1{fill:none;}</style></defs><path class="cls-1" d="M0,0H24V24H0Z"/><path d="M17.39,4.69A3.43,3.43,0,1,0,20.8,8.13h0A3.45,3.45,0,0,0,17.39,4.69Zm0,5.14A1.71,1.71,0,1,1,19.1,8.12h0a1.72,1.72,0,0,1-1.71,1.71Z"/><path d="M3,19.31a4.86,4.86,0,0,1,5.07-4.64,5,5,0,0,1,2.2.64h2.79a6.7,6.7,0,0,0-11.88,4Z"/><path d="M7.87,4.69a4.07,4.07,0,1,0,4.07,4.07A4.07,4.07,0,0,0,7.87,4.69Zm0,6.55a2.48,2.48,0,1,1,2.46-2.49h0A2.48,2.48,0,0,1,7.87,11.24Z"/><path d="M17.64,11.07a6.66,6.66,0,0,0-5.2,2.49h2.74a4.82,4.82,0,0,1,2.46-.68,4.74,4.74,0,0,1,2.38.64h2.8A6.71,6.71,0,0,0,17.64,11.07Z"/></svg>