<svg id="Layer_1" data-name="Layer 1" xmlns="http://www.w3.org/2000/svg" viewBox="0 0 1400 3600"><defs><style>.cls-1{fill:none;}</style></defs><g id="Header"><rect class="cls-1" width="1400" height="3600"/></g><path d="M17.39,4.75a3.43,3.43,0,1,0,3.42,3.44h0A3.44,3.44,0,0,0,17.39,4.75Zm0,5.14A1.71,1.71,0,1,1,19.1,8.18h0a1.72,1.72,0,0,1-1.71,1.71Z" transform="translate(618 2616)"/><path d="M3,19.37a4.86,4.86,0,0,1,5.07-4.64,5,5,0,0,1,2.2.64h2.79a6.7,6.7,0,0,0-11.88,4Z" transform="translate(618 2616)"/><path d="M7.87,4.75a4.07,4.07,0,1,0,4.07,4.07A4.07,4.07,0,0,0,7.87,4.75Zm0,6.55a2.48,2.48,0,1,1,2.47-2.49h0A2.48,2.48,0,0,1,7.87,11.3Z" transform="translate(618 2616)"/><path d="M17.64,11.13a6.69,6.69,0,0,0-5.2,2.49h2.74a4.85,4.85,0,0,1,2.46-.68,4.78,4.78,0,0,1,2.39.64h2.8A6.73,6.73,0,0,0,17.64,11.13Z" transform="translate(618 2616)"/></svg>