<svg id="Layer_1" data-name="Layer 1" xmlns="http://www.w3.org/2000/svg" viewBox="0 0 24 24"><defs><style>.cls-1{fill:none;}.cls-2{fill-rule:evenodd;}</style></defs><title>qr-icon</title><path class="cls-1" d="M0,0H24V24H0Z"/><path class="cls-2" d="M9.18,9.18H4.59V4.59H9.18Zm-6.6-6.6v8.6h8.6V2.58Z"/><path class="cls-2" d="M9.18,19.41H4.59V14.82H9.18Zm-6.6-6.59v8.6h8.6v-8.6Z"/><path class="cls-2" d="M19.41,8.05H14.82V4.25h4.59ZM12.82,2.58V9.72h8.6V2.58Z"/><rect x="15.69" y="12.82" width="3.28" height="1.64"/><rect x="16.5" y="15.69" width="1.64" height="0.41"/><rect x="12.82" y="15.69" width="1.64" height="3.28"/><polygon class="cls-2" points="19.75 18.14 19.75 19.75 18.14 19.75 18.14 21.42 19.75 21.42 21.42 21.42 21.42 18.14 19.75 18.14"/></svg>