<svg data-name="Layer 1" xmlns="http://www.w3.org/2000/svg" viewBox="0 0 32 32"><path d="M31 11.41H1a.89.89 0 00-.88 1L2.57 29.2a.88.88 0 00.88.76h25.1a.88.88 0 00.88-.76l2.42-16.77a.89.89 0 00-.85-1.02zM26.65 1.19H5.35A5.36 5.36 0 000 6.54v3.56h32V6.54a5.36 5.36 0 00-5.35-5.35z" fill="#603d94"/><path d="M19.74 13.27V12a3.73 3.73 0 10-7.46 0v1.24a1.87 1.87 0 00-1.83 1.85V21a1.84 1.84 0 001.85 1.84h7.4A1.84 1.84 0 0021.55 21v-5.88a1.86 1.86 0 00-1.81-1.85zM15 17.11a1 1 0 01.86-.82 1 1 0 011.11 1 1 1 0 01-.47.84v1.3a.51.51 0 01-.51.51.51.51 0 01-.51-.51v-1.3a.94.94 0 01-.48-1.02zm1-7.27a2.2 2.2 0 012.19 2.08v1.35h-4.37v-1.35A2.2 2.2 0 0116 9.84z" fill="#b6b2e1"/></svg>