<svg id="Layer_1" data-name="Layer 1" xmlns="http://www.w3.org/2000/svg" viewBox="0 0 32 32"><path d="M31,11.41H1a.89.89,0,0,0-.88,1L2.57,29.2a.88.88,0,0,0,.88.76h25.1a.88.88,0,0,0,.88-.76l2.42-16.77A.89.89,0,0,0,31,11.41Z" style="fill:#603d94"/><path d="M26.65,1.19H5.35A5.36,5.36,0,0,0,0,6.54V10.1H32V6.54A5.36,5.36,0,0,0,26.65,1.19Z" style="fill:#603d94"/><path d="M19.74,13.27V12a3.73,3.73,0,1,0-7.46,0v1.24a1.87,1.87,0,0,0-1.83,1.85V21a1.84,1.84,0,0,0,1.85,1.84h7.4A1.84,1.84,0,0,0,21.55,21V15.12A1.86,1.86,0,0,0,19.74,13.27ZM15,17.11a1,1,0,0,1,.86-.82,1,1,0,0,1,1.11,1,1,1,0,0,1-.47.84v1.3a.51.51,0,0,1-.51.51.51.51,0,0,1-.51-.51v-1.3A.94.94,0,0,1,15,17.11Zm1-7.27a2.2,2.2,0,0,1,2.19,2.08v1.35H13.82V11.92A2.2,2.2,0,0,1,16,9.84Z" style="fill:#b6b2e1"/></svg>