<svg width="32" height="47" fill="none" xmlns="http://www.w3.org/2000/svg"><path d="M26.74 0H5.31C2.409 0 0 2.372 0 5.338V31.63c0 2.916 2.36 5.337 5.309 5.337h1.376c0 .198-.05.396-.05.593 0 5.19 4.228 9.44 9.39 9.44 5.16 0 9.388-4.25 9.388-9.44 0-.197 0-.395-.049-.593h1.327c2.9 0 5.309-2.372 5.309-5.337V5.338C32 2.372 29.64 0 26.74 0zM16.025 44.133c-3.638 0-6.587-2.965-6.587-6.622s2.95-6.623 6.587-6.623c3.637 0 6.586 2.966 6.586 6.623s-2.949 6.622-6.586 6.622zM29.198 31.58a2.472 2.472 0 01-2.458 2.471h-1.966c-1.376-3.459-4.768-5.98-8.75-5.98-3.981 0-7.373 2.521-8.749 6.03H5.309c-1.377 0-2.507-1.137-2.507-2.471V5.338c0-1.384 1.13-2.472 2.507-2.472H26.69c1.377 0 2.458 1.137 2.458 2.472V31.58h.05z" fill="#A566FF"/><path d="M23.496 7.462H8.553a1.43 1.43 0 00-1.426 1.434c0 .79.64 1.433 1.426 1.433h14.943a1.43 1.43 0 001.426-1.433 1.43 1.43 0 00-1.426-1.434zM23.496 14.727H8.553a1.43 1.43 0 00-1.426 1.434c0 .79.64 1.433 1.426 1.433h14.943a1.43 1.43 0 001.426-1.433c-.05-.791-.64-1.434-1.426-1.434zM23.496 21.993H8.553a1.43 1.43 0 00-1.426 1.433c0 .79.64 1.433 1.426 1.433h14.943a1.43 1.43 0 001.426-1.433c-.05-.79-.64-1.433-1.426-1.433zM17.548 34.94l-2.556 2.57-.786-.79a1.39 1.39 0 00-1.966 0 1.407 1.407 0 000 1.977l1.77 1.78c.245.246.638.395.982.395.393 0 .737-.149.983-.396l3.54-3.558c.54-.544.54-1.433 0-1.977-.492-.544-1.377-.544-1.967 0z" fill="#A566FF"/></svg>