<svg id="Layer_1" data-name="Layer 1" xmlns="http://www.w3.org/2000/svg" viewBox="0 0 1400 3600"><defs><style>.cls-1{fill:none;}</style></defs><g id="Header"><rect class="cls-1" width="1400" height="3600"/></g><polygon points="633.39 2630.95 633.39 2629.2 630.9 2631.7 633.39 2634.2 633.39 2632.45 638.9 2632.45 638.9 2630.95 633.39 2630.95"/><polygon points="636.41 2635.2 630.9 2635.2 630.9 2636.7 636.41 2636.7 636.41 2638.45 638.9 2635.95 636.41 2633.45 636.41 2635.2"/><path d="M10.55,14.89,9.3,13.63l4.32-4.31a4.14,4.14,0,1,0-1.68-1.68l-8.5,8.51a1.18,1.18,0,0,0,0,1.67,1.2,1.2,0,0,0,1.68,0l1.25,1.25a.6.6,0,0,0,.84,0L8,18.24a.58.58,0,0,0,0-.84L6.79,16.15l.84-.84,1.25,1.25a.6.6,0,0,0,.84,0l.83-.83A.6.6,0,0,0,10.55,14.89ZM14.32,4.43a1.77,1.77,0,1,1,0,2.51A1.78,1.78,0,0,1,14.32,4.43Z" transform="translate(618 2616)"/></svg>