<svg id="Layer_1" data-name="Layer 1" xmlns="http://www.w3.org/2000/svg" viewBox="0 0 24 24"><defs><style>.cls-1{fill:none;}</style></defs><path class="cls-1" d="M0,0H24V24H0Z"/><polygon points="15.39 14.96 15.39 13.21 12.9 15.71 15.39 18.21 15.39 16.46 20.9 16.46 20.9 14.96 15.39 14.96"/><polygon points="18.41 19.21 12.9 19.21 12.9 20.71 18.41 20.71 18.41 22.46 20.9 19.96 18.41 17.46 18.41 19.21"/><path d="M10.55,14.9,9.3,13.64l4.32-4.31a4.14,4.14,0,1,0-1.68-1.68l-8.5,8.51a1.18,1.18,0,0,0,0,1.67h0a1.21,1.21,0,0,0,1.68,0l1.25,1.25a.6.6,0,0,0,.84,0L8,18.25a.57.57,0,0,0,0-.82l0,0L6.79,16.16l.84-.84,1.25,1.25a.6.6,0,0,0,.84,0l.83-.83A.6.6,0,0,0,10.55,14.9ZM14.32,4.44a1.77,1.77,0,1,1,0,2.51A1.78,1.78,0,0,1,14.32,4.44Z"/></svg>