<svg id="Layer_1" data-name="Layer 1" xmlns="http://www.w3.org/2000/svg" viewBox="0 0 24 24"><defs><style>.cls-1{fill:none;}</style></defs><path class="cls-1" d="M0,0H24V24H0Z"/><path d="M9.5,7.75a3,3,0,1,0,3,3A3,3,0,0,0,9.5,7.75Zm0,4a1,1,0,1,1,1-1A1,1,0,0,1,9.5,11.75Z"/><path d="M16.5,11v9.72H2.5v-14h9.82v-2h0a3,3,0,0,0-5.64,0H2.5a2,2,0,0,0-2,2v14a2,2,0,0,0,2,2h14a2,2,0,0,0,2-2V11ZM9,4.75a.74.74,0,1,1-.2.5A.75.75,0,0,1,9,4.75Z"/><path d="M3.5,18.22v1.53h12V18.22c0-2.5-4-3.58-6-3.58S3.5,15.71,3.5,18.22Zm2.31-.47A7,7,0,0,1,9.5,16.63a7,7,0,0,1,3.69,1.12Z"/><path d="M20.93,7.27a3.86,3.86,0,0,0,.57-2,4,4,0,1,0-4,4,4,4,0,0,0,2-.57l2.57,2.57L23.5,9.84C22,8.34,22.71,9,20.93,7.27Zm-3.43,0a2,2,0,1,1,2-2A2,2,0,0,1,17.5,7.25Z"/></svg>