<svg id="Layer_1" data-name="Layer 1" xmlns="http://www.w3.org/2000/svg" viewBox="0 0 24 24"><defs><style>.cls-1{fill:none;}</style></defs><path class="cls-1" d="M0,0H24V24H0Z"/><path d="M21.24,7.33a3.86,3.86,0,0,0,.57-2,4,4,0,1,0-4,4,4,4,0,0,0,2-.57l2.57,2.57L23.81,9.9C22.31,8.4,23,9.1,21.24,7.33Zm-3.43,0a2,2,0,1,1,2-2A2,2,0,0,1,17.81,7.31Z"/><path d="M4,17.69a2,2,0,1,0-2-2A2,2,0,0,0,4,17.69Zm1.13,1.1A7,7,0,0,0,4,18.69a7,7,0,0,0-2.78.58A2,2,0,0,0,0,21.12v1.57H4.5V21.08A4.5,4.5,0,0,1,5.13,18.79ZM20,17.69a2,2,0,1,0-2-2A2,2,0,0,0,20,17.69Zm4,3.43a2,2,0,0,0-1.22-1.85,6.8,6.8,0,0,0-3.91-.48,4.5,4.5,0,0,1,.63,2.29v1.61H24Zm-7.76-2.78a10.44,10.44,0,0,0-4.24-.9,10.61,10.61,0,0,0-4.24.9A3,3,0,0,0,6,21.08v1.61H18V21.08A3,3,0,0,0,16.24,18.34ZM8.07,20.69c.09-.23.13-.39.91-.69a8.42,8.42,0,0,1,6,0c.77.3.81.46.91.69Zm3.93-8a1,1,0,1,1-1,1,1,1,0,0,1,1-1m0-2a3,3,0,1,0,3,3,3,3,0,0,0-3-3Z"/></svg>