<svg id="Layer_1" data-name="Layer 1" xmlns="http://www.w3.org/2000/svg" viewBox="0 0 24 24"><defs><style>.cls-1{fill:none;}</style></defs><path class="cls-1" d="M0,0H24V24H0Z"/><path d="M17.63,11.46h-.51v8.92H2.23V9.21H13.09V5.48H2.23A1.87,1.87,0,0,0,.36,7.35v13a1.87,1.87,0,0,0,1.87,1.86H17.12A1.87,1.87,0,0,0,19,20.38V11.47ZM8.74,6.41a.93.93,0,1,1-.92.93A.93.93,0,0,1,8.74,6.41Zm-2.67,0a.93.93,0,1,1-.93.93A.93.93,0,0,1,6.07,6.41Zm-2.68,0a.93.93,0,1,1-.93.93A.93.93,0,0,1,3.39,6.41Z"/><path d="M21.24,7.36a3.55,3.55,0,0,0,.53-1.88,3.77,3.77,0,1,0-1.84,3.2l2.39,2.39,1.32-1.31Zm-3.19,0a1.86,1.86,0,1,1,1.86-1.86A1.86,1.86,0,0,1,18.05,7.34Z"/></svg>