<svg id="Layer_1" data-name="Layer 1" xmlns="http://www.w3.org/2000/svg" viewBox="0 0 1400 3600"><defs><style>.cls-1{fill:none;}</style></defs><g id="Header"><rect class="cls-1" width="1400" height="3600"/></g><path d="M20,11.42h-.54V21h-16V9H15.11V5H3.44a2,2,0,0,0-2,2V21a2,2,0,0,0,2,2h16a2,2,0,0,0,2-2V11.43ZM10.44,6a1,1,0,1,1-1,1A1,1,0,0,1,10.44,6ZM7.57,6a1,1,0,1,1-1,1A1,1,0,0,1,7.57,6ZM4.69,6a1,1,0,1,1-1,1A1,1,0,0,1,4.69,6Z" transform="translate(618 2616)"/><path d="M23.87,7a3.86,3.86,0,0,0,.57-2,4,4,0,1,0-4,4,4,4,0,0,0,2-.57L25,11l1.41-1.41ZM20.44,7a2,2,0,1,1,2-2A2,2,0,0,1,20.44,7Z" transform="translate(618 2616)"/></svg>