<?xml version="1.0" encoding="UTF-8"?>
<svg width="54px" height="33px" viewBox="0 0 54 33" version="1.1" xmlns="http://www.w3.org/2000/svg" xmlns:xlink="http://www.w3.org/1999/xlink">
    <title>download</title>
    <g id="Pending-for-Review" stroke="none" stroke-width="1" fill="none" fill-rule="evenodd">
        <g id="Connect" transform="translate(-277.000000, -131.000000)" fill="#3B99FC" fill-rule="nonzero">
            <g id="download" transform="translate(277.000000, 131.000000)">
                <path d="M11.0549203,6.44762374 C19.8611594,-2.14920791 34.1388941,-2.14920791 42.9451328,6.44762374 L44.0049779,7.48226618 C44.4452899,7.91210773 44.4452899,8.60901866 44.0049779,9.0388604 L40.3794594,12.5781661 C40.1593033,12.7930871 39.80236,12.7930871 39.5822039,12.5781661 L38.1237313,11.154375 C31.9802789,5.15701042 22.0197744,5.15701042 15.8763218,11.154375 L14.3144182,12.6791378 C14.094262,12.8940586 13.7373186,12.8940586 13.5171628,12.6791378 L9.89164425,9.13983209 C9.4513323,8.70999035 9.4513323,8.01307943 9.89164425,7.58323787 L11.0549203,6.44762374 Z M50.4430476,13.7672822 L53.669766,16.9172821 C54.1100758,17.3471216 54.1100783,18.0440284 53.6697716,18.4738708 L39.120275,32.677611 C38.6799662,33.1074557 37.9660795,33.1074606 37.5257645,32.6776221 C37.5257627,32.6776203 37.5257605,32.6776182 37.5257587,32.6776164 L27.1994112,22.5968085 C27.0893333,22.4893481 26.9108615,22.4893481 26.8007836,22.5968085 C26.8007829,22.5968092 26.8007823,22.59681 26.8007816,22.5968105 L16.4746541,32.677611 C16.0343465,33.1074568 15.3204597,33.107464 14.8801433,32.6776266 C14.8801407,32.6776241 14.880138,32.6776216 14.8801352,32.6776187 L0.330233832,18.4736899 C-0.110077944,18.0438484 -0.110077944,17.3469374 0.330233832,16.9170958 L3.55695815,13.7671012 C3.99726993,13.3372597 4.71115676,13.3372597 5.15146873,13.7671012 L15.4779665,23.84805 C15.5880446,23.9555104 15.766516,23.9555104 15.8765941,23.84805 C15.8765957,23.8480484 15.8765972,23.8480469 15.8765989,23.8480457 L26.2025791,13.7671012 C26.6428809,13.3372498 27.3567678,13.3372336 27.7970898,13.7670653 C27.7970959,13.7670713 27.7971021,13.7670774 27.797108,13.7670834 L38.1235922,23.8480457 C38.2336701,23.9555059 38.4121419,23.9555059 38.5222198,23.8480457 L48.8485371,13.7672822 C49.288849,13.3374404 50.0027357,13.3374404 50.4430476,13.7672822 Z" id="WalletConnect"></path>
            </g>
        </g>
    </g>
</svg>