<?xml version="1.0" encoding="iso-8859-1"?>
<!-- Generator: Adobe Illustrator 19.0.0, SVG Export Plug-In . SVG Version: 6.00 Build 0)  -->
<svg version="1.1" id="Layer_1" xmlns="http://www.w3.org/2000/svg" xmlns:xlink="http://www.w3.org/1999/xlink" x="0px" y="0px"
	 viewBox="0 0 508 508" style="enable-background:new 0 0 508 508;" xml:space="preserve">
<circle style="fill:#84DBFF;" cx="254" cy="254" r="254"/>
<path style="fill:#FFFFFF;" d="M372.4,426.8H135.6c-10,0-18-8-18-18V99.2c0-10,8-18,18-18h236.8c10,0,18,8,18,18v309.6
	C390.4,418.8,382.4,426.8,372.4,426.8z"/>
<path style="fill:#E6E9EE;" d="M390.4,331.6v77.2c0,10-8,18-18,18H135.6c-10,0-18-8-18-18v-252c24.8,31.6,55.6,63.6,94.4,92
	c3.6,2.8,7.6,5.6,11.2,8c4.8,3.6,10,6.8,15.2,10c5.6,3.6,11.6,7.2,17.6,10.8C294.8,300,339.2,318.8,390.4,331.6z"/>
<polygon style="fill:#FF7058;" points="301.6,224.4 244,234 290,177.2 242,178.4 207.6,259.2 246,253.6 217.2,306.4 206.4,296 
	210.8,330.8 240.8,312.8 228.4,311.2 "/>
<g>
	<path style="fill:#F1543F;" d="M223.6,257.2l-15.6,2.4l4.4-10.4C216,251.6,219.6,254.4,223.6,257.2z"/>
	<path style="fill:#F1543F;" d="M228.4,311.2l12.4,1.6l-30.4,18l-4-35.2l10.4,10.4l21.6-39.2c5.6,3.6,11.6,7.2,17.6,10.8
		L228.4,311.2z"/>
</g>
<g>
	<circle style="fill:#E6E9EE;" cx="356.8" cy="114.8" r="13.6"/>
	<path style="fill:#E6E9EE;" d="M368.4,107.6l-18.8,18.8c-0.8-0.4-1.6-1.2-2.4-2s-1.2-1.6-2-2.4l18.8-18.8c0.8,0.4,1.6,1.2,2.4,2
		C367.2,106,368,106.8,368.4,107.6z"/>
</g>
<path style="fill:#CED5E0;" d="M368.4,107.6l-18.8,18.8c-0.8-0.4-1.6-1.2-2.4-2s-1.2-1.6-2-2.4l18.8-18.8c0.8,0.4,1.6,1.2,2.4,2
	C367.2,106,368,106.8,368.4,107.6z"/>
<g>
	<circle style="fill:#E6E9EE;" cx="151.2" cy="114.8" r="13.6"/>
	<path style="fill:#E6E9EE;" d="M162.4,107.6l-18.8,18.8c-0.8-0.4-1.6-1.2-2.4-2c-0.8-0.8-1.2-1.6-2-2.4l18.8-18.8
		c0.8,0.4,1.6,1.2,2.4,2C161.6,106,162,106.8,162.4,107.6z"/>
</g>
<g>
	<path style="fill:#CED5E0;" d="M162.4,107.6l-18.8,18.8c-0.8-0.4-1.6-1.2-2.4-2c-0.8-0.8-1.2-1.6-2-2.4l18.8-18.8
		c0.8,0.4,1.6,1.2,2.4,2C161.6,106,162,106.8,162.4,107.6z"/>
	<circle style="fill:#CED5E0;" cx="356.8" cy="396.8" r="13.6"/>
</g>
<path style="fill:#E6E9EE;" d="M368.4,389.2L349.6,408c-0.8-0.4-1.6-1.2-2.4-2s-1.2-1.6-2-2.4l18.8-18.8c0.8,0.4,1.6,1.2,2.4,2
	C367.2,387.6,368,388.4,368.4,389.2z"/>
<path style="fill:#ACB3BA;" d="M368.4,389.2L349.6,408c-0.8-0.4-1.6-1.2-2.4-2s-1.2-1.6-2-2.4l18.8-18.8c0.8,0.4,1.6,1.2,2.4,2
	C367.2,387.6,368,388.4,368.4,389.2z"/>
<circle style="fill:#CED5E0;" cx="151.2" cy="396.8" r="13.6"/>
<path style="fill:#E6E9EE;" d="M162.4,389.2L143.6,408c-0.8-0.4-1.6-1.2-2.4-2c-0.8-0.8-1.2-1.6-2-2.4l18.8-18.8
	c0.8,0.4,1.6,1.2,2.4,2C161.6,387.6,162,388.4,162.4,389.2z"/>
<path style="fill:#ACB3BA;" d="M162.4,389.2L143.6,408c-0.8-0.4-1.6-1.2-2.4-2c-0.8-0.8-1.2-1.6-2-2.4l18.8-18.8
	c0.8,0.4,1.6,1.2,2.4,2C161.6,387.6,162,388.4,162.4,389.2z"/>
<g>
</g>
<g>
</g>
<g>
</g>
<g>
</g>
<g>
</g>
<g>
</g>
<g>
</g>
<g>
</g>
<g>
</g>
<g>
</g>
<g>
</g>
<g>
</g>
<g>
</g>
<g>
</g>
<g>
</g>
</svg>
