<?xml version="1.0" encoding="iso-8859-1"?>
<!-- Generator: Adobe Illustrator 19.0.0, SVG Export Plug-In . SVG Version: 6.00 Build 0)  -->
<svg version="1.1" id="Layer_1" xmlns="http://www.w3.org/2000/svg" xmlns:xlink="http://www.w3.org/1999/xlink" x="0px" y="0px"
	 viewBox="0 0 508 508" style="enable-background:new 0 0 508 508;" xml:space="preserve">
<circle style="fill:#324A5E;" cx="254" cy="254" r="254"/>
<path style="fill:#E6E9EE;" d="M199.2,116.4h-32c-2.4,0-4-2-4-4V94c0-2.4,2-4,4-4h32c2.4,0,4,2,4,4v18
	C203.6,114.4,201.6,116.4,199.2,116.4z"/>
<path style="fill:#FFFFFF;" d="M123.2,109.2v302.4c0,3.6,2.8,6.4,6.4,6.4h108c3.6,0,6.4-2.8,6.4-6.4V109.2c0-3.6-2.8-6.4-6.4-6.4
	h-108C126,103.2,123.2,106,123.2,109.2z"/>
<rect x="137.6" y="307.2" style="fill:#FF7058;" width="91.2" height="94.8"/>
<path style="fill:#E6E9EE;" d="M340.4,116.4h-32c-2.4,0-4-2-4-4V94c0-2.4,2-4,4-4h32c2.4,0,4,2,4,4v18
	C344.8,114.4,342.8,116.4,340.4,116.4z"/>
<path style="fill:#FFFFFF;" d="M264,109.2v302.4c0,3.6,2.8,6.4,6.4,6.4h108c3.6,0,6.4-2.8,6.4-6.4V109.2c0-3.6-2.8-6.4-6.4-6.4h-108
	C267.2,103.2,264,106,264,109.2z"/>
<rect x="278.8" y="167.6" style="fill:#4CDBC4;" width="91.2" height="234.4"/>
<g>
</g>
<g>
</g>
<g>
</g>
<g>
</g>
<g>
</g>
<g>
</g>
<g>
</g>
<g>
</g>
<g>
</g>
<g>
</g>
<g>
</g>
<g>
</g>
<g>
</g>
<g>
</g>
<g>
</g>
</svg>
