<?xml version="1.0" encoding="iso-8859-1"?>
<!-- Generator: Adobe Illustrator 19.0.0, SVG Export Plug-In . SVG Version: 6.00 Build 0)  -->
<svg version="1.1" id="Layer_1" xmlns="http://www.w3.org/2000/svg" xmlns:xlink="http://www.w3.org/1999/xlink" x="0px" y="0px"
	 viewBox="0 0 508 508" style="enable-background:new 0 0 508 508;" xml:space="preserve">
<circle style="fill:#324A5E;" cx="254" cy="254" r="254"/>
<path style="fill:#2B3B4E;" d="M82.4,441.2C127.6,482.8,188,508,254,508s126.4-25.2,171.6-66.8H82.4z"/>
<rect x="142.4" y="201.6" style="fill:#84DBFF;" width="223.2" height="169.2"/>
<polygon style="fill:#54C0EB;" points="286.4,201.6 191.2,370.4 365.6,370.4 365.6,201.6 "/>
<g>
	<rect x="136" y="180.4" style="fill:#FFFFFF;" width="236.4" height="26.4"/>
	<rect x="136" y="238.4" style="fill:#FFFFFF;" width="236.4" height="10"/>
	<rect x="136" y="282.4" style="fill:#FFFFFF;" width="236.4" height="10"/>
	<rect x="136" y="326.4" style="fill:#FFFFFF;" width="236.4" height="10"/>
	<rect x="136" y="370.4" style="fill:#FFFFFF;" width="236.4" height="68.8"/>
</g>
<rect x="136" y="427.6" style="fill:#E6E9EE;" width="236.4" height="12"/>
<rect x="230.4" y="386.4" style="fill:#ACB3BA;" width="47.2" height="53.2"/>
<g>
	<rect x="336" y="387.6" style="fill:#84DBFF;" width="21.2" height="17.2"/>
	<rect x="296.4" y="387.6" style="fill:#84DBFF;" width="21.2" height="17.2"/>
	<rect x="191.2" y="387.6" style="fill:#84DBFF;" width="21.2" height="17.2"/>
	<rect x="151.6" y="387.6" style="fill:#84DBFF;" width="21.2" height="17.2"/>
</g>
<g>
	<path style="fill:#4CDBC4;" d="M318,56c0,0-92,13.6-68.8,99.6L296.4,90l-37.2,72C283.6,157.2,339.6,133.6,318,56z"/>
	<path style="fill:#4CDBC4;" d="M188.4,88c0,0,63.6,9.6,47.6,68.8l-32.8-45.2l25.6,49.6C212.4,157.6,173.6,141.6,188.4,88z"/>
</g>
<g>
</g>
<g>
</g>
<g>
</g>
<g>
</g>
<g>
</g>
<g>
</g>
<g>
</g>
<g>
</g>
<g>
</g>
<g>
</g>
<g>
</g>
<g>
</g>
<g>
</g>
<g>
</g>
<g>
</g>
</svg>
