<?xml version="1.0" encoding="iso-8859-1"?>
<!-- Generator: Adobe Illustrator 19.0.0, SVG Export Plug-In . SVG Version: 6.00 Build 0)  -->
<svg version="1.1" id="Layer_1" xmlns="http://www.w3.org/2000/svg" xmlns:xlink="http://www.w3.org/1999/xlink" x="0px" y="0px"
	 viewBox="0 0 508 508" style="enable-background:new 0 0 508 508;" xml:space="preserve">
<circle style="fill:#FFD05B;" cx="254" cy="254" r="254"/>
<ellipse transform="matrix(0.2941 -0.9558 0.9558 0.2941 -206.9433 230.1627)" style="fill:#FFFFFF;" cx="52.345" cy="255.179" rx="21.201" ry="9.2"/>
<path style="fill:#F9B54C;" d="M19.6,351.6C58,443.6,148.4,508,254,508s196.4-64.4,234.4-156.4H19.6z"/>
<path style="fill:#FFFFFF;" d="M458.8,290l-3.6-0.4c-2-0.4-3.2-2-3.2-4l3.6-23.2c0.4-2,2-3.2,4-3.2l3.6,0.4c2,0.4,3.2,2,3.2,4
	l-3.6,23.2C462.4,288.8,460.8,290.4,458.8,290z"/>
<path style="fill:#FD8469;" d="M452.4,296.8c-2.4,8.4-10,14.4-18.4,14.4l-270,3.2l0,0h-4c0,0-76.4,2.4-100.4-11.2
	c-3.2-2-5.6-4-6.8-6.8c0,0-19.2-44,22.4-76.8l38.4-49.6c4.8-7.6,48.8-13.6,102.4-13.6s97.6,6,102.4,13.6l29.2,46.8
	c2.8,4.4,7.6,7.2,12.4,7.2c19.6,0.8,68.8,3.6,91.2,12.4c6,2.4,10,8,10.4,14C462.4,262,456.4,282,452.4,296.8z"/>
<g>
	<path style="fill:#2B3B4E;" d="M164,314.4h-4c0,0-76.4,2.4-100.4-11.2c9.2-13.6,46.8-60,90,1.6C153.2,309.6,158.4,312.8,164,314.4z
		"/>
	<path style="fill:#2B3B4E;" d="M448.4,304.8c-3.6,4-8.8,6.4-14.4,6.4l-80.8,0.8c4.8-2.4,8.8-6.4,11.6-11.6
		C376.8,277.2,420,249.6,448.4,304.8z"/>
</g>
<path style="fill:#F1543F;" d="M318,169.6c-5.2-7.6-48.8-13.6-102-13.6s-96.8,6-102,13.6H318z"/>
<path style="fill:#FFFFFF;" d="M210.4,223.2h115.2c5.2,0,8.4-6,5.6-10.4l-19.6-31.6c-1.2-2-3.2-3.2-5.6-3.2h-95.6
	c-3.6,0-6.8,3.2-6.8,6.8v31.6C203.6,220.4,206.8,223.2,210.4,223.2z"/>
<path style="fill:#E6E9EE;" d="M239.6,178h-29.2c-3.6,0-6.8,3.2-6.8,6.8v31.6c0,3.6,3.2,6.8,6.8,6.8h74.4L239.6,178z"/>
<path style="fill:#FFFFFF;" d="M191.2,178h-66c-2,0-4,0.8-5.2,2.4L95.2,212c-3.6,4.4-0.4,10.8,5.2,10.8h90.8c3.6,0,6.8-3.2,6.8-6.8
	v-31.6C198,180.8,195.2,178,191.2,178z"/>
<path style="fill:#E6E9EE;" d="M136.8,178h-11.6c-2,0-4,0.8-5.2,2.4L95.2,212c-3.6,4.4-0.4,10.8,5.2,10.8h58.8L136.8,178z"/>
<circle style="fill:#324A5E;" cx="407.2" cy="315.6" r="36"/>
<circle style="fill:#E6E9EE;" cx="407.2" cy="315.6" r="22"/>
<circle style="fill:#CED5E0;" cx="407.2" cy="315.6" r="14.4"/>
<circle style="fill:#324A5E;" cx="103.2" cy="315.6" r="36"/>
<circle style="fill:#E6E9EE;" cx="103.2" cy="315.6" r="22"/>
<circle style="fill:#CED5E0;" cx="103.2" cy="315.6" r="14.4"/>
<g>
	<path style="fill:#FFFFFF;" d="M57.2,306.8c0,0,0.4-0.4,0.8-1.2c0.4-0.8,1.2-2,2-3.2c2-2.8,4.4-6.8,8.8-11.2c4-4.4,9.6-10,17.6-14
		c4-2,8.4-3.6,13.2-4.4c4.8-0.8,10.4-0.4,15.6,1.2s10.4,4,15.2,7.6c4.8,3.6,9.2,7.6,13.2,12.4c2,2.4,4,4.8,6,7.2
		c0.8,1.2,2,2.4,2.8,3.6c0.8,0.8,2,2,2.8,2.8c2.4,1.6,4.8,3.2,7.6,4s5.6,1.2,8.8,1.2c13.2,0,26.8,0,40.8-0.4c14,0,28,0,42,0
		c14,0,28,0,42,0s27.6,0,40.8,0.4c1.6,0,3.2,0,4.8,0c1.6,0,2.8-0.4,4.4-0.8s2.8-0.8,4-1.6c0.8-0.4,1.2-0.8,2-1.2
		c0.4-0.4,1.2-0.8,2-1.2c2.4-1.6,4.4-3.6,6-6c0.4-0.4,0.8-1.2,1.2-1.6l1.2-2c0.8-1.2,1.6-2.8,2.4-4c7.2-10.4,17.2-17.6,27.6-21.2
		c5.2-2,10.4-2.4,15.6-2s9.6,1.6,13.6,3.6c8,4,13.2,10,16.8,14.8c3.6,4.8,6,9.2,7.6,12.4c1.6,2.8,2.4,4.4,2.4,4.4s-0.8-1.6-2.4-4.4
		s-4.4-6.8-8-11.6c-4-4.8-9.2-10-16.8-13.6c-7.6-3.6-17.6-4-27.2-0.4c-4.8,2-9.2,4.4-13.6,8s-8.4,7.6-11.6,12.4
		c-0.8,1.2-1.6,2.4-2.4,3.6l-0.8,2.4c-0.4,0.8-0.8,1.6-1.2,2c-2,2.8-4.4,5.2-7.2,7.2c-0.8,0.4-1.6,0.8-2.4,1.6
		c-0.8,0.4-1.6,0.8-2.4,1.2c-1.6,0.8-3.2,1.2-4.8,2c-1.6,0.4-3.6,0.8-5.2,0.8s-3.6,0-5.2,0c-13.2,0-26.8,0-40.8,0.4c-14,0-28,0-42,0
		s-28,0-42,0s-27.6,0-40.8-0.4c-1.6,0-3.6,0-5.2-0.4c-1.6-0.4-3.6-0.8-5.2-1.2c-3.2-1.2-6.4-2.8-9.2-4.8c-1.2-1.2-2.4-2.4-3.6-3.6
		c-0.8-1.2-2-2.4-2.8-4c-1.6-2.4-3.6-4.8-5.6-7.2c-4-4.4-8-8.4-12.4-12c-4.4-3.6-9.2-6-14-7.6c-9.6-3.2-19.6-1.6-27.2,2
		s-13.2,8.4-17.6,12.8s-7.2,8-9.2,10.8c-0.8,1.2-1.6,2.4-2,3.2C57.6,306.4,57.2,306.8,57.2,306.8z"/>
	<path style="fill:#FFFFFF;" d="M230,239.6h-18.4c-3.2,0-5.6-2.4-5.6-5.6l0,0h30l0,0C236,237.2,233.2,239.6,230,239.6z"/>
</g>
<g>
</g>
<g>
</g>
<g>
</g>
<g>
</g>
<g>
</g>
<g>
</g>
<g>
</g>
<g>
</g>
<g>
</g>
<g>
</g>
<g>
</g>
<g>
</g>
<g>
</g>
<g>
</g>
<g>
</g>
</svg>
