<?xml version="1.0" encoding="iso-8859-1"?>
<!-- Generator: Adobe Illustrator 19.0.0, SVG Export Plug-In . SVG Version: 6.00 Build 0)  -->
<svg version="1.1" id="Layer_1" xmlns="http://www.w3.org/2000/svg" xmlns:xlink="http://www.w3.org/1999/xlink" x="0px" y="0px"
	 viewBox="0 0 508 508" style="enable-background:new 0 0 508 508;" xml:space="preserve">
<circle style="fill:#90DFAA;" cx="254" cy="254" r="254"/>
<path style="fill:#FFFFFF;" d="M440.4,269.2v-31.6l-37.6-5.6c-1.6-12-4.8-23.6-9.2-34.8l29.6-23.6l-15.6-27.2l-35.2,14
	c-7.6-9.6-16-18-25.2-25.2l14-35.2L334,84.4l-24,29.2c-10.8-4.4-22.8-7.6-34.8-9.2l-5.6-37.6H238l-5.6,37.6
	c-12,1.6-23.6,4.8-34.8,9.2L174,84l-27.2,15.6l14,35.2c-9.6,7.6-18,16-25.2,25.2l-35.2-14l-15.6,27.2l29.6,23.6
	c-4.4,10.8-7.6,22.8-9.2,34.8l-37.6,5.6v31.6l37.6,5.6c1.6,12,4.8,23.6,9.2,34.8l-29.6,23.6l15.6,27.2l35.2-14
	c7.6,9.6,16,18,25.2,25.2l-14,35.2L174,422l23.6-29.6c10.8,4.4,22.8,7.6,34.8,9.2l5.6,37.6h31.6l5.6-37.6c12-1.6,23.6-4.8,34.8-9.2
	l23.6,29.6l27.2-15.6l-14-35.2c9.6-7.6,18-16,25.2-25.2l35.2,14l15.6-27.2l-29.6-23.6c4.4-10.8,7.6-22.8,9.2-34.8L440.4,269.2z
	 M254,368.4c-63.6,0-114.8-51.6-114.8-114.8c0-63.6,51.2-115.2,114.8-115.2S368.8,190,368.8,253.2
	C368.8,316.8,317.6,368.4,254,368.4z"/>
<polygon style="fill:#324A5E;" points="297.2,247.2 262.4,247.2 273.2,182.4 210.8,259.2 245.6,259.2 234.8,324.4 "/>
<g>
</g>
<g>
</g>
<g>
</g>
<g>
</g>
<g>
</g>
<g>
</g>
<g>
</g>
<g>
</g>
<g>
</g>
<g>
</g>
<g>
</g>
<g>
</g>
<g>
</g>
<g>
</g>
<g>
</g>
</svg>
