<?xml version="1.0" encoding="iso-8859-1"?>
<!-- Generator: Adobe Illustrator 19.0.0, SVG Export Plug-In . SVG Version: 6.00 Build 0)  -->
<svg version="1.1" id="Layer_1" xmlns="http://www.w3.org/2000/svg" xmlns:xlink="http://www.w3.org/1999/xlink" x="0px" y="0px"
	 viewBox="0 0 508 508" style="enable-background:new 0 0 508 508;" xml:space="preserve">
<circle style="fill:#FFD05B;" cx="254" cy="254" r="254"/>
<g>
	<path style="fill:#FFFFFF;" d="M480.8,140c-4.8,0.4-9.6,0.8-14.4,0.8c-29.2,0-49.6-8-53.2-9.6c-19.6,7.2-37.6,9.6-53.6,9.6
		c-29.2,0-49.6-8-53.2-9.6c-19.2,7.2-37.6,9.6-53.6,9.6c-29.2,0-49.6-8-53.2-9.6c-19.6,7.2-37.6,9.6-53.6,9.6
		c-29.2,0-49.6-8-53.2-9.6c-19.6,7.2-37.6,9.6-53.6,9.6c-4.8,0-9.6-0.4-13.6-0.4c0.4-0.8,0.8-2,1.6-2.8c18,1.6,40.8,0,65.2-8.8l0,0
		h0.4h0.4l0,0c0.4,0,48,21.2,105.2,0l0,0h0.4h0.4l0,0c0.4,0,48,21.2,105.6,0l0,0h0.4h0.4l0,0c0.4,0,48,21.2,105.2,0l0,0h0.4h0.4l0,0
		c0.4,0,27.2,12,65.2,8.8C480,138,480.4,138.8,480.8,140z"/>
	<path style="fill:#FFFFFF;" d="M487.6,154.4c-7.2,0.8-14.4,1.2-20.8,1.2c-29.2,0-49.6-8-53.2-9.2c-19.6,7.2-37.6,9.2-53.6,9.2
		c-29.2,0-49.6-8-53.2-9.2c-19.2,7.2-37.6,9.2-53.6,9.2c-29.2,0-49.6-8-53.2-9.2c-19.6,7.2-37.6,9.2-53.6,9.2
		c-29.2,0-49.6-8-53.2-9.2c-19.6,7.2-37.6,9.2-53.6,9.2c-7.2,0-14.4-0.4-20.4-1.2c0.4-0.8,0.8-2,1.2-2.8c18.8,2.4,44.4,2,72-8.4l0,0
		l0,0h0.4h0.4l0,0l0,0c0.4,0,21.6,9.2,52.4,9.2c15.6,0,33.6-2.4,53.2-9.6l0,0h0.4h0.4l0,0l0,0c0.4,0,21.6,9.2,52.4,9.2
		c15.6,0,33.6-2.4,53.2-9.6l0,0l0,0h0.4h0.4l0,0l0,0c0.8,0.4,48,20.8,105.2,0l0,0l0,0h0.4h0.4l0,0l0,0c0.4,0.4,30.8,13.2,72,8
		C486.8,152.4,487.2,153.2,487.6,154.4z"/>
	<path style="fill:#FFFFFF;" d="M493.2,168.4c-9.2,1.6-18.4,2.4-26.4,2.4c-29.2,0-49.6-8-53.2-9.6c-19.6,7.2-37.6,9.6-53.6,9.6
		c-29.2,0-49.6-8-53.2-9.6c-19.2,7.2-37.6,9.6-53.6,9.6c-29.2,0-49.6-8-53.2-9.6c-19.6,7.2-37.6,9.6-53.6,9.6
		c-29.2,0-49.6-8-53.2-9.6c-19.6,7.2-37.6,9.6-53.6,9.6c-9.6,0-18.4-0.8-26-2c0.4-0.8,0.8-2,1.2-2.8c19.2,3.2,47.2,4,78-7.2l0,0h0.4
		h0.4l0,0c0.4,0,48,20.8,105.2,0l0,0h0.4h0.4l0,0c0.4,0,48,20.8,105.6,0l0,0h0.4h0.4l0,0c0.4,0,21.2,9.2,52.4,9.2
		c15.6,0,33.6-2.4,53.2-9.6l0,0h0.4h0.4l0,0c0.4,0,33.6,14.8,78,7.2C492.4,166.4,492.8,167.6,493.2,168.4z"/>
	<path style="fill:#FFFFFF;" d="M498,182.8c-11.2,2.4-21.6,3.2-31.2,3.2c-29.2,0-49.6-8-53.2-9.6C394,183.6,376,186,360,186
		c-29.2,0-49.6-8-53.2-9.6c-19.2,7.2-37.6,9.6-53.6,9.6c-29.2,0-49.6-8-53.2-9.6c-19.6,7.2-37.6,9.6-53.6,9.6
		c-29.2,0-49.6-8-53.2-9.6c-19.6,7.2-37.6,9.6-53.6,9.6c-11.6,0-22-1.2-30.4-2.8c0.4-0.8,0.4-2,0.8-2.8c19.6,3.6,49.2,5.6,82.8-6.4
		l0,0h0.4h0.4l0,0c0.4,0,48,20.8,105.2,0l0,0h0.4h0.4l0,0c0.4,0,48,20.8,105.6,0l0,0h0.4h0.4l0,0c0.4,0,48,20.8,105.2,0l0,0h0.4h0.4
		l0,0c0.4,0,36,15.6,82.8,6.4C497.2,180.8,497.6,181.6,498,182.8z"/>
</g>
<g>
	<path style="fill:#F9B54C;" d="M6.8,195.6C2.4,214.4,0,234,0,254c0,140.4,113.6,254,254,254s254-113.6,254-254
		c0-20-2.4-39.6-6.8-58.4H6.8z"/>
	<path style="fill:#F9B54C;" d="M37.6,387.2H470c1.2-2,2.8-4.4,4-6.4c21.6-37.2,34-80.8,34-126.8c0-20-2.4-39.6-6.8-58.4H6.8
		C2.4,214.4,0,234,0,254c0,48,13.2,92.8,36.4,131.2C36.8,386,37.2,386.4,37.6,387.2z"/>
</g>
<polygon style="fill:#E6E9EE;" points="426.8,425.6 81.2,425.6 95.2,196.4 412.8,196.4 "/>
<g>
	<path style="fill:#54C0EB;" d="M396,397.2h-48.4l4.4-150c0.4-9.6,9.2-17.6,19.6-17.6l0,0c10.8,0,19.6,7.6,19.6,17.6L396,397.2z"/>
	<path style="fill:#54C0EB;" d="M317.6,397.2h-48.8l4.4-150c0.4-9.6,9.2-17.6,19.6-17.6l0,0c10.8,0,19.6,7.6,19.6,17.6L317.6,397.2z
		"/>
	<path style="fill:#54C0EB;" d="M238.8,397.2h-48.4l4.4-150c0.4-9.6,9.2-17.6,19.6-17.6l0,0c10.8,0,19.6,7.6,19.6,17.6L238.8,397.2z
		"/>
	<path style="fill:#54C0EB;" d="M160.4,397.2H112l4.4-150c0.4-9.6,9.2-17.6,19.6-17.6l0,0c10.8,0,19.6,7.6,19.6,17.6L160.4,397.2z"
		/>
</g>
<g>
	<path style="fill:#324A5E;" d="M391.2,246c-0.8-9.2-9.2-16.4-19.6-16.4l0,0c-10.4,0-18.8,7.2-19.6,16.4H391.2z"/>
	<path style="fill:#324A5E;" d="M312.8,246c-0.8-9.2-9.2-16.4-19.6-16.4l0,0c-10.4,0-18.8,7.2-19.6,16.4H312.8z"/>
	<path style="fill:#324A5E;" d="M234.4,246c-0.8-9.2-9.2-16.4-19.6-16.4l0,0c-10.4,0-18.8,7.2-19.6,16.4H234.4z"/>
	<path style="fill:#324A5E;" d="M156,246c-0.8-9.2-9.2-16.4-19.6-16.4l0,0c-10.4,0-18.8,7.2-19.6,16.4H156z"/>
</g>
<g>
	<rect x="326.8" y="196.4" style="fill:#ACB3BA;" width="11.6" height="229.2"/>
	<rect x="248.4" y="196.4" style="fill:#ACB3BA;" width="11.6" height="229.2"/>
	<rect x="169.6" y="196.4" style="fill:#ACB3BA;" width="11.6" height="229.2"/>
</g>
<g>
	<path style="fill:#FFFFFF;" d="M100,118c0-3.2-2.4-5.6-5.6-5.6s-5.6,2.4-5.6,5.6c0,2.4,1.6,4.4,3.6,5.2v73.2H96v-73.2
		C98.4,122.4,100,120.4,100,118z"/>
	<path style="fill:#FFFFFF;" d="M206.4,118c0-3.2-2.4-5.6-5.6-5.6c-3.2,0-5.6,2.4-5.6,5.6c0,2.4,1.6,4.4,3.6,5.2v73.2h3.6v-73.2
		C204.8,122.4,206.4,120.4,206.4,118z"/>
	<path style="fill:#FFFFFF;" d="M312.8,118c0-3.2-2.4-5.6-5.6-5.6s-5.6,2.4-5.6,5.6c0,2.4,1.6,4.4,3.6,5.2v73.2h3.6v-73.2
		C311.2,122.4,312.8,120.4,312.8,118z"/>
	<path style="fill:#FFFFFF;" d="M419.2,118c0-3.2-2.4-5.6-5.6-5.6s-5.6,2.4-5.6,5.6c0,2.4,1.6,4.4,3.6,5.2v73.2h3.6v-73.2
		C417.6,122.4,419.2,120.4,419.2,118z"/>
</g>
<path style="fill:#84DBFF;" d="M474,380.8c-8,14-17.2,26.8-27.6,38.8l0,0c-10,12-21.6,22.8-33.6,32.4c-1.6,1.2-3.6,2.8-5.2,4
	s-3.6,2.8-5.2,4c-3.6,2.8-7.2,5.2-11.2,7.6c-2,1.2-4,2.4-5.6,3.6c-2,1.2-4,2.4-5.6,3.6c-2,1.2-4,2-6,3.2s-4,2-6,3.2s-4,2-6,2.8
	s-4,2-6,2.8c0,0,0,0-0.4,0c-2,0.8-4,1.6-6,2.4s-4,1.6-6,2.4c-0.4,0.4-1.2,0.4-2,0.8c-3.6,1.2-7.6,2.8-11.2,4c-2,0.8-4.4,1.2-6.4,2
	c-7.2,2-14.4,3.6-21.6,5.2c-1.6,0.4-3.2,0.4-5.2,0.8c-0.4,0-0.8,0-0.8,0c-2,0.4-3.6,0.8-5.6,0.8c-0.4,0-0.8,0-1.2,0
	c-2,0.4-4.4,0.4-6.4,0.8h-0.4c-1.2,0-2.4,0.4-4,0.4s-3.2,0.4-4.8,0.4c-1.6,0-3.6,0.4-5.6,0.4c-2.4,0-4.8,0.4-6.8,0.4
	c-2.4,0-4.8,0-7.2,0c-2,0-4.4,0-6.4,0c-1.2,0-2,0-3.2,0c-1.6,0-2.8,0-4.4,0c-2,0-3.6,0-5.6-0.4c-1.6,0-2.8-0.4-4.4-0.4
	c-1.6,0-3.6-0.4-5.2-0.4c-2,0-4-0.4-5.6-0.8c-1.6,0-3.6-0.4-5.2-0.8c-1.2,0-2.4-0.4-3.2-0.4c-1.2,0-2.4-0.4-4-0.8
	c-2-0.4-3.6-0.8-5.6-1.2c-1.6-0.4-3.2-0.8-4.4-0.8c-2-0.4-4-0.8-6-1.6c-8-2-16-4.4-24-7.6c-1.2-0.4-2.4-0.8-3.6-1.2
	c-1.2-0.4-2.4-0.8-4-1.6c-2-0.8-4-1.6-6-2.4s-4-1.6-6-2.8c-2-0.8-4-2-6-2.8c-2-1.2-4.4-2-6.4-3.2c-2-0.8-3.6-2-5.6-3.2s-4-2-5.6-3.2
	c-1.6-0.8-3.2-2-4.8-2.8c-2.4-1.6-4.4-2.8-6.8-4.4c-3.2-2.4-6.8-4.8-10-7.2c-4-3.2-8-6.4-12-9.6c-1.2-1.2-2.8-2.4-4-3.6
	c-3.2-2.8-6.4-6-9.6-9.2c-1.6-1.6-3.2-3.2-4.8-4.8c-1.6-1.6-3.2-3.2-4.4-4.8c-1.6-1.6-2.8-3.2-4.4-4.8l0,0
	c-10-11.2-18.8-23.2-26.4-36c4.4-6.8,12-11.6,20.4-11.6c1.2,0,2,0,3.2,0c4-7.6,12-12.4,21.2-12.4c9.6,0,17.6,5.2,21.6,13.2
	c2.4-0.8,4.4-1.2,6.8-1.2c3.2,0,6.4,0.8,9.2,2c4-8.4,12-14,22-14c11.6,0,21.2,8.4,23.6,19.2c1.6-0.4,3.2-0.4,5.2-0.4
	c2.8,0,5.6,0.4,8,1.2c3.6-8.8,12.4-15.2,22.4-15.2s18.8,6,22.4,14.8c2.4-0.8,4.8-1.2,7.6-1.2c3.6,0,7.2,0.8,10.4,2.4
	c3.2-9.6,12.4-16,22.8-16s19.2,6.4,22.4,15.6c2.8-1.2,6-2,9.6-2c0.8,0,1.6,0,2.4,0c4-8,12-14,21.6-14c7.2,0,13.6,3.2,18,8
	c2-0.4,4-0.8,6-0.8c7.6,0,14.4,3.6,18.8,8.8c4.4-5.2,11.2-8.8,18.8-8.8c8,0,14.8,4,19.2,9.6c4.4-6,11.6-10,19.6-10
	c7.6,0,14,3.2,18.4,8.8c4.4-5.2,10.8-8.4,18-8.4C463.6,373.6,469.6,376.4,474,380.8z"/>
<g>
</g>
<g>
</g>
<g>
</g>
<g>
</g>
<g>
</g>
<g>
</g>
<g>
</g>
<g>
</g>
<g>
</g>
<g>
</g>
<g>
</g>
<g>
</g>
<g>
</g>
<g>
</g>
<g>
</g>
</svg>
