<?xml version="1.0" encoding="iso-8859-1"?>
<!-- Generator: Adobe Illustrator 19.0.0, SVG Export Plug-In . SVG Version: 6.00 Build 0)  -->
<svg version="1.1" id="Layer_1" xmlns="http://www.w3.org/2000/svg" xmlns:xlink="http://www.w3.org/1999/xlink" x="0px" y="0px"
	 viewBox="0 0 508 508" style="enable-background:new 0 0 508 508;" xml:space="preserve">
<circle style="fill:#84DBFF;" cx="254" cy="254" r="254"/>
<path style="fill:#FFFFFF;" d="M431.2,166.8c2.4,2.4,4,6,4,9.6V208v50.4l0,0c0,0.8,0,2-0.4,2.8c-0.4,2.8-2,5.2-3.6,6.8l-85.6,86.4
	V400H274v-58.8c0-16,6.4-31.6,18-43.2l66.4-66.4c5.6-5.2,14-5.2,19.6,0c2.8,2.8,4,6.4,4,9.6c0,3.6-1.2,7.2-4,9.6L360.8,268l-32,32
	c-2.8,2.8-2.8,7.2,0,9.6c1.2,1.2,3.2,2,4.8,2c1.6,0,3.6-0.8,4.8-2l69.2-69.2v-4.8v-59.2c0-7.6,6.4-14,14-14
	C425.2,162.8,428.8,164.4,431.2,166.8z"/>
<rect x="265.6" y="399.6" style="fill:#324A5E;" width="89.2" height="27.2"/>
<path style="fill:#FFFFFF;" d="M76.8,166.8c-2.4,2.4-4,6-4,9.6V208v50.4l0,0c0,0.8,0,2,0.4,2.8c0.4,2.8,2,5.2,3.6,6.8l85.6,85.6
	v45.6H234v-58.8c0-16-6.4-31.6-18-43.2l-66.4-66c-5.6-5.2-14-5.2-19.6,0c-2.8,2.8-4,6.4-4,9.6c0,3.6,1.2,7.2,4,9.6l17.2,17.2l32,32
	c2.8,2.8,2.8,7.2,0,9.6c-1.2,1.2-3.2,2-4.8,2s-3.6-0.8-4.8-2l-69.2-68.4V236v-59.2c0-7.6-6.4-14-14-14
	C82.8,162.8,79.2,164.4,76.8,166.8z"/>
<rect x="153.2" y="399.6" style="fill:#324A5E;" width="89.2" height="27.2"/>
<path style="fill:#FFFFFF;" d="M340,168.4c0,12.8-2.8,25.2-8,36.4c-14,29.2-43.6,49.6-78,49.6c-41.2,0-76-29.2-84-68.4l0,0
	c-1.2-5.6-2-11.6-2-17.6c0-13.2,2.8-25.6,8.4-36.8c8.8-18.4,24-33.2,42.8-41.6l0,0c5.2-2.4,11.2-4.4,16.8-5.6c0.4,0,0.8,0,1.2-0.4
	c4.8-0.8,9.6-1.6,14.4-1.6c0.8,0,1.6,0,2.4,0c7.2,0,14.4,0.8,21.2,2.8c0.8,0.4,2,0.4,2.8,0.8c12,3.6,22.8,9.2,31.6,17.2l0,0
	c16.4,14,27.2,34,29.6,56.4C339.6,162.4,340,165.6,340,168.4z"/>
<g>
	<path style="fill:#324A5E;" d="M339.2,159.6c0,1.6-0.4,3.2-1.2,4.4c-3.6,8.8-16.8,10.8-20,19.6c-2.4,6.8,1.6,15.6-3.6,20.4
		c-2.8,2.4-6.8,2.8-10.4,2.8c-1.2,0-2.8,0-3.6-0.8c-1.2-1.2-1.6-3.2-1.6-4.8c-0.4-6-0.4-12-2-17.6s-5.2-11.2-10.8-13.2
		c-3.2-1.2-6.4-1.2-9.6-2.8c-2.8-1.2-5.6-4.8-4-8c1.2-2.8,5.2-3.2,7.2-5.6c2-2.8,0.8-6.8,1.2-10c0.8-3.6,3.2-6.4,6-8.8
		c8.8-9.6,16.4-20.4,22.4-32C326,117.2,337.2,137.2,339.2,159.6z"/>
	<path style="fill:#324A5E;" d="M275.2,85.2c0,5.2,0,10.8-3.2,14.4c-2.4,2.4-6,3.6-8,6s-2.8,5.2-4.8,7.6c-1.6,2.4-5.6,4-7.6,2
		c-1.2-1.2-1.6-2.8-1.6-4.4c-0.4-4.8,1.6-10-0.4-14.4c-0.8-2-2-3.2-3.6-4.8c-2.8-2.8-6-5.6-9.6-8c0.4,0,0.8,0,1.2-0.4
		c4.8-0.8,9.6-1.6,14.4-1.6c0.8,0,1.6,0,2.4,0C261.2,82.8,268.4,83.6,275.2,85.2z"/>
	<path style="fill:#324A5E;" d="M254,175.6c-0.8,2-2.8,3.2-4,5.2c-3.2,4.4-1.2,11.2-3.6,16c-2,4-6.4,5.6-10,8.4
		c-6,4.4-9.6,11.2-13.2,18c-2.8-7.2-1.2-14.8-1.2-22.4c0-10.4-3.6-20.4-7.2-30c-1.2-3.6-2.8-7.6-5.2-10.8c-3.2-4.4-8-7.6-12.8-10.4
		c-7.6-4.8-15.2-10.4-20.4-18c8.8-18.4,24-33.2,42.8-41.6l0,0c1.2,0.4,2.4,0.8,3.6,1.2c3.2,1.6,5.6,5.2,4.4,8.4
		c-1.6,4.8-8.8,6.8-9.2,11.6c0,4.8,6.8,6.8,11.6,6c4.8-0.4,11.2-1.2,13.6,2.8c3.2,5.2-3.2,11.2-9.2,13.2c-6,1.6-13.2,2.8-16,8.4
		c-0.8,2-1.2,4.8-2,6.8s-3.2,4-5.6,3.2c11.2,4.4,22.4,8.4,33.2,12.8C249.6,166.4,255.6,170.8,254,175.6z"/>
</g>
<g>
</g>
<g>
</g>
<g>
</g>
<g>
</g>
<g>
</g>
<g>
</g>
<g>
</g>
<g>
</g>
<g>
</g>
<g>
</g>
<g>
</g>
<g>
</g>
<g>
</g>
<g>
</g>
<g>
</g>
</svg>
