<?xml version="1.0" encoding="iso-8859-1"?>
<!-- Generator: Adobe Illustrator 19.0.0, SVG Export Plug-In . SVG Version: 6.00 Build 0)  -->
<svg version="1.1" id="Layer_1" xmlns="http://www.w3.org/2000/svg" xmlns:xlink="http://www.w3.org/1999/xlink" x="0px" y="0px"
	 viewBox="0 0 508 508" style="enable-background:new 0 0 508 508;" xml:space="preserve">
<circle style="fill:#84DBFF;" cx="254" cy="254" r="254"/>
<path style="fill:#54C0EB;" d="M66,424.8C112.4,476,179.6,508,254,508s141.6-32,188-83.2H66z"/>
<g>
	<rect x="360.4" y="170.4" style="fill:#2B3B4E;" width="14.4" height="6.8"/>
	<rect x="360.4" y="186" style="fill:#2B3B4E;" width="14.4" height="6.8"/>
	<path style="fill:#2B3B4E;" d="M360.4,201.2h14.4v0.8c0,4-7.2,12.4-7.2,12.4s-7.2-8.4-7.2-12.4V201.2z"/>
</g>
<g>
	<path style="fill:#324A5E;" d="M382.4,166.4c0,2.4-2,4.4-4.4,4.4h-21.2c-2.4,0-4.4-2-4.4-4.4s2-4.4,4.4-4.4H378
		C380.4,162,382.4,164,382.4,166.4z"/>
	<path style="fill:#324A5E;" d="M382.4,181.6c0,2.4-2,4.4-4.4,4.4h-21.2c-2.4,0-4.4-2-4.4-4.4s2-4.4,4.4-4.4H378
		C380.4,177.2,382.4,179.2,382.4,181.6z"/>
	<path style="fill:#324A5E;" d="M382.4,196.8c0,2.4-2,4.4-4.4,4.4h-21.2c-2.4,0-4.4-2-4.4-4.4s2-4.4,4.4-4.4H378
		C380.4,192.8,382.4,194.4,382.4,196.8z"/>
</g>
<g>
	<rect x="133.2" y="170.4" style="fill:#2B3B4E;" width="14.4" height="6.8"/>
	<rect x="133.2" y="186" style="fill:#2B3B4E;" width="14.4" height="6.8"/>
	<path style="fill:#2B3B4E;" d="M133.2,201.2h14.4v0.8c0,4-7.2,12.4-7.2,12.4s-7.2-8.4-7.2-12.4V201.2z"/>
</g>
<g>
	<path style="fill:#324A5E;" d="M155.2,166.4c0,2.4-2,4.4-4.4,4.4H130c-2.4,0-4.4-2-4.4-4.4s2-4.4,4.4-4.4h21.2
		C153.6,162,155.2,164,155.2,166.4z"/>
	<path style="fill:#324A5E;" d="M155.2,181.6c0,2.4-2,4.4-4.4,4.4H130c-2.4,0-4.4-2-4.4-4.4s2-4.4,4.4-4.4h21.2
		C153.6,177.2,155.2,179.2,155.2,181.6z"/>
	<path style="fill:#324A5E;" d="M155.2,196.8c0,2.4-2,4.4-4.4,4.4H130c-2.4,0-4.4-2-4.4-4.4s2-4.4,4.4-4.4h21.2
		C153.6,192.8,155.2,194.4,155.2,196.8z"/>
</g>
<g>
	<path style="fill:#FFFFFF;" d="M360,413.2l-72.8-187.6c-0.4-0.8-0.4-1.6,0.4-2.4l41.2-64l-6.4-36c0-0.8,0-1.6,0.4-2L347.2,94
		l-4.8-6.8l-37.6,36.4l-1.6,37.2c0,0.8-0.4,1.2-0.8,1.6l-46.8,42.4c-0.8,0.8-2.4,0.8-3.2,0L205.6,162c-0.4-0.4-0.8-1.2-0.8-1.6
		l-1.6-37.2l-37.6-36.4l-4.8,6.8l24.4,27.2c0.4,0.4,0.8,1.2,0.4,2l-6.4,36l41.2,64c0.4,0.8,0.4,1.6,0.4,2.4L148,412.8l-4.8-1.6
		l72.4-186.4l-40.8-64c-0.4-0.4-0.4-1.2-0.4-1.6l6.4-35.6l-24.8-28c-0.8-0.8-0.8-2,0-3.2l7.6-10.8c0.4-0.4,1.2-0.8,1.6-1.2
		c0.8,0,1.6,0,2,0.8l40.4,38.8c0.4,0.4,0.8,1.2,0.8,1.6l1.6,36.8l44,40.8l44-40.8l1.6-36.8c0-0.8,0.4-1.2,0.8-1.6l40.4-38.8
		c0.4-0.4,1.2-0.8,2-0.8s1.2,0.4,1.6,1.2l7.6,10.8c0.8,0.8,0.8,2.4,0,3.2l-24.8,28l6.4,35.6c0,0.8,0,1.2-0.4,1.6l-40.8,64
		l72.4,186.4L360,413.2z"/>
	<path style="fill:#FFFFFF;" d="M308.4,274.4H199.6c-0.8,0-1.6-0.8-2-1.6c-0.4-0.8,0-2,0.8-2.4l51.6-26.8L217.6,226
		c-0.8-0.4-1.2-1.2-0.8-2.4c0.4-0.8,1.2-1.6,2-1.6h70.8c0.8,0,1.6,0.8,2,1.6s0,2-0.8,2.4L258,243.6l50.8,27.2
		c0.8,0.4,1.2,1.2,0.8,2.4C310,274,309.2,274.4,308.4,274.4z M207.6,270.4h92.8L254,245.6L207.6,270.4z M226.4,226.4l27.6,14.8
		l27.6-14.8H226.4z"/>
	<path style="fill:#FFFFFF;" d="M330,330.8H178c-0.8,0-1.6-0.8-2-1.6c0-0.8,0.4-2,1.2-2.4l72-30.8l-50-21.6l1.6-3.6l53.2,22.8
		l53.6-23.2l1.6,3.6l-50,21.6l72,30.8c0.8,0.4,1.2,1.2,1.2,2.4C332,330,331.2,330.8,330,330.8z M187.6,326.8h132.8L254,298
		L187.6,326.8z"/>
	
		<rect x="168.76" y="368.308" transform="matrix(-0.9115 -0.4113 0.4113 -0.9115 363.7206 818.8786)" style="fill:#FFFFFF;" width="202.4" height="4"/>
	
		<rect x="235.789" y="269.324" transform="matrix(-0.4113 -0.9115 0.9115 -0.4113 -2.1406 739.6657)" style="fill:#FFFFFF;" width="4" height="202.4"/>
	<path style="fill:#FFFFFF;" d="M330,160.4l-28.8-37.6c-0.4-0.4-0.4-0.8-0.4-1.2c0-0.4,0.4-0.8,0.8-0.8l32.8-11.6l6.8-26.4l2.8,0.8
		l-6.8,27.2c0,0.4-0.4,0.8-0.8,1.2l-31.6,11.2l27.6,36L330,160.4z"/>
	<path style="fill:#FFFFFF;" d="M177.6,160.4l-2.4-2l27.6-36l-31.6-11.2c-0.4,0-0.8-0.4-0.8-1.2l-6.8-27.2l2.8-0.8l6.8,26.4L206,120
		c0.4,0,0.8,0.4,0.8,0.8s0,0.8-0.4,1.2L177.6,160.4z"/>
	<path style="fill:#FFFFFF;" d="M404.4,162H103.6v-2.4c0-24,59.6-40,79.2-40h142c19.6,0,79.2,16,79.2,40v2.4H404.4z M109.2,157.2
		h290c-4.4-17.2-54-32.4-74-32.4H182.8C163.2,124.8,113.6,140,109.2,157.2z"/>
	<path style="fill:#FFFFFF;" d="M256,159.6h-4V122c0-0.8,0.4-1.6,1.2-1.6c0.8-0.4,1.6-0.4,2,0l46.8,35.2l-2.4,3.2L256,126.4V159.6z"
		/>
	
		<rect x="228.681" y="111.254" transform="matrix(-0.6295 -0.777 0.777 -0.6295 266.1407 409.4128)" style="fill:#FFFFFF;" width="4" height="60"/>
	<path style="fill:#FFFFFF;" d="M369.2,161.6L369.2,161.6c-0.8,0-1.2-0.4-1.6-1.2L350.4,130l-17.6,30.4l-3.6-2l19.2-33.2
		c0.4-0.8,1.2-0.8,1.6-0.8l0,0c0.8,0,1.2,0.4,1.6,1.2l17.6,30.8l12.8-17.6l3.2,2.4l-14.8,20.4C370.4,161.2,370,161.6,369.2,161.6z"
		/>
	<path style="fill:#FFFFFF;" d="M138.4,161.6c-0.8,0-1.2-0.4-1.6-0.8l-14.8-20l3.2-2.4L138,156l17.6-30.8c0.4-0.8,1.2-0.8,1.6-1.2
		l0,0c0.8,0,1.2,0.4,1.6,0.8L178,158l-3.6,2l-17.6-30.4L139.6,160C140,161.2,139.2,161.6,138.4,161.6
		C138.8,161.6,138.8,161.6,138.4,161.6z"/>
	<path style="fill:#FFFFFF;" d="M288.4,226.4l-35.6-22c-0.8-0.4-1.2-1.2-0.8-2.4c0.4-0.8,1.2-1.6,2-1.6h45.2l-19.6-21.2
		c-0.4-0.4-0.8-1.6-0.4-2c0.4-0.8,1.2-1.2,2-1.2h33.6l-15.2-15.2l2.8-2.8l18.4,18.4c0.4,0.4,0.8,1.6,0.4,2c-0.4,0.8-1.2,1.2-2,1.2
		h-33.6l19.6,21.2c0.4,0.4,0.8,1.6,0.4,2c-0.4,0.8-1.2,1.2-2,1.2h-42.4l29.6,18L288.4,226.4z"/>
	<path style="fill:#FFFFFF;" d="M219.6,226.4l-2-3.2l29.6-18h-42.8c-0.8,0-1.6-0.4-2-1.2s0-1.6,0.4-2l19.6-21.2h-33.6
		c-0.8,0-1.6-0.4-2-1.2s0-1.6,0.4-2l18.4-18.4l2.8,2.8l-15.2,15.2h33.6c0.8,0,1.6,0.4,2,1.2s0,1.6-0.4,2l-19.6,21.2H254
		c0.8,0,1.6,0.4,2,1.6c0.4,0.8,0,1.6-0.8,2.4L219.6,226.4z"/>
</g>
<g>
	<polygon style="fill:#E6E9EE;" points="374.4,407.6 343.2,407.6 337.2,424.8 380.8,424.8 	"/>
	<polygon style="fill:#E6E9EE;" points="161.2,407.6 130,407.6 124,424.8 167.2,424.8 	"/>
</g>
<g>
</g>
<g>
</g>
<g>
</g>
<g>
</g>
<g>
</g>
<g>
</g>
<g>
</g>
<g>
</g>
<g>
</g>
<g>
</g>
<g>
</g>
<g>
</g>
<g>
</g>
<g>
</g>
<g>
</g>
</svg>
