<?xml version="1.0" encoding="iso-8859-1"?>
<!-- Generator: Adobe Illustrator 19.0.0, SVG Export Plug-In . SVG Version: 6.00 Build 0)  -->
<svg version="1.1" id="Layer_1" xmlns="http://www.w3.org/2000/svg" xmlns:xlink="http://www.w3.org/1999/xlink" x="0px" y="0px"
	 viewBox="0 0 508 508" style="enable-background:new 0 0 508 508;" xml:space="preserve">
<g>
	<circle style="fill:#324A5E;" cx="254" cy="254" r="254"/>
	<path style="fill:#324A5E;" d="M508,254c0,103.2-61.6,192-150,231.6c-11.2,4.8-22.8,9.2-34.8,12.4c-22,6.4-45.6,9.6-69.6,9.6
		S206,504.4,184,498c-13.6-4-26.4-8.8-38.8-14.8C59.6,442.8,0,355.6,0,254C0,113.6,113.6,0,254,0S508,113.6,508,254z"/>
</g>
<path style="fill:#CED5E0;" d="M184.4,498.4c-13.6-4-26.4-8.8-38.8-14.8l11.2-245.2l0.4-14l0.4-5.6h14l0.4,8.4l0.4,12.4L184.4,498.4
	z"/>
<path style="fill:#FFFFFF;" d="M176.4,200.4l-29.2-124c-0.4-2.4-2.8-3.6-4.8-3.2l0,0l30.8,132l0,0
	C175.6,204.8,176.8,202.8,176.4,200.4z"/>
<polygon style="fill:#E6E9EE;" points="142.4,73.2 141.6,170 173.2,205.2 "/>
<path style="fill:#FFFFFF;" d="M147.2,216l-92.8,87.2c-1.6,1.6-1.6,4,0,6l0,0l99.2-92.8l0,0C151.6,214.4,148.8,214.4,147.2,216z"/>
<polygon style="fill:#E6E9EE;" points="54,308.8 138,261.2 153.2,216 "/>
<path style="fill:#FFFFFF;" d="M175.2,233.2l122,36.8c2,0.8,4.4-0.4,5.2-2.8l0,0l-130-39.2l0,0C172,230.4,173.2,232.4,175.2,233.2z"
	/>
<polygon style="fill:#E6E9EE;" points="302.4,267.6 219.2,218.4 172.4,228 "/>
<circle style="fill:#FFFFFF;" cx="166.4" cy="216.4" r="24"/>
<circle style="fill:#E6E9EE;" cx="166.4" cy="216.4" r="12"/>
<path style="fill:#CED5E0;" d="M358,485.6c-11.2,4.8-22.8,9.2-34.8,12.4l10.4-228l0.4-12l0.4-6h12.8l0.4,6l0.4,12L358,485.6z"/>
<path style="fill:#FFFFFF;" d="M351.2,264l114,19.6c2,0.4,4-1.2,4.4-3.2l0,0l-121.2-20.8l0,0C347.6,261.6,348.8,263.6,351.2,264z"/>
<polygon style="fill:#E6E9EE;" points="469.2,280.4 388.8,245.6 348,259.6 "/>
<path style="fill:#FFFFFF;" d="M348.4,234.4l-40-108.4c-0.8-2-2.8-2.8-4.8-2.4l0,0L346,238.8l0,0C348,238.4,348.8,236,348.4,234.4z"
	/>
<polygon style="fill:#E6E9EE;" points="303.6,123.6 313.6,210.4 346,238.8 "/>
<path style="fill:#FFFFFF;" d="M324,251.2l-74,89.2c-1.2,1.6-1.2,4,0.4,5.2l0,0l78.4-94.4l0,0C327.6,249.6,325.2,250,324,251.2z"/>
<polygon style="fill:#E6E9EE;" points="250.8,345.6 320.8,293.2 329.2,250.8 "/>
<circle style="fill:#FFFFFF;" cx="341.2" cy="250" r="21.6"/>
<circle style="fill:#E6E9EE;" cx="341.2" cy="250" r="10.8"/>
<g>
</g>
<g>
</g>
<g>
</g>
<g>
</g>
<g>
</g>
<g>
</g>
<g>
</g>
<g>
</g>
<g>
</g>
<g>
</g>
<g>
</g>
<g>
</g>
<g>
</g>
<g>
</g>
<g>
</g>
</svg>
