<?xml version="1.0" encoding="iso-8859-1"?>
<!-- Generator: Adobe Illustrator 19.0.0, SVG Export Plug-In . SVG Version: 6.00 Build 0)  -->
<svg version="1.1" id="Layer_1" xmlns="http://www.w3.org/2000/svg" xmlns:xlink="http://www.w3.org/1999/xlink" x="0px" y="0px"
	 viewBox="0 0 508 508" style="enable-background:new 0 0 508 508;" xml:space="preserve">
<circle style="fill:#FD8469;" cx="254" cy="254" r="254"/>
<path style="fill:#E6E9EE;" d="M347.6,182.4c0-1.2,0-2.4,0-4c0-24-19.6-43.6-43.6-43.6h-0.4c-3.6-14.4-16.4-25.2-32-25.2
	c-8.4,0-16.4,3.2-22,8.8c-9.2-6-20-9.2-32-9.2c-33.2,0-60,26.8-60,60c0,4.4,0.4,8.8,1.2,12.8c-11.6,6-19.6,18-19.6,32
	c0,19.6,16,35.6,35.6,35.6h156.4c19.6,0,35.6-16,35.6-35.6C367.2,200.4,359.2,188.4,347.6,182.4z"/>
<g>
	<path style="fill:#2B3B4E;" d="M461.6,292.8c-0.4-14.4-12.4-26.4-27.2-26.4H253.6v9.2h181.2c9.6,0,17.6,8,18,17.6
		c-0.4,9.6-8.4,17.6-18,17.6c-10,0-18-8-18-18v-2.4c0-2.4-2-4.4-4.4-4.4s-4.4,2-4.4,4.4v2.4c0,14.8,12,27.2,27.2,27.2
		c14.8,0,26.8-11.6,27.2-26.4v-0.8H461.6z"/>
	<path style="fill:#2B3B4E;" d="M392.4,313.6c-0.4-15.6-13.6-28.4-29.2-28.4H253.6v10h109.6c10.4,0,19.2,8.4,19.6,19.2
		c-0.4,10.4-8.8,19.2-19.6,19.2c-10.8,0-19.6-8.8-19.6-19.6v-2.4c0-2.8-2.4-4.8-4.8-4.8s-4.8,2.4-4.8,4.8v2.4
		c0,16.4,13.2,29.2,29.2,29.2s28.8-12.8,29.2-28.4L392.4,313.6L392.4,313.6z"/>
	<path style="fill:#2B3B4E;" d="M392.4,226.4c-0.4-15.6-13.6-28.4-29.2-28.4c-16.4,0-29.2,13.2-29.2,29.2v2.8c0,2.8,2.4,4.8,4.8,4.8
		s4.8-2.4,4.8-4.8v-2.4c0-10.8,8.8-19.6,19.6-19.6c10.4,0,19.2,8.4,19.6,19.2c-0.8,10.4-9.2,18.8-20,18.8H253.6v10h109.6
		c16,0,28.8-12.8,29.2-28.4L392.4,226.4L392.4,226.4z"/>
</g>
<path style="fill:#FFFFFF;" d="M303.6,283.2c0-1.6,0.4-2.8,0.4-4.4c0-28-22.8-50.8-50.8-50.8h-0.4c-4-16.8-19.2-29.2-37.2-29.2
	c-10,0-19.2,4-26,10C178.8,202,166,198,152.4,198c-38.8,0-70.4,31.6-70.4,70.4c0,5.2,0.4,10,1.6,14.8C70,290,60.4,304,60.4,320.4
	c0,23.2,18.8,41.6,41.6,41.6h182.4c23.2,0,41.6-18.8,41.6-41.6C326.8,304,317.2,290,303.6,283.2z"/>
<g>
</g>
<g>
</g>
<g>
</g>
<g>
</g>
<g>
</g>
<g>
</g>
<g>
</g>
<g>
</g>
<g>
</g>
<g>
</g>
<g>
</g>
<g>
</g>
<g>
</g>
<g>
</g>
<g>
</g>
</svg>
