<?xml version="1.0" encoding="iso-8859-1"?>
<!-- Generator: Adobe Illustrator 19.0.0, SVG Export Plug-In . SVG Version: 6.00 Build 0)  -->
<svg version="1.1" id="Layer_1" xmlns="http://www.w3.org/2000/svg" xmlns:xlink="http://www.w3.org/1999/xlink" x="0px" y="0px"
	 viewBox="0 0 508 508" style="enable-background:new 0 0 508 508;" xml:space="preserve">
<circle style="fill:#324A5E;" cx="254" cy="254" r="254"/>
<path style="fill:#2B3B4E;" d="M64.4,423.2c46.4,52,114,84.8,189.6,84.8c75.2,0,142.8-32.8,189.6-84.8H64.4z"/>
<g>
	<polygon style="fill:#E6E9EE;" points="298,332.4 298,423.2 99.6,423.2 99.6,332.4 198.8,288 	"/>
	<polygon style="fill:#E6E9EE;" points="298,332.4 298,423.2 99.6,423.2 99.6,332.4 198.8,288 	"/>
</g>
<g>
	<polygon style="fill:#ACB3BA;" points="278,202.4 278,207.6 320.8,236.4 320.8,230.8 	"/>
	<polygon style="fill:#ACB3BA;" points="320.8,202.4 320.8,207.6 363.2,236.4 363.2,230.8 	"/>
	<polygon style="fill:#ACB3BA;" points="363.2,202.4 363.2,207.6 405.6,236.4 405.6,230.8 	"/>
</g>
<polygon style="fill:#E6E9EE;" points="405.6,329.6 405.6,236.4 363.2,207.6 363.2,236.4 320.8,207.6 320.8,236.4 278,207.6 
	278,329.6 "/>
<g>
	<path style="fill:#CED5E0;" d="M152.4,300.4c10-2.4,18.4-8.4,27.6-12.4l-8.4-134h-41.2l-9.6,157.2h20.4
		C142.4,306,145.6,302,152.4,300.4z"/>
	<path style="fill:#CED5E0;" d="M206,284.4c10.8,2.8,21.2,8,31.6,11.2c6,2,12,4,17.2,6.8L244,125.6h-47.2l-10,160
		C192.8,283.2,198.8,282.4,206,284.4z"/>
	<rect x="99.6" y="408.4" style="fill:#CED5E0;" width="198.4" height="14.4"/>
</g>
<polygon style="fill:#FF7058;" points="308.8,321.2 308.8,337.2 298,332.4 198.8,288 99.6,332.4 88.8,337.2 88.8,321.2 198.8,272 
	"/>
<polygon style="fill:#CED5E0;" points="298,332.4 298,339.6 198.8,295.2 99.6,339.6 99.6,332.4 198.8,288 "/>
<g>
	<path style="fill:#FFFFFF;" d="M280.8,76.8c0-6.8-5.6-12.4-12.4-12.4c-2.4,0-4.8,0.8-6.8,2c-2.4-3.6-6-6-10.8-6
		c-6.8,0-12.4,5.6-12.4,12.4c0,0.4,0,0.8,0,1.2c-1.6-0.8-3.6-1.2-5.6-1.2c-6.8,0-12.4,5.6-12.4,12.4c0,2.4,0.8,4.8,2,6.4l0,0
		c-6.8,0-12.4,5.6-12.4,12.4s5.6,12.4,12.4,12.4c4.4,0,8.4-2.4,10.8-6c2.4,2,5.2,3.2,8.4,3.2c4.4,0,8-2,10-5.2c2.4,3.2,6,5.2,10,5.2
		c6.8,0,12.4-5.6,12.4-12.4v-0.4c4-2,6.8-6.4,6.8-11.2c0-2.4-0.8-4.8-2-6.8C280.4,82,280.8,79.6,280.8,76.8z"/>
	<path style="fill:#FFFFFF;" d="M188,117.2c0-4.8-3.6-8.4-8.4-8.4c-1.6,0-3.2,0.4-4.8,1.2c-1.6-2.4-4-4-7.2-4
		c-4.8,0-8.4,3.6-8.4,8.4c0,0.4,0,0.8,0,0.8c-1.2-0.4-2.4-0.8-3.6-0.8c-4.8,0-8.4,3.6-8.4,8.4c0,1.6,0.4,3.2,1.2,4.4l0,0
		c-4.8,0-8.4,3.6-8.4,8.4c0,4.8,3.6,8.4,8.4,8.4c3.2,0,5.6-1.6,7.2-4c1.6,1.2,3.6,2.4,5.6,2.4c2.8,0,5.2-1.6,6.8-3.6
		c1.6,2,4,3.6,6.8,3.6c4.8,0,8.4-3.6,8.4-8.4c0,0,0,0,0-0.4c2.8-1.6,4.4-4.4,4.4-7.6c0-1.6-0.4-3.2-1.2-4.4
		C187.6,120.4,188,118.8,188,117.2z"/>
	<polygon style="fill:#FFFFFF;" points="416,331.2 416,423.2 215.6,423.2 215.6,331.2 315.6,286.4 	"/>
</g>
<g>
	<rect x="215.6" y="406.4" style="fill:#E6E9EE;" width="200.8" height="16.8"/>
	<polygon style="fill:#E6E9EE;" points="416,331.2 416,338.8 315.6,293.6 215.6,338.8 215.6,331.2 315.6,286.4 	"/>
</g>
<polygon style="fill:#FF7058;" points="426.8,320 426.8,336 416,331.2 315.6,286.4 215.6,331.2 204.8,336 204.8,320 315.6,270.4 "/>
<g>
	<rect x="293.2" y="243.6" style="fill:#ACB3BA;" width="12.4" height="12.4"/>
	<rect x="335.6" y="243.6" style="fill:#ACB3BA;" width="12.4" height="12.4"/>
	<rect x="378.4" y="243.6" style="fill:#ACB3BA;" width="12.4" height="12.4"/>
</g>
<rect x="296.4" y="357.6" style="fill:#324A5E;" width="38.4" height="48.8"/>
<g>
	<rect x="356.8" y="357.6" style="fill:#84DBFF;" width="24.4" height="24.4"/>
	<rect x="250.4" y="357.6" style="fill:#84DBFF;" width="24.4" height="24.4"/>
</g>
<polygon style="fill:#CED5E0;" points="349.2,423.2 282.4,423.2 296.4,406.4 335.2,406.4 "/>
<g>
</g>
<g>
</g>
<g>
</g>
<g>
</g>
<g>
</g>
<g>
</g>
<g>
</g>
<g>
</g>
<g>
</g>
<g>
</g>
<g>
</g>
<g>
</g>
<g>
</g>
<g>
</g>
<g>
</g>
</svg>
