<?xml version="1.0" encoding="iso-8859-1"?>
<!-- Generator: Adobe Illustrator 19.0.0, SVG Export Plug-In . SVG Version: 6.00 Build 0)  -->
<svg version="1.1" id="Layer_1" xmlns="http://www.w3.org/2000/svg" xmlns:xlink="http://www.w3.org/1999/xlink" x="0px" y="0px"
	 viewBox="0 0 508 508" style="enable-background:new 0 0 508 508;" xml:space="preserve">
<circle style="fill:#90DFAA;" cx="254" cy="254" r="254"/>
<path style="fill:#324A5E;" d="M426.4,403.6c-3.6-30.8-16.4-52-17.2-53.6l-15.2,9.6c0,0.4,10.8,18,14.4,44H426.4z"/>
<path style="fill:#FFFFFF;" d="M82.8,108l-1.2,10c-0.4,2.4,1.6,4.4,4,4.4l70.4,3.2c7.6,0.4,15.2,2.4,22,5.6l50,24.8l10.8-20.8
	L182,112c-5.6-2.4-12-3.6-18-4l-76.8-4C85.2,104,83.2,105.6,82.8,108z"/>
<g>
	<polygon style="fill:#E6E9EE;" points="115.2,105.6 115.2,123.6 120.4,124 120.4,106 	"/>
	<polygon style="fill:#E6E9EE;" points="132.4,106.4 132.4,124.4 136.8,124.8 136.8,106.8 	"/>
	<polygon style="fill:#E6E9EE;" points="144.4,107.2 144.4,125.2 149.6,125.2 149.6,107.2 	"/>
</g>
<path style="fill:#F1543F;" d="M274.4,142.8l-34.8-10.4c-1.2-0.4-2.8,0-3.6,1.2l-16.8,21.6c-1.2,1.6-0.8,4,1.2,4.8l20.4,10
	L274.4,142.8z"/>
<path style="fill:#FFFFFF;" d="M315.6,331.6l-9.2-78c-0.4-2.8-2.4-5.6-5.2-6.4l-0.8-0.4l-31.2-10.4c-0.4,0-1.2-0.4-1.6-0.4
	c-6-1.2-11.6,2.8-12.8,8.8c-1.2,6,2.8,11.6,8.8,12.8l27.2,5.2l15.2,70.8c0.4,2.4,2.8,4.4,5.6,4C314,336.8,316,334.4,315.6,331.6z"/>
<path style="fill:#324A5E;" d="M371.6,317.6l-63.6,30c-9.6,4.4-20.8,0-24.8-9.6l-40.8-102.4l44-2.8L274.8,248c-6,8-7.2,18.8-2.4,28
	l24.4,46.8c2,3.6,6.4,4.8,9.6,2.8l56.4-34L371.6,317.6z"/>
<g>
	<path style="fill:#FF7058;" d="M290.8,140.4l52,48.8c2.4,2.4,3.6,6,2.4,9.2l-7.6,21.6l-19.2,11.2l-72,11.2c-4,0.4-7.6-1.2-9.2-4.8
		l-12-25.2c-0.8-1.6-1.2-3.2-0.8-4.8l4.4-34.4c0.4-2.8,2-5.2,4.4-6.4l47.6-27.2C284,137.2,288,138,290.8,140.4z"/>
	<polygon style="fill:#FF7058;" points="337.2,211.2 399.2,328 378.8,340 314.8,228.8 	"/>
</g>
<path style="fill:#FFFFFF;" d="M382.8,363.6l-9.2-15.6c-2-3.2-0.8-7.2,2.4-9.2l22.4-13.2c3.2-2,7.2-0.8,9.2,2.4l9.2,15.6
	c2,3.2,0.8,7.2-2.4,9.2L392,366C388.8,368,384.4,366.8,382.8,363.6z"/>
<g>
</g>
<g>
</g>
<g>
</g>
<g>
</g>
<g>
</g>
<g>
</g>
<g>
</g>
<g>
</g>
<g>
</g>
<g>
</g>
<g>
</g>
<g>
</g>
<g>
</g>
<g>
</g>
<g>
</g>
</svg>
