<?xml version="1.0" encoding="iso-8859-1"?>
<!-- Generator: Adobe Illustrator 19.0.0, SVG Export Plug-In . SVG Version: 6.00 Build 0)  -->
<svg version="1.1" id="Layer_1" xmlns="http://www.w3.org/2000/svg" xmlns:xlink="http://www.w3.org/1999/xlink" x="0px" y="0px"
	 viewBox="0 0 508 508" style="enable-background:new 0 0 508 508;" xml:space="preserve">
<circle style="fill:#FFD05B;" cx="254" cy="254" r="254"/>
<path style="fill:#2B3B4E;" d="M386,356.4c-15.6,0-31.2-7.6-34.4-30c-1.6-9.6,0.8-19.2,3.2-28.4c1.6-6.4,3.2-12.8,3.6-19.2
	c0.4-10.4-3.2-20-9.6-26.8c-7.2-7.6-18.8-11.2-29.2-9.6l-1.2-6.4c12.4-2,26,2.4,34.8,11.2c7.6,8,12,19.6,11.6,31.6
	c-0.4,6.8-2,14-3.6,20.4c-2.4,8.8-4.4,17.2-3.2,25.6c4,26,27.2,25.2,34,24c18.8-2.8,38.8-17.6,36.8-34c-2-17.6-12.4-40.8-24.8-55.6
	c-1.2-1.6-2.8-3.2-4.4-4.8c-2-2.4-4.4-4.8-6.4-7.6c-5.6-7.6-9.6-16-11.6-25.2l6.4-1.2c1.6,8,5.6,16,10.4,22.8c2,2.4,4,4.8,6,7.2
	c1.6,1.6,2.8,3.2,4.4,4.8c13.2,16,24,39.6,26,58.8c2.4,20.4-20.4,38-42.4,40.8C390.4,356.4,388,356.4,386,356.4z"/>
<path style="fill:#FFFFFF;" d="M319.6,136.4l-1.2,2.4c-0.4,0.8,0,1.2,0.8,1.6l18.4,6c2,0.8,4,1.6,5.6,3.2l11.6,10.4l4.4-4.8
	l-13.6-10.4c-1.2-1.2-2.8-2-4.4-2.4l-20-6.8C320.4,135.6,319.6,136,319.6,136.4z"/>
<g>
	<polygon style="fill:#E6E9EE;" points="328,138.4 326.8,143.2 328,143.6 329.6,138.8 	"/>
	<polygon style="fill:#E6E9EE;" points="332.8,139.6 331.2,144.4 332.4,144.8 334,140 	"/>
	<polygon style="fill:#E6E9EE;" points="335.6,140.8 334.4,145.6 335.6,146 337.2,141.2 	"/>
</g>
<path style="fill:#F1543F;" d="M367.6,160l-8.4-5.2c-0.4,0-0.8,0-1.2,0l-6,4.4c-0.4,0.4-0.4,0.8,0,1.2l4.8,4.4L367.6,160z"/>
<path style="fill:#FFFFFF;" d="M364.4,212.8l3.2-21.2c0-0.8-0.4-1.6-0.8-2h-0.4l-7.6-5.2c0,0-0.4,0-0.4-0.4c-1.6-0.8-3.2,0-4,1.2
	c-0.8,1.6,0,3.2,1.2,4l6.8,3.2l-1.2,20c0,0.8,0.4,1.2,1.2,1.6C363.6,214,364.4,213.6,364.4,212.8z"/>
<path style="fill:#324A5E;" d="M380.4,213.2l-19.2,3.2c-2.8,0.4-5.6-1.6-6-4.4l-2.8-30l12,2.4l-4,3.2c-2.4,1.6-3.2,4.4-2.8,7.2
	l2.8,14c0.4,1.2,1.2,1.6,2.4,1.6l17.6-4.8V213.2z"/>
<g>
	<path style="fill:#FF7058;" d="M372,160.4l10,16.8c0.4,0.8,0.4,2,0,2.8l-3.6,5.2l-6,1.6l-20-2.4c-1.2,0-2-0.8-2-2l-1.2-7.6
		c0-0.4,0-0.8,0-1.2l3.6-8.8c0.4-0.8,0.8-1.2,1.6-1.2l14.4-3.6C370.4,159.2,371.6,159.6,372,160.4z"/>
	<polygon style="fill:#FF7058;" points="379.2,182.4 386.8,218 380.8,220 372,185.6 	"/>
</g>
<path style="fill:#FFFFFF;" d="M380,226.4l-1.2-4.8c-0.4-0.8,0.4-2,1.2-2.4l6.8-2c0.8-0.4,2,0.4,2.4,1.2l1.2,4.8
	c0.4,0.8-0.4,2-1.2,2.4l-6.8,2C381.2,228,380,227.2,380,226.4z"/>
<path style="fill:#F9B54C;" d="M50.8,406.4C97.2,468,170.8,508,254,508s156.8-40,203.2-101.6H50.8z"/>
<path style="fill:#324A5E;" d="M338,376H169.6V115.6c0-7.6,6.4-14,14-14h140.8c7.6,0,14,6.4,14,14V376H338z"/>
<rect x="185.2" y="117.2" style="fill:#E6E9EE;" width="136.8" height="103.2"/>
<path style="fill:#2B3B4E;" d="M336.4,370.4H171.2c-10,0-18,8-18,18l0,0c0,10,8,18,18,18h165.6c10,0,18-8,18-18l0,0
	C354.4,378.8,346.4,370.4,336.4,370.4z"/>
<polygon style="fill:#CED5E0;" points="322.4,117.2 185.2,220.8 322.4,220.8 "/>
<g>
</g>
<g>
</g>
<g>
</g>
<g>
</g>
<g>
</g>
<g>
</g>
<g>
</g>
<g>
</g>
<g>
</g>
<g>
</g>
<g>
</g>
<g>
</g>
<g>
</g>
<g>
</g>
<g>
</g>
</svg>
