<?xml version="1.0" encoding="iso-8859-1"?>
<!-- Generator: Adobe Illustrator 19.0.0, SVG Export Plug-In . SVG Version: 6.00 Build 0)  -->
<svg version="1.1" id="Layer_1" xmlns="http://www.w3.org/2000/svg" xmlns:xlink="http://www.w3.org/1999/xlink" x="0px" y="0px"
	 viewBox="0 0 508 508" style="enable-background:new 0 0 508 508;" xml:space="preserve">
<circle style="fill:#90DFAA;" cx="254" cy="254" r="254"/>
<g>
	<rect x="233.6" y="92.4" style="fill:#F1543F;" width="40.8" height="71.6"/>
	<rect x="308.4" y="92.4" style="fill:#F1543F;" width="9.2" height="71.6"/>
	<rect x="190.4" y="92.4" style="fill:#F1543F;" width="9.2" height="71.6"/>
	<path style="fill:#F1543F;" d="M325.6,432.8H182.4c-6,0-10.8-4.8-10.8-10.8v-48.8h164.8V422C336.4,428,331.6,432.8,325.6,432.8z"/>
</g>
<g>
	<path style="fill:#FF7058;" d="M254,146.8L254,146.8c-57.2,0-103.6,6.8-103.6,64v146.8c0,57.2,46.4,49.6,103.6,49.6l0,0
		c57.2,0,103.6,7.6,103.6-49.6V210.8C357.6,153.6,311.2,146.8,254,146.8z"/>
	<path style="fill:#FF7058;" d="M318,99.6H190c-6.8,0-12-5.6-12-12l0,0c0-6.8,5.6-12,12-12h128c6.8,0,12,5.6,12,12l0,0
		C330,94.4,324.8,99.6,318,99.6z"/>
</g>
<g>
	<path style="fill:#E6E9EE;" d="M361.6,333.2H146.4c-3.2,0-6-2.8-6-6l0,0c0-3.2,2.8-6,6-6H362c3.2,0,6,2.8,6,6l0,0
		C367.6,330.4,365.2,333.2,361.6,333.2z"/>
	<path style="fill:#E6E9EE;" d="M361.6,229.2H146.4c-3.2,0-6-2.8-6-6l0,0c0-3.2,2.8-6,6-6H362c3.2,0,6,2.8,6,6l0,0
		C367.6,226.4,365.2,229.2,361.6,229.2z"/>
</g>
<g>
	<path style="fill:#FFFFFF;" d="M222,275.2h9.6v15.2c-4.4,4.8-10.4,7.2-17.6,7.2c-6.4,0-11.6-2-16-6.4s-6.4-9.6-6.4-16
		s2-11.6,6.4-16s9.6-6.4,16-6.4c6,0,11.6,2,16,6l-5.2,7.2c-2-1.6-3.6-2.8-5.2-3.6c-1.6-0.4-3.2-0.4-5.2-0.4c-3.6,0-6.8,1.2-9.2,3.6
		s-3.6,5.6-3.6,10s1.2,7.2,3.6,9.6c2.4,2.4,5.2,3.6,8.8,3.6c3.2,0,6-0.8,8.4-2v-11.6H222z"/>
	<path style="fill:#FFFFFF;" d="M270.4,297.2l-4-9.2h-18l-4,9.2H234l18.8-43.2h9.2l18.8,43.2H270.4z M257.6,266.8l-5.6,12.4h10.8
		L257.6,266.8z"/>
	<path style="fill:#FFFFFF;" d="M295.6,262.4c-0.8,0.8-1.2,1.6-1.2,3.2c0,1.2,0.4,2.4,1.6,2.8c1.2,0.8,3.6,1.6,8,2.8
		c4,1.2,7.2,2.4,9.6,4.4s3.2,4.8,3.2,8.8s-1.6,7.2-4.4,9.6s-6.8,3.6-11.6,3.6c-6.8,0-12.8-2.4-18.4-7.6l5.6-7.2c4.8,4,8.8,6,12.8,6
		c1.6,0,3.2-0.4,4-1.2c1.2-0.8,1.6-1.6,1.6-3.2c0-1.2-0.4-2.4-1.6-3.2c-1.2-0.8-3.2-1.6-6.4-2.4c-5.2-1.2-8.8-2.8-11.2-4.8
		c-2.4-2-3.6-4.8-3.6-9.2c0-4,1.6-7.2,4.4-9.6s6.8-3.2,11.2-3.2c2.8,0,5.6,0.4,8.8,1.6c2.8,0.8,5.2,2.4,7.6,4.4l-4.8,7.2
		c-3.6-2.8-7.6-4.4-11.6-4.4C297.6,261.6,296.4,261.6,295.6,262.4z"/>
</g>
<g>
</g>
<g>
</g>
<g>
</g>
<g>
</g>
<g>
</g>
<g>
</g>
<g>
</g>
<g>
</g>
<g>
</g>
<g>
</g>
<g>
</g>
<g>
</g>
<g>
</g>
<g>
</g>
<g>
</g>
</svg>
