<?xml version="1.0" encoding="iso-8859-1"?>
<!-- Generator: Adobe Illustrator 19.0.0, SVG Export Plug-In . SVG Version: 6.00 Build 0)  -->
<svg version="1.1" id="Layer_1" xmlns="http://www.w3.org/2000/svg" xmlns:xlink="http://www.w3.org/1999/xlink" x="0px" y="0px"
	 viewBox="0 0 508 508" style="enable-background:new 0 0 508 508;" xml:space="preserve">
<circle style="fill:#54C0EB;" cx="254" cy="254" r="254"/>
<g>
	<path style="fill:#CED5E0;" d="M315.2,194.8l-116-21.6c-6.8-1.2-13.2,3.2-14.4,10l0,0c-1.2,6.8,3.2,13.2,10,14.4l116,21.6
		c6.8,1.2,13.2-3.2,14.4-10l0,0C326.4,202.8,322,196,315.2,194.8z"/>
	<path style="fill:#CED5E0;" d="M315.2,151.6l-116-21.6c-6.8-1.2-13.2,3.2-14.4,10l0,0c-1.2,6.8,3.2,13.2,10,14.4l116,21.6
		c6.8,1.2,13.2-3.2,14.4-10l0,0C326.4,159.2,322,152.8,315.2,151.6z"/>
	<path style="fill:#CED5E0;" d="M315.2,108l-116-21.6c-6.8-1.2-13.2,3.2-14.4,10l0,0c-1.2,6.8,3.2,13.2,10,14.4l116,21.6
		c6.8,1.2,13.2-3.2,14.4-10l0,0C326.4,116,322,109.6,315.2,108z"/>
</g>
<g>
	<path style="fill:#E6E9EE;" d="M314.4,64.8L280,58.4c-7.6-1.6-14.8,4.4-14.8,12l0,0c0,6,4.4,11.2,10,12l35.2,6.4
		c6.8,1.2,13.6-3.6,14.4-10.4C326,72,321.2,66,314.4,64.8z"/>
	<path style="fill:#E6E9EE;" d="M236.4,234.4c0-6.8-5.2-12.8-11.6-13.2c-7.2-0.4-13.2,5.2-13.2,12.4v30.8c0,7.6,7.2,13.6,14.8,12.4
		c6-1.2,10-6,10-12V234.4z"/>
	<path style="fill:#E6E9EE;" d="M225.6,221.6l-26.4-4.8c-7.6-1.6-14.8,4.4-14.8,12l0,0c0,6,4.4,11.2,10,12l26.8,5.2
		c8,1.6,15.2-4.8,14.8-12.8C236,227.2,231.2,222.4,225.6,221.6z"/>
	<path style="fill:#E6E9EE;" d="M265.6,70.4v200c0,6.8,5.6,12.4,12.4,12.4l0,0c6.8,0,12.4-5.6,12.4-12.4v-200
		c0-6.8-5.6-12.4-12.4-12.4l0,0C270.8,58,265.6,63.6,265.6,70.4z"/>
</g>
<path style="fill:#CED5E0;" d="M268.4,202.8l41.6-8c6.8-1.2,13.6,2.4,15.2,9.2s-2.8,14-9.6,15.2l-42.4,8c-7.6,1.6-14.8-4.4-14.8-12
	l0,0C258,209.2,262.4,204,268.4,202.8z"/>
<g>
	<path style="fill:#FFFFFF;" d="M315.2,219.2l-116,21.6c-6.8,1.2-13.2-3.2-14.4-10l0,0c-1.2-6.8,3.2-13.2,10-14.4l116-21.6
		c6.8-1.2,13.2,3.2,14.4,10l0,0C326.4,211.6,322,218,315.2,219.2z"/>
	<path style="fill:#FFFFFF;" d="M315.2,175.6l-116,21.6c-6.8,1.2-13.2-3.2-14.4-10l0,0c-1.2-6.8,3.2-13.2,10-14.4l116-21.6
		c6.8-1.2,13.2,3.2,14.4,10l0,0C326.4,168,322,174.4,315.2,175.6z"/>
	<path style="fill:#FFFFFF;" d="M315.2,132.8l-116,21.6c-6.8,1.2-13.2-3.2-14.4-10l0,0c-1.2-6.8,3.2-13.2,10-14.4l116-21.6
		c6.8-1.2,13.2,3.2,14.4,10l0,0C326.4,124.8,322,131.6,315.2,132.8z"/>
	<path style="fill:#FFFFFF;" d="M315.2,89.2l-116,21.6c-6.8,1.2-13.2-3.2-14.4-10l0,0c-1.2-6.8,3.2-13.2,10-14.4l116-21.6
		c6.8-1.2,13.2,3.2,14.4,10l0,0C326.4,81.6,322,88,315.2,89.2z"/>
</g>
<rect x="196.8" y="258.4" style="fill:#CED5E0;" width="107.6" height="26.8"/>
<path style="fill:#E6E9EE;" d="M182.8,275.2v29.2c0,18,7.6,34.4,19.6,46c10,9.6,16,22,16,35.6v2.4h64.8V386c0-13.6,6-26.4,16-35.6
	c12-11.6,19.6-28,19.6-46v-29.2H182.8z"/>
<path style="fill:#CED5E0;" d="M217.6,380.4c0.4,2,0.4,4,0.4,6v2.4h64.8v-2.4c0-2,0-4,0.4-6H217.6z"/>
<path style="fill:#2B3B4E;" d="M250.8,450L250.8,450c-18,0-32.4-14.4-32.4-32.4v-28.8h64.4v28.8C282.8,435.6,268.4,450,250.8,450z"
	/>
<g>
	<path style="fill:#324A5E;" d="M284.8,401.2l-68,5.6c-2.4,0-4.4-1.6-4.4-4l0,0c0-2,1.6-3.6,3.6-4l68-5.6c2.4,0,4.4,1.6,4.4,4l0,0
		C288.8,399.2,287.2,401.2,284.8,401.2z"/>
	<path style="fill:#324A5E;" d="M284.8,414.4l-68,5.6c-2.4,0-4.4-1.6-4.4-4l0,0c0-2,1.6-3.6,3.6-4l68-5.6c2.4,0,4.4,1.6,4.4,4l0,0
		C288.8,412.4,287.2,414,284.8,414.4z"/>
	<path style="fill:#324A5E;" d="M284.8,427.2l-68,5.6c-2.4,0-4.4-1.6-4.4-4l0,0c0-2,1.6-3.6,3.6-4l68-5.6c2.4,0,4.4,1.6,4.4,4l0,0
		C288.8,425.2,287.2,427.2,284.8,427.2z"/>
</g>
<g>
</g>
<g>
</g>
<g>
</g>
<g>
</g>
<g>
</g>
<g>
</g>
<g>
</g>
<g>
</g>
<g>
</g>
<g>
</g>
<g>
</g>
<g>
</g>
<g>
</g>
<g>
</g>
<g>
</g>
</svg>
