<?xml version="1.0" encoding="iso-8859-1"?>
<!-- Generator: Adobe Illustrator 19.0.0, SVG Export Plug-In . SVG Version: 6.00 Build 0)  -->
<svg version="1.1" id="Layer_1" xmlns="http://www.w3.org/2000/svg" xmlns:xlink="http://www.w3.org/1999/xlink" x="0px" y="0px"
	 viewBox="0 0 508 508" style="enable-background:new 0 0 508 508;" xml:space="preserve">
<circle style="fill:#FFD05B;" cx="254" cy="254" r="254"/>
<polygon style="fill:#324A5E;" points="389.6,205.2 378.8,200 310.4,344 148,181.6 247.6,122.4 241.6,112 135.2,175.2 138.4,180.4 
	134,184.4 300,350.4 167.2,376 169.6,387.6 313.2,360 312,354 317.6,356.8 "/>
<circle style="fill:#FFFFFF;" cx="138.4" cy="180.4" r="51.2"/>
<circle style="fill:#84DBFF;" cx="138.4" cy="180.4" r="34.4"/>
<circle style="fill:#FFFFFF;" cx="242" cy="118" r="36.8"/>
<circle style="fill:#F1543F;" cx="242" cy="118" r="22.8"/>
<circle style="fill:#FFFFFF;" cx="384.4" cy="202.4" r="36.8"/>
<circle style="fill:#4CDBC4;" cx="384.4" cy="202.4" r="21.2"/>
<circle style="fill:#FFFFFF;" cx="165.6" cy="383.2" r="36.8"/>
<circle style="fill:#CED5E0;" cx="165.6" cy="383.2" r="24.4"/>
<circle style="fill:#FFFFFF;" cx="312" cy="354" r="72.8"/>
<circle style="fill:#FF7058;" cx="312" cy="354" r="48.4"/>
<g>
</g>
<g>
</g>
<g>
</g>
<g>
</g>
<g>
</g>
<g>
</g>
<g>
</g>
<g>
</g>
<g>
</g>
<g>
</g>
<g>
</g>
<g>
</g>
<g>
</g>
<g>
</g>
<g>
</g>
</svg>
