<?xml version="1.0" encoding="iso-8859-1"?>
<!-- Generator: Adobe Illustrator 19.0.0, SVG Export Plug-In . SVG Version: 6.00 Build 0)  -->
<svg version="1.1" id="Layer_1" xmlns="http://www.w3.org/2000/svg" xmlns:xlink="http://www.w3.org/1999/xlink" x="0px" y="0px"
	 viewBox="0 0 508 508" style="enable-background:new 0 0 508 508;" xml:space="preserve">
<circle style="fill:#84DBFF;" cx="254" cy="254" r="254"/>
<g>
	<rect x="169.6" y="84.4" style="fill:#E6E9EE;" width="36" height="21.2"/>
	<rect x="149.6" y="113.6" style="fill:#E6E9EE;" width="208.8" height="296"/>
</g>
<g>
	<path style="fill:#FFFFFF;" d="M362.8,128H145.2c-8,0-14.4-6.4-14.4-14.4l0,0c0-8,6.4-14.4,14.4-14.4h217.6c8,0,14.4,6.4,14.4,14.4
		l0,0C377.2,121.6,370.8,128,362.8,128z"/>
	<path style="fill:#FFFFFF;" d="M366,223.6H142c-6.4,0-11.6-5.2-11.6-11.6l0,0c0-6.4,5.2-11.6,11.6-11.6h224
		c6.4,0,11.6,5.2,11.6,11.6l0,0C377.2,218.4,372.4,223.6,366,223.6z"/>
	<path style="fill:#FFFFFF;" d="M366,322H142c-6.4,0-11.6-5.2-11.6-11.6l0,0c0-6.4,5.2-11.6,11.6-11.6h224c6.4,0,11.6,5.2,11.6,11.6
		l0,0C377.2,316.8,372.4,322,366,322z"/>
	<path style="fill:#FFFFFF;" d="M362.8,423.6H145.2c-8,0-14.4-6.4-14.4-14.4l0,0c0-8,6.4-14.4,14.4-14.4h217.6
		c8,0,14.4,6.4,14.4,14.4l0,0C377.2,417.2,370.8,423.6,362.8,423.6z"/>
</g>
<g>
</g>
<g>
</g>
<g>
</g>
<g>
</g>
<g>
</g>
<g>
</g>
<g>
</g>
<g>
</g>
<g>
</g>
<g>
</g>
<g>
</g>
<g>
</g>
<g>
</g>
<g>
</g>
<g>
</g>
</svg>
