<?xml version="1.0" encoding="iso-8859-1"?>
<!-- Generator: Adobe Illustrator 19.0.0, SVG Export Plug-In . SVG Version: 6.00 Build 0)  -->
<svg version="1.1" id="Layer_1" xmlns="http://www.w3.org/2000/svg" xmlns:xlink="http://www.w3.org/1999/xlink" x="0px" y="0px"
	 viewBox="0 0 508 508" style="enable-background:new 0 0 508 508;" xml:space="preserve">
<g>
	<circle style="fill:#324A5E;" cx="254" cy="254" r="254"/>
	<path style="fill:#324A5E;" d="M508,254c0,138-110,250-246.8,254c-2.4,0-4.8,0-7.2,0c-2.4,0-4.8,0-7.2,0C110,504,0,392,0,254
		C0,113.6,113.6,0,254,0S508,113.6,508,254z"/>
</g>
<path style="fill:#FFFFFF;" d="M268.8,117.2h-29.6l-104.8,87.6v178.8c0,9.2,7.6,16.4,16.4,16.4h206c9.2,0,16.4-7.6,16.4-16.4V204.8
	L268.8,117.2z"/>
<path style="fill:#FF7058;" d="M405.2,237.6L394,250.8c-1.6,2-4.8,2.4-6.8,0.4l-13.6-11.6L254,139.6l-119.6,100l-13.6,11.6
	c-2,1.6-5.2,1.6-6.8-0.4l-10.8-13.2c-1.6-2-1.6-5.2,0.8-6.8l30.8-26l112.4-94c4.4-3.6,10.4-3.6,14.4,0l112.4,94l30.8,26
	C406.4,232.4,406.8,235.6,405.2,237.6z"/>
<path style="fill:#E6E9EE;" d="M261.2,352.8V508c-2.4,0-4.8,0-7.2,0c-2.4,0-4.8,0-7.2,0V352.8H261.2z"/>
<path style="fill:#324A5E;" d="M280.8,242.4h-6.4v-16.8c0-1.6,1.6-3.2,3.2-3.2l0,0c1.6,0,3.2,1.6,3.2,3.2L280.8,242.4L280.8,242.4z"
	/>
<path style="fill:#E6E9EE;" d="M282.8,274h-10v-31.6c0-2.8,2.4-2.8,5.2-2.8l0,0c2.8,0,5.2,0,5.2,2.8V274H282.8z"/>
<path style="fill:#324A5E;" d="M233.6,242.4h-6.4v-16.8c0-1.6,1.6-3.2,3.2-3.2l0,0c1.6,0,3.2,1.6,3.2,3.2V242.4z"/>
<path style="fill:#E6E9EE;" d="M235.2,274h-10v-31.6c0-2.8,2.4-2.8,5.2-2.8l0,0c2.8,0,5.2,0,5.2,2.8V274H235.2z"/>
<path style="fill:#54C0EB;" d="M290.4,278.8h-72.8c-2.8,0-4.8-2-4.8-4.8l0,0c0-2.8,2-4.8,4.8-4.8h72.8c2.8,0,4.8,2,4.8,4.8l0,0
	C295.2,276.8,292.8,278.8,290.4,278.8z"/>
<rect x="218" y="278.8" style="fill:#84DBFF;" width="72" height="43.2"/>
<path style="fill:#54C0EB;" d="M218,322l14.4,14.4c1.6,1.6,3.6,2.4,6,2.4h31.2c2.4,0,4.4-0.8,6-2.4L290,322H218z"/>
<path style="fill:#324A5E;" d="M269.2,338.8h-30.8V358c0,4.8,4,8.4,8.4,8.4h13.6c4.8,0,8.4-4,8.4-8.4v-19.2H269.2z"/>
<g>
</g>
<g>
</g>
<g>
</g>
<g>
</g>
<g>
</g>
<g>
</g>
<g>
</g>
<g>
</g>
<g>
</g>
<g>
</g>
<g>
</g>
<g>
</g>
<g>
</g>
<g>
</g>
<g>
</g>
</svg>
