<?xml version="1.0" encoding="iso-8859-1"?>
<!-- Generator: Adobe Illustrator 19.0.0, SVG Export Plug-In . SVG Version: 6.00 Build 0)  -->
<svg version="1.1" id="Layer_1" xmlns="http://www.w3.org/2000/svg" xmlns:xlink="http://www.w3.org/1999/xlink" x="0px" y="0px"
	 viewBox="0 0 508 508" style="enable-background:new 0 0 508 508;" xml:space="preserve">
<circle style="fill:#324A5E;" cx="254" cy="254" r="254"/>
<g>
	<path style="fill:#84DBFF;" d="M240.8,63.6c-98.8,19.2-113.2,80.8-95.2,121.2c3.6,8,7.2,14.8,11.2,20c7.6,10.4,19.2,16.8,32,17.2
		c21.2,1.2,40-13.6,44-34.8c1.2-7.2,1.6-14.4,1.2-19.6C228.8,130,234.4,91.2,240.8,63.6z"/>
	<path style="fill:#84DBFF;" d="M61.2,284.8c26-62,68.4-63.2,92.4-46c4.8,3.6,8.8,6.8,11.6,10c5.6,6.4,8.4,14.8,7.2,23.2
		c-2,14-14.4,24.4-28.4,24c-5.2,0-9.6-0.8-13.2-2C106.4,286,80,284.4,61.2,284.8z"/>
</g>
<path style="fill:#54C0EB;" d="M340.8,319.6c-4,0.8-6.8,4.4-6.8,8.4v65.6c0,26-19.2,49.2-45.6,51.6c-30,2.8-55.2-20.8-55.2-50V324
	c0-12.4-3.6-24.4-10.8-34.8l-4-6c-0.4-0.4-0.4-0.8-0.8-0.8c-2.4-3.6-4.8-7.2-6-10.4c-2.8-5.6-5.6-11.6-8.4-18.4
	c-2.8-6.8-5.2-13.6-7.2-21.2c-2-7.6-4-15.2-5.2-23.6c-1.2-8-2-16.4-2-24.8c0-8.4,0.4-16.8,2-24.8c0.8-4,1.2-8,2.4-12
	c0.4-2,0.8-4,1.6-6c0.4-1.2,0.8-2.8,1.2-4c0.8-2.4,1.6-4.8,2.4-7.2c0.8-2,1.6-3.6,2-5.2c0.8-1.6,1.2-3.6,2-5.2s1.6-3.2,2.4-4.8
	c2.8-6.8,6.8-12.4,10-18c3.6-5.2,6.8-10.4,10-14.4s6-7.6,8.4-10.4c4.8-5.6,7.6-8.8,7.6-8.8s-3.2,3.2-8.4,8.4c-2.8,2.4-5.6,6-9.2,10
	c-3.6,4-6.8,8.8-10.8,14c-3.6,5.2-7.6,11.2-11.2,17.6c-0.8,1.6-2,3.2-2.8,4.8c-0.8,1.6-1.6,3.6-2.4,5.2l-0.4,0.8
	c-1.2,2.8-3.2,7.2-4.4,10.4c-0.8,2-1.6,4-2,5.6c-0.8,2-1.2,4-2,6c-1.2,4-2.4,8-3.2,12.4c-2,8.4-2.8,17.2-3.6,25.6
	c-0.4,8.8-0.4,17.6,0.4,26c0.8,8.4,2,16.8,4,25.2c1.6,8,4,15.6,6.4,22.8c2.4,7.2,5.2,13.6,8,19.6c0.8,2,1.6,3.6,2.4,5.2
	c-2.4-1.6-4.4-2.8-7.2-4.4c-4.4-2.4-9.2-5.2-14-7.2c-5.2-2.4-10.4-4.4-16-6s-11.2-2.8-17.2-4c-5.6-0.8-11.6-1.2-17.2-1.2
	c-2.8,0-5.6,0-8.4,0.4c-1.2,0-2.4,0.4-3.6,0.4c-1.6,0.4-2.8,0.4-4.4,0.8s-2.8,0.4-4.4,0.8c-1.2,0.4-2.4,0.8-4,0.8
	c-1.2,0.4-2.4,0.8-3.6,0.8c-1.2,0.4-2.4,0.8-3.6,1.2c-4,2-8,4-12,5.6c-4,2-7.6,3.6-10.4,5.2c-3.2,1.6-5.6,3.2-7.6,4.4
	c-4,2.8-6.4,4.4-6.4,4.4s2.4-1.6,6.8-4c2-1.2,4.8-2.4,8-4s6.8-2.8,10.8-4.8c4-1.2,8.4-2.8,13.2-4c1.2-0.4,2.4-0.8,3.6-0.8
	c1.2-0.4,2.4-0.4,3.6-0.8s2.4-0.4,3.6-0.8c0.4,0,0.4,0,0.8,0c2.4-0.4,4.8-0.4,7.2-0.8c1.2,0,2.8,0,4,0c2.8,0,5.6,0,8,0
	c5.6,0.4,11.2,1.2,16.4,2c5.6,1.2,10.8,2.8,16,4.8s10,4,14.8,6.4s8.8,5.2,12.8,7.6c4,2.8,7.6,5.2,10.8,8c2.8,2,6,5.2,8.8,8
	c3.6,3.6,6,7.6,7.2,12.4c0,0.8,0.4,1.6,0.4,2.4v76.4c0,36.8,30.4,68.4,67.2,68c36-0.4,65.2-30,65.2-66v-67.2
	C350,322.8,345.6,318.8,340.8,319.6z"/>
<g>
	<path style="fill:#E6E9EE;" d="M312,184.4h-23.2v-55.2c0-6.4,5.2-11.6,11.6-11.6l0,0c6.4,0,11.6,5.2,11.6,11.6V184.4z"/>
	<path style="fill:#E6E9EE;" d="M395.2,184.4H372v-55.2c0-6.4,5.2-11.6,11.6-11.6l0,0c6.4,0,11.6,5.2,11.6,11.6V184.4z"/>
	<path style="fill:#E6E9EE;" d="M342,344.8L342,344.8c-13.6,0-24.8-11.2-24.8-24.8v-18h50v18C367.2,333.6,356,344.8,342,344.8z"/>
</g>
<path style="fill:#FFFFFF;" d="M391.6,312.4h-99.2c-17.2,0-30.8-14-30.8-30.8v-97.2h161.2v97.2C422.8,298.8,408.8,312.4,391.6,312.4
	z"/>
<circle style="fill:#E6E9EE;" cx="342" cy="254.4" r="21.2"/>
<g>
</g>
<g>
</g>
<g>
</g>
<g>
</g>
<g>
</g>
<g>
</g>
<g>
</g>
<g>
</g>
<g>
</g>
<g>
</g>
<g>
</g>
<g>
</g>
<g>
</g>
<g>
</g>
<g>
</g>
</svg>
