<?xml version="1.0" encoding="iso-8859-1"?>
<!-- Generator: Adobe Illustrator 19.0.0, SVG Export Plug-In . SVG Version: 6.00 Build 0)  -->
<svg version="1.1" id="Layer_1" xmlns="http://www.w3.org/2000/svg" xmlns:xlink="http://www.w3.org/1999/xlink" x="0px" y="0px"
	 viewBox="0 0 508 508" style="enable-background:new 0 0 508 508;" xml:space="preserve">
<circle style="fill:#324A5E;" cx="254" cy="254" r="254"/>
<path style="fill:#F9B54C;" d="M208.4,328.8v40.8c0,4.4-3.6,8-8,8H134l30.4-56.8h36C204.8,320.8,208.4,324.4,208.4,328.8z"/>
<path style="fill:#84DBFF;" d="M286.4,94.8h-59.6c-2.8,0-5.6,1.6-6.8,4l-32.4,60c-2,4-0.4,9.2,3.6,10.8l37.6,17.2
	c4,1.6,8.4,0,10.4-3.6l15.2-28.8l0,0L286.4,94.8z"/>
<path style="fill:#54C0EB;" d="M362.4,194.8l-16,61.2c-1.2,4.4-5.6,6.8-9.6,5.6l-61.2-16.4c-6.8-2-8-10.8-2-14.4l16.4-9.6l-2-3.2
	l-34-63.2l32-60l52.8,97.6l12-6.8C356.8,182,364.4,187.6,362.4,194.8z"/>
<path style="fill:#F1543F;" d="M408,320.8h-64.4L330,295.6c-2-3.6-0.8-8.4,2.8-10.8L368,264c4-2.4,8.8-0.8,10.8,3.2L408,320.8z"/>
<path style="fill:#FF7058;" d="M408,320.8l-31.6,52.8c-1.6,2.4-4,4-6.8,4H286V394c0,7.2-8.4,10.8-13.6,5.6l-44.8-44.8
	c-3.2-3.2-3.2-8,0-11.2l44.8-44.8c4.8-5.2,13.6-1.6,13.6,5.6v16.4H408z"/>
<path style="fill:#FFD05B;" d="M214.4,272.4l-18.8-8.8l-30.8,57.2L134,377.6l-31.6-52.8c-1.6-2.4-1.6-5.2,0-8l41.6-77.2l-10.8-4.8
	c-6.4-2.8-6-12,0.4-14.8l59.2-22c4-1.6,8.8,0.4,10.4,4.8l22,59.2C227.6,268.8,220.8,275.2,214.4,272.4z"/>
<g>
</g>
<g>
</g>
<g>
</g>
<g>
</g>
<g>
</g>
<g>
</g>
<g>
</g>
<g>
</g>
<g>
</g>
<g>
</g>
<g>
</g>
<g>
</g>
<g>
</g>
<g>
</g>
<g>
</g>
</svg>
