<?xml version="1.0" encoding="iso-8859-1"?>
<!-- Generator: Adobe Illustrator 19.0.0, SVG Export Plug-In . SVG Version: 6.00 Build 0)  -->
<svg version="1.1" id="Layer_1" xmlns="http://www.w3.org/2000/svg" xmlns:xlink="http://www.w3.org/1999/xlink" x="0px" y="0px"
	 viewBox="0 0 508 508" style="enable-background:new 0 0 508 508;" xml:space="preserve">
<circle style="fill:#324A5E;" cx="254" cy="254" r="254"/>
<path style="fill:#FF7058;" d="M254,68.8c-100,0-181.2,80.8-181.6,180.4c0,0.4,0,0.8,0,1.2c0,8,0.4,16,1.6,24
	c11.6,89.2,88,158,180,158c100.4,0,181.6-81.2,181.6-181.6C435.6,150,354.4,68.8,254,68.8z M254,368c-56.8,0-104-40-114.8-93.6
	c-1.6-7.6-2.4-15.6-2.4-24c0-2.8,0-5.2,0.4-8c4-61.2,54.8-109.2,117.2-109.2c64.8,0,117.2,52.4,117.2,117.2
	C371.2,315.2,318.8,368,254,368z"/>
<path style="fill:#84DBFF;" d="M273.6,366v64.8c-6.4,0.8-12.8,1.2-19.6,1.2c-2.8,0-5.6,0-8.4-0.4c-90-4-162.8-73.6-172.4-162H138
	c9.2,53.2,53.6,94.4,108,98c2.8,0.4,5.2,0.4,8,0.4C260.8,368,267.2,367.2,273.6,366z"/>
<path style="fill:#FFFFFF;" d="M435.6,250.4c0,2.8,0,5.6-0.4,8.4c-4,90-73.6,162.8-161.6,172.4V366c50.8-8.4,90.4-49.6,96.8-101.2
	c0.8-4.8,0.8-9.6,0.8-14.4s-0.4-9.6-0.8-14.4h64.8C435.6,240.8,435.6,245.6,435.6,250.4z"/>
<path style="fill:#E6E9EE;" d="M435.6,250.4c0,2.8,0,5.6-0.4,8.4l-35.6,35.6L370,264.8c0.8-4.8,0.8-9.6,0.8-14.4s-0.4-9.6-0.8-14.4
	h64.8C435.6,240.8,435.6,245.6,435.6,250.4z"/>
<polygon style="fill:#FFFFFF;" points="284.4,460.8 284.4,339.2 223.6,400 "/>
<path style="fill:#54C0EB;" d="M273.6,366v64.8c-6.4,0.8-12.8,1.2-19.6,1.2c-2.8,0-5.6,0-8.4-0.4l-32-32l32.4-32.4
	c2.8,0.4,5.2,0.4,8,0.4C260.8,368,267.2,367.2,273.6,366z"/>
<polygon style="fill:#FFFFFF;" points="284.4,460.8 284.4,339.2 223.6,400 "/>
<g>
	<path style="fill:#FFD05B;" d="M434.4,230h-64.8c-8.8-50.4-50-89.6-101.2-96l0,0c-4.8-0.8-9.6-0.8-14.4-0.8
		c-6.8,0-13.6,0.8-20.4,1.6c-1.2,0.4-2.4,0.4-3.6,0.8V70.4c1.2,0,2.4-0.4,3.6-0.4c6.8-0.8,13.6-1.2,20.4-1.2c0.4,0,0.8,0,1.2,0
		C348,69.2,424.4,139.6,434.4,230z"/>
	<polygon style="fill:#FFD05B;" points="460.8,223.6 339.2,223.6 400,284.4 	"/>
</g>
<path style="fill:#F9B54C;" d="M294.4,108l-26,26l0,0c-4.8-0.8-9.6-0.8-14.4-0.8c-6.8,0-13.6,0.8-20.4,1.6V70
	c6.8-0.8,13.6-1.2,20.4-1.2c0.4,0,0.8,0,1.2,0L294.4,108z"/>
<polygon style="fill:#FF7058;" points="223.6,47.2 223.6,168.8 284.4,108 "/>
<path style="fill:#F1543F;" d="M139.2,274.4H74c-1.2-8-1.6-15.6-1.6-24c0-0.4,0-0.8,0-1.2l35.6-35.6l28.8,28.8c0,2.8-0.4,5.2-0.4,8
	C136.8,258.8,137.6,266.8,139.2,274.4z"/>
<polygon style="fill:#84DBFF;" points="47.2,284.4 168.8,284.4 108,223.6 "/>
<g>
</g>
<g>
</g>
<g>
</g>
<g>
</g>
<g>
</g>
<g>
</g>
<g>
</g>
<g>
</g>
<g>
</g>
<g>
</g>
<g>
</g>
<g>
</g>
<g>
</g>
<g>
</g>
<g>
</g>
</svg>
