<?xml version="1.0" encoding="iso-8859-1"?>
<!-- Generator: Adobe Illustrator 19.0.0, SVG Export Plug-In . SVG Version: 6.00 Build 0)  -->
<svg version="1.1" id="Layer_1" xmlns="http://www.w3.org/2000/svg" xmlns:xlink="http://www.w3.org/1999/xlink" x="0px" y="0px"
	 viewBox="0 0 508 508" style="enable-background:new 0 0 508 508;" xml:space="preserve">
<circle style="fill:#FF7058;" cx="254" cy="254" r="254"/>
<path style="fill:#FFFFFF;" d="M312,221.6v-22l-27.6-7.6c-2.4-10.8-6.4-20.8-12.4-30l14.4-25.2l-15.6-15.6l-25.2,14
	c-8.8-6-19.2-10-30-12.4l-7.6-28h-22l-8,28c-10.8,2.4-20.8,6.4-30,12.4l-25.2-14.4l-15.6,15.6l14,25.2c-6,8.8-10,19.2-12.4,30
	l-28,7.6v22l27.6,7.6c2.4,10.8,6.4,20.8,12.4,30L106.4,284l15.6,15.6l25.2-14c8.8,6,19.2,10,30,12.4l7.6,28h22l7.6-27.6
	c10.8-2.4,20.8-6.4,30-12.4l25.2,14.4l15.6-15.6l-14-25.2c6-8.8,10-19.2,12.4-30L312,221.6z"/>
<circle style="fill:#E6E9EE;" cx="196.4" cy="210.4" r="67.6"/>
<g>
	<circle style="fill:#FFFFFF;" cx="196.4" cy="210.4" r="36.8"/>
	<path style="fill:#FFFFFF;" d="M388,404l12-8.4l-6-18c5.2-5.2,8.8-11.2,11.6-18l18.8-1.6l2.4-14.4l-17.2-8.4c0-7.2-1.6-14-4.4-20.8
		l12-14.8l-8.4-12l-18,6.4c-5.2-5.2-11.2-8.8-18-11.6l-1.6-18.8l-14.4-2.4l-8.4,17.2c-7.2,0-14,1.6-20.8,4.4l-14.8-12l-12,8.4
		l6.4,18c-5.2,5.2-8.8,11.2-11.6,18l-18.8,1.6l-2.4,14.4l17.2,8.4c0,7.2,1.6,14,4.4,20.8l-12,14.8l8.4,12l18-6.4
		c5.2,5.2,11.2,8.8,18,11.6l1.6,18.8l14.4,2.4l8.4-17.2c7.2,0,14-1.6,20.8-4.4L388,404z"/>
</g>
<circle style="fill:#E6E9EE;" cx="351.2" cy="337.2" r="44.4"/>
<circle style="fill:#FFFFFF;" cx="351.2" cy="337.2" r="24"/>
<g>
</g>
<g>
</g>
<g>
</g>
<g>
</g>
<g>
</g>
<g>
</g>
<g>
</g>
<g>
</g>
<g>
</g>
<g>
</g>
<g>
</g>
<g>
</g>
<g>
</g>
<g>
</g>
<g>
</g>
</svg>
