<?xml version="1.0" encoding="iso-8859-1"?>
<!-- Generator: Adobe Illustrator 19.0.0, SVG Export Plug-In . SVG Version: 6.00 Build 0)  -->
<svg version="1.1" id="Layer_1" xmlns="http://www.w3.org/2000/svg" xmlns:xlink="http://www.w3.org/1999/xlink" x="0px" y="0px"
	 viewBox="0 0 508 508" style="enable-background:new 0 0 508 508;" xml:space="preserve">
<circle style="fill:#324A5E;" cx="254" cy="254" r="254"/>
<path style="fill:#FFFFFF;" d="M442,254c0,0-1.6-0.4-4.4-0.8c-2.8-0.4-6.8-1.2-12-1.6c-10.4-1.2-24.8-2.8-42.8-4.4c-2,0-4-0.4-6-0.4
	c2.8-1.6,5.6-4,8-6.4c2.8-2.8,4.8-5.6,6.8-8.8s3.2-6.4,4.4-9.2c1.2-2.8,1.6-5.6,1.6-7.6c0-0.8,0-2,0.4-2.4c0-0.8,0-0.8,0-0.8
	s-0.4,0-0.8,0s-1.6,0-2.4,0.4c-2,0.4-4.8,0.8-7.6,1.6c-2.8,0.8-6,2.4-9.2,4.4s-6,4-8.8,6.8c-5.2,5.2-9.2,12-11.2,18
	c-0.4,1.2-0.8,2-0.8,2.8c-10.8-0.8-22.4-1.2-34-1.6c-6.4-0.4-13.2-0.4-20-0.8c7.6-4,14.4-7.6,20.4-11.2c8.4-5.2,15.6-9.6,20.4-13.2
	c2.4-1.6,4.4-3.2,5.6-4s2-1.6,2-1.6s-0.8,0-2.4,0.4s-4,0.4-6.8,1.2c-6,1.2-14,2.8-23.6,5.2c-6.8,1.6-14.4,4-22.4,6.4
	c4.8-4.8,9.2-10,13.6-14.8c8-8.8,15.6-17.2,22.8-25.2c0.8,0.4,1.6,1.2,2.8,1.6c5.6,2.8,13.2,4.8,20.4,4.8c3.6,0,7.6-0.4,10.8-1.2
	c3.6-0.8,6.8-2,9.6-3.6c2.8-1.2,5.2-2.8,6.8-4.4c0.8-0.4,1.6-1.2,2-1.6c0.4,0,0.8,0,0.8,0s-0.4-0.4-0.8-0.8c-0.4-0.4-1.2-1.2-2-1.6
	c-1.6-1.2-4-2.8-6.8-4.4c-2.8-1.2-6-2.8-9.6-3.6s-7.2-1.2-10.8-1.2c-3.6,0-6.8,0.4-10,1.2c1.2-1.6,2.8-3.2,4-4.8
	c11.6-13.6,20.8-24.8,27.2-33.2c3.2-4,5.6-7.2,7.2-9.6s2.4-3.6,2.4-3.6s-1.2,0.8-3.6,2.4c-2,1.6-5.6,4-9.6,7.2
	c-8,6.4-19.6,15.6-33.2,27.2c-1.6,1.2-3.2,2.8-4.8,4c0.8-3.2,1.2-6.8,1.2-10c0-3.6-0.4-7.6-1.2-10.8c-0.8-3.6-2-6.8-3.6-9.6
	c-1.2-2.8-2.8-5.2-4.4-6.8c-0.4-0.8-1.2-1.6-1.6-2c0.4,0.4,0,0,0,0s-0.4,0.4-0.8,0.8s-1.2,1.2-1.6,2c-1.2,1.6-2.8,4-4.4,6.8
	c-1.2,2.8-2.8,6-3.6,9.6c-0.8,3.6-1.2,7.2-1.2,10.8c0,7.6,2,14.8,4.8,20.4c0.4,0.8,0.8,2,1.6,2.8c-8,7.2-16.4,14.8-25.2,22.8
	c-4.8,4.4-9.6,9.2-14.8,13.6c2.4-8,4.8-15.6,6.4-22.4c2.4-9.6,4.4-18,5.2-23.6c0.4-2.8,0.8-5.2,1.2-6.8c0.4-1.6,0.4-2.4,0.4-2.4
	s-0.4,0.8-1.6,2c-0.8,1.2-2.4,3.2-4,5.6c-3.2,4.8-8,12-13.2,20.4c-3.6,6-7.6,12.8-11.2,20.4c0-6.8-0.4-13.6-0.8-20
	c-0.4-12-1.2-23.2-1.6-34c0.8-0.4,2-0.4,2.8-0.8c6-2,12.8-6,18-11.2c2.8-2.8,4.8-5.6,6.8-8.8s3.2-6.4,4.4-9.2
	c1.2-2.8,1.6-5.6,1.6-7.6c0-0.8,0-2,0.4-2.4c0-0.8,0-0.8,0-0.8s-0.4,0-0.8,0s-1.6,0-2.4,0.4c-2,0.4-4.8,0.8-7.6,1.6
	c-2.8,0.8-6,2.4-9.2,4.4s-6,4-8.8,6.8c-2.4,2.4-4.4,5.2-6.4,8c0-2-0.4-4-0.4-6c-1.6-17.6-2.8-32.4-4.4-42.8c-0.4-5.2-1.2-9.2-1.6-12
	c0.4-2.8,0-4.4,0-4.4s-0.4,1.6-0.8,4.4c-0.4,2.8-1.2,6.8-1.6,12c-1.2,10.4-2.8,24.8-4.4,42.8c0,2-0.4,4-0.4,6c-1.6-2.8-4-5.6-6.4-8
	c-2.8-2.8-5.6-4.8-8.8-6.8s-6.4-3.2-9.2-4.4c-2.8-1.2-5.6-1.6-7.6-1.6c-0.8,0-2,0-2.4-0.4c-0.8,0-0.8,0-0.8,0s0,0.4,0,0.8
	s0,1.6,0.4,2.4c0.4,2,0.8,4.8,1.6,7.6c0.8,2.8,2.4,6,4.4,9.2c2,3.2,4,6,6.8,8.8c5.2,5.2,12,9.2,18,11.2c1.2,0.4,2,0.8,2.8,0.8
	c-0.8,10.8-1.2,22.4-1.6,34c-0.4,6.4-0.4,13.2-0.8,20c-4-7.6-7.6-14.4-11.2-20.4c-5.2-8.4-9.6-15.6-13.2-20.4
	c-1.6-2.4-3.2-4.4-4-5.6c-0.8-1.2-1.6-2-1.6-2s0,0.8,0.4,2.4c0.4,1.6,0.4,4,1.2,6.8c1.2,6,2.8,14,5.2,23.6c1.6,6.8,4,14.4,6.4,22.4
	c-4.8-4.8-10-9.2-14.8-13.6c-8.8-8-17.2-15.6-25.2-23.2c0.4-0.8,0.8-1.6,1.6-2.8c2.8-5.6,4.8-13.2,4.8-20.4c0-3.6-0.4-7.6-1.2-10.8
	c-0.8-3.6-2-6.8-3.6-9.6c-1.2-2.8-2.8-5.2-4.4-6.8c-0.4-0.8-1.2-1.6-1.6-2c0,0,0-0.4,0-0.4s-0.4,0.4-0.8,0.8c-0.4,0.4-1.2,1.2-1.6,2
	c-1.2,1.6-2.8,4-4.4,6.8c-1.2,2.8-2.8,6-3.6,9.6s-1.2,7.2-1.2,10.8s0.4,6.8,1.2,10c-1.6-1.2-3.2-2.8-4.8-4
	c-13.6-11.6-24.8-20.8-33.2-27.2c-4-3.2-7.2-5.6-9.6-7.2s-3.6-2.4-3.6-2.4s0.8,1.2,2.4,3.6c1.6,2,4,5.6,7.2,9.6
	c6.4,8,15.6,19.6,27.2,33.2c1.2,1.6,2.8,3.2,4,4.8c-3.2-0.8-6.8-1.2-10-1.2c-3.6,0-7.6,0.4-10.8,1.2c-3.6,0.8-6.8,2-9.6,3.6
	c-2.8,1.2-5.2,2.8-6.8,4.4c-0.8,0.4-1.6,1.2-2,1.6c0.4-0.4,0,0,0,0s0.4,0.4,0.8,0.8c0.4,0.4,1.2,1.2,2,1.6c1.6,1.2,4,2.8,6.8,4.4
	c2.8,1.2,6,2.8,9.6,3.6s7.2,1.2,10.8,1.2c7.6,0,14.8-2,20.4-4.8c0.8-0.4,2-0.8,2.8-1.6c7.2,8,14.8,16.4,23.2,25.2
	c4.4,4.8,9.2,9.6,13.6,14.4c-8-2.4-15.6-4.8-22.4-6.4c-9.6-2.4-18-4-23.6-5.2c-2.8-0.4-5.2-0.8-6.8-1.2s-2.4-0.4-2.4-0.4
	s0.8,0.4,2,1.6c1.2,0.8,3.2,2.4,5.6,4c4.8,3.2,12,8,20.4,13.2c6,3.6,12.8,7.2,20.4,11.2c-6.8,0-13.6,0.4-20,0.8
	c-12,0.4-23.2,0.8-34,1.6c-0.4-0.8-0.4-2-0.8-2.8c-2-6-6-12.8-11.2-18c-2.8-2.8-5.6-4.8-8.8-6.8s-6.4-3.2-9.2-4.4
	c-2.8-1.2-5.6-1.6-7.6-1.6c-0.8,0-2,0-2.4-0.4c-0.8,0-0.8,0-0.8,0s0,0.4,0,0.8c0,0.4,0,1.6,0.4,2.4c0.4,2,0.8,4.8,1.6,7.6
	c0.8,2.8,2.4,6,4.4,9.2s4.4,6,6.8,8.8c2.4,2.4,5.2,4.4,8,6.4c-2,0-4,0.4-6,0.4c-17.6,1.6-32.4,2.8-42.8,4.4c-5.2,0.4-9.2,1.2-12,1.6
	c-3.2,0-4.8,0.4-4.8,0.4s1.6,0.4,4.4,0.8s6.8,1.2,12,1.6c10.4,1.2,24.8,2.8,42.8,4.4c2,0,4,0.4,6,0.4c-2.8,1.6-5.6,4-8,6.4
	c-2.8,2.8-4.8,5.6-6.8,8.8c-2,3.2-3.2,6.4-4.4,9.2c-1.2,2.8-1.6,5.6-1.6,7.6c0,0.8,0,2-0.4,2.4c0,0.8,0,0.8,0,0.8s0.4,0,0.8,0
	s1.6,0,2.4-0.4c2-0.4,4.8-0.8,7.6-1.6c2.8-0.8,6-2.4,9.2-4.4c3.2-2,6-4,8.8-6.8c5.2-5.2,9.2-12,11.2-18c0.4-1.2,0.8-2,0.8-2.8
	c10.8,0.8,22.4,1.2,34,1.6c6.4,0.4,13.2,0.4,20,0.8c-7.2,4-14.4,7.6-20.4,11.2c-8.4,5.2-15.6,9.6-20.4,13.2c-2.4,1.6-4.4,3.2-5.6,4
	c-1.2,0.8-2,1.6-2,1.6s0.8,0,2.4-0.4c1.6-0.4,4-0.4,6.8-1.2c6-1.2,14-2.8,23.6-5.2c6.8-1.6,14.4-4,22.4-6.4
	c-4.8,4.8-9.2,9.6-13.6,14.4c-8,8.8-15.6,17.2-23.2,25.2c-0.8-0.4-1.6-0.8-2.8-1.6c-5.6-2.8-13.2-4.8-20.4-4.8
	c-3.6,0-7.6,0.4-10.8,1.2c-3.6,0.8-6.8,2-9.6,3.6c-2.8,1.2-5.2,2.8-6.8,4.4c-0.8,0.4-1.6,1.2-2,1.6c0,0.4-0.4,0.4-0.4,0.4
	s0.4,0.4,0.8,0.8s1.2,1.2,2,1.6c1.6,1.2,4,2.8,6.8,4.4c2.8,1.2,6,2.8,9.6,3.6c3.6,0.8,7.2,1.2,10.8,1.2s6.8-0.4,10-1.2
	c-1.2,1.6-2.8,3.2-4,4.8c-11.6,13.6-20.8,24.8-27.2,33.2c-3.2,4-5.6,7.2-7.2,9.6s-2.4,3.6-2.4,3.6s1.2-0.8,3.6-2.4
	c2-1.6,5.6-4,9.6-7.2c8-6.4,19.6-15.6,33.2-27.2c1.6-1.2,3.2-2.8,4.8-4c-0.8,3.2-1.2,6.8-1.2,10c0,3.6,0.4,7.6,1.2,10.8
	c0.8,3.6,2,6.8,3.6,9.6c1.2,2.8,2.8,5.2,4.4,6.8c0.4,0.8,1.2,1.6,1.6,2c-0.4-0.4,0,0,0,0s0.4-0.4,0.8-0.8c0.4-0.4,1.2-1.2,1.6-2
	c1.2-1.6,2.8-4,4.4-6.8c1.2-2.8,2.8-6,3.6-9.6s1.2-7.2,1.2-10.8c0-7.6-2-14.8-4.8-20.4c-0.4-0.8-0.8-2-1.6-2.8
	c8-7.2,16.4-14.8,25.2-23.2c4.8-4.4,9.6-9.2,14.4-13.6c-2.4,8-4.8,15.6-6.4,22.4c-2.4,9.6-4,18-5.2,23.6c-0.4,2.8-0.8,5.2-1.2,6.8
	c-0.4,1.6-0.4,2.4-0.4,2.4s0.4-0.8,1.6-2c0.8-1.2,2.4-3.2,4-5.6c3.2-4.8,8-12,13.2-20.4c3.6-6,7.2-12.8,11.2-20.4
	c0,6.8,0.4,13.6,0.8,20c0.4,12,0.8,23.2,1.6,34c-0.8,0.4-2,0.4-2.8,0.8c-6,2-12.8,6-18,11.2c-2.8,2.8-4.8,5.6-6.8,8.8
	c-2,3.2-3.2,6.4-4.4,9.2c-1.2,2.8-1.6,5.6-1.6,7.6c0,0.8,0,2-0.4,2.4c0,0.8,0,0.8,0,0.8s0.4,0,0.8,0c0.4,0,1.6,0,2.4-0.4
	c2-0.4,4.8-0.8,7.6-1.6c2.8-0.8,6-2.4,9.2-4.4s6-4.4,8.8-6.8c2.4-2.4,4.4-5.2,6.4-8c0,2,0.4,4,0.4,6c1.6,17.6,2.8,32.4,4.4,42.8
	c0.4,5.2,1.2,9.2,1.6,12c0.4,2.8,0.8,4.4,0.8,4.4s0.4-1.6,0.8-4.4s1.2-6.8,1.6-12c1.2-10.4,2.8-24.8,4.4-42.8c0-2,0.4-4,0.4-6
	c1.6,2.8,4,5.6,6.4,8c2.8,2.8,5.6,4.8,8.8,6.8c3.2,2,6.4,3.2,9.2,4.4c2.8,1.2,5.6,1.6,7.6,1.6c0.8,0,2,0,2.4,0.4c0.8,0,0.8,0,0.8,0
	s0-0.4,0-0.8s0-1.6-0.4-2.4c-0.4-2-0.8-4.8-1.6-7.6c-0.8-2.8-2.4-6-4.4-9.2s-4-6-6.8-8.8c-5.2-5.2-12-9.2-18-11.2
	c-1.2-0.4-2-0.8-2.8-0.8c0.8-10.8,1.2-22.4,1.6-34c0.4-6.4,0.4-13.2,0.8-20c4,7.2,7.6,14.4,11.2,20.4c5.2,8.4,9.6,15.6,13.2,20.4
	c1.6,2.4,3.2,4.4,4,5.6s1.6,2,1.6,2s0-0.8-0.4-2.4s-0.4-4-1.2-6.8c-1.2-6-2.8-14-5.2-23.6c-1.6-6.8-4-14.4-6.4-22.4
	c4.8,4.8,10,9.2,14.8,13.6c8.8,8,17.2,15.6,25.2,22.8c-0.4,0.8-1.2,1.6-1.6,2.8c-2.8,5.6-4.8,13.2-4.8,20.4c0,3.6,0.4,7.6,1.2,10.8
	c0.8,3.6,2,6.8,3.6,9.6c1.2,2.8,2.8,5.2,4.4,6.8c0.4,0.8,1.2,1.6,1.6,2c-0.4,0.8-0.4,1.2-0.4,1.2s0.4-0.4,0.8-0.8s1.2-1.2,1.6-2
	c1.2-1.6,2.8-4,4.4-6.8c1.2-2.8,2.8-6,3.6-9.6c0.8-3.6,1.2-7.2,1.2-10.8c0-3.6-0.4-6.8-1.2-10c1.6,1.2,3.2,2.8,4.8,4
	c13.6,11.6,24.8,20.8,33.2,27.2c4,3.2,7.2,5.6,9.6,7.2s3.6,2.4,3.6,2.4s-0.8-1.2-2.4-3.6c-1.6-2-4-5.6-7.2-9.6
	c-6.4-8-15.6-19.6-27.2-33.2c-1.2-1.6-2.8-3.2-4-4.8c3.2,0.8,6.8,1.2,10,1.2c3.6,0,7.6-0.4,10.8-1.2c3.6-0.8,6.8-2,9.6-3.6
	c2.8-1.2,5.2-2.8,6.8-4.4c0.8-0.4,1.6-1.2,2-1.6c-0.4,0.4,0,0,0,0s-0.4-0.4-0.8-0.8s-1.2-1.2-2-1.6c-1.6-1.2-4-2.8-6.8-4.4
	c-2.8-1.2-6-2.8-9.6-3.6c-3.6-0.8-7.2-1.2-10.8-1.2c-7.6,0-14.8,2-20.4,4.8c-0.8,0.4-2,0.8-2.8,1.6c-7.2-8-14.8-16.4-22.8-25.2
	c-4.4-4.8-9.2-9.6-13.6-14.8c8,2.4,15.6,4.8,22.4,6.4c9.6,2.4,18,4.4,23.6,5.2c2.8,0.4,5.2,0.8,6.8,1.2c1.6,0.4,2.4,0.4,2.4,0.4
	s-0.8-0.4-2-1.6c-1.2-0.8-3.2-2.4-5.6-4c-4.8-3.2-12-8-20.4-13.2c-6-3.6-12.8-7.6-20.4-11.2c6.8,0,13.6-0.4,20-0.8
	c12-0.4,23.2-1.2,34-1.6c0.4,0.8,0.4,2,0.8,2.8c2,6,6,12.8,11.2,18c2.8,2.8,5.6,4.8,8.8,6.8c3.2,2,6.4,3.2,9.2,4.4
	c2.8,1.2,5.6,1.6,7.6,1.6c0.8,0,2,0,2.4,0.4c0.8,0,0.8,0,0.8,0s0-0.4,0-0.8s0-1.6-0.4-2.4c-0.4-2-0.8-4.8-1.6-7.6
	c-0.8-2.8-2.4-6-4.4-9.2s-4.4-6-6.8-8.8c-2.4-2.4-5.2-4.4-8-6.4c2,0,4-0.4,6-0.4c17.6-1.6,32.4-2.8,42.8-4.4c5.2-0.4,9.2-1.2,12-1.6
	C440.4,254.4,442,254,442,254z"/>
<g>
</g>
<g>
</g>
<g>
</g>
<g>
</g>
<g>
</g>
<g>
</g>
<g>
</g>
<g>
</g>
<g>
</g>
<g>
</g>
<g>
</g>
<g>
</g>
<g>
</g>
<g>
</g>
<g>
</g>
</svg>
