<?xml version="1.0" encoding="iso-8859-1"?>
<!-- Generator: Adobe Illustrator 19.0.0, SVG Export Plug-In . SVG Version: 6.00 Build 0)  -->
<svg version="1.1" id="Layer_1" xmlns="http://www.w3.org/2000/svg" xmlns:xlink="http://www.w3.org/1999/xlink" x="0px" y="0px"
	 viewBox="0 0 508 508" style="enable-background:new 0 0 508 508;" xml:space="preserve">
<circle style="fill:#FD8469;" cx="254" cy="254" r="254"/>
<path style="fill:#324A5E;" d="M370.8,244.4c0,30-24.4,54.4-54.4,54.4H146.8c-25.2,0-46-20.8-46-46c0-24,18.8-44,42.4-46V198
	c-28.8,2-51.6,26-51.6,55.2c0,30.4,24.8,55.2,55.2,55.2h169.6c35.2,0,63.6-28.4,63.6-63.6h-9.2V244.4z"/>
<path style="fill:#FFFFFF;" d="M312,399.6H159.6c-8.8,0-15.6-6.8-15.6-15.6V124c0-8.8,6.8-15.6,15.6-15.6H312
	c8.8,0,15.6,6.8,15.6,15.6v260.4C327.6,392.8,320.8,399.6,312,399.6z"/>
<path style="fill:#E6E9EE;" d="M277.2,140.4h-82.8c-4.4,0-8.4,2-10.8,5.6c-8,12.8-12.4,28.4-12.4,45.6s4.8,32.8,12.4,45.6
	c2.4,3.6,6.4,5.6,10.8,5.6h82.8c4.4,0,8.4-2,10.8-5.6c8-12.8,12.4-28.4,12.4-45.6s-4.8-32.8-12.4-45.6
	C285.6,142.4,281.6,140.4,277.2,140.4z"/>
<g>
	<rect x="252.8" y="163.6" style="fill:#324A5E;" width="10" height="22"/>
	<rect x="209.2" y="163.6" style="fill:#324A5E;" width="10" height="22"/>
	<path style="fill:#324A5E;" d="M247.2,219.6V210c0-6-5.2-11.2-11.2-11.2l0,0c-6,0-11.2,5.2-11.2,11.2v9.2h22.4V219.6z"/>
</g>
<path style="fill:#E6E9EE;" d="M277.2,265.2h-82.8c-4.4,0-8.4,2-10.8,5.6c-8,12.8-12.4,28.4-12.4,45.6s4.8,32.8,12.4,45.6
	c2.4,3.6,6.4,5.6,10.8,5.6h82.8c4.4,0,8.4-2,10.8-5.6c8-12.8,12.4-28.4,12.4-45.6s-4.8-32.8-12.4-45.6
	C285.6,267.2,281.6,265.2,277.2,265.2z"/>
<g>
	<rect x="252.8" y="288.4" style="fill:#324A5E;" width="10" height="22"/>
	<rect x="209.2" y="288.4" style="fill:#324A5E;" width="10" height="22"/>
	<path style="fill:#324A5E;" d="M247.2,344.4v-9.2c0-6-5.2-11.2-11.2-11.2l0,0c-6,0-11.2,5.2-11.2,11.2v9.2H247.2z"/>
	<path style="fill:#324A5E;" d="M360,185.2v-46c0-3.2-2.4-5.6-5.6-5.6l0,0c-3.2,0-5.6,2.4-5.6,5.6v46H360z"/>
	<path style="fill:#324A5E;" d="M402,185.2v-46c0-3.2-2.4-5.6-5.6-5.6l0,0c-3.2,0-5.6,2.4-5.6,5.6v46H402z"/>
</g>
<g>
	<path style="fill:#FFFFFF;" d="M360,150v-10.8c0-3.2-2.4-5.6-5.6-5.6l0,0c-3.2,0-5.6,2.4-5.6,5.6V150H360z"/>
	<path style="fill:#FFFFFF;" d="M402,150v-10.8c0-3.2-2.4-5.6-5.6-5.6l0,0c-3.2,0-5.6,2.4-5.6,5.6V150H402z"/>
</g>
<path style="fill:#324A5E;" d="M392.4,249.2h-34c-9.2,0-16.4-7.6-16.4-16.4v-45.2h67.2v45.2C409.2,242,401.6,249.2,392.4,249.2z"/>
<path style="fill:#FFFFFF;" d="M411.6,192.4h-72.4c-2.4,0-4.8-2-4.8-4.8v-6.4c0-2.4,2-4.8,4.8-4.8h72.4c2.4,0,4.8,2,4.8,4.8v6.4
	C416.4,190,414.4,192.4,411.6,192.4z"/>
<circle style="fill:#2B3B4E;" cx="375.6" cy="209.2" r="7.2"/>
<g>
	<rect x="356" y="222" style="fill:#ACB3BA;" width="39.2" height="5.2"/>
	<rect x="356" y="232.8" style="fill:#ACB3BA;" width="39.2" height="5.2"/>
</g>
<g>
</g>
<g>
</g>
<g>
</g>
<g>
</g>
<g>
</g>
<g>
</g>
<g>
</g>
<g>
</g>
<g>
</g>
<g>
</g>
<g>
</g>
<g>
</g>
<g>
</g>
<g>
</g>
<g>
</g>
</svg>
