<?xml version="1.0" encoding="iso-8859-1"?>
<!-- Generator: Adobe Illustrator 19.0.0, SVG Export Plug-In . SVG Version: 6.00 Build 0)  -->
<svg version="1.1" id="Layer_1" xmlns="http://www.w3.org/2000/svg" xmlns:xlink="http://www.w3.org/1999/xlink" x="0px" y="0px"
	 viewBox="0 0 508 508" style="enable-background:new 0 0 508 508;" xml:space="preserve">
<circle style="fill:#324A5E;" cx="254" cy="254" r="254"/>
<g>
	<path style="fill:#4CDBC4;" d="M406.4,216.4c0,0-7.6,105.2-129.2,102.8C277.2,319.2,283.6,200.4,406.4,216.4z"/>
	<path style="fill:#4CDBC4;" d="M101.6,216.4c0,0,7.6,105.2,129.2,102.8C230.8,319.2,224.4,200.4,101.6,216.4z"/>
	<path style="fill:#4CDBC4;" d="M254,67.2L254,67.2L254,67.2c-55.2,55.2-55.2,144,0,199.2l0,0C309.2,211.2,309.2,122,254,67.2z"/>
</g>
<path style="fill:#2C9984;" d="M185.2,268c3.2,3.2,6.4,6.4,10,9.6c3.2,3.6,6.4,6.8,9.2,10.8c6.4,7.2,11.6,15.2,16.8,23.6
	c1.2,2,2.4,4,3.6,6.4c1.2,2,2.4,4,3.6,6.4c2,4.4,4.4,8.4,6,13.2c0.8,2,1.6,4.4,2.8,6.4c0.8,2,1.6,4.4,2,6.8c0.8,2.4,1.6,4.4,2,6.4
	c0.4,2.4,1.2,4.4,1.6,6.8c0.4,2,1.2,4.4,1.6,6.4c0.4,2,0.8,4.4,1.2,6.4s0.8,4.4,1.2,6.4s0.4,4,0.8,6.4c0.8,6,0.8,11.6,1.2,16.8h11.6
	c0-5.2,0.4-11.2,1.2-16.8c0.4-2,0.4-4,0.8-6.4c0.4-2,0.8-4,1.2-6.4c0.4-2,0.8-4.4,1.2-6.4c0.4-2,1.2-4.4,1.6-6.4s1.2-4.4,1.6-6.8
	c0.8-2,1.2-4.4,2-6.4s1.2-4.4,2-6.8c0.8-2,1.6-4.4,2.8-6.4c1.6-4.4,4-8.8,6-13.2c0.8-2.4,2.4-4.4,3.6-6.4s2.4-4.4,3.6-6.4
	c5.2-8,10.4-16,16.8-23.6c2.8-3.6,6.4-7.2,9.2-10.8c3.2-3.2,6.4-6.8,10-9.6c6.8-6.4,13.6-12,20.4-16.8s13.2-9.6,19.6-13.2
	c12.4-7.6,23.6-13.2,31.2-16.4c8-3.6,12.4-5.2,12.4-5.2s-4.8,1.2-12.8,4.4s-19.2,8-32.4,15.2c-6.4,3.6-13.2,8-20.4,12.4
	c-6.8,4.8-14,10-21.2,16.4c-3.6,2.8-6.8,6.4-10.4,9.6c-3.2,3.6-6.8,6.8-10,10.4c-6.8,7.2-12.8,15.2-18.4,23.6c-1.2,2-2.8,4.4-4,6.4
	s-2.8,4.4-4,6.4c-2.4,4.4-4.8,8.8-6.8,13.2c-1.2,2.4-2,4.4-3.2,6.8c-0.8,2.4-1.6,4.4-2.4,6.8c-0.8,2-1.6,4-2,5.6L254,67.2L249.2,354
	c-0.8-2-1.6-4-2-5.6c-0.8-2.4-1.6-4.4-2.4-6.8c-1.2-2.4-2-4.4-3.2-6.8c-2-4.4-4.4-8.8-6.8-13.2c-1.2-2.4-2.4-4.4-4-6.4
	c-1.2-2-2.4-4.4-4-6.4c-5.6-8.4-11.6-16.4-18.4-23.6c-3.2-3.6-6.8-7.2-10-10.4c-3.6-3.2-6.8-6.4-10.4-9.6
	c-7.2-6-14.4-11.6-21.2-16.4c-7.2-4.8-14-8.8-20.4-12.4c-12.8-7.2-24.4-12-32.4-15.2s-12.8-4.4-12.8-4.4s4.8,1.6,12.4,5.2
	c8,3.6,18.8,8.8,31.2,16.4c6.4,3.6,12.8,8.4,19.6,13.2C172,256.4,178.8,262,185.2,268z"/>
<path style="fill:#FFD05B;" d="M356.8,440.8L300.4,404c-25.2-16.4-65.6-16.4-90.8,0l-56.4,36.8H356.8z"/>
<g>
</g>
<g>
</g>
<g>
</g>
<g>
</g>
<g>
</g>
<g>
</g>
<g>
</g>
<g>
</g>
<g>
</g>
<g>
</g>
<g>
</g>
<g>
</g>
<g>
</g>
<g>
</g>
<g>
</g>
</svg>
