<?xml version="1.0" encoding="iso-8859-1"?>
<!-- Generator: Adobe Illustrator 19.0.0, SVG Export Plug-In . SVG Version: 6.00 Build 0)  -->
<svg version="1.1" id="Layer_1" xmlns="http://www.w3.org/2000/svg" xmlns:xlink="http://www.w3.org/1999/xlink" x="0px" y="0px"
	 viewBox="0 0 508 508" style="enable-background:new 0 0 508 508;" xml:space="preserve">
<circle style="fill:#324A5E;" cx="254" cy="254" r="254"/>
<g>
	<polygon style="fill:#FFD05B;" points="273.2,168.4 254,95.6 234.8,168.4 	"/>
	<polygon style="fill:#FFD05B;" points="234.8,340 254,412.8 273.2,340 	"/>
	<polygon style="fill:#FFD05B;" points="339.6,273.6 412.4,254 339.6,234.8 	"/>
	<polygon style="fill:#FFD05B;" points="168.4,234.8 95.6,254 168.4,273.6 	"/>
	<polygon style="fill:#FFD05B;" points="328.4,207.2 366,142 300.8,180 	"/>
	<polygon style="fill:#FFD05B;" points="179.6,301.2 142,366.4 207.2,328.4 	"/>
	<polygon style="fill:#FFD05B;" points="300.8,328.4 366,366.4 328.4,301.2 	"/>
	<polygon style="fill:#FFD05B;" points="207.2,180 142,142 179.6,207.2 	"/>
	<polygon style="fill:#FFD05B;" points="340.4,240.4 430.4,182.4 326,204.8 	"/>
	<polygon style="fill:#FFD05B;" points="167.6,270.4 77.6,328.8 182,306 	"/>
	<polygon style="fill:#FFD05B;" points="268.8,342 327.2,432 304.8,327.2 	"/>
	<polygon style="fill:#FFD05B;" points="239.2,168.8 180.8,79.2 203.2,183.6 	"/>
	<polygon style="fill:#FFD05B;" points="326,306 442.8,333.6 340.4,270.4 	"/>
	<polygon style="fill:#FFD05B;" points="182,204.8 65.2,177.2 167.6,240.4 	"/>
	<polygon style="fill:#FFD05B;" points="203.2,327.2 175.6,444.4 239.2,342 	"/>
	<polygon style="fill:#FFD05B;" points="304.8,183.6 332.4,66.8 268.8,168.8 	"/>
</g>
<circle style="fill:#F9B54C;" cx="254" cy="255.6" r="104.8"/>
<ellipse transform="matrix(0.7071 -0.7071 0.7071 0.7071 -84.8418 204.4973)" style="fill:#FFFFFF;" cx="204.429" cy="204.662" rx="17.2" ry="9.6"/>
<g>
</g>
<g>
</g>
<g>
</g>
<g>
</g>
<g>
</g>
<g>
</g>
<g>
</g>
<g>
</g>
<g>
</g>
<g>
</g>
<g>
</g>
<g>
</g>
<g>
</g>
<g>
</g>
<g>
</g>
</svg>
