<?xml version="1.0" encoding="iso-8859-1"?>
<!-- Generator: Adobe Illustrator 19.0.0, SVG Export Plug-In . SVG Version: 6.00 Build 0)  -->
<svg version="1.1" id="Layer_1" xmlns="http://www.w3.org/2000/svg" xmlns:xlink="http://www.w3.org/1999/xlink" x="0px" y="0px"
	 viewBox="0 0 508 508" style="enable-background:new 0 0 508 508;" xml:space="preserve">
<circle style="fill:#FFD05B;" cx="254" cy="254" r="254"/>
<path style="fill:#324A5E;" d="M343.2,434.8H164.8c-16.8,0-30.4-13.6-30.4-30.4V103.6c0-16.8,13.6-30.4,30.4-30.4h178.4
	c16.8,0,30.4,13.6,30.4,30.4v300.8C373.6,421.2,360,434.8,343.2,434.8z"/>
<g>
	<circle style="fill:#FFFFFF;" cx="254" cy="400.8" r="17.6"/>
	<rect x="145.6" y="118.4" style="fill:#FFFFFF;" width="217.2" height="254"/>
</g>
<path style="fill:#2B3B4E;" d="M275.6,103.2h-43.2c-3.2,0-6-2.8-6-6l0,0c0-3.2,2.8-6,6-6h43.2c3.2,0,6,2.8,6,6l0,0
	C282,100.4,279.2,103.2,275.6,103.2z"/>
<polygon style="fill:#FF7058;" points="295.2,239.6 262,239.6 272,177.6 212.8,250.8 246,250.8 236,312.8 "/>
<g>
</g>
<g>
</g>
<g>
</g>
<g>
</g>
<g>
</g>
<g>
</g>
<g>
</g>
<g>
</g>
<g>
</g>
<g>
</g>
<g>
</g>
<g>
</g>
<g>
</g>
<g>
</g>
<g>
</g>
</svg>
