<?xml version="1.0" encoding="iso-8859-1"?>
<!-- Generator: Adobe Illustrator 19.0.0, SVG Export Plug-In . SVG Version: 6.00 Build 0)  -->
<svg version="1.1" id="Layer_1" xmlns="http://www.w3.org/2000/svg" xmlns:xlink="http://www.w3.org/1999/xlink" x="0px" y="0px"
	 viewBox="0 0 508 508" style="enable-background:new 0 0 508 508;" xml:space="preserve">
<circle style="fill:#FF7058;" cx="254" cy="254" r="254"/>
<path style="fill:#324A5E;" d="M218,146l9.2-26h53.6l9.2,26h16.8L294,109.2c-1.2-3.2-4-5.2-7.6-5.2h-64.8c-3.2,0-6.4,2-7.6,5.2
	L201.2,146H218z"/>
<path style="fill:#E6E9EE;" d="M316.8,435.2H191.2c-14.8,0-26.8-11.2-28.4-25.6L140.4,174h227.2l-22.4,235.2
	C343.6,424,331.6,435.2,316.8,435.2z"/>
<path style="fill:#FFFFFF;" d="M369.6,174H138.4c-9.6,0-17.6-8-17.6-17.6l0,0c0-9.6,8-17.6,17.6-17.6h231.2c9.6,0,17.6,8,17.6,17.6
	l0,0C387.2,166.4,379.2,174,369.6,174z"/>
<g>
	<path style="fill:#324A5E;" d="M226,256.4l16.8,7.6c1.6,0.8,3.6,0,4.4-1.6l6.8-12.8l15.2,28l0.8,1.6l-7.2,4c-2.8,1.6-2,5.6,0.8,6.4
		l27.2,7.2c2,0.4,4-0.8,4.4-2.4l7.2-27.2c0.8-3.2-2.4-5.6-5.2-4l-5.2,3.2l-23.2-43.2l0,0l0,0l0,0l0,0h-26.4c-1.2,0-2.4,0.8-3.2,2
		l-14.4,26.4C223.2,253.2,224,255.6,226,256.4z"/>
	<path style="fill:#324A5E;" d="M309.2,299.2c-0.8-1.6-3.2-2.4-4.8-1.2l-15.6,9.2c-1.6,0.8-2.4,3.2-1.2,4.8l6,11.2H268V316
		c0-3.2-3.6-4.8-6-2.4l-20,19.6c-1.2,1.2-1.2,3.6,0,4.8l20,20c2.4,2.4,6,0.8,6-2.4v-7.2h37.2c1.2,0,2.4-0.8,3.2-1.6l14-23.2
		L309.2,299.2z"/>
	<path style="fill:#324A5E;" d="M240.8,297.2l-9.6-26.4c-0.8-2-2.8-2.8-4.4-2l-26.4,9.6c-2.8,1.2-3.2,5.2-0.4,6.4l4.8,2l-18.4,34
		c-0.4,1.2-0.4,2.4,0,3.6l14,23.2H230c2,0,3.6-1.6,3.6-3.6v-18c0-2-1.6-3.6-3.6-3.6h-16l13.6-25.6l8.4,4
		C239.2,302.8,242,300,240.8,297.2z"/>
</g>
<g>
</g>
<g>
</g>
<g>
</g>
<g>
</g>
<g>
</g>
<g>
</g>
<g>
</g>
<g>
</g>
<g>
</g>
<g>
</g>
<g>
</g>
<g>
</g>
<g>
</g>
<g>
</g>
<g>
</g>
</svg>
