<?xml version="1.0" encoding="iso-8859-1"?>
<!-- Generator: Adobe Illustrator 19.0.0, SVG Export Plug-In . SVG Version: 6.00 Build 0)  -->
<svg version="1.1" id="Layer_1" xmlns="http://www.w3.org/2000/svg" xmlns:xlink="http://www.w3.org/1999/xlink" x="0px" y="0px"
	 viewBox="0 0 508 508" style="enable-background:new 0 0 508 508;" xml:space="preserve">
<circle style="fill:#90DFAA;" cx="254" cy="254" r="254"/>
<path style="fill:#324A5E;" d="M395.2,303.6c0,3.6-1.2,7.2-4,10l-22.8,22.8L332,372.8l0,0c-0.8,0.8-1.6,1.2-2.4,1.6
	c-2.4,1.6-5.2,2.4-7.6,2.4H198.8L146,429.2l-51.6-51.6l62-62c11.6-11.6,27.6-18.4,44-18.4h96c7.6,0,14,6.4,14,14c0,4-1.6,7.6-4,10
	s-6,4-10,4h-24.8h-46c-4,0-7.2,3.2-7.2,7.2c0,2,0.8,3.6,2,4.8c1.2,1.2,3.2,2,4.8,2h99.6l3.6-3.6l42.8-42.8c5.6-5.6,14.4-5.6,20,0
	C394,296.4,395.2,300,395.2,303.6z"/>
<path style="fill:#FFFFFF;" d="M332.8,180.4c0,43.6-35.2,78.8-78.8,78.8s-78.8-35.2-78.8-78.8c0-43.6,78.8-125.2,78.8-125.2
	S332.8,136.8,332.8,180.4z"/>
<g>
</g>
<g>
</g>
<g>
</g>
<g>
</g>
<g>
</g>
<g>
</g>
<g>
</g>
<g>
</g>
<g>
</g>
<g>
</g>
<g>
</g>
<g>
</g>
<g>
</g>
<g>
</g>
<g>
</g>
</svg>
